<?xml version="1.0" encoding="utf-8"?>
<!-- Generator: Adobe Illustrator 26.2.1, SVG Export Plug-In . SVG Version: 6.00 Build 0)  -->
<svg version="1.1" id="Layer_1" xmlns:xodm="http://www.corel.com/coreldraw/odm/2003"
	 xmlns="http://www.w3.org/2000/svg" xmlns:xlink="http://www.w3.org/1999/xlink" x="0px" y="0px" viewBox="0 0 501.6 116.6"
	 style="enable-background:new 0 0 501.6 116.6;" xml:space="preserve">
<style type="text/css">
	.st0{fill:#343C51;}
	.st1{fill:#2E70E8;}
	.st2{fill:#3B2E85;}
	.st3{fill:#3B70E8;}
	.st4{fill:#60E4FF;}
</style>
<g>
	<path class="st0" d="M148.6,50.1l9.3-15.2c-1.7-0.6-3.1-1.5-4.3-2.6s-2.2-2.5-2.9-4.1c-0.7-1.6-1-3.4-1-5.5V15h7.2v8.2
		c0,1,0.2,2,0.7,2.9c0.5,0.9,1,1.6,1.9,2.1s1.8,0.9,2.8,1l8.5-14.3h8.2l-9.3,14.8c1.9,0.5,3.6,1.3,5,2.4c1.4,1.1,2.5,2.5,3.3,4.3
		c0.8,1.7,1.1,3.6,1.1,5.7V50h-7.2v-8.2c0-1.8-0.6-3.1-1.7-4.4c-1.1-1.2-2.7-1.8-4.9-1.8L156.6,50L148.6,50.1L148.6,50.1z"/>
	<path class="st0" d="M184.8,50.1v-6.3H200c0.8,0,1.4-0.2,2.1-0.6c0.6-0.4,1.1-0.8,1.5-1.5c0.4-0.6,0.6-1.3,0.6-2
		c0-0.7-0.2-1.5-0.6-2c-0.4-0.6-0.8-1.1-1.5-1.5c-0.6-0.4-1.3-0.6-2.1-0.6h-5.9c-2,0-3.9-0.4-5.4-1.2c-1.6-0.8-2.9-1.9-3.9-3.5
		c-0.9-1.5-1.4-3.3-1.4-5.5c0-2.1,0.5-3.9,1.4-5.5c0.9-1.6,2.2-2.8,3.7-3.6c1.6-0.8,3.3-1.3,5.2-1.3H209v6.3h-14.7
		c-0.7,0-1.3,0.2-1.9,0.6c-0.6,0.4-1,0.8-1.3,1.4s-0.5,1.2-0.5,1.9c0,0.7,0.2,1.3,0.5,1.9c0.3,0.6,0.8,1,1.3,1.4
		c0.6,0.4,1.2,0.5,1.9,0.5h6.1c2.2,0,4.1,0.5,5.7,1.2c1.6,0.8,2.9,2,3.8,3.5c0.9,1.5,1.3,3.2,1.3,5.3c0,2.4-0.5,4.4-1.4,6
		c-0.9,1.7-2.2,3-3.8,3.8c-1.6,0.8-3.3,1.3-5.2,1.3L184.8,50.1L184.8,50.1z"/>
	<path class="st0" d="M215.7,50.1v-6.3h6.4V21.4h-6.4v-6.3h20v6.3h-6.4v22.4h6.4v6.3H215.7z"/>
</g>
<g>
	<path class="st1" d="M157.5,97.8c-1.7,0-3.1-0.4-4.5-0.8c-1.3-0.6-2.4-1.3-3.4-2.2c-0.9-0.9-1.7-2-2.2-3.3c-0.5-1.3-0.8-2.6-0.8-4
		c0-1.4,0.3-2.8,0.8-4c0.5-1.3,1.2-2.3,2.2-3.3c0.9-1,2.1-1.7,3.4-2.2c1.3-0.6,2.8-0.8,4.5-0.8h3.3v3.8h-3.2c-0.9,0-1.9,0.2-2.6,0.6
		c-0.8,0.4-1.5,0.8-2.1,1.4c-0.6,0.6-1,1.3-1.4,2.1c-0.3,0.8-0.5,1.7-0.5,2.6c0,0.9,0.2,1.9,0.5,2.6c0.3,0.8,0.8,1.5,1.4,2.1
		c0.7,0.6,1.3,1,2.1,1.4c0.8,0.4,1.7,0.6,2.6,0.6h3.2V98h-3.3V97.8z"/>
	<path class="st1" d="M163.8,97.8V87c0-1.4,0.4-2.4,1.1-3.1s1.9-1.1,3.2-1.1h4.2v3.5h-3.6c-0.3,0-0.5,0.1-0.7,0.3
		c-0.2,0.2-0.3,0.4-0.3,0.6v10.7L163.8,97.8L163.8,97.8z"/>
	<path class="st1" d="M182.1,98.2c-1.6,0-3-0.4-4.2-1c-1.2-0.7-2.3-1.7-3-2.9c-0.8-1.2-1.1-2.6-1.1-4.1c0-1.5,0.4-2.9,1.1-4.1
		c0.8-1.2,1.7-2.1,3-2.9c1.2-0.7,2.6-1,4.2-1c1.6,0,3,0.4,4.2,1c1.2,0.7,2.3,1.7,3,2.9c0.8,1.2,1.1,2.6,1.1,4.1
		c0,1.5-0.4,2.9-1.1,4.1c-0.8,1.2-1.7,2.1-3,2.9C185.1,97.9,183.7,98.2,182.1,98.2z M182.1,94.8c0.8,0,1.6-0.2,2.2-0.6
		c0.7-0.4,1.1-0.9,1.4-1.6c0.4-0.6,0.5-1.4,0.5-2.2c0-0.8-0.2-1.6-0.5-2.2c-0.4-0.6-0.8-1.2-1.4-1.6c-0.7-0.4-1.3-0.6-2.2-0.6
		c-0.8,0-1.6,0.2-2.2,0.6c-0.7,0.4-1.1,0.9-1.4,1.6c-0.3,0.6-0.5,1.4-0.5,2.2c0,0.8,0.2,1.6,0.5,2.2c0.4,0.6,0.8,1.2,1.4,1.6
		C180.5,94.6,181.3,94.8,182.1,94.8z"/>
	<path class="st1" d="M193.5,97.8v-3.4h7.5c0.3,0,0.5-0.1,0.7-0.2c0.2-0.1,0.4-0.3,0.5-0.5c0.1-0.2,0.2-0.4,0.2-0.6
		c0-0.3-0.1-0.5-0.2-0.6c-0.1-0.2-0.3-0.3-0.5-0.5c-0.2-0.1-0.4-0.2-0.7-0.2h-2.9c-1,0-1.9-0.2-2.6-0.5c-0.8-0.3-1.4-0.8-1.9-1.5
		c-0.5-0.6-0.8-1.6-0.8-2.7c0-0.8,0.2-1.7,0.7-2.3c0.5-0.7,1-1.3,1.8-1.7c0.8-0.5,1.5-0.6,2.4-0.6h7.2v3.5h-6.9
		c-0.3,0-0.6,0.1-0.8,0.3c-0.2,0.2-0.4,0.5-0.4,0.7c0,0.3,0.1,0.6,0.4,0.8c0.2,0.2,0.5,0.3,0.8,0.3h2.9c1.1,0,2.1,0.2,2.9,0.5
		c0.8,0.4,1.4,0.8,1.9,1.6c0.5,0.7,0.7,1.6,0.7,2.8c0,0.8-0.2,1.7-0.7,2.4c-0.5,0.7-1,1.3-1.8,1.8c-0.8,0.5-1.6,0.6-2.5,0.6
		L193.5,97.8L193.5,97.8z"/>
	<path class="st1" d="M209.7,97.8v-3.4h7.5c0.3,0,0.5-0.1,0.7-0.2c0.2-0.1,0.4-0.3,0.5-0.5c0.1-0.2,0.2-0.4,0.2-0.6
		c0-0.3-0.1-0.5-0.2-0.6c-0.1-0.2-0.3-0.3-0.5-0.5c-0.2-0.1-0.4-0.2-0.7-0.2h-2.8c-1,0-1.9-0.2-2.6-0.5c-0.8-0.3-1.4-0.8-1.9-1.5
		c-0.5-0.6-0.8-1.6-0.8-2.7c0-0.8,0.2-1.7,0.7-2.3c0.5-0.7,1-1.3,1.8-1.7c0.8-0.5,1.5-0.6,2.4-0.6h7.2v3.5h-6.9
		c-0.3,0-0.6,0.1-0.8,0.3c-0.2,0.2-0.4,0.5-0.4,0.7c0,0.3,0.1,0.6,0.4,0.8c0.2,0.2,0.5,0.3,0.8,0.3h2.9c1.1,0,2.1,0.2,2.9,0.5
		c0.8,0.4,1.4,0.8,1.9,1.6c0.5,0.7,0.7,1.6,0.7,2.8c0,0.8-0.2,1.7-0.7,2.4c-0.5,0.7-1,1.3-1.8,1.8c-0.8,0.5-1.6,0.6-2.5,0.6
		L209.7,97.8L209.7,97.8z"/>
	<path class="st0" d="M234.1,97.8v-1.9h9.2c0.8,0,1.5-0.2,2.2-0.6c0.6-0.4,1-0.8,1.3-1.5c0.3-0.6,0.5-1.2,0.5-1.9
		c0-0.6-0.2-1.3-0.5-1.9c-0.3-0.6-0.8-1-1.3-1.4c-0.6-0.4-1.2-0.6-2.1-0.6h-4.2c-1.2,0-2.3-0.3-3.1-0.7c-0.8-0.5-1.6-1.1-2.1-1.9
		c-0.5-0.8-0.8-1.8-0.8-2.8c0-1,0.3-1.9,0.8-2.9c0.5-0.8,1.1-1.6,2.1-2.1c0.8-0.6,1.9-0.8,3.1-0.8h8.8v1.9h-8.7
		c-0.8,0-1.5,0.2-2.1,0.6c-0.6,0.4-1,0.8-1.3,1.4s-0.5,1.1-0.5,1.8s0.2,1.2,0.5,1.8s0.8,1,1.3,1.4c0.6,0.4,1.2,0.6,2.1,0.6h4.2
		c1.3,0,2.3,0.3,3.2,0.7s1.5,1.2,2,2c0.5,0.8,0.7,1.8,0.7,2.8c0,1.1-0.3,2.1-0.8,3.1c-0.5,0.9-1.1,1.7-2.1,2.2
		c-0.8,0.6-2,0.8-3.2,0.8L234.1,97.8L234.1,97.8z"/>
	<path class="st0" d="M254.8,103.9v-1.9h7.3c1,0,1.8-0.3,2.3-0.8s0.8-1.3,0.8-2.2v-3.5l0,0c-0.6,0.8-1.4,1.5-2.3,1.9
		c-0.9,0.5-2,0.6-2.9,0.6c-1.2,0-2.3-0.3-3.4-0.8c-1-0.6-1.8-1.3-2.4-2.3c-0.6-1-0.8-2.2-0.8-3.6v-8.7h2.2v8.6
		c0,1.1,0.3,1.9,0.8,2.7c0.5,0.7,1.1,1.3,1.8,1.7c0.8,0.4,1.5,0.6,2.3,0.6s1.7-0.2,2.4-0.6c0.8-0.4,1.3-0.9,1.8-1.7
		c0.5-0.7,0.8-1.7,0.8-2.7v-8.7h2.2v16.6c0,1.4-0.4,2.6-1.2,3.4c-0.8,0.8-2,1.3-3.5,1.3L254.8,103.9L254.8,103.9z"/>
	<path class="st0" d="M271.7,97.8V96h7.2c0.7,0,1.1-0.1,1.6-0.4c0.5-0.3,0.8-0.6,0.9-1s0.4-0.8,0.4-1.3c0-0.5-0.1-0.8-0.3-1.2
		c-0.2-0.4-0.5-0.6-0.8-0.9c-0.4-0.3-0.8-0.4-1.4-0.4h-3.2c-1,0-1.9-0.2-2.5-0.5c-0.8-0.4-1.2-0.8-1.6-1.4c-0.4-0.6-0.6-1.3-0.6-2.1
		c0-0.7,0.2-1.4,0.6-2c0.4-0.6,0.8-1.1,1.5-1.6c0.7-0.4,1.4-0.6,2.3-0.6h7v1.9H276c-0.8,0-1.4,0.3-1.9,0.7c-0.5,0.5-0.7,1-0.7,1.6
		s0.2,1.1,0.7,1.6c0.5,0.5,1.1,0.6,2,0.6h3c1.1,0,2,0.2,2.7,0.6c0.8,0.4,1.3,0.8,1.7,1.5s0.6,1.4,0.6,2.2c0,0.7-0.2,1.5-0.6,2.2
		c-0.4,0.7-0.9,1.3-1.7,1.7c-0.7,0.5-1.5,0.6-2.4,0.6L271.7,97.8L271.7,97.8z"/>
	<path class="st0" d="M285.5,84.5v-1.9H296v1.9H285.5z M292.5,97.8c-1.4,0-2.4-0.4-3.2-1.2c-0.8-0.8-1.1-1.9-1.1-3.1V78.7h2.2v14.4
		c0,0.8,0.2,1.6,0.7,2c0.5,0.5,1.1,0.7,2,0.7h3v1.9H292.5z"/>
	<path class="st0" d="M306.8,97.8c-1.7,0-3.1-0.3-4.4-0.9c-1.3-0.6-2.3-1.5-3.1-2.6c-0.8-1.1-1.1-2.5-1.1-4.1c0-1.5,0.3-2.8,0.9-4
		c0.6-1.2,1.4-2.1,2.5-2.9s2.3-1.1,3.9-1.1s2.8,0.4,3.9,1c1,0.6,1.9,1.6,2.3,2.7c0.6,1.1,0.8,2.4,0.8,3.8c0,0.2,0,0.5,0,0.6
		c0,0.3-0.1,0.5-0.1,0.6h-12c0.1,1.1,0.4,2,0.9,2.8c0.6,0.7,1.3,1.3,2.3,1.7c0.9,0.4,2,0.6,3,0.6h3.9v1.9L306.8,97.8L306.8,97.8z
		 M300.4,89.5h10c0-0.4,0-0.8-0.1-1.3c-0.1-0.5-0.2-0.9-0.5-1.5c-0.2-0.5-0.5-0.9-0.8-1.3c-0.4-0.4-0.8-0.7-1.4-0.9
		c-0.6-0.3-1.3-0.4-2.1-0.4s-1.5,0.2-2.1,0.5c-0.7,0.3-1.1,0.7-1.6,1.3c-0.5,0.6-0.8,1.1-0.9,1.8C300.6,88.2,300.4,88.8,300.4,89.5z
		"/>
	<path class="st0" d="M316.3,97.8v-9.2c0-1.2,0.3-2.2,0.8-3.2c0.6-0.9,1.3-1.8,2.3-2.3c1-0.6,2.2-0.8,3.6-0.8c0.8,0,1.4,0.1,2.2,0.3
		c0.8,0.2,1.4,0.6,2.1,1.1c0.7,0.5,1.1,1.2,1.5,2.1l0,0c0.4-0.9,0.8-1.6,1.5-2.1c0.7-0.5,1.3-0.8,2.1-1.1c0.8-0.2,1.5-0.3,2.2-0.3
		c1.4,0,2.5,0.3,3.6,0.8s1.8,1.4,2.3,2.3c0.6,0.9,0.8,2,0.8,3.2v9.2h-2.1v-9.2c0-0.9-0.2-1.7-0.6-2.3c-0.4-0.6-0.9-1.2-1.6-1.7
		c-0.7-0.5-1.4-0.6-2.3-0.6c-0.8,0-1.7,0.2-2.3,0.6c-0.8,0.4-1.2,0.9-1.7,1.7c-0.5,0.7-0.7,1.5-0.7,2.3v9.2h-2.2v-9.2
		c0-0.8-0.2-1.7-0.7-2.3c-0.5-0.7-0.9-1.2-1.7-1.7c-0.7-0.4-1.5-0.6-2.3-0.6s-1.6,0.2-2.3,0.6c-0.7,0.4-1.2,0.9-1.6,1.7
		c-0.4,0.7-0.6,1.5-0.6,2.3v9.2H316.3z"/>
	<path class="st0" d="M352.9,97.8v-1.9h4.2v-17h-4.2v-1.9h10.6v1.9h-4.2v17h4.2v1.9H352.9z"/>
	<path class="st0" d="M367.4,97.8v-8.9c0-1.4,0.3-2.6,0.9-3.6c0.7-1,1.5-1.8,2.5-2.3c1-0.6,2.3-0.8,3.6-0.8s2.5,0.3,3.6,0.8
		c1,0.6,1.9,1.3,2.5,2.3c0.7,1,0.9,2.2,0.9,3.6v8.9h-2.2V89c0-1-0.2-1.9-0.7-2.7c-0.5-0.7-1-1.3-1.8-1.8c-0.8-0.4-1.6-0.6-2.4-0.6
		s-1.6,0.2-2.3,0.6c-0.8,0.4-1.3,0.9-1.8,1.7c-0.5,0.7-0.7,1.7-0.7,2.7v8.8L367.4,97.8L367.4,97.8z"/>
	<path class="st0" d="M384.3,84.5v-1.9h10.5v1.9H384.3z M391.4,97.8c-1.4,0-2.4-0.4-3.2-1.2c-0.8-0.8-1.1-1.9-1.1-3.1V78.7h2.2v14.4
		c0,0.8,0.2,1.6,0.7,2c0.5,0.5,1.1,0.7,2,0.7h3v1.9H391.4z"/>
	<path class="st0" d="M405.7,97.8c-1.7,0-3.1-0.3-4.4-0.9c-1.3-0.6-2.3-1.5-3.1-2.6c-0.8-1.1-1.1-2.5-1.1-4.1c0-1.5,0.3-2.8,0.9-4
		c0.6-1.2,1.4-2.1,2.5-2.9s2.3-1.1,3.9-1.1s2.8,0.4,3.9,1c1,0.6,1.9,1.6,2.3,2.7c0.6,1.1,0.8,2.4,0.8,3.8c0,0.2,0,0.5,0,0.6
		c0,0.3-0.1,0.5-0.1,0.6h-12c0.1,1.1,0.4,2,0.9,2.8c0.6,0.7,1.3,1.3,2.3,1.7c0.9,0.4,2,0.6,3,0.6h3.9v1.9L405.7,97.8L405.7,97.8z
		 M399.3,89.5h10c0-0.4,0-0.8-0.1-1.3c-0.1-0.5-0.2-0.9-0.5-1.5c-0.2-0.5-0.5-0.9-0.8-1.3c-0.4-0.4-0.8-0.7-1.4-0.9
		c-0.6-0.3-1.3-0.4-2.1-0.4c-0.8,0-1.5,0.2-2.1,0.5c-0.7,0.3-1.1,0.7-1.6,1.3s-0.8,1.1-0.9,1.8C399.4,88.2,399.3,88.8,399.3,89.5z"
		/>
	<path class="st0" d="M417.6,103.9v-1.9h7.3c1,0,1.8-0.3,2.3-0.8c0.5-0.6,0.8-1.3,0.8-2.2v-4.4h-0.1c-0.4,0.6-0.8,1.1-1.4,1.7
		c-0.6,0.6-1.2,1-2,1.3c-0.8,0.4-1.7,0.5-2.6,0.5c-1.5,0-2.8-0.4-3.9-1s-2-1.7-2.6-2.8s-0.9-2.6-0.9-4.1s0.3-2.9,0.9-4
		c0.7-1.2,1.5-2.1,2.7-2.8c1.2-0.6,2.5-1,4.2-1c1.6,0,2.9,0.4,4.1,1c1.2,0.6,2.1,1.6,2.7,2.8c0.7,1.2,1,2.6,1,4.1v9
		c0,1.4-0.5,2.6-1.3,3.4c-0.8,0.8-2,1.3-3.5,1.3L417.6,103.9L417.6,103.9z M422.2,96.3c1.1,0,2.2-0.3,3-0.8c0.8-0.6,1.5-1.3,2.1-2.1
		c0.5-0.9,0.8-1.9,0.8-3.1s-0.3-2.2-0.8-3.1c-0.5-0.9-1.1-1.7-2-2.1c-0.8-0.6-1.9-0.8-3-0.8s-2.2,0.3-3,0.8s-1.5,1.3-2,2.2
		c-0.5,0.9-0.7,1.9-0.7,3.1c0,1.1,0.2,2.1,0.7,3.1c0.5,0.9,1.1,1.7,2,2.1C420,96.1,420.9,96.3,422.2,96.3z"/>
	<path class="st0" d="M434.6,97.8V87c0-1.4,0.4-2.4,1.1-3.1c0.8-0.7,1.9-1.1,3.2-1.1h2.6v1.9h-2.3c-0.8,0-1.6,0.3-2,0.7
		c-0.5,0.5-0.7,1.1-0.7,2V98h-2.1V97.8z"/>
	<path class="st0" d="M450.9,98.3c-1.6,0-2.9-0.4-3.9-1.1c-1.1-0.7-2-1.7-2.5-2.9s-0.8-2.6-0.8-4.1c0-1.5,0.3-2.9,0.9-4.1
		c0.7-1.2,1.6-2.1,2.7-2.9c1.2-0.7,2.6-1,4.3-1c1.6,0,3,0.4,4.1,1c1.1,0.7,2.1,1.7,2.7,2.8c0.7,1.1,0.9,2.5,0.9,4v7.8h-2.1v-3.4
		h-0.1c-0.3,0.6-0.8,1.2-1.3,1.8c-0.6,0.6-1.2,1.1-2.1,1.5C453,98.1,452,98.3,450.9,98.3z M451.4,96.4c1.1,0,2.2-0.3,3-0.8
		s1.6-1.3,2.1-2.2c0.5-0.9,0.8-2,0.8-3.2s-0.2-2.2-0.7-3.1c-0.5-0.9-1.1-1.7-2-2.1c-0.8-0.6-1.9-0.8-3-0.8c-1.2,0-2.3,0.3-3.1,0.8
		c-0.8,0.6-1.5,1.3-2,2.2c-0.5,0.9-0.7,2-0.7,3.2c0,1.1,0.2,2.1,0.7,3.1c0.5,0.9,1.1,1.7,2,2.2C449.1,96.1,450.2,96.4,451.4,96.4z"
		/>
	<path class="st0" d="M462.2,84.5v-1.9h10.5v1.9H462.2z M469.2,97.8c-1.4,0-2.4-0.4-3.2-1.2c-0.8-0.8-1.1-1.9-1.1-3.1V78.7h2.2v14.4
		c0,0.8,0.2,1.6,0.7,2s1.1,0.7,2,0.7h3v1.9H469.2z"/>
	<path class="st0" d="M482.9,98.3c-1.6,0-2.9-0.4-4.1-1c-1.2-0.7-2.2-1.7-2.8-2.9c-0.7-1.2-1-2.6-1-4.1c0-1.5,0.4-2.9,1-4.1
		c0.7-1.2,1.6-2.1,2.8-2.9c1.2-0.7,2.6-1,4.1-1c1.6,0,2.9,0.4,4.1,1c1.2,0.7,2.2,1.7,2.8,2.9c0.7,1.2,1,2.6,1,4.1
		c0,1.5-0.4,2.9-1,4.1c-0.7,1.2-1.6,2.1-2.8,2.9C485.8,97.9,484.5,98.3,482.9,98.3z M482.9,96.4c1.1,0,2.2-0.3,3-0.8
		s1.6-1.3,2.1-2.2c0.5-0.9,0.8-1.9,0.8-3.1s-0.3-2.2-0.8-3.1c-0.5-0.9-1.2-1.7-2.1-2.2s-1.9-0.8-3-0.8s-2.2,0.3-3.1,0.8
		c-0.8,0.6-1.6,1.3-2.1,2.2c-0.5,0.9-0.8,1.9-0.8,3.1s0.3,2.2,0.8,3.1c0.5,0.9,1.2,1.7,2.1,2.2C480.7,96.1,481.7,96.4,482.9,96.4z"
		/>
	<path class="st0" d="M494.7,97.8V87c0-1.4,0.4-2.4,1.1-3.1c0.8-0.7,1.9-1.1,3.2-1.1h2.6v1.9h-2.3c-0.8,0-1.6,0.3-2,0.7
		c-0.5,0.5-0.7,1.1-0.7,2V98h-2.1V97.8z"/>
</g>
<g>
	<polygon class="st2" points="45.4,58.2 59.3,44.4 73.2,58.2 59.3,71.9 	"/>
	<polygon class="st3" points="0,58.4 13.9,44.7 27.8,58.4 13.9,72.1 	"/>
	<polygon class="st4" points="91.1,58.3 105.1,44.5 119,58.3 105.1,72 	"/>
	<polygon class="st3" points="22.7,35.8 36.5,22.1 50.4,35.8 36.5,49.5 	"/>
	<polygon class="st3" points="22.7,80.8 36.6,67.1 50.5,80.8 36.7,94.5 	"/>
	<polygon class="st4" points="90.3,13.8 104.2,0.2 118.1,13.9 104.2,27.6 	"/>
	<polygon class="st4" points="67.7,36 81.7,22.2 95.6,36 81.7,49.7 	"/>
	<polygon class="st4" points="68.4,80.8 82.3,67 96.2,80.8 82.3,94.5 	"/>
	<polygon class="st4" points="90.8,102.9 104.7,89.1 118.6,102.9 104.7,116.6 	"/>
	<polygon class="st4" points="0.2,13.7 14.1,0 28,13.7 14.1,27.4 	"/>
	<polygon class="st4" points="0,102.9 13.9,89.2 27.8,102.8 13.9,116.6 	"/>
</g>
<g>
	<path class="st0" d="M246.5,15.2h4.2v1h-1.5v4.1H248v-4.1h-1.5V15.2z M257.3,15.2v5h-1v-2.9l0.1-0.7l-1.5,2.8
		c0,0.1-0.1,0.1-0.2,0.2c-0.1,0-0.1,0.1-0.2,0.1h-0.2c-0.2,0-0.3-0.1-0.4-0.3l-1.5-2.8l0.1,0.7v2.9h-1v-5h1c0.1,0,0.2,0,0.2,0
		c0,0,0.1,0.1,0.2,0.1l1.4,2.5c0.1,0.1,0.1,0.3,0.2,0.5c0-0.1,0.1-0.2,0.1-0.3c0-0.1,0.1-0.2,0.1-0.2l1.4-2.5
		c0.1-0.1,0.1-0.1,0.2-0.1c0,0,0.1,0,0.2,0H257.3z"/>
</g>
</svg>
