<?xml version="1.0" encoding="utf-8"?>
<!-- Generator: Adobe Illustrator 26.2.1, SVG Export Plug-In . SVG Version: 6.00 Build 0)  -->
<svg version="1.1" id="Layer_1" xmlns:xodm="http://www.corel.com/coreldraw/odm/2003"
	 xmlns="http://www.w3.org/2000/svg" xmlns:xlink="http://www.w3.org/1999/xlink" x="0px" y="0px" viewBox="0 0 122.3 122.3"
	 style="enable-background:new 0 0 122.3 122.3;" xml:space="preserve">
<style type="text/css">
	.st0{fill:none;}
	.st1{fill:#3B2E85;}
	.st2{fill:#FFFFFF;}
	.st3{fill:#60E4FF;}
</style>
<g>
	<rect class="st0" width="122.7" height="122.7"/>
	<g>
		
			<rect x="51.6" y="51.7" transform="matrix(0.7071 -0.7071 0.7071 0.7071 -25.3751 61.2067)" class="st1" width="19.1" height="19.1"/>
		
			<rect x="7.5" y="51.9" transform="matrix(0.7071 -0.7071 0.7071 0.7071 -38.4603 30.05)" class="st2" width="19.1" height="19.1"/>
		
			<rect x="96.1" y="51.8" transform="matrix(0.7071 -0.7071 0.7071 0.7071 -12.4195 92.6898)" class="st3" width="19.1" height="19.1"/>
		
			<rect x="29.5" y="29.6" transform="matrix(0.7071 -0.7071 0.7071 0.7071 -16.2499 39.0947)" class="st2" width="19.1" height="19.1"/>
		
			<rect x="29.6" y="73.9" transform="matrix(0.7071 -0.7071 0.7071 0.7071 -47.5867 52.1541)" class="st2" width="19.1" height="19.1"/>
		<rect x="95.3" y="8" transform="matrix(0.7071 -0.7071 0.7071 0.7071 18.306 79.2782)" class="st3" width="19.1" height="19.1"/>
		
			<rect x="73.4" y="29.8" transform="matrix(0.7071 -0.7071 0.7071 0.7071 -3.519 70.1551)" class="st3" width="19.1" height="19.1"/>
		
			<rect x="74" y="73.9" transform="matrix(0.7071 -0.7071 0.7071 0.7071 -34.5743 83.5248)" class="st3" width="19.1" height="19.1"/>
		
			<rect x="95.7" y="95.7" transform="matrix(0.7071 -0.7071 0.7071 0.7071 -43.6009 105.3092)" class="st3" width="19.1" height="19.1"/>
		
			<rect x="7.7" y="7.8" transform="matrix(0.7071 -0.7071 0.7071 0.7071 -7.2212 17.3067)" class="st3" width="19.1" height="19.1"/>
		
			<rect x="7.5" y="95.8" transform="matrix(0.7071 -0.7071 0.7071 0.7071 -69.4576 42.9112)" class="st3" width="19.1" height="19.1"/>
	</g>
</g>
</svg>
