<?xml version="1.0" encoding="utf-8"?>
<!-- Generator: Adobe Illustrator 26.2.1, SVG Export Plug-In . SVG Version: 6.00 Build 0)  -->
<svg version="1.1" id="Layer_1" xmlns="http://www.w3.org/2000/svg" xmlns:xlink="http://www.w3.org/1999/xlink" x="0px" y="0px"
	 viewBox="0 0 24 24" style="enable-background:new 0 0 24 24;" xml:space="preserve">
<style type="text/css">
	.st0{fill:none;}
	.st1{fill:#5A6E7F;}
	.st2{fill:#97D5C9;}
	.st3{fill:#5CBFAB;}
	.st4{fill:#545A6D;}
</style>
<path class="st0" d="M7.1,7c-1.7,0.1-2.9,1.6-2.7,3.3C4.5,11.9,6,13.1,7.6,13c1.7-0.1,2.9-1.6,2.7-3.3C10.2,8.1,8.8,6.8,7.1,7z"/>
<path class="st0" d="M17.3,13.9c-0.9,0.6-1.3,1.8-0.7,2.8c0.6,1,1.9,1.4,2.9,0.8c1-0.6,1.3-1.9,0.7-2.8
	C19.6,13.7,18.3,13.3,17.3,13.9z"/>
<g>
	<path class="st4" d="M12.6,13.1c0.1-0.2,0.2-0.5,0.4-0.7l1.3-0.1c0.2-0.5,0.3-1.1,0.4-1.7L13.5,10c0-0.2,0-0.4,0-0.6
		c0-0.1,0-0.1,0-0.2l1.1-0.7C14.4,8,14.2,7.4,14,6.9L12.7,7c-0.1-0.2-0.3-0.4-0.4-0.7l0.6-1.2C12.5,4.7,12,4.3,11.6,4l-1.1,0.7
		C10.2,4.6,10,4.5,9.8,4.4L9.7,3.1C9.2,2.9,8.6,2.8,8,2.7L7.4,3.9c-0.2,0-0.4,0-0.6,0c-0.1,0-0.1,0-0.2,0L6,2.8
		C5.4,3,4.8,3.1,4.3,3.4l0.1,1.3C4.2,4.8,3.9,5,3.7,5.1L2.6,4.5C2.1,4.9,1.7,5.3,1.4,5.8l0.7,1.1C2,7.1,1.9,7.4,1.8,7.6L0.5,7.6
		C0.3,8.2,0.2,8.8,0.1,9.4l1.2,0.6c0,0.2,0,0.4,0,0.6c0,0.1,0,0.1,0,0.2l-1.1,0.7c0.1,0.6,0.3,1.1,0.5,1.7L2.1,13
		c0.1,0.2,0.3,0.4,0.4,0.7l-0.6,1.2c0.4,0.4,0.8,0.8,1.3,1.2l1.1-0.7c0.2,0.1,0.5,0.3,0.7,0.4L5,16.9c0.5,0.2,1.1,0.3,1.7,0.4
		l0.6-1.2c0.2,0,0.4,0,0.6,0C8,16,8,16,8.1,16l0.7,1.1c0.6-0.1,1.1-0.3,1.7-0.5l-0.1-1.3c0.2-0.1,0.4-0.3,0.7-0.4l1.2,0.6
		c0.4-0.4,0.8-0.8,1.2-1.3L12.6,13.1z M7.4,14.3c-2.4,0-4.3-1.9-4.3-4.3c0-2.4,1.9-4.3,4.3-4.3c2.4,0,4.3,1.9,4.3,4.3
		C11.7,12.3,9.7,14.3,7.4,14.3z"/>
	<path class="st4" d="M7.4,6c-2.2,0-4,1.8-4,4c0,2.2,1.8,4,4,4c2.2,0,4-1.8,4-4C11.4,7.8,9.6,6,7.4,6z M7.6,13
		c-1.7,0.1-3.1-1.1-3.3-2.7C4.2,8.6,5.5,7.1,7.1,7c1.7-0.1,3.1,1.1,3.3,2.7C10.5,11.4,9.3,12.8,7.6,13z"/>
	<path class="st4" d="M18.4,12.4c-1.9,0-3.4,1.5-3.5,3.3c0,1.9,1.5,3.4,3.3,3.5c1.9,0,3.4-1.5,3.5-3.3C21.8,14,20.3,12.4,18.4,12.4z
		 M19.4,17.5c-1,0.6-2.3,0.2-2.9-0.8c-0.5-1-0.2-2.2,0.7-2.8c1-0.6,2.3-0.3,2.9,0.7C20.8,15.6,20.4,16.9,19.4,17.5z"/>
	<path class="st4" d="M23.9,16.3c0-0.4,0-0.8,0-1.2l-0.9-0.2c0-0.2-0.1-0.5-0.2-0.7l0.7-0.7c-0.1-0.2-0.2-0.4-0.3-0.5
		c-0.1-0.2-0.2-0.3-0.3-0.5l-0.9,0.3c-0.2-0.2-0.3-0.4-0.5-0.5l0.3-0.9c-0.3-0.2-0.7-0.4-1-0.6l-0.7,0.7c-0.2-0.1-0.5-0.1-0.7-0.2
		l-0.2-0.9c-0.4,0-0.8,0-1.2,0l-0.2,0.9c-0.2,0-0.5,0.1-0.7,0.2l-0.7-0.7c-0.2,0.1-0.4,0.2-0.5,0.3c-0.2,0.1-0.3,0.2-0.5,0.3
		l0.3,0.9c-0.2,0.2-0.4,0.3-0.5,0.5l-0.9-0.3c-0.2,0.3-0.4,0.7-0.6,1l0.7,0.7c-0.1,0.2-0.1,0.5-0.2,0.7l-0.9,0.2c0,0.4,0,0.8,0,1.2
		l0.9,0.2c0,0.2,0.1,0.5,0.2,0.7L13.4,18c0.1,0.2,0.2,0.4,0.3,0.5c0.1,0.2,0.2,0.3,0.3,0.5l0.9-0.3c0.2,0.2,0.3,0.4,0.5,0.5
		l-0.3,0.9c0.3,0.2,0.7,0.4,1,0.6l0.7-0.7c0.2,0.1,0.5,0.1,0.7,0.2l0.2,0.9c0.4,0,0.8,0,1.2,0l0.2-0.9c0.2,0,0.5-0.1,0.7-0.2
		l0.7,0.7c0.2-0.1,0.4-0.2,0.5-0.3c0.2-0.1,0.3-0.2,0.5-0.3l-0.3-0.9c0.2-0.2,0.4-0.3,0.5-0.5l0.9,0.3c0.2-0.3,0.4-0.7,0.6-1
		l-0.7-0.7c0.1-0.2,0.1-0.5,0.2-0.7L23.9,16.3z M18.3,19.3c-2,0-3.5-1.7-3.5-3.6c0-2,1.7-3.5,3.6-3.5c2,0,3.5,1.7,3.5,3.6
		C21.9,17.8,20.3,19.4,18.3,19.3z"/>
</g>
</svg>
