<?xml version="1.0" encoding="UTF-8"?><svg id="a" xmlns="http://www.w3.org/2000/svg" viewBox="0 0 24 24"><defs><style>.b{fill:#545a6d;}</style></defs><rect class="b" x="8.9" y=".81" width="7.28" height=".37"/><path class="b" d="M8.15,2.81V1.18h-2.92c-.32,0-.63,.13-.86,.36-.23,.23-.35,.54-.35,.86V22.72c0,.32,.13,.63,.35,.86,.23,.23,.54,.36,.86,.36h14.43c.32,0,.63-.13,.86-.36,.23-.23,.36-.54,.36-.86V2.4c0-.32-.13-.63-.36-.86-.22-.23-.54-.36-.86-.36h-2.75v1.62h2.75V22.09H5.23V2.81h2.92Z"/><rect class="b" x="8.9" y="1.18" width="7.28" height="1.62"/><rect class="b" x="8.9" y="2.81" width="7.28" height=".78"/><path class="b" d="M16.18,1.18V3.59h-7.28V.81h7.28v.37Z"/><rect class="b" x="6.45" y="5.54" width="12.01" height="1.29"/><rect class="b" x="6.45" y="8.46" width="12.01" height="1.29"/><rect class="b" x="6.45" y="11.38" width="12.01" height="1.29"/><rect class="b" x="6.45" y="14.3" width="12.01" height="1.29"/><rect class="b" x="6.45" y="17.22" width="12.01" height="1.29"/></svg>