<svg xmlns="http://www.w3.org/2000/svg" width="65.585" height="72.979" viewBox="0 0 65.585 72.979">
  <g id="Group_277" data-name="Group 277" transform="translate(-909.516 -344.647)">
    <path id="Path_199" data-name="Path 199" d="M-8187.484,3499.788v46.6l5.236,2.723-.137-52.279Z" transform="translate(9097 -3142)" fill="#498bc6"/>
    <path id="Path_203" data-name="Path 203" d="M-8182.385,3499.788v46.6l-5.2,2.7.1-52.253Z" transform="translate(9157.486 -3142)" fill="#498bc6"/>
    <path id="Path_200" data-name="Path 200" d="M-8182.385,3496.831l10.371,2.572-.144,47.336-10.159,2.353Z" transform="translate(9097 -3142)" fill="#1e528b"/>
    <path id="Path_204" data-name="Path 204" d="M-8172.457,3496.831l-10.929,2.572.137,47.336,10.727,2.353Z" transform="translate(9142.459 -3142)" fill="#1e528b"/>
    <path id="Path_201" data-name="Path 201" d="M-8172.456,3491.912l10.533-5.258,0,72.97-10.713-5.3Z" transform="translate(9097 -3142)" fill="#1e528b"/>
    <path id="Path_202" data-name="Path 202" d="M-8162.1,3491.912l-10.65-5.265-.024,72.979,10.851-5.3Z" transform="translate(9122 -3142)" fill="#498bc6"/>
    <path id="Path_205" data-name="Path 205" d="M-8161.926,3486.657h14.2v72.955h-14.2Z" transform="translate(9097 -3142)" fill="#2869ac"/>
  </g>
</svg>
