<?xml version="1.0" encoding="UTF-8"?>
<!DOCTYPE svg  PUBLIC '-//W3C//DTD SVG 1.1//EN'  'http://www.w3.org/Graphics/SVG/1.1/DTD/svg11.dtd'>
<svg enable-background="new 0 0 70 70" version="1.1" viewBox="0 0 70 70" xml:space="preserve" xmlns="http://www.w3.org/2000/svg">
	<path d="m39.629 39.51c-0.012-0.077-0.016-0.154-0.016-0.231 0-0.128 0.029-0.25 0.057-0.373 0.578-2.634 7.199-4.013 13.758-4.013 2.223 0 4.451 0.162 6.451 0.473v-24.347c0-2.762-2.238-5-5-5h-45.697c-2.76 0-5 2.238-5 5v46.811c0 2.762 2.24 5 5 5l31.218-0.064c-0.508-0.513-0.787-1.085-0.787-1.671l0.016-21.585zm6.73-25.143h1.768v9.581h4.277v1.488h-6.045v-11.069zm-26.441 11.069h-1.675v-9.209h-0.03l-2.232 9.209h-1.488l-2.232-9.209h-0.031v9.209h-1.675v-11.069h2.76l1.953 8.201h0.031l1.923-8.201h2.697v11.069zm5.484 0.311c-0.65 2.278-1.193 2.573-2.914 2.542-0.217 0-0.449-0.031-0.666-0.062v-1.334c0.186 0.031 0.355 0.063 0.543 0.063 0.572 0 0.945-0.124 1.131-0.651l0.217-0.682-2.371-8.527h1.798l1.442 6.264h0.03l1.333-6.264h1.752l-2.295 8.651zm6.682-0.094c-2.744 0-3.364-1.829-3.364-3.379v-0.264h1.767v0.279c0 1.349 0.59 2.03 1.814 2.03 1.116 0 1.674-0.79 1.674-1.612 0-1.162-0.588-1.674-1.58-1.969l-1.21-0.419c-1.612-0.62-2.31-1.457-2.31-3.038 0-2.016 1.363-3.132 3.441-3.132 2.837 0 3.131 1.768 3.131 2.915v0.248h-1.767v-0.232c0-1.008-0.45-1.598-1.55-1.598-0.76 0-1.488 0.419-1.488 1.598 0 0.945 0.48 1.426 1.658 1.875l1.193 0.435c1.566 0.558 2.248 1.411 2.248 2.93 1e-3 2.356-1.425 3.333-3.657 3.333zm5.207-5.751c0-3.953 1.115-5.752 3.658-5.752s3.658 1.799 3.658 5.752c0 2.046-0.371 3.581-0.867 4.387l1.131 1.194-1.053 0.945-1.133-1.147c-0.449 0.264-1.039 0.372-1.736 0.372-2.543 0-3.658-1.798-3.658-5.751z" fill="#6F2D6E"/>
	<path d="m41.586 24.211l-0.838-0.821 1.008-1.008 0.729 0.729c0.248-0.667 0.357-1.705 0.357-3.256 0-3.721-0.838-4.372-1.893-4.372s-1.891 0.651-1.891 4.372c0 3.813 0.836 4.465 1.891 4.465 0.233 0 0.434-0.031 0.637-0.109z" fill="#6F2D6E"/>
	<path d="m59.879 43.196v-4e-3c-0.346 0.057-0.688 0.101-1.032 0.146-0.177 0.023-0.347 0.049-0.526 0.07-0.322 0.037-0.646 0.064-0.972 0.092-0.207 0.018-0.413 0.037-0.626 0.052-0.414 0.028-0.832 0.052-1.261 0.068-0.068 3e-3 -0.138 5e-3 -0.207 7e-3 -0.49 0.017-0.989 0.028-1.509 0.031-0.105 1e-3 -0.211 5e-3 -0.318 5e-3 -4.928 0-9.887-0.781-12.299-2.285v19.816c0.135 0.456 1.306 1.054 2.947 1.59 2.215 0.653 5.634 1.195 10.152 1.195 8.271 0 11.705-1.87 11.705-2.871l0.016-19.909c-1.287 0.84-3.374 1.555-6.07 1.997zm-12.189 3.075h3.949l1.881 9.298h0.037l1.9-9.298h3.93v13.172h-2.436v-10.515h-0.037l-2.342 10.515h-2.066l-2.344-10.515h-0.037v10.515h-2.435v-13.172z" fill="#6F2D6E"/>
	<path d="m53.428 36.393c-7.969 0-12.314 1.906-12.314 2.886s4.346 2.887 12.314 2.887c2.532 0 4.695-0.193 6.473-0.488 3.814-0.632 5.842-1.731 5.842-2.399s-2.027-1.767-5.842-2.398c-1.778-0.295-3.941-0.488-6.473-0.488z" fill="#6F2D6E"/>
	<polygon points="50.126 48.928 50.163 48.928 52.507 59.443 54.573 59.443 56.915 48.928 56.952 48.928 56.952 59.443 59.388 59.443 59.388 46.271 55.458 46.271 53.558 55.569 53.521 55.569 51.64 46.271 47.69 46.271 47.69 59.443 50.126 59.443" fill="#fff"/>
	<polygon points="15.298 22.568 15.267 22.568 13.313 14.367 10.554 14.367 10.554 25.436 12.229 25.436 12.229 16.227 12.26 16.227 14.492 25.436 15.98 25.436 18.213 16.227 18.243 16.227 18.243 25.436 19.918 25.436 19.918 14.367 17.221 14.367" fill="#fff"/>
	<path d="m24.612 23.359h-0.03l-1.442-6.264h-1.798l2.371 8.527-0.217 0.682c-0.186 0.527-0.559 0.651-1.131 0.651-0.188 0-0.357-0.031-0.543-0.063v1.334c0.217 0.03 0.449 0.062 0.666 0.062 1.721 0.031 2.264-0.264 2.914-2.542l2.295-8.651h-1.752l-1.333 6.264z" fill="#fff"/>
	<path d="m33.494 19.39l-1.193-0.435c-1.178-0.449-1.658-0.93-1.658-1.875 0-1.179 0.729-1.598 1.488-1.598 1.1 0 1.55 0.59 1.55 1.598v0.232h1.767v-0.248c0-1.147-0.294-2.915-3.131-2.915-2.078 0-3.441 1.116-3.441 3.132 0 1.581 0.697 2.418 2.31 3.038l1.21 0.419c0.992 0.295 1.58 0.807 1.58 1.969 0 0.822-0.558 1.612-1.674 1.612-1.225 0-1.814-0.682-1.814-2.03v-0.279h-1.768v0.264c0 1.55 0.62 3.379 3.364 3.379 2.232 0 3.658-0.977 3.658-3.333 0-1.519-0.681-2.372-2.248-2.93z" fill="#fff"/>
	<path d="m42.686 25.281l1.133 1.147 1.053-0.945-1.131-1.194c0.496-0.806 0.867-2.341 0.867-4.387 0-3.953-1.115-5.752-3.658-5.752s-3.658 1.799-3.658 5.752 1.115 5.751 3.658 5.751c0.696 0 1.286-0.109 1.736-0.372zm-3.627-5.426c0-3.721 0.836-4.372 1.891-4.372s1.893 0.651 1.893 4.372c0 1.551-0.109 2.589-0.357 3.256l-0.729-0.729-1.008 1.008 0.838 0.821c-0.203 0.077-0.404 0.108-0.637 0.108-1.055 1e-3 -1.891-0.651-1.891-4.464z" fill="#fff"/>
	<polygon points="52.404 23.948 48.127 23.948 48.127 14.367 46.359 14.367 46.359 25.436 52.404 25.436" fill="#fff"/>
</svg>
