<?xml version="1.0" encoding="UTF-8"?>
<!DOCTYPE svg PUBLIC "-//W3C//DTD SVG 1.1//EN" "http://www.w3.org/Graphics/SVG/1.1/DTD/svg11.dtd">
<!-- Creator: CorelDRAW 2020 (64-Bit Evaluation Version) -->
<svg xmlns="http://www.w3.org/2000/svg" xml:space="preserve" width="100%" height="100%" version="1.1" style="shape-rendering:geometricPrecision; text-rendering:geometricPrecision; image-rendering:optimizeQuality; fill-rule:evenodd; clip-rule:evenodd"
viewBox="0 0 5926.66 5926.66"
 xmlns:xlink="http://www.w3.org/1999/xlink"
 xmlns:xodm="http://www.corel.com/coreldraw/odm/2003">
 <defs>
  <style type="text/css">
   <![CDATA[
    .fil0 {fill:#6F2D6E}
    .fil1 {fill:#FEFEFE}
    .fil2 {fill:#FEFEFE;fill-rule:nonzero}
   ]]>
  </style>
 </defs>
 <g id="Layer_x0020_1">
  <metadata id="CorelCorpID_0Corel-Layer"/>
  <g id="_2331464827600">
   <path class="fil0" d="M92.82 694.08l0 4428.05c0,63.18 29.93,139.46 53.52,183.54 93.13,173.98 265.89,249.5 462.83,248.37 158,-0.9 316.22,-0.11 474.25,-0.11 165.97,0 302.98,-8.46 465.66,-8.46 635,0 1270,0 1905,0 -9.08,-33.98 -67.74,-73.12 -67.74,-152.4l0 -2032c0,-374.83 1229.62,-434.03 1435.76,-402.82l299.68 22.05c50.13,4.24 91.4,16.71 144.16,16.71l0 -1972.73c0,-177.67 30.18,-385.98 -64.18,-528.49 -107.96,-163.05 -226.19,-225.04 -435.35,-225.04l-4233.33 0c-70.24,0 -122.76,21.35 -170.79,40.87 -96.43,39.2 -173.01,119.94 -221.5,210.29 -20.2,37.62 -47.97,118.56 -47.97,172.17z"/>
   <path class="fil0" d="M4326.16 4021.83c132.64,0 265.28,0.09 397.91,-0.03 131.87,-0.11 240,17.25 307.1,90.67 65.27,71.42 93.5,191.07 68.55,318.84 -23.76,121.63 -82.89,172.74 -188.91,210.52 69.57,27.22 103.62,21.12 140.69,76.67 74.31,111.36 32.45,364.53 66.54,466.67 15.27,45.76 25.6,32.85 36.78,63.26l-268.69 -0.59c-51.53,-114.99 -23.46,-243.89 -37.55,-377.26 -16.66,-157.65 -119.36,-147.73 -275.84,-138.28l-1.6 516.15 -245.45 0 0.47 -1226.62zm-804.35 -466.03l-0.43 1795.37c-0.63,63.09 -7.8,63.47 85.33,117.86 380.83,222.38 1477.81,232.48 1922.75,102.9 101.46,-29.55 193.53,-62.72 266.69,-122.79 45.28,-37.17 37.16,-81.53 37.06,-157.67l-0.01 -1752.6c-63.95,17.08 -143.86,107.03 -512.87,172.93 -93.1,16.63 -200.63,34.54 -299.87,38.8 -376.42,16.15 -554.43,35.9 -967.76,-31.43 -382.4,-62.28 -491.79,-154.26 -530.89,-163.37z"/>
   <path class="fil0" d="M3521.81 3361.07c0,144.93 639.75,249.39 787.38,254.01 40.84,1.28 39.11,6.55 76.18,8.5 30.57,1.6 61.51,-2.21 91.93,1.2 238.03,26.64 657.73,-12.64 850.12,-49.83 141.4,-27.33 420.27,-84.27 488.85,-213.88 -37.66,-71.17 -123.35,-112.4 -199.86,-138.8 -436.83,-150.75 -870.85,-143.1 -1324.14,-115.2 -167.63,10.32 -770.46,110.25 -770.46,254z"/>
   <path class="fil1" d="M4572.89 4208.04c135.42,-8.89 264.85,-9.76 284.48,128.74 20.49,144.58 -47.34,219.26 -184.1,219.26l-67.74 0.3 -32.64 -1.77 0 -346.53zm-247.2 1040.41l245.45 0 1.6 -516.15c156.48,-9.45 259.18,-19.37 275.84,138.28 14.09,133.37 -13.98,262.27 37.55,377.26l268.69 0.59c-11.18,-30.41 -21.51,-17.5 -36.78,-63.26 -34.09,-102.14 7.77,-355.31 -66.54,-466.67 -37.07,-55.55 -71.12,-49.45 -140.69,-76.67 106.02,-37.78 165.15,-88.89 188.91,-210.52 24.95,-127.77 -3.28,-247.42 -68.55,-318.84 -67.1,-73.42 -175.23,-90.78 -307.1,-90.67 -132.63,0.12 -265.27,0.03 -397.91,0.03l-0.47 1226.62z"/>
   <path class="fil0" d="M4572.89 4554.57l32.64 1.77 67.74 -0.3c136.76,0 204.59,-74.68 184.1,-219.26 -19.63,-138.5 -149.06,-137.63 -284.48,-128.74l0 346.53z"/>
  </g>
  <path class="fil2" d="M1521.28 1739.89l-215.79 0 -49.56 -366.24c-3.55,-25.86 -6.71,-54.49 -9.67,-86.27 -2.76,-31.59 -5.53,-66.14 -7.7,-103.46 -5.53,35.93 -15.99,80.55 -31.79,134.26 -3.55,11.05 -6.12,19.34 -7.7,24.87l-114.9 396.84 -154 0 -114.9 -396.84c-1.58,-5.53 -3.95,-13.82 -7.11,-24.87 -16.19,-53.71 -26.65,-98.13 -31.79,-133.67 -2.17,31.99 -4.93,63.78 -8.09,95.17 -2.96,31.39 -6.71,62.78 -10.86,93.97l-49.75 366.24 -214.61 0 130.7 -846.98 228.43 0 127.74 436.72c0.78,3.16 2.36,8.09 4.73,15.2 11.85,38.89 19.35,72.26 22.51,100.1 1.58,-15.21 4.34,-31.79 8.69,-50.15 4.14,-18.36 10.07,-40.47 17.37,-66.34l128.92 -435.53 229.03 0 130.1 846.98z"/>
  <path id="1" class="fil2" d="M1599.47 1998.13l164.26 -347.08 -235.54 -495.16 228.63 0 81.54 211.05c6.91,17.77 12.64,34.16 17.37,49.36 4.54,15.4 8.1,29.42 10.27,42.64 2.37,-14.01 5.73,-28.23 10.07,-43.23 4.54,-14.81 10.27,-31 17.18,-48.77l82.72 -211.05 220.33 0 -367.22 842.24 -229.61 0z"/>
  <path id="2" class="fil2" d="M2313.58 1466.25c34.35,38.89 68.11,67.92 101.48,87.26 33.36,19.16 66.53,28.83 99.7,28.83 30.8,0 56.27,-8.29 76.01,-24.88 19.94,-16.58 29.81,-37.51 29.81,-62.98 0,-28.03 -8.49,-49.75 -25.66,-64.95 -17.18,-15.2 -55.87,-31 -116.29,-47.19 -82.92,-22.31 -141.75,-51.53 -176.11,-87.26 -34.35,-35.94 -51.53,-85.1 -51.53,-147.48 0,-81.15 27.05,-147.09 81.34,-198.23 54.1,-51.13 124.58,-76.6 210.86,-76.6 46.79,0 91.02,6.32 132.87,18.76 41.86,12.63 81.54,31.59 119.05,57.05l-72.45 165.85c-26.26,-22.31 -53.11,-39.09 -80.75,-50.55 -27.45,-11.25 -54.69,-16.98 -81.74,-16.98 -27.64,0 -50.15,6.72 -67.52,19.95 -17.38,13.22 -26.06,30.4 -26.06,51.13 0,21.13 7.5,38.1 22.7,50.94 15.2,12.63 44.62,24.87 88.06,36.33l10.46 2.96c94.18,25.47 156.17,53.3 185.78,83.9 20.14,20.74 35.34,45.81 45.81,74.83 10.46,29.22 15.6,61.4 15.6,96.94 0,89.83 -29.42,162.09 -88.45,216.58 -59.04,54.69 -137.81,81.94 -236.13,81.94 -59.03,0 -112.74,-10.07 -161.3,-30.01 -48.37,-20.14 -94.97,-51.53 -139.59,-94.37l104.05 -171.77z"/>
  <path id="3" class="fil2" d="M3520.48 1402.08l44.03 58.44c12.24,-19.34 21.72,-40.47 28.23,-63.37 6.52,-22.9 9.87,-47.38 9.87,-73.25 0,-74.43 -20.92,-135.63 -62.78,-183.61 -41.86,-47.98 -94.77,-72.06 -158.74,-72.06 -62.78,0 -115.49,23.89 -157.94,71.67 -42.45,47.97 -63.57,107.4 -63.57,178.28 0,72.45 20.92,132.47 62.98,180.05 42.05,47.39 95.36,71.08 159.72,71.08 8.88,0 17.97,-0.99 27.44,-3.16 9.48,-2.17 19.55,-5.33 30.41,-9.67l-119.84 -154.4 200.19 0zm331.09 437.12l-196.84 0 -90.22 -118.46c-24.29,13.03 -51.53,22.9 -81.54,29.42 -30.01,6.51 -62.78,9.87 -98.32,9.87 -48.18,0 -94.37,-6.32 -138.4,-19.15 -44.23,-12.64 -85.29,-31.59 -123.4,-56.67 -60.61,-40.47 -107.99,-93.18 -142.54,-158.14 -34.55,-64.95 -51.73,-134.65 -51.73,-209.08 0,-60.22 11.45,-117.08 34.16,-170.58 22.7,-53.7 55.67,-101.48 98.91,-143.53 42.45,-41.66 91.02,-73.45 145.7,-95.76 54.69,-22.11 112.74,-33.17 174.14,-33.17 60.81,0 118.66,11.06 173.34,33.17 54.69,22.31 103.46,54.1 146.3,95.76 42.84,42.05 75.62,89.83 98.32,143.53 22.71,53.5 34.16,110.56 34.16,170.58 0,63.38 -11.65,121.82 -34.75,175.91 -23.1,53.9 -57.06,101.29 -101.87,141.76l154.58 204.54z"/>
  <polygon id="4" class="fil2" points="3978.13,1739.89 3978.13,892.91 4209.12,892.91 4209.12,1542.06 4495.79,1542.06 4495.79,1739.89 "/>
 </g>
</svg>
