<?xml version="1.0" encoding="UTF-8"?>
<!DOCTYPE svg PUBLIC "-//W3C//DTD SVG 1.1//EN" "http://www.w3.org/Graphics/SVG/1.1/DTD/svg11.dtd">
<!-- Creator: CorelDRAW 2020 (64-Bit Evaluation Version) -->
<svg xmlns="http://www.w3.org/2000/svg" xml:space="preserve" width="100%" height="100%" version="1.1" style="shape-rendering:geometricPrecision; text-rendering:geometricPrecision; image-rendering:optimizeQuality; fill-rule:evenodd; clip-rule:evenodd"
viewBox="0 0 677.32 677.32"
 xmlns:xlink="http://www.w3.org/1999/xlink"
 xmlns:xodm="http://www.corel.com/coreldraw/odm/2003">
 <defs>
  <style type="text/css">
   <![CDATA[
    .fil0 {fill:#E11937;fill-rule:nonzero}
   ]]>
  </style>
 </defs>
 <g id="Layer_x0020_1">
  <metadata id="CorelCorpID_0Corel-Layer"/>
  <g id="_2125178192640">
   <g id="XMLID_1_">
    <path id="XMLID_2_" class="fil0" d="M175.01 250.06c-56.64,0 -91.44,44.35 -91.44,89.04 0,53.74 43.84,89.05 91.78,89.05 31.9,0 62.1,-13.99 87.69,-36.85l0 66.7c-26.96,16.21 -63.81,26.11 -92.3,26.11 -81.88,0 -150.64,-66.7 -150.64,-144.83 0,-82.74 69.1,-144.84 150.98,-144.84 31.39,0 68.23,9.55 92.3,21.5l0 65.16c-30.03,-19.79 -60.56,-31.04 -88.37,-31.04z"/>
    <path id="XMLID_3_" class="fil0" d="M437.39 483.94c-82.39,0 -151.82,-64.15 -151.82,-144.84 0,-81.54 69.09,-144.83 155.57,-144.83 31.39,0 70.29,8.36 94.34,19.45l0 65c-27.3,-15.69 -62.44,-28.49 -93.15,-28.49 -56.64,0 -93.48,44.35 -93.48,89.04 0,52.54 43.5,90.6 94.33,90.6 10.75,0 21.16,-0.86 34.3,-5.81l0 -52.2 -46.4 0 0 -55.1 105.94 0 0 146.54c-30.2,13.64 -64.14,20.64 -99.63,20.64z"/>
    <rect id="XMLID_4_" class="fil0" x="583.42" y="200.07" width="59.53" height="278.06"/>
   </g>
  </g>
 </g>
</svg>
