<?xml version="1.0" encoding="utf-8"?>
<!-- Generator: Adobe Illustrator 24.3.0, SVG Export Plug-In . SVG Version: 6.00 Build 0)  -->
<svg version="1.1" id="Layer_1" xmlns="http://www.w3.org/2000/svg" xmlns:xlink="http://www.w3.org/1999/xlink" x="0px" y="0px"
	 viewBox="0 0 512 512" style="enable-background:new 0 0 512 512;" xml:space="preserve">
<style type="text/css">
	.st0{fill:#E11937;}
</style>
<g id="XMLID_1_">
	<path id="XMLID_2_" class="st0" d="M127.28,182.78c-46.56,0-75.17,36.46-75.17,73.2c0,44.17,36.04,73.2,75.45,73.2
		c26.22,0,51.05-11.5,72.08-30.29v54.83c-22.16,13.32-52.45,21.46-75.87,21.46c-67.31,0-123.83-54.83-123.83-119.06
		c0-68.01,56.8-119.06,124.11-119.06c25.8,0,56.09,7.85,75.87,17.67v53.57C175.24,192.03,150.14,182.78,127.28,182.78z"/>
	<path id="XMLID_3_" class="st0" d="M342.97,375.04c-67.73,0-124.81-52.73-124.81-119.06c0-67.03,56.8-119.06,127.89-119.06
		c25.8,0,57.78,6.87,77.55,15.99v53.43c-22.44-12.9-51.33-23.42-76.57-23.42c-46.56,0-76.85,36.46-76.85,73.2
		c0,43.19,35.76,74.47,77.55,74.47c8.83,0,17.39-0.7,28.19-4.77v-42.91h-38.14v-45.3h87.09v120.46
		C400.04,369.29,372.14,375.04,342.97,375.04z"/>
	<rect id="XMLID_4_" x="463.01" y="141.69" class="st0" width="48.94" height="228.58"/>
</g>
</svg>
