<?xml version="1.0" encoding="UTF-8"?>
<!DOCTYPE svg PUBLIC "-//W3C//DTD SVG 1.1//EN" "http://www.w3.org/Graphics/SVG/1.1/DTD/svg11.dtd">
<!-- Creator: CorelDRAW 2020 (64-Bit Evaluation Version) -->
<svg xmlns="http://www.w3.org/2000/svg"  width="100%" height="100%" version="1.1" style="shape-rendering:geometricPrecision; text-rendering:geometricPrecision; image-rendering:optimizeQuality; fill-rule:evenodd; clip-rule:evenodd"
viewBox="0 0 677.32 677.32"
 >
 <defs>
  <style type="text/css">
   
    .fil0 {fill:#E11937;fill-rule:nonzero}
  
  </style>
 </defs>
 <g id="Layer_x0020_1">
  <metadata id="CorelCorpID_0Corel-Layer"/>
  <g id="_2371289154512">
   <g id="layer1" inkscape:label="Layer 1" >
    <g id="g3458">
     <g id="Layer_1">
      <g id="g3438">
       <path id="path3432" class="fil0" d="M220.91 271.75c-42.63,0 -68.77,33.3 -68.77,66.91 0,40.46 32.99,66.91 69.09,66.91 23.96,0 46.68,-10.58 65.97,-27.7l0 50.1c-20.23,12.14 -47.93,19.61 -69.4,19.61 -61.61,0 -113.27,-50.1 -113.27,-108.92 0,-62.24 51.96,-108.92 113.58,-108.92 23.65,0 51.35,7.16 69.4,16.19l0 49.16c-22.72,-14.93 -45.74,-23.34 -66.59,-23.34l-0.01 0z" inkscape:connector-curvature="0"/>
       <path id="path3434" class="fil0" d="M418.18 447.58c-61.92,0 -114.2,-48.24 -114.2,-108.92 0,-61.31 51.97,-108.92 117.01,-108.92 23.65,0 52.9,6.22 70.95,14.63l0 48.85c-20.54,-11.82 -46.99,-21.47 -70.02,-21.47 -42.63,0 -70.33,33.3 -70.33,66.91 0,39.52 32.68,68.15 70.95,68.15 8.09,0 15.87,-0.62 25.83,-4.36l0 -39.21 -34.85 0 0 -41.39 79.67 0 0 110.17c-22.73,10.27 -48.24,15.56 -75.01,15.56z" inkscape:connector-curvature="0"/>
       <polygon id="path3436" class="fil0" points="527.98,443.22 527.98,234.1 572.79,234.1 572.79,443.22 " inkscape:connector-curvature="0"/>
      </g>
     </g>
     
     </g>
    </g>
   </g>
  </g>
 </g>
</svg>
