<?xml version="1.0" encoding="UTF-8"?>
<!DOCTYPE svg PUBLIC "-//W3C//DTD SVG 1.1//EN" "http://www.w3.org/Graphics/SVG/1.1/DTD/svg11.dtd">
<!-- Creator: CorelDRAW 2020 (64-Bit) -->
<svg xmlns="http://www.w3.org/2000/svg" xml:space="preserve" width="100%" height="100%" version="1.1" shape-rendering="geometricPrecision" text-rendering="geometricPrecision" image-rendering="optimizeQuality" fill-rule="evenodd" clip-rule="evenodd"
viewBox="0 0 67.733 67.734"
 xmlns:xlink="http://www.w3.org/1999/xlink"
 xmlns:xodm="http://www.corel.com/coreldraw/odm/2003">
 <g id="Layer_x0020_1">
  <metadata id="CorelCorpID_0Corel-Layer"/>
  <rect fill="none" x="-0.001" y="0.001" width="67.733" height="67.733"/>
  <g id="_1428203465536">
   <path fill="black" fill-rule="nonzero" d="M39.467 23.801c0.313,0.94 0.627,1.696 0.859,2.247 0.116,0.275 0.212,0.499 0.274,0.662 0.031,0.078 0.052,0.141 0.065,0.184 -0.01,0.022 -0.022,0.046 -0.036,0.073 -0.067,0.127 -0.175,0.305 -0.296,0.494 -0.179,0.28 -0.389,0.586 -0.554,0.823 -0.164,-0.15 -0.388,-0.348 -0.677,-0.589l0 -5.087c0.118,0.425 0.242,0.824 0.365,1.193zm-1.176 23.359c0,0.253 -0.102,0.479 -0.267,0.645 -0.166,0.165 -0.392,0.267 -0.645,0.267l-22.76 0c-0.253,0 -0.478,-0.102 -0.644,-0.267 -0.166,-0.166 -0.267,-0.392 -0.267,-0.645l0 -6.842c0.694,-0.025 1.341,-0.289 1.832,-0.754 0.524,-0.5 0.812,-1.168 0.813,-1.885 0,-0.292 -0.048,-0.586 -0.141,-0.876 -0.111,-0.341 -0.309,-0.683 -0.591,-1.014 -0.153,-0.181 -0.333,-0.358 -0.533,-0.53 0.357,-0.102 0.691,-0.278 0.997,-0.53 0.43,-0.357 0.777,-0.857 0.979,-1.41 0.13,-0.352 0.198,-0.722 0.198,-1.069 0,-0.211 -0.025,-0.414 -0.075,-0.603 -0.108,-0.41 -0.315,-0.802 -0.614,-1.165 -0.239,-0.291 -0.545,-0.566 -0.905,-0.822 0.382,-0.128 0.72,-0.327 1.002,-0.597 0.231,-0.22 0.426,-0.487 0.58,-0.793 0.355,-0.707 0.535,-1.375 0.535,-1.984 -0.001,-0.478 -0.111,-0.911 -0.327,-1.288 -0.211,-0.364 -0.51,-0.661 -0.892,-0.883 -0.319,-0.186 -0.656,-0.389 -1.012,-0.603 -0.618,-0.372 -1.251,-0.753 -1.846,-1.077l0 -17.303c0,-0.253 0.101,-0.478 0.267,-0.645 0.166,-0.165 0.391,-0.266 0.644,-0.267l22.76 0c0.253,0.001 0.479,0.102 0.645,0.267 0.165,0.167 0.267,0.392 0.267,0.645l0 42.028zm-24.689 -7.738c-0.178,0 -0.364,-0.022 -0.554,-0.072 -0.904,-0.235 -1.767,-0.473 -2.403,-0.652 -0.318,-0.09 -0.58,-0.165 -0.761,-0.217 -0.04,-0.011 -0.074,-0.021 -0.106,-0.031 -0.308,-0.59 -0.463,-1.199 -0.463,-1.751 0,-0.5 0.123,-0.951 0.362,-1.324 0.238,-0.368 0.59,-0.668 1.098,-0.868 0.067,-0.02 0.168,-0.034 0.295,-0.034l0.004 0 0.005 0c0.288,0 0.69,0.072 1.123,0.211 0.279,0.089 0.572,0.206 0.862,0.343l-0.01 0.024c0.087,0.038 0.173,0.069 0.259,0.1 0.302,0.157 0.597,0.335 0.863,0.53 0.295,0.216 0.557,0.451 0.759,0.691 0.204,0.239 0.347,0.481 0.42,0.709 0.068,0.208 0.098,0.408 0.098,0.597 -0.001,0.489 -0.201,0.916 -0.532,1.233 -0.332,0.314 -0.795,0.511 -1.319,0.511zm-3.689 -8.254l0 -0.005c0,-0.393 0.057,-0.716 0.151,-0.977 0.142,-0.391 0.358,-0.645 0.635,-0.821 0.276,-0.173 0.625,-0.265 1.029,-0.265l0.002 0c0.311,0 0.653,0.055 1.003,0.167 0.389,0.123 0.778,0.267 1.15,0.429l-0.008 0.03c0.01,0.002 0.059,0.014 0.139,0.029 0.378,0.172 0.734,0.364 1.047,0.577 0.326,0.221 0.605,0.464 0.818,0.722 0.213,0.259 0.36,0.531 0.438,0.823 0.029,0.111 0.045,0.238 0.045,0.374 0,0.236 -0.048,0.501 -0.143,0.759 -0.142,0.389 -0.39,0.761 -0.707,1.024 -0.32,0.264 -0.699,0.425 -1.155,0.426 -0.171,0 -0.355,-0.025 -0.552,-0.078l-0.355 -0.168c-0.332,-0.158 -0.66,-0.288 -0.975,-0.388 -0.509,-0.163 -1.005,-0.254 -1.396,-0.254l-0.001 0 -0.007 0c-0.122,0 -0.238,0.01 -0.347,0.027 -0.089,-0.084 -0.211,-0.218 -0.336,-0.423 -0.233,-0.385 -0.474,-1.01 -0.475,-2.007l0 -0.001zm0.909 -6.896c0.203,-0.395 0.476,-0.751 0.769,-0.993 0.146,-0.122 0.296,-0.215 0.441,-0.277 0.145,-0.061 0.285,-0.091 0.421,-0.091 0.144,0 0.286,0.032 0.442,0.111 1.001,0.514 2.213,1.286 3.218,1.871 0.246,0.143 0.433,0.327 0.564,0.553 0.13,0.227 0.207,0.501 0.207,0.841 0.001,0.425 -0.125,0.955 -0.439,1.578 -0.116,0.233 -0.252,0.409 -0.396,0.547 -0.217,0.207 -0.46,0.333 -0.707,0.41 -0.247,0.077 -0.497,0.102 -0.71,0.102l-0.002 0 0 0c-0.117,0 -0.219,-0.007 -0.304,-0.017l-0.043 -0.019 -0.003 -0.001 -0.036 -0.015c-0.388,-0.17 -0.806,-0.326 -1.239,-0.464 -0.436,-0.138 -0.865,-0.209 -1.275,-0.209l-0.002 0c-0.132,0 -0.261,0.008 -0.387,0.023 -0.604,-0.809 -0.841,-1.694 -0.842,-2.481 0,-0.576 0.13,-1.096 0.323,-1.469zm48.287 32.622c0,0 -0.02,-0.037 -0.061,-0.108 -0.281,-0.501 -3.628,-5.636 -5.214,-8.636 -0.896,-1.696 -1.585,-3.099 -2.049,-4.504 -0.463,-1.406 -0.706,-2.817 -0.707,-4.566 0,-0.031 0,-0.063 0,-0.094l0 -0.001c0.001,-0.179 0.002,-0.357 0.002,-0.532 0,-3.389 -0.177,-6.058 -0.744,-9.911 -0.15,-1.024 -0.312,-1.773 -0.495,-2.376 -0.275,-0.904 -0.606,-1.474 -0.969,-2.075 -0.364,-0.603 -0.768,-1.254 -1.269,-2.431 -0.692,-1.629 -1.309,-2.619 -1.796,-3.546 -0.487,-0.928 -0.857,-1.792 -1.123,-3.288 -0.268,-1.515 -0.388,-2.902 -0.584,-3.985 -0.1,-0.543 -0.216,-1.012 -0.404,-1.404 -0.095,-0.195 -0.21,-0.374 -0.362,-0.524 -0.15,-0.15 -0.34,-0.268 -0.554,-0.327l-0.012 -0.003 -0.012 -0.003c-0.26,-0.057 -0.55,-0.1 -0.86,-0.1 -0.414,-0.001 -0.867,0.079 -1.304,0.307 -0.329,0.171 -0.644,0.424 -0.925,0.77 -0.207,0.256 -0.396,0.561 -0.565,0.922l0 -5.347c0,-0.119 -0.012,-0.235 -0.035,-0.347 -0.012,-0.056 -0.026,-0.111 -0.043,-0.165 -0.218,-0.702 -0.872,-1.21 -1.645,-1.211l0 0 -22.76 0 0 0c-0.178,0 -0.35,0.028 -0.512,0.078 -0.27,0.084 -0.511,0.232 -0.706,0.427 -0.311,0.311 -0.504,0.742 -0.504,1.218l0 16.934 0 0c-0.144,-0.037 -0.29,-0.055 -0.441,-0.056l-0.001 0 -0.002 0c-0.257,0 -0.517,0.055 -0.771,0.163 -0.229,0.097 -0.454,0.236 -0.668,0.414 -0.381,0.316 -0.734,0.769 -0.993,1.273 -0.272,0.527 -0.423,1.197 -0.422,1.882 0,0.695 0.153,1.711 0.83,2.745 -0.072,0.036 -0.142,0.074 -0.21,0.116 -0.465,0.295 -0.8,0.724 -1.001,1.275 -0.136,0.378 -0.205,0.807 -0.205,1.28l0 0.001 0 0.011c0.001,0.978 0.204,1.809 0.604,2.472 0.072,0.119 0.15,0.229 0.231,0.331 -0.377,0.24 -0.689,0.544 -0.927,0.914 -0.331,0.516 -0.506,1.141 -0.506,1.811 -0.001,0.709 0.194,1.459 0.564,2.169l0.178 0.341 0.043 0.013c0.133,0.215 0.3,0.458 0.497,0.729 0.75,1.029 1.935,2.448 3.2,3.862l0 -1.333c-0.176,-0.201 -0.349,-0.402 -0.518,-0.599 -0.59,-0.69 -1.128,-1.347 -1.566,-1.914 -0.097,-0.126 -0.188,-0.247 -0.275,-0.363 0.582,0.163 1.411,0.391 2.283,0.618 0.025,0.007 0.05,0.012 0.076,0.017l0 0 0 6.922c0,0.595 0.301,1.119 0.759,1.429 0.046,0.03 0.093,0.059 0.142,0.086 0.244,0.132 0.524,0.208 0.821,0.208l22.76 0c0.11,0 0.217,-0.012 0.321,-0.031 0.065,-0.012 0.129,-0.027 0.191,-0.047 0.082,-0.025 0.161,-0.058 0.237,-0.095 0.412,-0.2 0.732,-0.557 0.881,-0.995 0.026,-0.076 0.047,-0.154 0.062,-0.234 0.019,-0.101 0.03,-0.205 0.03,-0.312 0.001,-0.003 0.001,-0.006 0.001,-0.009l0 -18.298c0.139,0.125 0.241,0.223 0.307,0.288 0.039,0.039 0.067,0.067 0.084,0.085l0.018 0.018 0.003 0.003 0 0.001 0.365 0.404 0.319 -0.442c0.002,-0.002 0.288,-0.397 0.593,-0.849 0.153,-0.227 0.311,-0.468 0.443,-0.685 0.066,-0.109 0.125,-0.211 0.175,-0.307 0.051,-0.096 0.092,-0.181 0.124,-0.279l0.001 -0.001c0.022,-0.07 0.025,-0.126 0.026,-0.173 -0.002,-0.112 -0.023,-0.188 -0.046,-0.271 -0.044,-0.152 -0.111,-0.32 -0.198,-0.53 -0.152,-0.366 -0.365,-0.852 -0.6,-1.461 -0.674,-1.741 -1.534,-4.483 -1.614,-8.058l0 -1.109c0.03,-1.306 0.148,-2.351 0.327,-3.173 0.14,-0.648 0.317,-1.158 0.513,-1.556 0.295,-0.596 0.624,-0.935 0.948,-1.135 0.326,-0.199 0.662,-0.269 1.006,-0.269 0.222,0 0.444,0.03 0.654,0.076 0.058,0.018 0.106,0.045 0.163,0.101 0.052,0.051 0.109,0.128 0.165,0.235 0.098,0.185 0.189,0.46 0.267,0.8 0.118,0.51 0.208,1.167 0.306,1.916 0.098,0.749 0.205,1.593 0.364,2.489 0.277,1.578 0.7,2.578 1.211,3.545 0.51,0.969 1.095,1.906 1.765,3.481 0.347,0.817 0.659,1.408 0.937,1.889 0.208,0.361 0.395,0.659 0.561,0.942 0.249,0.426 0.453,0.818 0.644,1.389 0.19,0.571 0.365,1.324 0.53,2.444 0.562,3.824 0.734,6.424 0.734,9.783 0,0.174 0,0.35 -0.001,0.528l0 0c0,0.033 -0.001,0.066 0,0.099 -0.001,1.831 0.26,3.356 0.751,4.842 0.491,1.488 1.205,2.933 2.107,4.64 1.396,2.643 4.635,7.599 5.079,8.395l-15.46 9.534c-0.454,-0.841 -3.635,-5.747 -4.47,-7.295 -0.563,-1.045 -1.183,-1.864 -1.95,-2.532 -0.767,-0.669 -1.671,-1.181 -2.784,-1.643 -2.191,-0.908 -5.199,-1.959 -7.854,-3.046 -2.059,-0.843 -4.169,-1.9 -5.986,-3.092l-1.549 0c2.101,1.544 4.688,2.879 7.201,3.909 2.683,1.099 5.697,2.151 7.849,3.044 1.059,0.44 1.867,0.905 2.542,1.493 0.675,0.589 1.226,1.308 1.754,2.286 0.546,1.012 3.309,5.14 3.815,6.08 0.253,0.47 0.472,0.876 0.628,1.166 0.156,0.289 0.248,0.46 0.248,0.46l0.222 0.413 16.979 -10.47 -0.209 -0.37z"/>
   <path fill="black" fill-rule="nonzero" d="M11.443 15.471c0.691,0.772 1.268,1.312 1.454,1.481l0 -1.226c-0.248,-0.249 -0.549,-0.563 -0.872,-0.928 -0.786,-0.888 -1.701,-2.075 -2.285,-3.298 -0.293,-0.612 -0.416,-1.171 -0.416,-1.646 0.001,-0.584 0.182,-1.037 0.461,-1.343 0.281,-0.305 0.661,-0.481 1.149,-0.483 0.214,0 0.45,0.036 0.703,0.117 0.43,0.139 0.857,0.36 1.26,0.621l0 -1.029c-0.315,-0.172 -0.645,-0.321 -0.99,-0.432 -0.332,-0.107 -0.659,-0.16 -0.973,-0.16 -0.712,-0.002 -1.357,0.28 -1.802,0.771 -0.446,0.49 -0.691,1.171 -0.69,1.938 0,0.627 0.16,1.314 0.502,2.027 0.663,1.384 1.664,2.655 2.499,3.59z"/>
   <path fill="black" fill-rule="nonzero" d="M30.124 36.196c0,0.137 -0.111,0.247 -0.248,0.248l-7.786 0c-0.136,-0.001 -0.247,-0.111 -0.247,-0.248l0 -18.888c0,-0.136 0.111,-0.247 0.247,-0.247l7.786 0c0.137,0 0.248,0.111 0.248,0.247l0 18.888zm-0.248 -19.946l-7.786 0c-0.585,0 -1.058,0.474 -1.058,1.058l0 18.888c0,0.585 0.473,1.058 1.058,1.059l7.786 0c0.585,-0.001 1.059,-0.474 1.059,-1.059l0 -18.888c0,-0.584 -0.474,-1.058 -1.059,-1.058z"/>
   <polygon fill="black" fill-rule="nonzero" points="21.999,45.796 29.967,45.796 29.967,44.985 21.999,44.985 "/>
   <polygon fill="black" fill-rule="nonzero" points="28.675,7.074 23.232,7.074 23.232,7.885 28.675,7.885 "/>
   <polygon fill="black" fill-rule="nonzero" points="39.871,0.196 39.084,0 38.478,2.441 39.265,2.636 "/>
   <polygon fill="black" fill-rule="nonzero" points="40.413,3.645 41.2,2.89 42.773,1.38 42.212,0.795 39.851,3.06 "/>
   <polygon fill="black" fill-rule="nonzero" points="40.812,5.095 43.253,4.84 43.168,4.034 43.168,4.034 40.728,4.289 "/>
   <polygon fill="black" fill-rule="nonzero" points="28.946,19.383 22.731,27.619 25.132,27.519 23.108,34.182 29.015,25.959 26.901,26.047 "/>
  </g>
 </g>
</svg>
