<?xml version="1.0" encoding="UTF-8"?>
<!DOCTYPE svg PUBLIC "-//W3C//DTD SVG 1.1//EN" "http://www.w3.org/Graphics/SVG/1.1/DTD/svg11.dtd">
<!-- Creator: CorelDRAW 2020 (64-Bit) -->
<svg xmlns="http://www.w3.org/2000/svg" xml:space="preserve" width="80px" height="80px" version="1.1" shape-rendering="geometricPrecision" text-rendering="geometricPrecision" image-rendering="optimizeQuality" fill-rule="evenodd" clip-rule="evenodd"
viewBox="0 0 80 80"
 xmlns:xlink="http://www.w3.org/1999/xlink"
 xmlns:xodm="http://www.corel.com/coreldraw/odm/2003">
 <g id="Layer_x0020_1">
  <metadata id="CorelCorpID_0Corel-Layer"/>
  <rect fill="none" width="80" height="80"/>
  <path fill="black" fill-rule="nonzero" d="M46.47 28.26c0.36,1.1 0.73,1.98 1.01,2.62 0.13,0.32 0.24,0.59 0.32,0.78 0.02,0.09 0.06,0.16 0.06,0.21 0,0.03 -0.02,0.05 -0.04,0.08 -0.08,0.15 -0.19,0.36 -0.34,0.58 -0.21,0.33 -0.45,0.68 -0.65,0.96 -0.19,-0.17 -0.45,-0.4 -0.79,-0.69l0 -5.93c0.14,0.49 0.28,0.96 0.43,1.39l0 0zm-1.38 27.26c0,0.29 -0.11,0.55 -0.31,0.75 -0.19,0.19 -0.45,0.31 -0.75,0.31l-26.55 0c-0.29,0 -0.55,-0.12 -0.75,-0.31 -0.19,-0.2 -0.31,-0.46 -0.31,-0.75l0 -7.99c0.81,-0.03 1.57,-0.33 2.14,-0.88 0.61,-0.58 0.95,-1.36 0.95,-2.2 0,-0.34 -0.06,-0.68 -0.17,-1.02 -0.13,-0.4 -0.36,-0.79 -0.69,-1.18 -0.17,-0.21 -0.39,-0.42 -0.62,-0.62 0.42,-0.12 0.81,-0.32 1.17,-0.62 0.5,-0.41 0.9,-1 1.14,-1.64 0.15,-0.41 0.23,-0.85 0.23,-1.25 0,-0.25 -0.03,-0.48 -0.09,-0.7 -0.13,-0.48 -0.37,-0.94 -0.72,-1.36 -0.27,-0.34 -0.63,-0.66 -1.05,-0.96 0.44,-0.15 0.84,-0.38 1.17,-0.7 0.27,-0.26 0.49,-0.57 0.67,-0.92 0.42,-0.83 0.63,-1.61 0.63,-2.32 0,-0.56 -0.13,-1.06 -0.38,-1.5 -0.25,-0.43 -0.6,-0.77 -1.04,-1.03 -0.38,-0.22 -0.77,-0.46 -1.18,-0.71 -0.73,-0.43 -1.46,-0.87 -2.16,-1.25l0 -20.19c0,-0.3 0.12,-0.56 0.31,-0.75 0.2,-0.2 0.46,-0.31 0.75,-0.32l26.56 0c0.3,0.01 0.56,0.12 0.75,0.32 0.2,0.19 0.31,0.45 0.31,0.75l0 49.04 -0.01 0zm-28.79 -9.03c-0.21,0 -0.43,-0.03 -0.65,-0.09 -1.05,-0.27 -2.06,-0.55 -2.8,-0.76 -0.37,-0.1 -0.68,-0.19 -0.89,-0.25 -0.05,-0.01 -0.09,-0.03 -0.12,-0.04 -0.36,-0.69 -0.55,-1.4 -0.54,-2.04 0,-0.58 0.14,-1.11 0.42,-1.54 0.28,-0.43 0.68,-0.78 1.28,-1.02 0.08,-0.02 0.2,-0.04 0.34,-0.04l0.01 0 0 0c0.34,0 0.81,0.09 1.3,0.25 0.34,0.1 0.68,0.24 1.01,0.4l0 0.03c0.1,0.04 0.19,0.08 0.3,0.11 0.34,0.19 0.7,0.4 1.01,0.62 0.34,0.26 0.65,0.53 0.88,0.81 0.23,0.28 0.4,0.56 0.49,0.83 0.08,0.24 0.12,0.47 0.12,0.69 0,0.57 -0.25,1.07 -0.62,1.44 -0.39,0.37 -0.94,0.6 -1.54,0.6l0 0zm-4.31 -9.63l0 -0.01c0,-0.46 0.07,-0.84 0.18,-1.14 0.17,-0.46 0.41,-0.75 0.73,-0.96 0.32,-0.2 0.73,-0.31 1.2,-0.31l0 0c0.38,0 0.77,0.07 1.18,0.2 0.46,0.14 0.91,0.31 1.35,0.5l-0.01 0.03c0.01,0.01 0.06,0.02 0.16,0.04 0.44,0.2 0.85,0.42 1.22,0.67 0.38,0.26 0.7,0.54 0.95,0.84 0.25,0.31 0.42,0.62 0.52,0.96 0.03,0.13 0.05,0.28 0.05,0.44 0,0.28 -0.07,0.58 -0.17,0.89 -0.16,0.45 -0.45,0.88 -0.82,1.19 -0.38,0.31 -0.83,0.5 -1.35,0.5 -0.21,0 -0.43,-0.03 -0.66,-0.09l-0.41 -0.2c-0.38,-0.18 -0.77,-0.34 -1.13,-0.45 -0.59,-0.19 -1.18,-0.3 -1.63,-0.3l0 0 -0.01 0c-0.14,0 -0.27,0.01 -0.4,0.03 -0.11,-0.09 -0.26,-0.25 -0.39,-0.49 -0.27,-0.45 -0.55,-1.18 -0.56,-2.34l0 0 0 0zm1.06 -8.05c0.23,-0.46 0.55,-0.87 0.9,-1.16 0.17,-0.14 0.34,-0.25 0.51,-0.32 0.17,-0.07 0.34,-0.11 0.49,-0.11 0.18,0 0.33,0.04 0.52,0.13 1.16,0.6 2.59,1.5 3.75,2.18 0.28,0.17 0.5,0.39 0.66,0.65 0.15,0.27 0.24,0.59 0.24,0.98 0,0.5 -0.15,1.12 -0.51,1.84 -0.13,0.27 -0.3,0.48 -0.47,0.64 -0.24,0.24 -0.52,0.39 -0.82,0.48 -0.29,0.09 -0.58,0.12 -0.83,0.12l0 0 0 0c-0.14,0 -0.26,-0.01 -0.36,-0.02l-0.05 -0.02 0 0 -0.04 -0.02c-0.46,-0.2 -0.94,-0.38 -1.44,-0.54 -0.52,-0.16 -1.02,-0.25 -1.5,-0.25l0 0c-0.15,0 -0.3,0.01 -0.45,0.03 -0.7,-0.94 -0.98,-1.98 -0.98,-2.89 0,-0.68 0.15,-1.28 0.37,-1.72l0.01 0zm56.33 38.06c0,0 -0.02,-0.04 -0.07,-0.12 -0.32,-0.59 -4.23,-6.58 -6.08,-10.08 -1.04,-1.98 -1.85,-3.61 -2.39,-5.25 -0.54,-1.64 -0.82,-3.29 -0.83,-5.33 0,-0.04 0,-0.07 0,-0.11l0 0c0.01,-0.21 0.01,-0.42 0.01,-0.62 0,-3.96 -0.21,-7.07 -0.87,-11.57 -0.18,-1.19 -0.37,-2.07 -0.58,-2.77 -0.32,-1.05 -0.71,-1.72 -1.13,-2.42 -0.42,-0.7 -0.9,-1.46 -1.48,-2.84 -0.81,-1.9 -1.53,-3.05 -2.1,-4.13 -0.56,-1.09 -0.99,-2.09 -1.31,-3.84 -0.31,-1.77 -0.45,-3.39 -0.68,-4.65 -0.11,-0.63 -0.25,-1.18 -0.47,-1.64 -0.11,-0.23 -0.24,-0.43 -0.42,-0.61 -0.18,-0.18 -0.4,-0.31 -0.65,-0.38l-0.01 -0.01 -0.02 0c-0.3,-0.07 -0.64,-0.11 -1,-0.12 -0.48,0 -1.01,0.1 -1.52,0.36 -0.38,0.2 -0.75,0.5 -1.08,0.9 -0.24,0.3 -0.46,0.66 -0.66,1.08l0 -6.24c0,-0.14 -0.01,-0.28 -0.04,-0.41 -0.01,-0.06 -0.03,-0.13 -0.05,-0.19 -0.25,-0.82 -1.02,-1.41 -1.92,-1.41l0 0 -26.56 0 0 0c-0.2,0 -0.4,0.03 -0.59,0.09 -0.32,0.1 -0.6,0.27 -0.83,0.5 -0.36,0.36 -0.59,0.86 -0.59,1.42l0 19.76 0 0c-0.16,-0.05 -0.33,-0.07 -0.51,-0.07l0 0 0 0c-0.3,0 -0.61,0.07 -0.9,0.19 -0.27,0.11 -0.53,0.28 -0.78,0.49 -0.45,0.36 -0.86,0.89 -1.16,1.48 -0.32,0.61 -0.49,1.4 -0.49,2.2 0,0.81 0.19,1.99 0.97,3.2 -0.09,0.04 -0.17,0.08 -0.25,0.13 -0.53,0.35 -0.93,0.85 -1.17,1.49 -0.16,0.44 -0.24,0.94 -0.24,1.5l0 0 0 0.01c0,1.14 0.24,2.11 0.71,2.88 0.08,0.14 0.17,0.27 0.27,0.39 -0.44,0.28 -0.81,0.64 -1.08,1.07 -0.39,0.6 -0.59,1.33 -0.6,2.11 0,0.83 0.23,1.7 0.66,2.53l0.21 0.4 0.05 0.01c0.16,0.25 0.35,0.54 0.58,0.85 0.88,1.2 2.26,2.86 3.73,4.51l0 -1.56c-0.2,-0.23 -0.4,-0.46 -0.6,-0.69 -0.69,-0.81 -1.32,-1.58 -1.83,-2.24 -0.11,-0.14 -0.22,-0.29 -0.32,-0.42 0.68,0.19 1.65,0.46 2.67,0.72 0.03,0.01 0.06,0.01 0.08,0.02l0 0 0 8.08c0,0.69 0.36,1.3 0.89,1.66 0.05,0.04 0.11,0.07 0.17,0.1 0.28,0.16 0.61,0.25 0.95,0.25l26.56 0c0.13,0 0.25,-0.02 0.37,-0.04 0.08,-0.01 0.16,-0.03 0.23,-0.05 0.09,-0.03 0.18,-0.07 0.27,-0.12 0.49,-0.23 0.86,-0.65 1.03,-1.16 0.03,-0.09 0.06,-0.18 0.07,-0.27 0.03,-0.12 0.04,-0.24 0.04,-0.36l0 -0.01 0 -21.35c0.16,0.14 0.28,0.26 0.36,0.33 0.04,0.05 0.08,0.08 0.1,0.1l0.02 0.02 0 0.01 0 0 0.43 0.47 0.37 -0.52c0,0 0.34,-0.46 0.69,-0.99 0.18,-0.26 0.36,-0.54 0.52,-0.8 0.07,-0.12 0.14,-0.24 0.2,-0.35 0.06,-0.12 0.11,-0.22 0.15,-0.33l0 0c0.02,-0.08 0.03,-0.15 0.03,-0.2 0,-0.14 -0.03,-0.22 -0.05,-0.32 -0.06,-0.18 -0.13,-0.37 -0.24,-0.62 -0.17,-0.43 -0.42,-0.99 -0.7,-1.7 -0.78,-2.03 -1.79,-5.23 -1.88,-9.41l0 -1.29c0.03,-1.52 0.17,-2.74 0.38,-3.7 0.17,-0.76 0.37,-1.35 0.6,-1.82 0.34,-0.69 0.73,-1.09 1.11,-1.32 0.38,-0.23 0.77,-0.31 1.17,-0.32 0.26,0 0.52,0.04 0.76,0.09 0.07,0.03 0.13,0.06 0.19,0.12 0.07,0.06 0.13,0.15 0.2,0.28 0.11,0.21 0.22,0.53 0.31,0.93 0.14,0.59 0.24,1.36 0.35,2.23 0.12,0.88 0.24,1.86 0.43,2.91 0.32,1.84 0.82,3.01 1.41,4.14 0.6,1.13 1.28,2.22 2.06,4.06 0.41,0.95 0.77,1.64 1.09,2.2 0.25,0.42 0.47,0.77 0.66,1.1 0.29,0.5 0.53,0.95 0.75,1.62 0.22,0.67 0.43,1.55 0.62,2.85 0.66,4.46 0.86,7.5 0.86,11.42 0,0.2 0,0.4 -0.01,0.61l0 0c0,0.04 0,0.08 0,0.12 0,2.14 0.31,3.91 0.88,5.65 0.57,1.73 1.41,3.42 2.46,5.41 1.63,3.09 5.41,8.87 5.93,9.8l-18.04 11.12c-0.53,-0.98 -4.24,-6.7 -5.22,-8.51 -0.65,-1.22 -1.38,-2.18 -2.27,-2.95 -0.9,-0.79 -1.95,-1.38 -3.25,-1.92 -2.56,-1.06 -6.07,-2.29 -9.15,-3.56 -2.42,-0.98 -4.88,-2.21 -7,-3.6l-1.81 0c2.45,1.8 5.47,3.36 8.4,4.56 3.15,1.28 6.65,2.51 9.16,3.55 1.24,0.51 2.18,1.06 2.97,1.74 0.79,0.69 1.43,1.53 2.05,2.67 0.63,1.18 3.86,6 4.45,7.09 0.29,0.55 0.55,1.02 0.73,1.36 0.18,0.34 0.29,0.54 0.29,0.54l0.26 0.48 19.81 -12.22 -0.25 -0.43 0 0 0 0zm-22.91 -38.61l-0.32 0.11c0.36,1.11 0.73,2 1.01,2.64 0.13,0.33 0.25,0.59 0.32,0.77l0 0c0.04,0.08 0.06,0.15 0.06,0.19l0.32 -0.1 -0.3 -0.14c0,0.02 -0.02,0.04 -0.04,0.06l0 0.01 0 0c-0.06,0.13 -0.19,0.33 -0.32,0.55 -0.21,0.32 -0.45,0.67 -0.64,0.95l0.27 0.19 0.24 -0.25c-0.19,-0.18 -0.47,-0.41 -0.81,-0.7l-0.22 0.26 0.34 0 0 -5.93 -0.34 0 -0.32 0.09c0.13,0.5 0.28,0.97 0.43,1.41l0.32 -0.11 0.32 -0.11c-0.13,-0.42 -0.28,-0.88 -0.41,-1.37l-0.67 -2.4 0 8.58 0.12 0.11c0.34,0.27 0.59,0.5 0.78,0.67l0.29 0.27 0.21 -0.32c0.2,-0.28 0.45,-0.64 0.66,-0.97 0.15,-0.23 0.28,-0.44 0.36,-0.61l0 0.01c0.02,-0.04 0.04,-0.08 0.05,-0.11l0.06 -0.11 -0.04 -0.13c-0.02,-0.06 -0.05,-0.14 -0.08,-0.24l0 0c-0.09,-0.2 -0.19,-0.46 -0.33,-0.78 -0.27,-0.64 -0.63,-1.51 -0.99,-2.6l-0.32 0.11 -0.01 0zm-1.38 27.26l-0.34 0c0,0.2 -0.07,0.37 -0.21,0.51l0 0c-0.13,0.13 -0.31,0.21 -0.51,0.21l-26.55 0c-0.2,0 -0.37,-0.08 -0.51,-0.21l0 0c-0.13,-0.14 -0.22,-0.31 -0.22,-0.51l0 -7.99 -0.34 0 0.02 0.34c0.88,-0.03 1.72,-0.37 2.36,-0.97l0 0c0.67,-0.64 1.05,-1.52 1.05,-2.44l0 -0.01c0,-0.37 -0.06,-0.75 -0.17,-1.12l0 0c-0.15,-0.45 -0.41,-0.89 -0.77,-1.3l0 -0.01 0 0.01c-0.19,-0.23 -0.41,-0.45 -0.65,-0.66l-0.23 0.26 0.1 0.33c0.47,-0.13 0.9,-0.36 1.29,-0.69l0 0c0.54,-0.46 0.99,-1.09 1.24,-1.79l0 0 0 0.01c0.16,-0.45 0.26,-0.92 0.26,-1.37l0 0 -0.29 0 0.29 0.01 0 -0.01 -0.29 0 0.29 0.01 0 -0.01 0 0 0 -0.01 -0.34 0.01 0.34 0 0 -0.01 -0.34 0.01 0.34 0c0,-0.27 -0.04,-0.54 -0.11,-0.79 -0.14,-0.53 -0.4,-1.03 -0.78,-1.49 -0.31,-0.37 -0.67,-0.71 -1.13,-1.02l-0.19 0.28 0.11 0.32c0.48,-0.16 0.93,-0.42 1.29,-0.77l0 0c0.3,-0.29 0.55,-0.63 0.75,-1.02 0.43,-0.86 0.66,-1.69 0.66,-2.47l0 0 -0.27 0 0.27 0.01 0 -0.01 -0.27 0 0.27 0.01 0 -0.01 0 0c0,-0.61 -0.14,-1.18 -0.43,-1.67l0 0c-0.27,-0.48 -0.67,-0.87 -1.16,-1.16l0 0c-0.37,-0.21 -0.76,-0.45 -1.18,-0.7 -0.72,-0.43 -1.46,-0.88 -2.17,-1.26l-0.16 0.3 0.34 0 0 -20.19c0,-0.2 0.08,-0.38 0.22,-0.51l0 0c0.13,-0.14 0.3,-0.21 0.5,-0.22l26.56 0c0.2,0.01 0.38,0.08 0.51,0.22l0 0c0.14,0.13 0.21,0.31 0.21,0.51l0 49.04 0 0 0.34 0 0.34 0 0 -49.04c0,-0.39 -0.15,-0.74 -0.41,-0.99l0 -0.01 0 0c-0.25,-0.25 -0.6,-0.41 -0.99,-0.4l-26.55 0c-0.38,-0.01 -0.73,0.15 -1,0.4l0 0.01c-0.24,0.25 -0.41,0.6 -0.41,0.99l0 20.39 0.19 0.1c0.67,0.37 1.42,0.81 2.13,1.25 0.42,0.25 0.81,0.48 1.19,0.7l0 0c0.39,0.23 0.71,0.54 0.92,0.91l0 0c0.22,0.38 0.34,0.83 0.34,1.33l0.34 0 -0.34 -0.01 0 0.01 0 0c0,0.65 -0.19,1.37 -0.59,2.16 -0.16,0.33 -0.37,0.61 -0.61,0.84l0 0c-0.29,0.27 -0.64,0.48 -1.04,0.61l-0.63 0.22 0.54 0.38c0.39,0.29 0.73,0.59 0.99,0.9 0.32,0.39 0.53,0.81 0.64,1.23 0.06,0.19 0.08,0.4 0.08,0.62l0 0.01 0.34 -0.01 -0.34 0 0 0.01 0.34 -0.01 -0.34 0 0.35 0 -0.35 -0.01 0 0.01 0 0c0,0.36 -0.06,0.76 -0.21,1.13l0 0.01 0 -0.01c-0.21,0.59 -0.58,1.13 -1.03,1.5l0 0c-0.32,0.27 -0.68,0.45 -1.05,0.55l-0.61 0.18 0.48 0.41c0.22,0.19 0.42,0.38 0.58,0.58l0.01 0c0.3,0.36 0.51,0.72 0.62,1.07l0 0c0.1,0.3 0.15,0.61 0.15,0.91l0 0c0,0.75 -0.3,1.44 -0.84,1.96l0 0c-0.52,0.48 -1.19,0.76 -1.92,0.78l-0.33 0.01 0 8.32 0 0c0,0.38 0.16,0.74 0.41,0.99l0 0c0.26,0.25 0.62,0.41 0.99,0.41l26.56 0c0.39,0 0.74,-0.16 0.99,-0.41l0 0c0.26,-0.25 0.41,-0.61 0.41,-0.99l0 0 -0.34 0 0 0zm-28.79 -9.03l0 -0.34c-0.18,0 -0.37,-0.02 -0.56,-0.08 -1.06,-0.27 -2.06,-0.55 -2.8,-0.76 -0.37,-0.1 -0.68,-0.19 -0.89,-0.25 -0.04,-0.01 -0.08,-0.02 -0.12,-0.03l-0.09 0.32 0.3 -0.15c-0.34,-0.65 -0.51,-1.31 -0.5,-1.89l0 0 -0.31 0 0.3 0.01 0.01 -0.01 -0.31 0 0.3 0.01 0.01 0 0 -0.01c0,-0.53 0.12,-0.99 0.36,-1.36l0.01 0 -0.01 0c0.25,-0.37 0.59,-0.67 1.12,-0.88l-0.12 -0.32 0.09 0.33c0.04,-0.01 0.13,-0.03 0.25,-0.03l0 0 0.01 0 0 0 0 0 0 0c0.28,0 0.73,0.08 1.2,0.23l0 0c0.32,0.1 0.64,0.23 0.97,0.39l0.14 -0.31 -0.31 -0.14 -0.01 0.03 -0.13 0.31 0.3 0.14c0.13,0.05 0.24,0.09 0.33,0.12l0.11 -0.32 -0.16 0.31c0.34,0.17 0.67,0.37 0.97,0.59l0 0c0.32,0.24 0.62,0.49 0.83,0.75l0 0c0.21,0.25 0.36,0.5 0.43,0.71l0 0.01 0 -0.01c0.06,0.21 0.1,0.41 0.1,0.59l0 0c0,0.48 -0.19,0.88 -0.53,1.19l0 0c-0.32,0.31 -0.77,0.51 -1.3,0.51l0 0.34 0 0.34c0.7,0 1.32,-0.27 1.77,-0.69l0 0c0.45,-0.43 0.73,-1.02 0.73,-1.69l0 0c0,-0.25 -0.04,-0.52 -0.13,-0.8l0 0c-0.11,-0.32 -0.3,-0.64 -0.56,-0.94l-0.01 -0.01 0.01 0.01c-0.26,-0.31 -0.58,-0.6 -0.94,-0.86l0 0c-0.33,-0.24 -0.69,-0.46 -1.05,-0.65l-0.02 -0.01 -0.02 -0.01c-0.11,-0.03 -0.19,-0.07 -0.29,-0.1l-0.13 0.31 0.31 0.13 0.01 -0.02 0.13 -0.31 -0.29 -0.14c-0.35,-0.16 -0.71,-0.31 -1.05,-0.41l0 0c-0.53,-0.17 -1.03,-0.27 -1.41,-0.27l0 0 0 0 0 0 -0.02 0 0 0c-0.17,0 -0.3,0.02 -0.43,0.06l-0.02 0 -0.02 0.01c-0.65,0.25 -1.12,0.65 -1.44,1.14l0 0c-0.32,0.5 -0.47,1.09 -0.47,1.73l0.34 0 -0.34 -0.01 0 0.01 0 0c0,0.71 0.19,1.47 0.58,2.2l0.06 0.13 0.14 0.04c0.04,0.01 0.08,0.02 0.13,0.04 0.21,0.06 0.51,0.15 0.89,0.25 0.75,0.21 1.75,0.49 2.81,0.76 0.25,0.07 0.49,0.1 0.73,0.1l0 -0.34 0.01 0zm-4.31 -9.63l0.34 0 0 -0.01c0,-0.43 0.07,-0.76 0.16,-1.02l0 0c0.06,-0.2 0.15,-0.36 0.26,-0.48 0.1,-0.13 0.21,-0.23 0.34,-0.31l0 0c0.26,-0.16 0.6,-0.26 1.02,-0.26l0 0c0.33,0 0.69,0.06 1.07,0.18 0.44,0.14 0.89,0.31 1.31,0.49l0.14 -0.31 -0.33 -0.08 -0.02 0.03 -0.08 0.33 0.34 0.08c0,0.01 0.02,0.01 0.05,0.02 0.04,0 0.08,0.01 0.13,0.02l0.06 -0.33 -0.14 0.31c0.42,0.19 0.82,0.41 1.17,0.64l0 0c0.36,0.25 0.66,0.51 0.88,0.78 0.23,0.27 0.37,0.54 0.45,0.83 0.02,0.1 0.04,0.22 0.04,0.35l0 0c0,0.01 0,0.04 0.01,0.07l0.33 -0.07 -0.34 0 0.23 0 -0.23 0 0 0 0.23 0 -0.23 0 0 0c0,0.23 -0.05,0.5 -0.15,0.77l0 0c-0.14,0.4 -0.4,0.79 -0.72,1.05l0 0c-0.33,0.27 -0.68,0.42 -1.13,0.42l0 0c-0.17,0 -0.35,-0.03 -0.56,-0.08l-0.09 0.33 0.15 -0.31 -0.41 -0.2c-0.4,-0.19 -0.8,-0.34 -1.19,-0.47l0 0c-0.62,-0.19 -1.22,-0.31 -1.73,-0.31l0 0 -0.01 0c-0.16,0 -0.31,0.02 -0.46,0.04l0.06 0.33 0.23 -0.24c-0.08,-0.08 -0.21,-0.22 -0.34,-0.43l0 0c-0.23,-0.39 -0.49,-1.05 -0.5,-2.16l-0.34 0 0.34 0.01 0 -0.01 0 0 0 0 -0.34 0 -0.34 -0.01 0 0 0 0 0 0.01c0,1.21 0.3,2.02 0.6,2.52l0 0c0.16,0.26 0.33,0.45 0.45,0.56l0.13 0.12 0.15 -0.03c0.11,-0.02 0.24,-0.03 0.36,-0.03l0.01 0 0 0c0.4,0 0.96,0.1 1.52,0.28l0 0c0.36,0.11 0.73,0.26 1.09,0.44l0.45 0.21 0.04 0.01c0.24,0.06 0.5,0.1 0.72,0.1l0 0c0.61,0 1.15,-0.23 1.56,-0.58l0 0c0.44,-0.35 0.75,-0.83 0.94,-1.34l0 0c0.12,-0.33 0.19,-0.68 0.19,-1l-0.23 0 0.23 0 0 0 -0.23 0 0.23 0 0 0 0 -0.03 -0.01 -0.04 -0.33 0.07 0.34 0c0,-0.01 0,-0.04 -0.01,-0.07l-0.33 0.07 0.34 0 0 0c0,-0.18 -0.02,-0.36 -0.07,-0.52 -0.1,-0.4 -0.3,-0.76 -0.57,-1.09 -0.28,-0.34 -0.63,-0.64 -1.03,-0.91l0 0c-0.39,-0.26 -0.82,-0.49 -1.27,-0.7l-0.04 -0.02 -0.04 -0.01c-0.04,0 -0.08,-0.01 -0.1,-0.02 -0.03,0 -0.04,0 -0.04,-0.01l-0.08 0.33 0.33 0.09 0 -0.04 0.08 -0.28 -0.27 -0.11c-0.44,-0.2 -0.91,-0.37 -1.37,-0.52 -0.44,-0.14 -0.87,-0.21 -1.28,-0.21l0 0c-0.52,0 -0.99,0.12 -1.38,0.37l0 0c-0.19,0.12 -0.37,0.27 -0.52,0.46 -0.14,0.19 -0.27,0.41 -0.36,0.66l0 0.01 0 0c-0.13,0.34 -0.2,0.76 -0.2,1.25l0 0.01 0.34 0 -0.34 -0.01 0.34 0.01 0 0zm1.06 -8.05l0.31 0.16c0.2,-0.43 0.5,-0.81 0.8,-1.06l0 0c0.15,-0.12 0.3,-0.21 0.43,-0.27 0.14,-0.05 0.26,-0.08 0.36,-0.08l0 0c0.12,0 0.23,0.02 0.37,0.1l0 0c1.13,0.58 2.56,1.48 3.74,2.17l0 0c0.24,0.14 0.41,0.31 0.52,0.52l0 0c0.13,0.21 0.21,0.47 0.21,0.81l0 0 0.26 0 -0.26 0 0 0 0.26 0 -0.26 0 0 0c0,0.43 -0.13,1 -0.49,1.69 -0.11,0.24 -0.24,0.41 -0.38,0.55l0 0c-0.22,0.2 -0.44,0.32 -0.69,0.4 -0.25,0.07 -0.51,0.1 -0.73,0.1l0 0 0 0c-0.12,0 -0.23,-0.01 -0.32,-0.02l-0.04 0.34 0.13 -0.31 -0.04 -0.02 -0.05 -0.02 0 0 0 0c-0.47,-0.21 -0.96,-0.39 -1.48,-0.56 -0.53,-0.17 -1.07,-0.26 -1.6,-0.26l0 0c-0.17,0 -0.32,0.01 -0.48,0.03l0.04 0.34 0.27 -0.2c-0.67,-0.89 -0.91,-1.84 -0.91,-2.69l0 -0.01 0 0c0,-0.62 0.13,-1.18 0.34,-1.55l0 0 -0.31 -0.16 -0.3 -0.16c-0.25,0.5 -0.41,1.15 -0.41,1.87l0 0.01 0 0c0,0.98 0.3,2.09 1.05,3.09l0.11 0.16 0.19 -0.02c0.13,-0.02 0.28,-0.03 0.41,-0.03l0 0c0.45,0 0.92,0.08 1.39,0.23 0.49,0.16 0.97,0.34 1.41,0.53l0.05 0.02 0.04 0.01 0 0 0 0.01 0.06 0.02 0.05 0.01c0.1,0.01 0.24,0.02 0.39,0.02l0 0 0 0c0.27,0 0.61,-0.03 0.94,-0.14 0.32,-0.1 0.66,-0.27 0.96,-0.55l0 0c0.19,-0.19 0.37,-0.43 0.52,-0.73 0.38,-0.77 0.55,-1.43 0.55,-2l-0.26 0 0.26 0.01 0 -0.01 -0.26 0 0.26 0.01 0 -0.01 0 0c0,-0.45 -0.11,-0.83 -0.28,-1.15l0 0c-0.19,-0.32 -0.46,-0.58 -0.79,-0.77l0 0c-1.17,-0.68 -2.57,-1.58 -3.77,-2.19l0 0c-0.23,-0.12 -0.45,-0.17 -0.67,-0.17l0 0c-0.21,0 -0.42,0.05 -0.63,0.14 -0.2,0.08 -0.39,0.21 -0.6,0.37l0 0c-0.37,0.32 -0.72,0.77 -0.98,1.26l0 0 0.3 0.16 0.01 0zm56.33 38.06l0.3 -0.17 -0.01 0 0.01 0 0 0 -0.01 0 0.01 0c-0.01,-0.02 -0.04,-0.06 -0.07,-0.12 -0.05,-0.09 -0.14,-0.24 -0.29,-0.47 -0.5,-0.8 -1.54,-2.43 -2.66,-4.25 -1.13,-1.83 -2.33,-3.83 -3.13,-5.35 -1.04,-1.97 -1.84,-3.59 -2.37,-5.2 -0.53,-1.61 -0.8,-3.21 -0.81,-5.22 0,-0.04 0,-0.07 0,-0.11l0 0 0 0c0.01,-0.21 0.01,-0.42 0.01,-0.62l0 -0.02c0,-3.96 -0.21,-7.09 -0.87,-11.6 -0.18,-1.2 -0.37,-2.09 -0.59,-2.82l0 0c-0.33,-1.09 -0.74,-1.79 -1.17,-2.5l0 0c-0.42,-0.7 -0.88,-1.43 -1.46,-2.79 -0.81,-1.92 -1.55,-3.1 -2.11,-4.16 -0.55,-1.07 -0.96,-2.02 -1.27,-3.74 -0.31,-1.75 -0.45,-3.36 -0.68,-4.65l0 0c-0.12,-0.65 -0.26,-1.22 -0.5,-1.73l0 0c-0.13,-0.25 -0.28,-0.49 -0.49,-0.7l0 0c-0.21,-0.21 -0.49,-0.38 -0.8,-0.47l0 0 -0.01 0 -0.01 0 -0.02 -0.01c-0.32,-0.07 -0.69,-0.12 -1.08,-0.12l0 0 0 0c-0.53,0 -1.11,0.1 -1.68,0.39l0 0c-0.42,0.22 -0.83,0.55 -1.18,0.99 -0.27,0.32 -0.5,0.7 -0.71,1.14l0.31 0.15 0.34 0 0 -6.24c0,-0.16 -0.02,-0.32 -0.05,-0.48 -0.01,-0.07 -0.03,-0.15 -0.06,-0.22 -0.29,-0.96 -1.18,-1.65 -2.24,-1.65l0 0 -26.55 0 0 0c-0.25,0 -0.48,0.04 -0.7,0.1 -0.37,0.12 -0.69,0.32 -0.97,0.59 -0.41,0.42 -0.68,1.01 -0.68,1.66l0 19.76 0.34 0 0 -0.34 0 0 0 0.34 0.08 -0.33c-0.19,-0.05 -0.38,-0.08 -0.6,-0.08l0 0 0 0 0 0 0 0c-0.35,0 -0.7,0.08 -1.02,0.22 -0.32,0.13 -0.6,0.31 -0.88,0.53l0 0c-0.47,0.41 -0.92,0.97 -1.24,1.59l0 0c-0.35,0.68 -0.52,1.5 -0.52,2.35l0 0.01 0.34 0 -0.34 0c0,0.86 0.19,2.11 1.01,3.39l0.3 -0.19 -0.17 -0.31c-0.09,0.05 -0.18,0.1 -0.26,0.16l0 0c-0.62,0.38 -1.05,0.95 -1.31,1.66l0 0c-0.17,0.48 -0.26,1.02 -0.26,1.6l0.34 0.01 -0.34 -0.01 0 0 0 0 0 0.02 0 0c0,1.19 0.24,2.22 0.76,3.06l0 0c0.08,0.15 0.19,0.29 0.29,0.42l0.26 -0.21 -0.17 -0.29c-0.49,0.31 -0.88,0.7 -1.2,1.17l0 0c-0.42,0.66 -0.64,1.46 -0.64,2.3l0.34 0 -0.34 0 0 0c0,0.89 0.24,1.82 0.7,2.69l0.28 0.52 0.19 0.06 0.09 -0.33 -0.3 0.18c0.17,0.26 0.37,0.55 0.61,0.87 0.87,1.22 2.26,2.88 3.75,4.54l0.59 0.66 0 -2.57 -0.08 -0.1c-0.2,-0.23 -0.41,-0.47 -0.6,-0.7 -0.69,-0.8 -1.31,-1.56 -1.83,-2.22 -0.1,-0.14 -0.21,-0.28 -0.3,-0.41l-0.28 0.2 -0.09 0.33c0.67,0.19 1.65,0.45 2.67,0.72 0.04,0.01 0.08,0.02 0.1,0.02l0.04 0.01 0.03 0 0 -0.34 -0.34 0 0 8.08c0,0.81 0.42,1.52 1.04,1.94 0.06,0.05 0.13,0.09 0.19,0.12 0.34,0.18 0.72,0.29 1.12,0.29l26.55 0c0.15,0 0.3,-0.02 0.44,-0.05 0.08,-0.01 0.17,-0.03 0.26,-0.06 0.12,-0.04 0.22,-0.08 0.33,-0.13 0.55,-0.27 0.99,-0.76 1.2,-1.36 0.03,-0.1 0.06,-0.2 0.08,-0.32 0.02,-0.13 0.04,-0.27 0.04,-0.42l-0.34 0 0.34 0.01 0 -0.01 0 0 0 -21.36 -0.34 0 -0.23 0.25c0.16,0.14 0.28,0.25 0.35,0.32 0.04,0.05 0.07,0.08 0.09,0.1l0 0 0.02 0.02 0 0 0.25 -0.23 -0.25 0.23 0 0 0.71 0.78 0.62 -0.86 0 0 -0.23 -0.16 0.23 0.16 0 0 -0.23 -0.16 0.23 0.16c0,-0.01 0.34,-0.47 0.69,-1 0.18,-0.27 0.37,-0.55 0.53,-0.81 0.08,-0.13 0.15,-0.26 0.21,-0.38l0 0c0.07,-0.11 0.12,-0.23 0.17,-0.37l0 -0.01 0 -0.01 -0.32 -0.09 0.32 0.1c0.04,-0.12 0.05,-0.23 0.05,-0.3l0 0 0 -0.01c0,-0.17 -0.04,-0.3 -0.07,-0.4l0 0 0 -0.01c-0.06,-0.2 -0.14,-0.4 -0.24,-0.65l-0.01 -0.01 0.01 0.01c-0.18,-0.43 -0.43,-0.99 -0.7,-1.7 -0.78,-2.01 -1.77,-5.16 -1.86,-9.28l-0.34 0 0.34 0 0 -1.29 -0.34 0 0.34 0.01c0.05,-1.51 0.18,-2.71 0.37,-3.64 0.16,-0.73 0.36,-1.3 0.58,-1.74 0.32,-0.65 0.66,-0.99 0.98,-1.18l0 0c0.32,-0.2 0.65,-0.26 0.99,-0.27l0.02 0 0 0 -0.02 -0.31 0 0.31 0.02 0 -0.02 -0.31 0 0.31c0.23,0 0.47,0.04 0.7,0.09l0.07 -0.34 -0.11 0.33 0.02 0.01c0.01,0 0.03,0.01 0.05,0.03l0 -0.01c0.02,0.03 0.06,0.09 0.13,0.19l0 0.01 0 -0.01c0.08,0.18 0.19,0.48 0.27,0.85l0 0.01 0 0c0.13,0.57 0.24,1.33 0.35,2.2 0.11,0.87 0.25,1.86 0.43,2.92 0.32,1.87 0.85,3.09 1.44,4.23 0.61,1.15 1.28,2.22 2.05,4.04 0.41,0.97 0.79,1.67 1.11,2.24 0.25,0.43 0.47,0.78 0.67,1.1 0.27,0.49 0.49,0.92 0.71,1.56 0.21,0.64 0.41,1.5 0.6,2.79 0.66,4.45 0.86,7.46 0.86,11.37 0,0.2 0,0.4 0,0.61l0.68 0 0 0 -0.68 0c0,0.04 -0.01,0.07 -0.01,0.11l0.01 0.02 0.33 -0.01 -0.34 0 0 0.01c0,2.16 0.32,3.98 0.9,5.75 0.58,1.76 1.42,3.47 2.48,5.46 0.82,1.56 2.18,3.78 3.39,5.73 0.61,0.97 1.18,1.88 1.63,2.6 0.23,0.36 0.42,0.67 0.58,0.93 0.16,0.25 0.27,0.44 0.33,0.54l0.3 -0.16 -0.18 -0.29 -18.04 11.12 0.18 0.29 0.31 -0.16c-0.09,-0.13 -0.19,-0.33 -0.36,-0.59 -0.54,-0.89 -1.55,-2.48 -2.52,-4.05 -0.48,-0.78 -0.98,-1.55 -1.38,-2.23 -0.42,-0.68 -0.75,-1.26 -0.97,-1.64 -0.67,-1.25 -1.42,-2.24 -2.35,-3.05 -0.93,-0.81 -2.02,-1.43 -3.34,-1.98 -2.56,-1.06 -6.07,-2.29 -9.16,-3.55 -2.38,-0.98 -4.83,-2.2 -6.92,-3.58l-0.09 -0.05 -2.94 0 0.83 0.61c2.48,1.83 5.52,3.39 8.48,4.6 3.14,1.29 6.66,2.52 9.15,3.55 1.22,0.51 2.12,1.03 2.87,1.69 0.75,0.65 1.36,1.45 1.97,2.57 0.16,0.31 0.49,0.83 0.9,1.47 0.6,0.96 1.37,2.16 2.06,3.23 0.34,0.54 0.66,1.04 0.92,1.45 0.26,0.42 0.47,0.75 0.58,0.94 0.28,0.55 0.54,1.03 0.73,1.36 0.08,0.17 0.15,0.31 0.2,0.4 0.03,0.04 0.05,0.08 0.06,0.1l0.02 0.03 0 0.01 0 0 0 0 0.22 -0.12 -0.22 0.12 0 0 0.22 -0.12 -0.22 0.12 0.29 -0.15 -0.29 0.15 0 0 0.29 -0.15 -0.29 0.15 0.3 -0.16 -0.3 0.15 0 0.01 0.3 -0.16 -0.3 0.15 0 0.01 0.43 0.8 20.4 -12.58 -0.41 -0.72 0 0 -0.3 0.17 -0.29 0.17 0.08 0.15 -19.22 11.85 -0.09 -0.16 -0.3 0.16 0.3 -0.15 0 -0.01c0,-0.01 -0.11,-0.2 -0.28,-0.54 -0.19,-0.34 -0.45,-0.81 -0.73,-1.36 -0.17,-0.29 -0.47,-0.8 -0.88,-1.42 -0.6,-0.94 -1.37,-2.14 -2.06,-3.22 -0.34,-0.54 -0.66,-1.05 -0.94,-1.47 -0.26,-0.43 -0.47,-0.78 -0.59,-0.98 -0.61,-1.17 -1.29,-2.05 -2.11,-2.77 -0.83,-0.71 -1.81,-1.27 -3.06,-1.79 -2.53,-1.05 -6.04,-2.28 -9.16,-3.56 -2.91,-1.19 -5.91,-2.74 -8.33,-4.52l-0.2 0.28 0 0.34 1.81 0 0 -0.34 -0.19 0.28c2.15,1.41 4.63,2.65 7.05,3.64 3.1,1.27 6.62,2.5 9.16,3.55 1.27,0.53 2.28,1.11 3.14,1.86 0.86,0.75 1.56,1.67 2.2,2.86 0.25,0.47 0.67,1.16 1.16,1.97 0.75,1.21 1.66,2.67 2.44,3.91 0.39,0.63 0.75,1.2 1.03,1.65 0.29,0.46 0.5,0.81 0.59,0.98l0.17 0.32 18.62 -11.48 -0.16 -0.29c-0.07,-0.13 -0.18,-0.32 -0.34,-0.57 -0.55,-0.89 -1.59,-2.52 -2.67,-4.27 -1.08,-1.75 -2.21,-3.61 -2.91,-4.95 -1.05,-1.98 -1.87,-3.65 -2.44,-5.36 -0.56,-1.7 -0.85,-3.43 -0.85,-5.53l0 -0.01 0 -0.01 0 0 -0.02 0 0.02 0 0 0 -0.02 0 0.02 0c0,-0.03 0,-0.07 0,-0.1l-0.68 -0.01 0 0 0.68 0.01c0,-0.21 0,-0.42 0,-0.62 0,-3.93 -0.21,-6.99 -0.86,-11.47 -0.19,-1.32 -0.4,-2.21 -0.64,-2.91 -0.23,-0.69 -0.48,-1.18 -0.78,-1.68 -0.19,-0.34 -0.4,-0.68 -0.65,-1.1 -0.32,-0.55 -0.67,-1.23 -1.07,-2.17 -0.78,-1.85 -1.49,-2.97 -2.07,-4.08 -0.59,-1.12 -1.07,-2.23 -1.39,-4.04 -0.17,-1.04 -0.3,-2.01 -0.41,-2.89 -0.11,-0.88 -0.23,-1.65 -0.36,-2.27l0 0c-0.11,-0.41 -0.22,-0.75 -0.34,-1.01l0 0c-0.09,-0.15 -0.17,-0.27 -0.26,-0.36l0 0c-0.06,-0.05 -0.11,-0.09 -0.15,-0.12 -0.07,-0.04 -0.13,-0.06 -0.17,-0.08l-0.02 -0.01 -0.02 0c-0.26,-0.05 -0.54,-0.09 -0.84,-0.09l0 0 0 0.33 0 -0.33c-0.44,0 -0.91,0.09 -1.35,0.36l0 0c-0.44,0.27 -0.87,0.72 -1.22,1.46 -0.26,0.5 -0.47,1.12 -0.64,1.9 -0.21,0.98 -0.35,2.22 -0.39,3.76l0 0.01 0 1.3 0 0c0.11,4.22 1.11,7.47 1.91,9.52 0.27,0.72 0.53,1.29 0.7,1.71l0 0c0.11,0.24 0.17,0.43 0.22,0.59l0.33 -0.1 -0.33 0.09c0.03,0.1 0.04,0.14 0.04,0.23l0.34 0 -0.34 -0.01c0,0.04 0,0.06 -0.02,0.11l0 0 0 0 0.33 0.1 -0.32 -0.11c-0.03,0.09 -0.07,0.17 -0.13,0.28l0 0c-0.05,0.1 -0.12,0.21 -0.19,0.34 -0.15,0.24 -0.33,0.52 -0.51,0.78 -0.18,0.26 -0.35,0.51 -0.48,0.69 -0.12,0.18 -0.2,0.29 -0.21,0.3l0 -0.01 -0.12 0.18 -0.15 -0.16 0 0 0 0 0 -0.01 -0.01 0 -0.02 -0.02 0 0 0 0c-0.02,-0.03 -0.05,-0.06 -0.1,-0.11 -0.08,-0.08 -0.21,-0.2 -0.37,-0.35l-0.57 -0.51 0 22.11 0 0 0 0.01 0 0.01c0,0.1 -0.01,0.2 -0.03,0.3 -0.01,0.07 -0.03,0.15 -0.06,0.22 -0.14,0.43 -0.45,0.77 -0.85,0.97 -0.08,0.04 -0.16,0.07 -0.23,0.09 -0.06,0.02 -0.12,0.03 -0.19,0.05 -0.1,0.02 -0.2,0.03 -0.31,0.03l-26.55 0c-0.29,0 -0.55,-0.08 -0.79,-0.2 -0.06,-0.03 -0.09,-0.06 -0.15,-0.09 -0.43,-0.3 -0.73,-0.81 -0.73,-1.38l0 -8.42 -0.34 0 0 0.34 0.08 -0.33c-0.04,-0.01 -0.06,-0.02 -0.08,-0.02 -1.01,-0.26 -1.99,-0.53 -2.66,-0.72l-0.96 -0.27 0.6 0.8c0.09,0.14 0.21,0.28 0.32,0.43 0.51,0.67 1.14,1.44 1.83,2.25 0.2,0.23 0.4,0.46 0.61,0.7l0.25 -0.23 -0.34 0 0 1.56 0.34 0 0.27 -0.23c-1.48,-1.64 -2.86,-3.29 -3.72,-4.48 -0.23,-0.31 -0.42,-0.59 -0.57,-0.83l-0.06 -0.11 -0.04 -0.01 -0.13 -0.27c-0.41,-0.78 -0.63,-1.6 -0.63,-2.37l0 0 0 0 0 0 0 0 0 0 0 0c0,-0.72 0.19,-1.39 0.54,-1.93l0 0c0.24,-0.39 0.58,-0.71 0.98,-0.96l0.32 -0.21 -0.25 -0.29c-0.07,-0.11 -0.15,-0.23 -0.24,-0.35l0 0c-0.42,-0.71 -0.65,-1.62 -0.65,-2.71l0 -0.01 -0.34 0 0.34 0 0 0 0 0 0 0c0,-0.52 0.08,-0.98 0.22,-1.38l0 0c0.22,-0.58 0.56,-1.01 1.03,-1.32l0 0c0.07,-0.04 0.13,-0.08 0.22,-0.12l0.34 -0.17 -0.21 -0.32c-0.75,-1.14 -0.91,-2.25 -0.91,-3.01l0 0 0 -0.01 -0.06 0 0.06 0 0 0 -0.06 0 0.06 0 0 0c0,-0.75 0.16,-1.48 0.45,-2.03l0 0c0.28,-0.55 0.67,-1.05 1.08,-1.38l0 0c0.21,-0.19 0.46,-0.34 0.69,-0.44 0.26,-0.1 0.52,-0.16 0.76,-0.16l0 0 0 0 0 0 0 0c0.15,0 0.3,0.02 0.44,0.06l0.04 0.01 0.04 0 0.34 0 0 -20.1c0,-0.46 0.19,-0.88 0.49,-1.18 0.19,-0.19 0.43,-0.34 0.69,-0.42 0.15,-0.05 0.32,-0.07 0.49,-0.07l0 0 26.55 0 0 0c0.75,0 1.38,0.49 1.6,1.17 0.01,0.05 0.03,0.11 0.05,0.16 0.02,0.11 0.02,0.22 0.02,0.34l0 7.77 0.65 -1.39c0.19,-0.4 0.4,-0.73 0.61,-1 0.3,-0.37 0.65,-0.64 0.99,-0.82l0 0c0.45,-0.23 0.91,-0.32 1.35,-0.32l0 0 0 0 0 0c0.33,0 0.65,0.05 0.93,0.11l0.01 0 0 0.01 0 0c0.19,0.05 0.37,0.15 0.5,0.29l0 0c0.14,0.14 0.26,0.32 0.35,0.52l0 0c0.2,0.41 0.33,0.93 0.46,1.55l0 0c0.21,1.24 0.36,2.86 0.67,4.65 0.31,1.78 0.77,2.84 1.34,3.93 0.58,1.1 1.29,2.24 2.09,4.12 0.59,1.39 1.08,2.17 1.5,2.87l0 0c0.42,0.7 0.79,1.33 1.09,2.35l0 0c0.21,0.68 0.4,1.54 0.57,2.72 0.66,4.48 0.87,7.57 0.87,11.5l0 0.02c0,0.2 0,0.41 0,0.62l0 0 0 0c0,0.03 -0.01,0.07 -0.01,0.11 0.01,2.07 0.3,3.76 0.85,5.43 0.55,1.67 1.36,3.33 2.41,5.31 0.94,1.77 2.37,4.14 3.62,6.15 0.63,1.01 1.21,1.92 1.65,2.62 0.22,0.35 0.41,0.65 0.55,0.87 0.14,0.23 0.24,0.38 0.27,0.44 0.02,0.04 0.04,0.08 0.05,0.1l0.01 0.02 0.01 0.01 0 0 0 0 0 0 0 0 0 0 0 0.01 0.29 -0.18 -0.29 0.17 0.29 -0.17 0 0 0 0zm-55.6 -48.33c0.8,0.9 1.47,1.53 1.69,1.73l0 -1.43c-0.28,-0.29 -0.63,-0.66 -1.01,-1.08 -0.92,-1.04 -1.99,-2.42 -2.67,-3.85 -0.34,-0.71 -0.48,-1.37 -0.48,-1.92 0,-0.68 0.21,-1.21 0.53,-1.57 0.33,-0.35 0.78,-0.56 1.34,-0.56 0.25,0 0.53,0.04 0.83,0.13 0.49,0.17 0.99,0.42 1.46,0.73l0 -1.2c-0.37,-0.2 -0.75,-0.38 -1.16,-0.51 -0.38,-0.12 -0.77,-0.18 -1.13,-0.18 -0.84,-0.01 -1.58,0.32 -2.1,0.9 -0.52,0.57 -0.8,1.36 -0.8,2.26 0,0.73 0.18,1.53 0.58,2.36 0.78,1.62 1.94,3.1 2.92,4.19l0 0zm0 0l-0.25 0.23c0.81,0.91 1.49,1.55 1.72,1.75l0.56 0.52 0 -2.34 -0.09 -0.1c-0.29,-0.29 -0.64,-0.65 -1.01,-1.07 -0.9,-1.02 -1.95,-2.39 -2.61,-3.77 -0.32,-0.67 -0.45,-1.28 -0.45,-1.77l-0.34 0 0.33 0.03c0.01,-0.02 0.01,-0.03 0.01,-0.03l-0.34 0 0.32 0.03 0.02 -0.01 0 -0.02c0,-0.61 0.18,-1.05 0.45,-1.34l-0.02 0c0.15,-0.14 0.3,-0.25 0.47,-0.33 0.19,-0.08 0.39,-0.12 0.64,-0.12l-0.01 0c0.22,0 0.46,0.03 0.72,0.12 0.46,0.15 0.94,0.39 1.39,0.68l0.52 0.34 0 -2.02 -0.17 -0.1c-0.38,-0.21 -0.79,-0.39 -1.22,-0.53 -0.41,-0.13 -0.83,-0.2 -1.24,-0.2l0.01 0 -0.02 0c-0.92,0 -1.76,0.36 -2.34,1.01l0 0c-0.58,0.64 -0.89,1.52 -0.89,2.48l0 0.01 0.34 0 -0.34 0c0,0.79 0.19,1.64 0.62,2.51 0.79,1.66 1.97,3.16 2.97,4.27l0.25 -0.23 0.25 -0.22c-0.96,-1.08 -2.12,-2.54 -2.87,-4.11 -0.37,-0.8 -0.54,-1.55 -0.54,-2.22l0 -0.01 0 0 -0.23 0.01 0.23 0 0 -0.01 -0.23 0.01 0.23 0 0 -0.01c0,-0.82 0.26,-1.52 0.71,-2.02l0 0c0.45,-0.5 1.11,-0.79 1.84,-0.79l0.01 0 0 0c0.32,0 0.68,0.05 1.04,0.17 0.37,0.12 0.73,0.28 1.08,0.48l0.17 -0.3 -0.34 0 0 1.2 0.34 0 0.19 -0.29c-0.49,-0.31 -1.01,-0.59 -1.56,-0.76 -0.32,-0.1 -0.63,-0.15 -0.92,-0.15l0 0 0 0c-0.33,0 -0.63,0.06 -0.9,0.17 -0.26,0.12 -0.5,0.29 -0.69,0.5l0 0 0 0c-0.4,0.43 -0.62,1.05 -0.62,1.8l0.34 0 -0.34 -0.04c0,0.03 0,0.04 0,0.04 0,0.61 0.15,1.31 0.51,2.07 0.71,1.47 1.78,2.87 2.72,3.92 0.39,0.43 0.73,0.81 1.03,1.1l0.24 -0.24 -0.34 0 0 1.43 0.34 0 0.23 -0.25c-0.21,-0.19 -0.87,-0.82 -1.67,-1.7l-0.25 0.22 0 0zm12.32 35.39l9.29 0 0 -0.95 -9.29 0 0 0.95zm0 0l0 0.34 9.62 0 0 -1.63 -9.97 0 0 1.63 0.35 0 0 -0.34 0.34 0 0 -0.61 8.61 0 0 0.26 -8.95 0 0 0.35 0.34 0 -0.34 0zm7.77 -45.19l-6.34 0 0 0.95 6.34 0 0 -0.95zm0 0l0 -0.34 -6.68 0 0 1.63 7.03 0 0 -1.63 -0.35 0 0 0.34 -0.32 0 0 0.61 -5.68 0 0 -0.27 6 0 0 -0.34 -0.32 0 0.32 0zm12.86 -8.1l-0.92 -0.23 -0.72 2.85 0.93 0.23 0.71 -2.85zm0 0l0.07 -0.33 -1.25 -0.31 -0.86 3.51 1.57 0.39 0.87 -3.51 -0.33 -0.08 -0.07 0.33 -0.34 -0.08 -0.63 2.52 -0.25 -0.07 0.54 -2.19 0.59 0.15 0.09 -0.33 -0.34 -0.08 0.34 0.08zm0.97 3.95l0.91 -0.88 1.85 -1.77 -0.65 -0.68 -2.76 2.64 0.65 0.69zm0 0l0.23 0.24 0.92 -0.88 2.08 -2 -1.12 -1.17 -3.25 3.11 1.13 1.18 0.24 -0.24 -0.23 -0.24 0.25 -0.24 -0.43 -0.44 2.27 -2.17 0.18 0.19 -1.59 1.53 -0.92 0.88 0.24 0.25 0.25 -0.24 -0.25 0.24zm0.34 2.13l2.84 -0.3 -0.08 -0.94 0 0 -2.85 0.3 0.09 0.94zm0 0l0.04 0.34 3.18 -0.34 -0.17 -1.58 -0.31 0 -3.22 0.34 0.17 1.61 0.35 -0.03 -0.04 -0.34 0.33 -0.04 -0.06 -0.6 2.51 -0.26 -0.02 -0.34 0 0.34 0 0 0 -0.34 -0.34 0.04 0.06 0.6 -2.52 0.26 0.04 0.34 0.33 -0.04 -0.33 0.04zm-17.56 17.68l-0.29 0c0,1.31 -0.54,2.51 -1.4,3.37 -0.86,0.86 -2.05,1.39 -3.37,1.39 -1.32,0 -2.51,-0.53 -3.37,-1.39 -0.87,-0.86 -1.4,-2.06 -1.4,-3.37 0,-1.32 0.53,-2.51 1.4,-3.37 0.86,-0.87 2.05,-1.4 3.37,-1.4 1.32,0 2.51,0.53 3.37,1.4 0.86,0.86 1.4,2.05 1.4,3.37l0.29 0 0.29 0c0,-2.96 -2.4,-5.36 -5.36,-5.36 -2.96,0 -5.36,2.4 -5.36,5.36 0,2.96 2.4,5.35 5.36,5.35 2.97,0 5.36,-2.39 5.36,-5.35l-0.29 0zm0 0l0 -0.08 -0.38 0 0 0.08c0,1.29 -0.52,2.46 -1.37,3.31 -0.86,0.85 -2.02,1.37 -3.32,1.37 -1.29,0 -2.46,-0.52 -3.31,-1.37 -0.85,-0.85 -1.37,-2.02 -1.37,-3.31 0,-1.3 0.52,-2.47 1.37,-3.32 0.85,-0.84 2.02,-1.37 3.31,-1.37 1.3,0 2.46,0.53 3.32,1.37 0.85,0.85 1.37,2.02 1.37,3.32l0 0.08 0.38 0 0.37 0 0 -0.08c0,-3.01 -2.44,-5.44 -5.44,-5.44 -3,0 -5.43,2.43 -5.43,5.44 0,3 2.43,5.44 5.43,5.44 3.01,0 5.44,-2.44 5.44,-5.44l0 -0.08 -0.37 0 0 0.08 0 0.08 0.29 0 0 -0.08 -0.09 0c0,2.91 -2.36,5.27 -5.27,5.27 -2.91,0 -5.27,-2.36 -5.27,-5.27 0,-2.92 2.36,-5.28 5.27,-5.28 2.91,0 5.27,2.36 5.27,5.28l0.09 0 0 -0.08 -0.29 0 -0.29 0 0 0.08 0.08 0c0,-1.34 -0.55,-2.55 -1.42,-3.43 -0.88,-0.88 -2.09,-1.42 -3.43,-1.42 -1.34,0 -2.55,0.54 -3.43,1.42 -0.88,0.88 -1.42,2.09 -1.42,3.43 0,1.34 0.54,2.55 1.42,3.43 0.88,0.87 2.09,1.41 3.43,1.41 1.34,0 2.55,-0.54 3.43,-1.41 0.87,-0.88 1.42,-2.09 1.42,-3.43l-0.08 0 0 0.08 0.29 0 0 -0.08zm-7.11 -2.24l4.07 0 0 4.55 0.58 0 0 -5.14 -4.65 0 0 0.59zm-0.23 2.85l3.7 0 0 -0.2 -3.7 0 0 0.2zm2.61 -0.79l1.09 0 0 -0.2 -1.09 0 0 0.2zm0 -0.82l1.09 0 0 -0.19 -1.09 0 0 0.19zm-2.61 2.52l2.04 0 0 -0.2 -2.04 0 0 0.2zm0 0.79l2.04 0 0 -0.2 -2.04 0 0 0.2zm2.16 -3.1c-0.04,-0.45 -0.47,-0.86 -0.47,-0.86 -0.11,0.11 -0.26,0.3 -0.37,0.51 0.09,0.16 0.17,0.34 0.18,0.54 0,0.15 0,0.27 -0.03,0.37 0.07,0.04 0.16,0.06 0.24,0.06 0.2,0 0.49,-0.17 0.45,-0.62l0 0zm-1.31 -0.77c0,0 0.49,0.46 0.52,0.97 0.04,0.51 -0.28,0.7 -0.51,0.7 -0.22,0 -0.58,-0.16 -0.59,-0.57 0,-0.41 0.36,-0.88 0.58,-1.1zm2.79 3.81c-0.02,0.04 -0.05,0.08 -0.09,0.12 -0.04,0.03 -0.08,0.06 -0.14,0.08 -0.05,0.02 -0.11,0.03 -0.17,0.04l0 0.2 -0.18 0 0 -0.2c-0.09,-0.01 -0.17,-0.04 -0.25,-0.07 -0.08,-0.03 -0.15,-0.08 -0.22,-0.13l0.13 -0.19c0.05,0.05 0.11,0.09 0.17,0.12 0.05,0.03 0.11,0.05 0.18,0.06l0 -0.4c-0.07,-0.02 -0.14,-0.04 -0.19,-0.06 -0.05,-0.03 -0.1,-0.06 -0.14,-0.09 -0.03,-0.03 -0.06,-0.07 -0.08,-0.12 -0.01,-0.04 -0.02,-0.09 -0.02,-0.15 0,-0.05 0.01,-0.1 0.03,-0.15 0.02,-0.04 0.05,-0.08 0.09,-0.12 0.02,-0.03 0.08,-0.06 0.13,-0.08 0.04,-0.02 0.11,-0.03 0.17,-0.04l0 -0.11 0.18 0 0 0.12c0.07,0.01 0.14,0.03 0.2,0.05 0.06,0.03 0.12,0.06 0.18,0.1l-0.11 0.19c-0.09,-0.06 -0.18,-0.11 -0.28,-0.13l0 0.39c0.15,0.04 0.26,0.09 0.34,0.15 0.06,0.07 0.1,0.16 0.1,0.27 0,0.05 -0.01,0.1 -0.03,0.15l0 0zm-0.57 -0.97c-0.06,0.01 -0.11,0.02 -0.14,0.05 -0.04,0.04 -0.05,0.07 -0.05,0.12 0,0.04 0.01,0.08 0.03,0.11 0.02,0.03 0.08,0.05 0.16,0.07l0 -0.35zm0.35 0.77l-0.03 -0.05c-0.02,-0.02 -0.04,-0.03 -0.06,-0.04 -0.03,-0.02 -0.06,-0.03 -0.1,-0.04l0 0.36c0.07,0 0.11,-0.02 0.15,-0.05 0.03,-0.03 0.05,-0.07 0.05,-0.12l-0.01 -0.06zm14.85 6.13l-0.38 0c0,1.22 -0.49,2.32 -1.29,3.12 -0.79,0.8 -1.89,1.29 -3.11,1.29 -1.22,0 -2.32,-0.49 -3.12,-1.29 -0.8,-0.8 -1.29,-1.9 -1.31,-3.12 0.02,-1.22 0.51,-2.32 1.31,-3.12 0.8,-0.8 1.9,-1.29 3.12,-1.29 1.22,0 2.32,0.49 3.11,1.29 0.8,0.8 1.29,1.9 1.29,3.12l0.38 0 0.37 0c0,-2.85 -2.3,-5.16 -5.15,-5.16 -2.86,0 -5.16,2.31 -5.16,5.16 0,2.85 2.3,5.16 5.16,5.16 2.85,0 5.15,-2.31 5.15,-5.16l-0.37 0zm-4.03 -0.91l-1 1.69 -0.2 0 0.15 -1.07 -0.58 0 0 -0.13 1.06 -1.71 0.14 0 -0.06 1.08 0.49 0 0 0.14zm-0.79 -1.87c-0.87,0.03 -1.33,0.36 -1.77,1.01 -0.43,0.66 -0.24,1.62 0.11,2.07 0.35,0.45 0.74,1.25 0.74,1.25l1.9 -0.22c0,0 0.95,-0.96 1.01,-2.15 0.09,-1.41 -1.34,-1.96 -1.99,-1.96l0 0zm0.88 4.41l0 0.4 -1.7 0.2 0 -0.37 1.7 -0.23zm-1.44 0.9l1.27 -0.11c0,0 -0.19,0.32 -0.54,0.38 -0.36,0.06 -0.64,-0.12 -0.73,-0.27zm4.66 -21.37l-0.3 0 0 -1.14c-0.11,0.11 -0.24,0.18 -0.39,0.23l0 -0.27c0.08,-0.03 0.15,-0.07 0.24,-0.15 0.1,-0.07 0.17,-0.15 0.19,-0.25l0.26 0 0 1.58 0 0zm-0.41 -2.57c-0.97,0 -1.74,0.78 -1.74,1.74 0,0.96 0.77,1.74 1.74,1.74 0.96,0 1.73,-0.78 1.73,-1.74 0,-0.96 -0.77,-1.74 -1.73,-1.74zm-0.32 7.97l-8.62 0 2.38 -2.9 1.91 1.83 1.95 -1.83 2.4 2.9c0,0 -0.01,0 -0.01,0l-0.01 0zm-8.97 -0.42l0 -5.11 2.35 2.25 -2.35 2.86zm9.3 -0.05l-2.3 -2.81 1.05 -0.97c-0.15,-0.1 -0.3,-0.22 -0.43,-0.35l-2.98 2.77 -4.26 -4.1 6.59 0c0,-0.1 -0.02,-0.2 -0.02,-0.3 0,-0.08 0.01,-0.16 0.01,-0.25l-6.63 0c-0.25,0 -0.47,0.1 -0.63,0.26 -0.16,0.16 -0.26,0.39 -0.26,0.63l0 5.25c0,0.25 0.1,0.47 0.26,0.63 0.16,0.16 0.38,0.26 0.63,0.26l8.64 0c0.24,0 0.46,-0.1 0.62,-0.26 0.16,-0.16 0.26,-0.38 0.26,-0.63l0 -3.63c-0.17,0.05 -0.36,0.07 -0.55,0.07l0 3.43 0 0zm-15.88 27c-1.13,-1.01 -1.04,-2.65 -0.36,-3.87 -0.24,1.3 -0.38,2.59 0.56,3.66 0.29,0.33 0.63,0.61 0.99,0.87 -0.43,-0.13 -0.85,-0.35 -1.19,-0.66l0 0zm4.44 -3.43c-0.61,-1.72 -2.82,-4.59 -2.82,-4.59 0,0 -1.84,2.48 -2.54,3.97 -0.71,1.49 -0.73,2.75 -0.15,4.02 0.6,1.27 2.66,2.13 4.31,1.15 1.65,-0.99 1.81,-2.83 1.2,-4.55l0 0 0 0z"/>
 </g>
</svg>
