<?xml version="1.0" encoding="UTF-8"?>
<!DOCTYPE svg PUBLIC "-//W3C//DTD SVG 1.1//EN" "http://www.w3.org/Graphics/SVG/1.1/DTD/svg11.dtd">
<!-- Creator: CorelDRAW 2020 (64-Bit) -->
<svg xmlns="http://www.w3.org/2000/svg" xml:space="preserve" width="6.7732mm" height="6.7732mm" version="1.1" style="shape-rendering:geometricPrecision; text-rendering:geometricPrecision; image-rendering:optimizeQuality; fill-rule:evenodd; clip-rule:evenodd"
viewBox="0 0 677.32 677.32"
 xmlns:xlink="http://www.w3.org/1999/xlink"
 xmlns:xodm="http://www.corel.com/coreldraw/odm/2003">
 <defs>
  <style type="text/css">
   <![CDATA[
    .fil0 {fill:black}
   ]]>
  </style>
 </defs>
 <g id="Layer_x0020_1">
  <metadata id="CorelCorpID_0Corel-Layer"/>
  <g id="_1437805862704">
   <path class="fil0" d="M303.26 334.37c8.89,-18.22 15.71,-39.05 29.26,-42.84 22.4,-6.27 29.37,18.17 36.86,33.1 7.97,15.87 16.25,32.26 23.78,48.25 6.22,13.22 7.64,9.77 24.12,12.03l62.85 9.13c27.46,4.34 29.02,26.86 16.37,40.01 -6.07,6.31 -11.94,11.49 -18.33,17.66l-36.38 35.61c-3.17,3.02 -7.31,4.78 -7.02,10.68l7.92 45.95c3.37,19.11 12.84,46.53 -1.3,58.16 -15.07,12.41 -30.26,-0.22 -50.7,-10.82 -63.97,-33.2 -44.5,-30.59 -71.02,-17.3 -7.89,3.95 -15.37,8.14 -23.61,12.39 -15.04,7.77 -37.87,22.98 -50.52,20.56 -25.72,-4.92 -15.79,-35.3 -13.12,-50.57 13.43,-76.97 16.73,-53.47 -7.78,-79.74 -7.31,-7.84 -11.5,-11.52 -18.15,-17.87 -10.62,-10.14 -31.63,-26.86 -33.01,-38.81 -3.07,-26.72 27.39,-26.53 42.61,-28.6 20.92,-2.84 41.99,-6.84 63.06,-9.1l24.11 -47.88zm-84.53 167.41c1.19,41.43 -34.76,98.88 11.38,123 23.8,12.43 43.35,-1.56 61.06,-10.89 9.04,-4.76 17.38,-8.92 25.97,-13.68 13.02,-7.2 19.48,-12.35 26.5,-8.65 17.32,9.12 34.54,18.58 52.71,27.78 22.06,11.17 39.81,16.64 60.02,-1.04 19.18,-16.79 15.63,-32.29 11.16,-60.51l-5.77 -33.82c-4.27,-24.7 -5.72,-19.41 4.26,-29.21 15.63,-15.34 26.55,-26.06 40.61,-39.8 15.85,-15.49 26.53,-33.47 15.26,-57.11 -10.05,-21.07 -25.74,-23.91 -52.59,-27.67 -11.64,-1.63 -23.31,-3.44 -34.8,-5.08 -5.72,-0.81 -12.4,-1.41 -17.88,-2.46 -6.21,-1.19 -5.98,-4.2 -8.91,-10.29 -8.62,-17.91 -17.49,-35.75 -26.59,-53.81 -9.91,-19.64 -24.05,-33.12 -49.53,-29.42 -23.65,3.44 -31.31,20.38 -40.55,39.88 -0.89,1.87 -24.66,51.25 -26.81,52.68l-69.52 10.42c-23.37,3.17 -39.26,15.12 -42.95,37.56 -4.58,27.93 15.83,42.17 26.91,52.91 6.98,6.78 13.07,12.69 20.2,19.42 6.81,6.43 12.92,13.29 19.86,19.79z"/>
   <path class="fil0" d="M250.41 341.43c1.85,-7.59 11.22,-23.54 15.91,-33.21 4.95,-10.21 10.77,-23.39 16.65,-32.52 11.49,-17.83 36.14,-33.8 66.95,-28.78 40.8,6.65 51.43,41.72 69.04,77.35 9.05,18.33 4.48,18 28.89,19.63 4.57,-6.42 9.84,-19.1 13.97,-27.34 9.28,-18.5 13.83,-10.18 9.23,-26.35 -5.87,-20.64 -11.61,-43.42 -17.59,-62.83 -4.24,-13.73 -4.35,-18.77 -13.87,-26.94 -10.62,-9.12 -51.95,-16.04 -65.49,-13.63 -24.27,4.32 -50.02,3.56 -74.03,-0.48 -10.57,-1.78 -24.72,2.27 -35.16,4.27 -29.29,5.62 -34.1,10.43 -41.87,38.42 -5.83,21.04 -11.52,42.61 -17.61,62.93 -2.55,8.48 -2.19,7.53 2.42,13.04 10.78,12.89 12.35,25.66 21.65,39.09l20.91 -2.65z"/>
   <path class="fil0" d="M328.48 48.62c-79.35,14.55 -59.63,131.31 19.24,120.13 30.73,-4.36 56.58,-33.55 50.86,-70.14 -4.59,-29.36 -34.08,-56.6 -70.1,-49.99z"/>
   <path class="fil0" d="M494.65 350.48c5.77,-10.34 8.69,-21.88 20.21,-25.26 14.62,-4.29 23.63,4.46 28.37,13.97 24.88,49.92 15.74,45.58 40.85,49 19.17,2.62 64.66,2.02 53.86,34.97 -2.19,6.69 -41.07,43.88 -44.24,45.49 0.88,17.52 7.01,37.2 8.92,54.76 2.13,19.62 -15.66,31.99 -33.08,23.4 -13.84,-6.83 -26.99,-13.87 -40.87,-21.48 -4.91,-2.7 -5.57,-4.09 -10.76,-1.65l-30.48 16.27 3.62 22.02c4.91,-0.87 17.04,-7.81 21.91,-10.6 10.95,-6.29 11.45,-3.45 21.45,1.86 12.14,6.46 29.75,18.24 45.43,18.51 19.8,0.35 33.86,-11.73 40.2,-23.74 9.13,-17.33 2.9,-36.11 -0.19,-54.97 -2.82,-17.28 -4.87,-12.36 4.4,-22.44 17.76,-19.31 38.41,-29.54 36.95,-57.53 -2.24,-42.98 -46.92,-43.98 -79.85,-47.5 -4.69,-6.14 -14.2,-27.73 -18.53,-36.37 -16.29,-32.55 -51.91,-33.73 -71.18,-15.23 -6.81,6.53 -17.06,24.25 -19.55,33.86l22.56 2.66z"/>
   <path class="fil0" d="M83.62 468.64c-6.43,-3.29 -16.48,-15.96 -23.24,-22.17 -4.72,-4.34 -18.71,-16.33 -21,-23.31 -10.82,-32.94 34.88,-32.37 53.86,-34.97 22.09,-3.02 17.18,-0.45 26.22,-19.21 11.08,-22.97 19.54,-51.88 43.83,-43.5 11,3.8 13.82,15.07 19.45,25.47l22.45 -3.2c-1.32,-5.17 -5.98,-13.18 -8.53,-18.32 -4.14,-8.36 -5.59,-10.46 -11.59,-16.07 -9.18,-8.59 -25.48,-14.33 -42,-9.51 -30.84,9 -32.02,41.81 -47.08,61.74 -33.09,3.08 -77.68,5.06 -79.87,47.42 -1.17,22.59 11.36,32.4 21.26,42.08 27.33,26.71 23.14,19.43 20.11,37.75 -3.16,19.08 -9.3,37.96 -0.22,55.1 6.69,12.64 20.72,24.14 40.2,23.8 15.75,-0.27 33.07,-11.93 45.44,-18.52 10.92,-5.81 10.31,-8.17 22.21,-1.4 4.67,2.65 16.02,8.88 21.08,10.15l3.56 -22.06c-6.01,-3.58 -13.61,-7.16 -20.07,-10.77 -3.42,-1.91 -6.32,-3.59 -10.28,-5.46 -5.13,-2.42 -5.92,-1.07 -10.78,1.62 -12.94,7.18 -27.57,14.92 -40.85,21.51 -18.08,8.97 -35.12,-4.61 -33.08,-23.41 1.9,-17.56 8.11,-37.39 8.92,-54.76z"/>
   <path class="fil0" d="M182.67 284.88c2.99,-4.75 11.04,-34.41 11.69,-40.78 -21.45,-3.99 -46.11,1.78 -69.32,-0.08 -16.25,-1.3 -15.76,-2.56 -32.79,0.61 -9.48,1.77 -20.03,2.61 -27.38,7.3 -13.46,8.59 -16.26,30.68 -21.52,49.31 -4.44,15.69 -12.59,38.96 -15.19,55.09 8.05,-1.77 13.14,-5.77 25.47,-7.55 9.55,-1.37 18.99,-3 28.41,-4.08 4.5,-14.36 19.09,-41.69 33.21,-51.93 25.67,-18.62 44.12,-13.82 67.42,-7.89z"/>
   <path class="fil0" d="M641.68 328.43c-21.85,-75.91 -12.19,-75.29 -59.62,-84.36 -23.47,-4.49 -32.72,4.64 -67.78,0.92 -22.9,-2.44 -6.3,-4.39 -31.54,-0.98 0.43,6.08 3.5,14.6 5.21,20.81 0.95,3.45 1.99,7.07 2.91,10.41l3.23 9.03c0.08,-0.19 0.35,0.58 0.56,0.85 27.17,-8.69 46.45,-7.57 67.42,7.68 14.2,10.33 28.16,36.72 33.23,51.89 9.79,1.24 19.48,2.78 29.45,4.24 11.34,1.66 16.89,5.7 24.38,7.42 -1.17,-8.13 -5.24,-20.22 -7.45,-27.91z"/>
   <path class="fil0" d="M95.67 186.21c3.76,25.32 28.24,45.82 58.01,41.63 26.25,-3.7 46.36,-29.98 41.73,-58.01 -10.67,-64.54 -109.72,-50.79 -99.74,16.38z"/>
   <path class="fil0" d="M481.57 183.81c2.88,25.72 26.09,47.84 56.27,44.29 26.2,-3.08 47.11,-26.5 44.04,-56.01 -2.66,-25.65 -26.35,-47.31 -55.82,-44.24 -25.68,2.68 -47.86,25.94 -44.49,55.96z"/>
  </g>
 </g>
</svg>
