<?xml version="1.0" encoding="UTF-8"?>
<!DOCTYPE svg PUBLIC "-//W3C//DTD SVG 1.1//EN" "http://www.w3.org/Graphics/SVG/1.1/DTD/svg11.dtd">
<!-- Creator: CorelDRAW 2020 (64-Bit) -->
<svg xmlns="http://www.w3.org/2000/svg" xml:space="preserve" width="100%" height="100%" version="1.1" shape-rendering="geometricPrecision" text-rendering="geometricPrecision" image-rendering="optimizeQuality" fill-rule="evenodd" clip-rule="evenodd"
viewBox="0 0 67.734 67.733"
 xmlns:xlink="http://www.w3.org/1999/xlink"
 xmlns:xodm="http://www.corel.com/coreldraw/odm/2003">
 <g id="Layer_x0020_1">
  <metadata id="CorelCorpID_0Corel-Layer"/>
  <g id="_1428201804064">
   <rect fill="none" x="-0" y="-0.001" width="67.733" height="67.733"/>
   <g>
    <path fill="black" fill-rule="nonzero" d="M29.106 50.585c0.001,0.417 -0.169,0.797 -0.443,1.07 -0.273,0.273 -0.653,0.444 -1.07,0.443l-11.708 0c-0.417,0.001 -0.798,-0.17 -1.071,-0.443 -0.273,-0.273 -0.443,-0.653 -0.443,-1.07l0 -31.29c0,-0.417 0.17,-0.798 0.443,-1.071 0.273,-0.273 0.654,-0.443 1.071,-0.443l11.708 0c0.417,0 0.797,0.17 1.07,0.443 0.274,0.273 0.444,0.654 0.443,1.071l0 31.29zm-0.81 -35.096l-13.203 0c-1.371,0 -2.483,1.112 -2.483,2.483l0 33.983c0,1.371 1.112,2.483 2.483,2.483l13.203 0c1.372,0 2.483,-1.112 2.483,-2.483l0 -33.983c0,-1.371 -1.111,-2.483 -2.483,-2.483z"/>
    <polygon fill="black" fill-rule="nonzero" points="10.086,24.693 0.587,24.693 0.587,31.192 10.086,31.192 "/>
    <path fill="black" fill-rule="nonzero" d="M3.373 19.979c0,-0.323 -0.263,-0.585 -0.586,-0.585 -0.323,0 -0.586,0.262 -0.586,0.585l0 4.157 1.172 0 0 -4.157z"/>
    <path fill="black" fill-rule="nonzero" d="M8.429 19.979c0,-0.323 -0.262,-0.585 -0.585,-0.585 -0.324,0 -0.586,0.262 -0.586,0.585l0 4.157 1.171 0 0 -4.157z"/>
    <path fill="black" fill-rule="nonzero" d="M10.686 32.721c0,-0.489 -0.396,-0.886 -0.885,-0.886l-8.914 0c-0.489,0 -0.886,0.397 -0.886,0.886 0,0.489 0.397,0.885 0.886,0.885l8.914 0c0.489,0 0.885,-0.396 0.885,-0.885z"/>
    <path fill="black" fill-rule="nonzero" d="M8.263 50.955c-0.618,-0.245 -1.18,-0.67 -1.594,-1.292 -0.413,-0.623 -0.685,-1.449 -0.686,-2.529l0 -13.018 -1.221 0 0 0 0 13.018c0,0.859 0.147,1.625 0.412,2.288 0.396,0.996 1.056,1.756 1.832,2.254 0.775,0.499 1.661,0.744 2.528,0.744l2.409 0 0 -1.221c0,0 -0.924,0 -2.409,0 -0.424,0 -0.86,-0.081 -1.271,-0.244z"/>
    <path fill="black" fill-rule="nonzero" d="M17.002 14.951l9.499 0c0.27,0 0.488,-0.218 0.488,-0.488l0 -0.681c0,-0.27 -0.218,-0.488 -0.488,-0.488l-9.499 0c-0.269,0 -0.488,0.218 -0.488,0.488l0 0.681c0,0.27 0.219,0.488 0.488,0.488z"/>
    <path fill="black" fill-rule="nonzero" d="M66.611 53.314l-32.491 0c0.003,-0.614 0.02,-1.672 0.089,-2.828 0.039,-0.66 0.096,-1.353 0.175,-2.01 0.08,-0.656 0.183,-1.278 0.313,-1.792 0.159,-0.633 0.315,-1.129 0.482,-1.521 0.124,-0.294 0.253,-0.53 0.393,-0.729 0.211,-0.298 0.445,-0.521 0.765,-0.744 0.319,-0.222 0.726,-0.437 1.245,-0.686 1.875,-0.9 5.699,-2.705 6.877,-3.248 0.314,-0.144 0.579,-0.285 0.811,-0.449 0.173,-0.123 0.328,-0.261 0.459,-0.418 0.198,-0.235 0.335,-0.508 0.429,-0.799 0.095,-0.293 0.155,-0.609 0.215,-0.979 0.049,-0.312 0.071,-0.606 0.071,-0.887 0,-0.497 -0.067,-0.949 -0.156,-1.382 -0.088,-0.434 -0.196,-0.85 -0.288,-1.292 -0.122,-0.586 -0.245,-1.179 -0.337,-1.624 -0.046,-0.223 -0.084,-0.409 -0.111,-0.539 -0.027,-0.131 -0.042,-0.205 -0.042,-0.205l-0.063 -0.308 -0.283 -0.103c-0.018,-0.008 -0.177,-0.084 -0.378,-0.308 -0.204,-0.23 -0.456,-0.618 -0.631,-1.283 -0.075,-0.285 -0.102,-0.525 -0.102,-0.726 0.001,-0.402 0.105,-0.655 0.197,-0.814 0.046,-0.078 0.09,-0.132 0.118,-0.163 0.014,-0.014 0.023,-0.023 0.027,-0.027l0.295 -0.231 -0.112 -0.368 0 0c-0.012,-0.038 -0.349,-1.191 -0.348,-2.801 0,-0.47 0.029,-0.98 0.101,-1.512 0.156,-1.137 0.689,-2.26 1.607,-3.093 0.459,-0.418 1.015,-0.766 1.679,-1.012 0.664,-0.245 1.438,-0.389 2.331,-0.389 0.035,0 0.07,0 0.105,0l0.004 0 0.004 0c0.644,0 1.335,0.088 1.999,0.29 0.499,0.151 0.983,0.365 1.427,0.652 0.666,0.43 1.243,1.018 1.663,1.822 0.419,0.804 0.683,1.833 0.683,3.157 0,0.873 -0.116,1.874 -0.381,3.013l-0.051 0.221 0.116 0.195c0.325,0.544 0.451,1.055 0.451,1.511 0,0.487 -0.146,0.913 -0.371,1.24 -0.225,0.326 -0.527,0.545 -0.825,0.631l-0.302 0.089 -0.082 0.304c-0.3,1.114 -0.435,2.398 -0.436,3.604 0,0.614 0.036,1.208 0.106,1.749 0.071,0.542 0.175,1.03 0.323,1.445 0.091,0.254 0.233,0.481 0.404,0.689 0.3,0.362 0.691,0.67 1.137,0.959 0.669,0.431 1.467,0.814 2.283,1.171 0.816,0.357 1.648,0.685 2.37,0.991 0.563,0.239 1.169,0.483 1.766,0.762 0.896,0.417 1.769,0.914 2.447,1.561 0.339,0.324 0.631,0.683 0.862,1.094 0.231,0.41 0.402,0.871 0.495,1.407 0.207,1.195 0.325,2.556 0.389,3.77 0.065,1.215 0.077,2.286 0.077,2.911 0,0.012 0,0.021 0,0.032zm1.045 -3.002c-0.066,-1.243 -0.185,-2.638 -0.404,-3.903 -0.151,-0.88 -0.487,-1.632 -0.938,-2.263 -0.678,-0.947 -1.6,-1.618 -2.546,-2.144 -0.948,-0.525 -1.93,-0.909 -2.755,-1.259 -0.564,-0.239 -1.178,-0.486 -1.788,-0.743 -0.915,-0.384 -1.824,-0.795 -2.524,-1.222 -0.349,-0.213 -0.645,-0.43 -0.861,-0.637 -0.217,-0.206 -0.348,-0.399 -0.401,-0.553 -0.11,-0.305 -0.204,-0.727 -0.267,-1.211 -0.063,-0.485 -0.096,-1.034 -0.096,-1.604 -0.001,-1.02 0.109,-2.109 0.33,-3.04 0.443,-0.202 0.827,-0.533 1.115,-0.95 0.356,-0.515 0.571,-1.165 0.571,-1.878 0,-0.603 -0.157,-1.249 -0.498,-1.887 0.247,-1.123 0.363,-2.138 0.363,-3.053 0,-1.309 -0.235,-2.418 -0.648,-3.34 -0.309,-0.691 -0.718,-1.275 -1.192,-1.755 -0.711,-0.722 -1.562,-1.21 -2.438,-1.516 -0.874,-0.305 -1.774,-0.432 -2.611,-0.433l0 0c-0.04,-0.001 -0.08,-0.001 -0.12,-0.001 -1.014,0 -1.923,0.164 -2.721,0.459 -1.196,0.443 -2.136,1.18 -2.802,2.064 -0.667,0.883 -1.065,1.909 -1.207,2.943 -0.08,0.588 -0.112,1.148 -0.112,1.664 0.001,1.305 0.199,2.324 0.315,2.812 -0.046,0.06 -0.093,0.129 -0.14,0.209 -0.182,0.309 -0.353,0.775 -0.352,1.383 0,0.303 0.042,0.641 0.139,1.011 0.236,0.904 0.625,1.493 0.978,1.851 0.153,0.156 0.296,0.265 0.415,0.344 0.085,0.412 0.262,1.27 0.439,2.12 0.099,0.474 0.207,0.892 0.287,1.285 0.08,0.395 0.133,0.764 0.133,1.159 0,0.224 -0.017,0.457 -0.057,0.71 -0.049,0.31 -0.098,0.554 -0.153,0.74 -0.041,0.141 -0.085,0.247 -0.133,0.335 -0.074,0.13 -0.156,0.227 -0.305,0.342 -0.149,0.115 -0.369,0.241 -0.683,0.385 -1.192,0.548 -5.009,2.351 -6.893,3.255 -0.478,0.23 -0.892,0.442 -1.263,0.684 -0.277,0.18 -0.531,0.378 -0.759,0.609 -0.343,0.345 -0.622,0.761 -0.854,1.268 -0.233,0.508 -0.424,1.108 -0.613,1.858 -0.146,0.582 -0.255,1.244 -0.338,1.931 -0.249,2.061 -0.273,4.361 -0.273,5.209 0,0.211 0.001,0.331 0.001,0.334l0.008 0.554 34.715 0 0.01 -0.551c0,-0.003 0.004,-0.225 0.004,-0.605 0,-0.64 -0.012,-1.728 -0.078,-2.97z"/>
    <polygon fill="black" fill-rule="nonzero" points="24.942,26.956 17.931,36.248 20.64,36.135 18.355,43.653 25.02,34.375 22.635,34.475 "/>
   </g>
  </g>
 </g>
</svg>
