<?xml version="1.0" encoding="utf-8"?>
<!-- Generator: Adobe Illustrator 16.0.0, SVG Export Plug-In . SVG Version: 6.00 Build 0)  -->
<!DOCTYPE svg PUBLIC "-//W3C//DTD SVG 1.1//EN" "http://www.w3.org/Graphics/SVG/1.1/DTD/svg11.dtd">
<svg version="1.1" id="Layer_1" xmlns="http://www.w3.org/2000/svg" xmlns:xlink="http://www.w3.org/1999/xlink" x="0px" y="0px"
	   viewBox="0 0 255 105" enable-background="new 0 0 255 105" xml:space="preserve">
<g>
	<path fill="#FFC425" d="M174.514,51.952l42.48-49.939h-37.67l-12.903,49.114c0.037,0,0.078-0.004,0.111-0.004
		C169.364,51.123,172.044,51.406,174.514,51.952"/>
	<polygon fill="#EF3829" points="20.926,31.395 43.851,31.395 25.261,101.865 2.332,101.865 	"/>
	<polygon fill="#EF3829" points="74.915,52.706 83.054,52.706 78.936,68.277 71.027,68.277 61.999,101.863 39.334,101.863 
		48.364,68.277 42.353,68.277 46.465,52.706 52.258,52.706 56.646,36.258 79.304,36.258 	"/>
	<path fill="#EF3829" d="M126.137,70.906c-3-0.205-5.02-0.412-8.059,0.1c-6.721,1.143-9.906,4.781-11.531,10.953l-5.256,19.904
		H78.625l13.09-49.624h22.667l-3.454,10.006c0,0,6.41-11.127,20.579-11.127L126.137,70.906z"/>
	<path fill="#EF3829" d="M222.874,62.246c5.683-6.406,8.668-11.127,17.973-11.127c11.241,0,13.58,9.254,10.695,20.186l-8.063,30.559
		h-22.933l6.38-24.207c0.763-2.895,1.85-7.006-2.263-7.006c-4.017,0-5.102,4.111-5.862,7.006l-6.39,24.207H189.87l13.088-49.624
		h22.527L222.874,62.246z"/>
	<path fill="#EF3829" d="M174.514,51.953l-12.018,14.124l3.925-14.949c-16.313,0.042-32.406,9.195-36.982,26.537
		c-4.338,16.449,7.906,25.324,23.411,25.324c15.515,0,32.436-8.875,36.775-25.324C193.413,63.291,186.325,54.547,174.514,51.953
		 M169.178,77.047c-1.419,5.375-6.83,9.656-12.203,9.656c-5.379,0-8.531-4.281-7.113-9.656c1.416-5.375,6.834-9.658,12.204-9.658
		C167.441,67.389,170.599,71.672,169.178,77.047"/>
</g>
</svg>
