<?xml version="1.0" encoding="UTF-8"?>
<!DOCTYPE svg PUBLIC "-//W3C//DTD SVG 1.1//EN" "http://www.w3.org/Graphics/SVG/1.1/DTD/svg11.dtd">
<!-- Creator: CorelDRAW 2020 (64-Bit Evaluation Version) -->
<svg xmlns="http://www.w3.org/2000/svg" xml:space="preserve" width="100%" height="100%" version="1.1" style="shape-rendering:geometricPrecision; text-rendering:geometricPrecision; image-rendering:optimizeQuality; fill-rule:evenodd; clip-rule:evenodd"
viewBox="0 0 677.32 677.32"
 xmlns:xlink="http://www.w3.org/1999/xlink"
 xmlns:xodm="http://www.corel.com/coreldraw/odm/2003">
 <defs>
  <style type="text/css">
   <![CDATA[
    .fil1 {fill:#DE1815;fill-rule:nonzero}
    .fil0 {fill:#FBCB00;fill-rule:nonzero}
   ]]>
  </style>
 </defs>
 <g id="Layer_x0020_1">
  <metadata id="CorelCorpID_0Corel-Layer"/>
  <g id="_2371288850656">
   <g>
    <path class="fil0" d="M455.71 337.2l105.75 -131.1 -93.8 0 -32.1 128.92 0.31 0c6.96,0 13.72,0.72 19.84,2.18z"/>
    <polygon class="fil1" points="73.32,283.18 130.35,283.18 84.02,468.3 26.99,468.3 "/>
    <polygon class="fil1" points="207.74,339.17 228,339.17 217.72,380.1 197.98,380.1 175.54,468.3 119.13,468.3 141.57,380.1 126.61,380.1 136.9,339.17 151.23,339.17 162.24,295.96 218.65,295.96 "/>
    <path class="fil1" d="M335.21 386.96c-7.48,-0.52 -12.47,-1.04 -20.05,0.21 -16.73,3.01 -24.62,12.57 -28.67,28.78l-13.09 52.35 -56.51 0 32.62 -130.38 56.4 0 -8.62 26.28c0,0 15.89,-29.19 51.21,-29.19l-13.29 51.95z"/>
    <path class="fil1" d="M576.12 364.21c14.13,-16.83 21.61,-29.19 44.77,-29.19 27.94,0 33.87,24.31 26.59,52.98l-20.05 80.2 -57.13 -0.01 15.89 -63.58c1.87,-7.58 4.57,-18.39 -5.61,-18.39 -9.97,0 -12.67,10.8 -14.65,18.39l-15.89 63.58 -56.1 0 32.62 -130.27 56.1 0 -6.54 26.29z"/>
    <g>
     <path class="fil1" d="M455.71 337.2l-29.92 37.09 9.77 -39.27c-40.62,0.1 -80.72,24.1 -92.04,69.71 -10.8,43.22 19.63,66.49 58.28,66.49 38.65,0 80.72,-23.27 91.52,-66.49 9.45,-37.72 -8.21,-60.68 -37.61,-67.53l0 0zm-13.29 65.86c-3.53,14.13 -17.04,25.35 -30.44,25.35 -13.4,0 -21.19,-11.22 -17.66,-25.35 3.53,-14.13 17.04,-25.35 30.44,-25.35 13.29,0 21.19,11.22 17.66,25.35z"/>
    </g>
   </g>
  </g>
 </g>
</svg>
