<?xml version="1.0" encoding="utf-8"?>
<!-- Generator: Adobe Illustrator 24.1.1, SVG Export Plug-In . SVG Version: 6.00 Build 0)  -->
<svg version="1.1" id="Layer_1" xmlns="http://www.w3.org/2000/svg" xmlns:xlink="http://www.w3.org/1999/xlink" x="0px" y="0px"
	 viewBox="0 0 500 500" style="enable-background:new 0 0 500 500;" xml:space="preserve">
<style type="text/css">
	.st0{fill:url(#SVGID_1_);}
	.st1{fill:url(#SVGID_2_);}
	.st2{fill:url(#SVGID_3_);}
	.st3{fill:#231F1F;}
</style>
<g>
	
		<linearGradient id="SVGID_1_" gradientUnits="userSpaceOnUse" x1="1.5095" y1="1.193" x2="1.6555" y2="1.193" gradientTransform="matrix(99.8224 -58.9835 -58.9835 -99.8224 148.8714 491.9544)">
		<stop  offset="0" style="stop-color:#909CA9"/>
		<stop  offset="1" style="stop-color:#EDEDEE"/>
	</linearGradient>
	<path class="st0" d="M314.96,196.41l-40.31,13.16l-35.07,15.48l-9.81,2.59c-2.5,2.38-5.12,4.78-7.95,7.22
		c-3.11,2.68-6,5.12-8.23,6.89c-2.47,1.95-6.12,5.61-7.98,7.92c-2.77,3.47-4.97,7.16-5.91,9.99c-1.68,5.12-0.85,10.3,2.38,15.08
		c4.14,6.09,12.4,12.31,22.03,16.54c4.91,2.16,13.16,4.94,19.38,6.49c10.33,2.62,30.32,5.45,41.31,5.88c2.22,0.09,5.21,0.09,5.33,0
		c0.24-0.15,1.95-3.41,3.93-7.46c6.76-13.8,11.64-26.75,14.29-37.81c1.58-6.7,2.83-15.63,3.66-26.2c0.21-2.96,0.3-12.86,0.12-16.21
		c-0.27-5.48-0.76-9.93-1.52-14.29c-0.12-0.64-0.15-1.22-0.09-1.25c0.12-0.09,0.49-0.21,5.45-1.65L314.96,196.41L314.96,196.41
		L314.96,196.41L314.96,196.41z M305.76,201.81c0.37,0,1.34,9.35,1.58,15.26c0.06,1.25,0.03,2.07-0.03,2.07
		c-0.24,0-5.15-2.89-8.65-5.09c-3.05-1.92-8.84-5.76-9.75-6.49c-0.31-0.21-0.27-0.24,2.22-1.1
		C295.37,205.04,305.42,201.81,305.76,201.81z M285.22,208.57c0.27,0,0.97,0.4,2.65,1.43c6.28,3.93,14.81,8.68,18.46,10.27
		c1.13,0.49,1.25,0.3-1.34,2.07c-5.55,3.78-12.46,7.49-20.93,11.24c-1.49,0.67-2.74,1.19-2.77,1.19c-0.06,0,0.12-0.76,0.37-1.68
		c2.04-7.59,3.2-15.26,3.26-21.42c0.03-3.05,0.03-3.05,0.3-3.14C285.16,208.57,285.19,208.57,285.22,208.57z M280.99,210.19
		c0.18,0.18,0.06,7.01-0.18,8.87c-0.55,4.45-1.4,8.59-2.8,13.25c-0.34,1.13-0.64,2.07-0.7,2.13c-0.12,0.15-4.3-3.93-5.67-5.51
		c-2.38-2.74-4.23-5.48-5.61-8.17c-0.7-1.37-1.8-4.05-1.71-4.14C264.81,216.28,280.87,210.07,280.99,210.19z M261.06,218.02
		c0.03,0,0.06,0,0.09,0.03c0.06,0.06,0.27,0.55,0.46,1.1c0.97,2.65,3.17,6.55,5.06,9.05c2.07,2.74,4.78,5.67,7.04,7.59
		c0.73,0.61,1.4,1.19,1.49,1.28c0.18,0.18,0.24,0.15-4.72,2.04c-5.76,2.19-12.03,4.39-19.23,6.7c-1.72,0.55-3.43,1.11-5.15,1.68
		c-0.27,0.09-0.18-0.06,0.61-1.31c3.56-5.58,8.99-16.51,12.03-24.25c0.52-1.34,1.04-2.68,1.13-2.99c0.12-0.43,0.27-0.58,0.67-0.79
		C260.76,218.08,260.97,218.02,261.06,218.02z M254.97,220.55c0.09,0.06-1.46,3.32-2.99,6.31c-2.96,5.76-6.19,11.43-10.51,18.31
		c-0.73,1.19-1.43,2.29-1.52,2.41c-0.15,0.21-0.21,0.15-0.7-0.79c-1.04-2.04-1.89-4.66-2.35-7.07c-0.46-2.38-0.37-6.52,0.15-9.08
		c0.4-1.89,0.37-1.86,1.28-2.32C242.23,226.33,254.85,220.42,254.97,220.55z M307.53,222.68v1.28c0,6.79-0.73,16.12-1.8,22.91
		c-0.18,1.19-0.34,2.16-0.37,2.19c0,0-0.88-0.24-1.92-0.55c-4.57-1.43-9.54-3.53-14.02-6c-2.96-1.61-7.25-4.27-7.13-4.39
		c0.03-0.03,1.31-0.7,2.8-1.49c5.97-3.11,11.7-6.46,16.67-9.78c1.86-1.25,4.66-3.26,5.27-3.81L307.53,222.68z M231.97,231.7
		c0.12,0,0.09,0.24-0.09,1.34c-0.12,0.79-0.27,2.25-0.33,3.26c-0.24,4.45,0.49,7.74,2.68,12.25c0.61,1.25,1.1,2.29,1.07,2.32
		c-0.21,0.18-20.38,6.09-26.72,7.83c-1.89,0.52-3.53,0.97-3.66,1.01c-0.21,0.06-0.24,0.03-0.15-0.49c0.7-4.48,4.11-10.33,8.87-15.26
		c3.17-3.29,5.7-5.21,10.02-7.68c3.11-1.77,7.89-4.42,8.26-4.54C231.9,231.7,231.94,231.7,231.97,231.7z M279.5,240.2
		c0.03-0.03,0.76,0.37,1.64,0.88c6.52,3.78,15.6,7.28,23.34,9.08l0.7,0.15l-0.98,0.55c-4.05,2.25-17.37,7.8-30.99,12.89
		c-1.98,0.73-3.93,1.46-4.3,1.61c-0.37,0.15-0.7,0.24-0.7,0.21c0-0.03,0.55-1.1,1.25-2.41c3.81-7.13,7.65-15.81,9.6-21.85
		C279.31,240.75,279.46,240.23,279.5,240.2L279.5,240.2z M274.65,241.78c0.03,0.03-0.21,0.67-0.52,1.4
		c-2.65,6.43-6.12,13.44-10.57,21.3c-1.13,2.01-2.07,3.63-2.1,3.63c-0.03,0-0.94-0.55-2.04-1.22c-6.46-3.96-12.19-8.84-15.93-13.56
		l-0.55-0.67l2.77-0.76c9.93-2.71,18.37-5.64,26.75-9.23C273.65,242.18,274.62,241.78,274.65,241.78z M304.75,252.29
		C304.75,252.29,304.78,252.32,304.75,252.29c0.03,0.7-1.52,6.98-2.8,11.52c-1.07,3.81-1.98,6.79-3.66,12.07
		c-0.73,2.32-1.37,4.24-1.4,4.24c-0.03,0-0.21-0.03-0.4-0.09c-9.05-1.65-17.15-3.93-24.77-6.98c-2.13-0.85-5.18-2.22-5.36-2.38
		c-0.06-0.06,1.77-0.91,4.08-1.92c13.86-6.06,28.24-12.95,33.18-15.9C304.2,252.48,304.66,252.29,304.75,252.29z M235.26,254.67
		c0.06,0.06-3.81,5.64-9.23,13.22c-1.89,2.65-4.08,5.76-4.9,6.92c-0.82,1.16-2.07,2.99-2.77,4.08l-1.28,1.98l-1.37-1.16
		c-1.61-1.34-4.42-4.2-5.67-5.79c-2.62-3.26-4.39-6.7-5.09-9.84c-0.34-1.46-0.34-2.19-0.03-2.29c0.46-0.12,8.59-2.04,16.21-3.81
		c4.24-0.97,9.14-2.13,10.91-2.56C233.79,255,235.23,254.67,235.26,254.67z M239.16,256.16l0.97,1.1c4.39,4.91,8.87,8.53,14.29,11.7
		c0.98,0.55,1.71,1.04,1.64,1.07c-0.21,0.15-18.83,6.76-27.45,9.75c-4.84,1.71-8.84,3.08-8.87,3.08c-0.03,0-0.3-0.18-0.61-0.4
		l-0.55-0.4l0.88-1.28c2.86-4.14,6.46-8.68,14.29-18.13L239.16,256.16L239.16,256.16z M263.47,273.56c0.03-0.03,1.37,0.46,3.02,1.07
		c3.96,1.49,7.1,2.44,11.3,3.5c5.18,1.31,12.67,2.59,17.09,2.96c0.67,0.06,1.04,0.12,0.91,0.21c-0.21,0.12-4.69,1.62-7.98,2.65
		c-5.24,1.64-21.24,6.37-34.28,10.12c-2.41,0.7-4.48,1.28-4.6,1.31c-0.3,0.06-1.31-0.21-1.31-0.34c0-0.06,0.73-1.01,1.61-2.04
		c4.39-5.24,8.74-11.09,12.37-16.64C262.62,274.84,263.47,273.59,263.47,273.56z M258.11,273.71c0.03,0.03-2.13,3.5-5.91,9.48
		c-1.62,2.53-3.41,5.39-4.05,6.4c-0.61,0.97-1.52,2.5-2.04,3.35l-0.88,1.55l-0.46-0.12c-1.1-0.3-8.81-3.02-10.85-3.84
		c-2.53-1.01-5.15-2.22-7.1-3.26c-2.44-1.31-5.48-3.26-5.24-3.32c0.06-0.03,4.24-1.16,9.26-2.53c13.35-3.63,20.75-5.73,25.59-7.25
		C257.32,273.89,258.08,273.68,258.11,273.71z M296.04,282.61h0.03c0.12,0.3-4.81,14.02-6.61,18.34c-0.4,0.97-0.55,1.22-0.76,1.19
		c-0.52-0.03-7.68-1.04-12.04-1.68c-7.59-1.16-20.32-3.38-23.52-4.11l-0.73-0.15l4.54-1.04c9.75-2.19,14.44-3.38,19.19-4.84
		c6-1.83,11.94-4.11,17.95-6.92C295.03,282.97,295.83,282.64,296.04,282.61z"/>
	
		<linearGradient id="SVGID_2_" gradientUnits="userSpaceOnUse" x1="0.9761" y1="-9.2285" x2="1.1221" y2="-9.2285" gradientTransform="matrix(80.3196 0 0 -80.3196 151.1119 -619.7183)">
		<stop  offset="0" style="stop-color:#939FAB"/>
		<stop  offset="1" style="stop-color:#DCDEE1"/>
	</linearGradient>
	<path class="st1" d="M273.4,102.45c-0.67-0.09-11.49,3.81-18.46,6.64c-9.41,3.84-16.73,7.5-21.24,10.66
		c-1.68,1.19-3.78,3.29-4.11,4.11c-0.12,0.3-0.18,0.67-0.18,1.04l4.08,3.87l9.72,3.11l23.13,4.14l26.45,4.54l0.27-2.29
		c-0.09,0-0.15-0.03-0.24-0.03l-3.47-0.55l-0.7-1.25c-3.6-6.34-7.56-14.2-9.87-19.5c-1.8-4.11-3.5-8.87-4.45-12.28
		C273.8,102.6,273.74,102.48,273.4,102.45L273.4,102.45L273.4,102.45L273.4,102.45z M272.91,104.01h0.03
		c0.03,0.03,0.15,0.88,0.27,1.89c0.52,4.27,1.46,8.38,2.96,12.83c1.13,3.35,1.13,3.17-0.18,2.77c-3.11-0.85-17.03-3.26-27.12-4.66
		c-1.61-0.21-2.99-0.43-2.99-0.46c-0.12-0.12,7.28-3.99,10.54-5.51C260.61,108.94,272.06,104.16,272.91,104.01z M243.54,117.66
		l1.19,0.4c6.46,2.19,22.7,5.3,31.66,6.03c1.01,0.09,1.86,0.18,1.89,0.18c0.03,0.03-0.82,0.49-1.92,1.01
		c-4.33,2.16-9.08,4.81-12.37,6.86c-0.97,0.61-1.86,1.1-1.98,1.1c-0.12,0-0.76-0.12-1.43-0.21l-1.22-0.18l-3.05-2.99
		c-5.36-5.21-9.57-9.23-11.18-10.76L243.54,117.66z M242.32,118.6l4.3,5.36c2.35,2.96,4.72,5.85,5.24,6.49
		c0.52,0.64,0.94,1.16,0.91,1.19c-0.12,0.09-6.22-1.1-9.45-1.83c-3.32-0.76-4.69-1.13-6.73-1.77l-1.68-0.55v-0.43
		c0.03-2.04,2.62-5.09,7.01-8.2L242.32,118.6z M278.83,125.91c0.12,0,0.27,0.27,0.64,1.1c1.04,2.28,4.27,8.44,5.06,9.63
		c0.24,0.4,0.67,0.43-3.63-0.27c-10.33-1.68-13.65-2.22-13.65-2.28c0-0.03,0.3-0.24,0.7-0.46c3.2-1.77,6.43-4.02,9.29-6.43
		c0.7-0.58,1.34-1.13,1.46-1.22C278.73,125.91,278.79,125.88,278.83,125.91z"/>
	
		<radialGradient id="SVGID_3_" cx="1.9367" cy="2.2303" r="0.146" gradientTransform="matrix(-102.4055 -15.3824 -31.1105 204.8109 556.4053 -251.7503)" gradientUnits="userSpaceOnUse">
		<stop  offset="0" style="stop-color:#EE352C"/>
		<stop  offset="1" style="stop-color:#A91D22"/>
	</radialGradient>
	<path class="st2" d="M229.8,123.44c0,0-0.67,1.07-0.03,2.65c0.4,0.97,1.55,2.16,2.86,3.38c0,0,13.56,13.22,15.2,15.11
		c7.49,8.65,10.76,17.18,11.06,28.94c0.18,7.56-1.25,14.2-4.81,21.91c-6.34,13.83-19.71,29.1-40.34,46.04l3.02-1.01
		c1.95-1.46,4.6-3.02,10.82-6.43c14.35-7.86,30.5-15.08,50.3-22.52c28.52-10.72,75.41-23.28,102.1-27.36l2.77-0.43l-0.43-0.67
		c-2.44-3.78-4.11-6.12-6.12-8.62c-5.85-7.25-12.95-13.13-21.63-18.01c-11.94-6.67-27.39-11.88-46.95-15.75
		c-3.69-0.73-11.79-2.13-18.37-3.14c-13.95-2.16-22.97-3.66-32.91-5.36c-3.56-0.61-8.9-1.52-12.43-2.28
		c-1.83-0.4-5.33-1.22-8.07-2.16C233.64,126.89,230.47,126.03,229.8,123.44z M237.66,131.06c0.03-0.03,0.52,0.15,1.16,0.37
		c1.16,0.4,2.65,0.85,4.42,1.34c1.34,0.37,2.68,0.72,4.02,1.07c1.83,0.46,3.35,0.88,3.38,0.88c0.21,0.21,3.29,10.05,4.33,13.83
		c0.4,1.43,0.7,2.65,0.67,2.65c-0.03,0.03-0.37-0.49-0.76-1.19c-3.56-6.28-9.2-12.64-15.72-17.76
		C238.3,131.64,237.66,131.09,237.66,131.06z M252.65,135.21c0.15,0,0.82,0.09,1.64,0.27c5.18,1.16,14.47,2.92,20.41,3.93
		c1.01,0.15,1.8,0.34,1.8,0.4c0,0.06-0.37,0.27-0.82,0.52c-1.01,0.52-5.06,2.92-6.4,3.84c-3.38,2.25-6.43,4.69-8.62,6.89
		c-0.88,0.88-1.65,1.61-1.65,1.61s-0.18-0.52-0.34-1.16c-1.1-4.24-3.38-10.51-5.45-14.93c-0.34-0.7-0.61-1.34-0.61-1.4
		C252.62,135.24,252.62,135.21,252.65,135.21L252.65,135.21z M279.04,140.23c0.18,0.06,0.49,1.1,1.1,3.38
		c1.13,4.42,1.65,9.35,1.46,13.95c-0.06,1.28-0.12,2.47-0.18,2.62l-0.09,0.3l-1.58-0.52c-3.26-1.04-8.56-2.59-13.1-3.87
		c-2.59-0.7-4.69-1.34-4.69-1.4c0-0.18,3.78-3.96,5.39-5.39C270.42,146.6,278.76,140.14,279.04,140.23z M281.14,140.54
		c0.09-0.09,12.61,2.07,18.31,3.17c4.24,0.82,10.39,2.1,10.76,2.25c0.18,0.06-0.46,0.43-2.5,1.34c-8.04,3.63-14.02,6.89-19.96,10.85
		c-1.55,1.04-2.86,1.89-2.89,1.89s-0.06-0.88-0.06-1.95c0-5.79-1.16-11.64-3.29-16.57C281.29,141.02,281.11,140.57,281.14,140.54z
		 M313.53,146.94c0.09,0.09-0.3,2.56-0.67,4.02c-1.1,4.54-4.05,11.27-7.68,17.61c-0.64,1.13-1.22,2.04-1.28,2.07
		c-0.06,0.03-0.88-0.43-1.83-0.98c-3.53-2.07-7.56-4.02-11.94-5.85c-1.22-0.52-2.28-0.94-2.32-1.01c-0.21-0.18,9.6-6.67,14.78-9.78
		C306.7,150.53,313.41,146.81,313.53,146.94z M315.84,147.3c0.27,0,5.82,1.52,8.71,2.38c7.16,2.13,15.39,5.15,20.75,7.59l2.22,1.01
		l-1.55,0.37c-13.1,3.02-24.31,6.49-35.13,10.88c-0.88,0.37-1.68,0.67-1.74,0.67c-0.06,0,0.24-0.7,0.64-1.55
		c3.26-6.92,5.36-14.14,5.88-20.29C315.66,147.76,315.75,147.3,315.84,147.3L315.84,147.3z M260.64,159.98
		c0.09-0.09,4.33,0.91,6.61,1.55c3.47,0.98,10.85,3.44,10.85,3.63c0,0.03-0.82,0.73-1.8,1.58c-3.99,3.32-7.83,6.82-12.43,11.27
		c-1.37,1.31-2.53,2.38-2.59,2.38c-0.06,0-0.09-0.18-0.06-0.43c0.7-5.12,0.55-11.7-0.43-18.37
		C260.7,160.74,260.61,160.01,260.64,159.98z M349.63,160.07c0.06,0.06-1.95,3.23-3.23,5.03c-1.83,2.62-4.51,6.09-10.57,13.71
		c-3.2,4.02-6.79,8.56-7.98,10.08c-1.22,1.52-2.22,2.8-2.26,2.8c-0.03,0-0.43-0.55-0.85-1.22c-3.41-5.12-7.5-9.6-12.34-13.62
		c-0.91-0.76-1.92-1.58-2.25-1.83c-0.34-0.24-0.61-0.49-0.61-0.52c0-0.09,5.18-2.32,9.11-3.9c6.89-2.8,16.27-6.15,23.31-8.32
		C345.64,161.13,349.57,160.01,349.63,160.07z M351.98,160.68c0.12-0.03,0.85,0.34,1.74,0.85c7.4,4.24,14.65,9.69,20.38,15.3
		c1.61,1.58,5.61,5.73,5.54,5.76c0,0-1.4,0.12-3.05,0.24c-12.83,0.98-29.25,3.69-45.03,7.49c-1.07,0.24-2.01,0.46-2.07,0.46
		c-0.06,0,1.13-1.19,2.62-2.62c9.26-8.93,13.5-14.56,18.49-24.62C351.31,162.05,351.92,160.77,351.98,160.68
		C351.95,160.68,351.95,160.68,351.98,160.68z M284.13,167.62c0.43,0.09,4.39,1.95,7.37,3.44c2.74,1.37,6.86,3.56,7.07,3.75
		c0.03,0.03-1.43,0.79-3.23,1.68c-5.73,2.86-10.63,5.58-15.75,8.68c-1.46,0.88-2.68,1.62-2.71,1.62c-0.12,0-0.09-0.12,0.73-1.62
		c2.74-5,4.94-10.97,6.19-16.79C283.91,167.93,284.04,167.62,284.13,167.62z M280.17,168.35c0.09,0.09-0.94,3.84-1.58,5.88
		c-1.25,3.87-3.35,8.71-5.39,12.37c-0.49,0.85-1.22,2.1-1.62,2.8l-0.76,1.22l-1.71-1.64c-1.98-1.92-3.6-3.11-5.67-4.17
		c-0.82-0.43-1.46-0.79-1.46-0.85c0-0.24,5.21-4.97,9.2-8.38C274.04,173.11,280.07,168.26,280.17,168.35z M304.39,178.32l1.49,0.97
		c3.41,2.22,7.43,5.18,10.51,7.77c1.74,1.43,5.09,4.45,5.76,5.18l0.37,0.4l-2.47,0.7c-13.95,3.87-24.74,7.31-37.32,11.94
		c-1.4,0.52-2.59,0.94-2.68,0.94c-0.18,0-0.34,0.15,2.8-2.74c8.04-7.4,15.17-15.57,20.47-23.52L304.39,178.32z M298.02,179.9
		c0.06,0.06-4.11,5.94-6.61,9.26c-2.99,3.96-8.29,10.6-11.94,14.93c-1.52,1.8-2.83,3.29-2.89,3.32c-0.09,0.03-0.12-0.43-0.12-1.13
		c0-3.69-0.94-7.62-2.59-10.97c-0.7-1.4-0.82-1.74-0.67-1.89c0.58-0.52,9.44-5.58,15.05-8.59
		C292.02,182.83,297.93,179.84,298.02,179.9L298.02,179.9z M259.51,189.35c0.09,0,0.79,0.37,1.58,0.79
		c1.95,1.07,3.69,2.25,5.24,3.53c0.06,0.06-0.73,0.7-1.77,1.46c-2.89,2.07-7.28,5.39-9.84,7.43c-2.68,2.13-2.77,2.19-2.47,1.74
		c2.01-3.08,3.02-4.81,4.08-7.04c0.94-1.98,1.89-4.33,2.56-6.37C259.14,190.02,259.45,189.35,259.51,189.35z M269.78,197.39
		c0.15-0.03,0.34,0.24,1.16,1.46c1.74,2.59,3.08,6.06,3.41,8.87l0.06,0.61l-4.17,1.61c-7.47,2.89-14.35,5.76-19.01,7.89
		c-1.31,0.61-3.59,1.71-5.09,2.44c-1.49,0.76-2.71,1.34-2.71,1.31c0-0.03,0.94-0.73,2.1-1.58c9.11-6.61,17-13.86,22.91-21.11
		c0.64-0.76,1.22-1.46,1.28-1.49L269.78,197.39L269.78,197.39z M265.05,198.55c0.12,0.12-3.35,4.05-5.73,6.46
		c-5.88,6-11.7,10.69-18.92,15.26c-0.91,0.58-1.74,1.1-1.83,1.16c-0.21,0.12,0.06-0.18,3.23-3.63c2.01-2.16,3.53-3.99,5.27-6.25
		c1.16-1.49,1.37-1.71,3.05-2.89C254.6,205.43,264.93,198.43,265.05,198.55z"/>
	<path class="st3" d="M133.12,324.71c-0.56,0-1.12,0.05-1.68,0.05c-11.35,0.6-19.01,5.6-23.49,15.36
		c-3.83,8.82-3.41,20.36,0.04,29.24c4.02,8.67,10.51,13.25,21.34,14.98c2.29,0.38,3.83,1.63,8.27,6.82l5.46,6.4h9.91l-6.59-6.64
		c-3.64-3.64-6.59-6.81-6.59-7.09c0-0.28,1.39-0.89,3.08-1.4c5.56-1.68,10.17-5.98,13.4-12.56c2.61-5.28,2.99-6.92,3.36-13.49
		C160.62,336.8,150.3,324.56,133.12,324.71L133.12,324.71z M141.8,375.88c-4.82,2.33-11.82,2.8-16.38,1.12
		c-4.72-1.73-9.3-6.64-11.35-12.19c-2.29-6.07-1.96-17.27,0.65-22.32c4.2-8.03,9.76-11.73,17.88-11.73c12.05,0,18.9,7.38,19.8,21.25
		C153.11,363.6,149.23,372.28,141.8,375.88L141.8,375.88z M312.93,341.42c-4.16,0-7.34,1.68-9.48,5l-1.68,2.62v-6.82h-7.19v40.91
		h7.19v-13.08c0-11.96,0.15-13.35,1.82-16.63c2.3-4.49,6.26-6.72,10.09-5.65l2.57,0.75v-7.09h-3.32V341.42L312.93,341.42z
		 M270.68,341.05c-1.41,0-2.9,0.19-4.39,0.51c-9.62,2.52-15.05,11.73-14.71,21.2c0,7.94,1.54,11.9,5.37,16.06
		c7.84,6.44,14.94,6.95,24.51,3.5c1.63-0.7,3.41-1.5,3.41-1.5v-6.44l-3.41,1.77c-7.75,3.37-13.58,3.37-18.26-0.6
		c-2.98-3.04-4.29-6.68-4.9-10.83h29v-5.52C287.29,347.97,280.53,340.87,270.68,341.05L270.68,341.05L270.68,341.05z M258.95,358.99
		c0,0,1.07-7.01,5.04-9.77c1.91-1.35,4.11-2,6.25-2c2.15,0,4.3,0.7,6.07,2.05c3.64,2.8,4.25,9.67,4.25,9.67h-21.62L258.95,358.99
		L258.95,358.99z M85.59,351.61c-7.8-4.72-11.26-8.13-10.83-12.14c1.21-11.11,14.94-9.57,22.54-5.37l0.05-7.47
		c0,0-4.2-1.82-10.23-1.92c-9.24-0.14-15.22,2.89-18.02,9.06c-4.11,9.1-0.47,15.97,12.69,23.62c7.39,4.3,10.66,8.03,10.66,12.1
		c0,8.41-10.14,11.34-20.59,6.07c-2.15-1.07-3.97-1.97-4.07-1.97c-0.38,2.38-0.18,8.09-0.18,8.09s3.21,1.35,8.03,2.28
		c11.95,2.38,22.83-3.22,23.85-12.33C100.39,363.08,97.3,358.6,85.59,351.61L85.59,351.61z M376.57,340.95
		c-1.4,0-2.89,0.19-4.44,0.52c-9.61,2.52-15.03,11.73-14.66,21.2c0,7.92,1.54,11.85,5.37,16.01c7.84,6.44,14.94,6.96,24.56,3.5
		c1.63-0.7,3.4-1.49,3.4-1.49v-6.45l-3.41,1.78c-7.76,3.36-13.6,3.36-18.26-0.61c-3-3.03-4.3-6.63-4.91-10.83h28.95v-5.52
		c0-11.19-6.77-18.3-16.62-18.11L376.57,340.95z M364.84,358.89c0,0,1.08-7,5.05-9.81c1.91-1.35,4.1-2.01,6.25-2.01
		c2.14,0,4.3,0.7,6.07,2.06c3.64,2.8,4.25,9.71,4.25,9.71h-21.62L364.84,358.89L364.84,358.89z M233.04,351.7
		c-7.8-4.71-11.24-8.13-10.83-12.14c1.21-11.12,14.94-9.57,22.54-5.37l0.05-7.47c0,0-4.2-1.82-10.23-1.91
		c-9.24-0.14-15.22,2.89-18.02,9.06c-4.11,9.1-0.42,15.97,12.7,23.62c7.38,4.29,10.65,7.98,10.65,12.05
		c0,8.41-10.13,11.39-20.59,6.07c-2.14-1.07-3.96-1.95-4.07-1.95c-0.38,2.38-0.18,8.09-0.18,8.09s3.17,1.3,7.98,2.28
		c11.96,2.39,22.84-3.21,23.87-12.32C247.79,363.19,244.71,358.71,233.04,351.7L233.04,351.7L233.04,351.7z M418.82,341.33
		c-4.16,0-7.37,1.69-9.48,5l-1.68,2.61v-6.81h-7.19v40.9h7.19v-13.08c0-11.95,0.14-13.35,1.82-16.62c2.3-4.48,6.26-6.72,10.09-5.65
		l2.57,0.75v-7.11L418.82,341.33L418.82,341.33z M175.85,351.46v-26.06h-7.25v57.71h30.49v-6.82h-23.24L175.85,351.46L175.85,351.46
		z M343.51,359.59l-5.98,15.55l-5.75-15.64l-5.84-17.33h-7.42c4.81,13.63,10.04,27.5,15.31,40.95c2.29,0.05,4.58,0,6.86,0
		l8.07-20.26l8.22-20.68h-7.09C349.91,342.18,346.77,350.39,343.51,359.59L343.51,359.59z M192.55,309.68
		c1.17,0,2.14-0.37,2.95-1.18c0.79-0.79,1.21-1.72,1.21-2.89c0-1.17-0.42-2.14-1.21-2.89c-0.8-0.75-1.73-1.12-2.89-1.12
		c-1.18,0-2.15,0.38-2.94,1.17c-0.8,0.79-1.17,1.77-1.17,2.89c0,1.18,0.38,2.15,1.17,2.89c0.75,0.75,1.72,1.12,2.89,1.12V309.68z
		 M189.98,303.04c0.7-0.7,1.54-1.02,2.62-1.02c1.02,0,1.86,0.32,2.57,1.02c0.7,0.7,1.07,1.54,1.07,2.57c0,1.03-0.37,1.92-1.07,2.61
		c-0.71,0.7-1.55,1.03-2.57,1.03c-1.03,0-1.87-0.32-2.57-1.03c-0.7-0.7-1.07-1.58-1.07-2.61
		C188.97,304.58,189.29,303.74,189.98,303.04z M191.71,305.99h0.47c0.33,0,0.66,0.32,0.94,0.93l0.56,1.26h0.88l-0.7-1.4
		c-0.28-0.56-0.56-0.89-0.89-0.98c0.41-0.1,0.74-0.24,0.97-0.51c0.24-0.24,0.32-0.57,0.32-0.94c0-0.43-0.13-0.75-0.42-0.99
		c-0.32-0.27-0.84-0.41-1.5-0.41h-1.49v5.23h0.75v-2.2L191.71,305.99z M191.71,303.55h0.65c0.47,0,0.8,0.1,0.99,0.24
		c0.18,0.14,0.22,0.32,0.22,0.65c0,0.61-0.38,0.89-1.07,0.89h-0.8v-1.78H191.71z M71.95,305.52c0-1.82-0.05-3.17-0.1-3.97h0.04
		c0.19,0.94,0.42,1.64,0.6,2.11l6.96,15.55h1.17l6.96-15.69c0.19-0.43,0.38-1.07,0.61-1.97h0.05c-0.14,1.55-0.19,2.9-0.19,3.98
		v13.72h2.38v-20.4h-2.99l-6.4,14.19c-0.24,0.56-0.56,1.4-0.98,2.52h-0.1c-0.14-0.55-0.47-1.39-0.93-2.42L72.8,298.8h-3.17v20.4
		h2.29v-13.68L71.95,305.52z M95.67,305.56h2.06v12.71h-2.06V305.56z M96.7,300.9c0.43,0,0.79-0.14,1.07-0.43
		c0.28-0.28,0.47-0.64,0.47-1.07c0-0.42-0.14-0.79-0.47-1.07c-0.29-0.28-0.66-0.43-1.08-0.43c-0.42,0-0.79,0.14-1.07,0.43
		c-0.28,0.28-0.47,0.65-0.47,1.07c0,0.47,0.14,0.79,0.47,1.07C95.94,300.75,96.27,300.9,96.7,300.9L96.7,300.9z M112.39,318.54
		v-2.24c-1.12,0.84-2.33,1.26-3.59,1.26c-1.5,0-2.71-0.51-3.6-1.5c-0.88-0.97-1.35-2.33-1.35-4.02c0-1.77,0.47-3.17,1.45-4.24
		c0.94-1.03,2.15-1.54,3.64-1.54c1.22,0,2.38,0.38,3.46,1.13v-2.38c-0.98-0.51-2.1-0.75-3.36-0.75c-2.33,0-4.15,0.75-5.51,2.2
		c-1.35,1.45-2.05,3.41-2.05,5.78c0,2.11,0.6,3.88,1.86,5.24c1.31,1.39,2.99,2.1,5.04,2.1C109.96,319.53,111.26,319.2,112.39,318.54
		z M118.27,311.77c0-1.68,0.37-3.03,1.07-3.96c0.65-0.84,1.45-1.26,2.38-1.26c0.79,0,1.35,0.14,1.77,0.47v-2.43
		c-0.32-0.14-0.79-0.19-1.39-0.19c-0.84,0-1.59,0.28-2.25,0.8c-0.7,0.55-1.25,1.39-1.58,2.46h-0.05v-2.98h-2.33v14.56h2.33v-7.47
		H118.27z M131.67,319.53c2.2,0,3.96-0.71,5.27-2.11c1.31-1.39,1.96-3.27,1.96-5.6c0-2.38-0.6-4.2-1.82-5.56
		c-1.21-1.35-2.89-2.01-5.09-2.01c-2.2,0-3.96,0.65-5.27,1.92c-1.4,1.39-2.14,3.36-2.14,5.88c0,2.2,0.6,4.02,1.86,5.37
		C127.75,318.83,129.48,319.53,131.67,319.53L131.67,319.53z M128.35,307.67c0.89-0.94,2.06-1.4,3.5-1.4c1.5,0,2.62,0.47,3.46,1.4
		c0.84,0.98,1.26,2.38,1.26,4.25c0,1.78-0.38,3.18-1.17,4.11c-0.79,0.98-1.96,1.5-3.5,1.5c-1.5,0-2.66-0.52-3.55-1.5
		c-0.88-0.99-1.31-2.33-1.31-4.11C126.96,310.15,127.42,308.7,128.35,307.67z M149.13,318.26c0.89-0.79,1.36-1.77,1.36-2.99
		c0-1.07-0.38-1.96-1.07-2.66c-0.57-0.56-1.45-1.07-2.71-1.59c-1.13-0.47-1.82-0.89-2.2-1.22c-0.37-0.37-0.6-0.84-0.6-1.5
		c0-0.61,0.24-1.07,0.7-1.45c0.47-0.37,1.07-0.56,1.87-0.56c1.26,0,2.33,0.33,3.32,1.03v-2.33c-0.94-0.47-1.97-0.7-3.13-0.7
		c-1.5,0-2.76,0.41-3.69,1.21c-0.98,0.79-1.45,1.82-1.45,3.03c0,1.07,0.32,1.96,0.93,2.61c0.51,0.56,1.39,1.12,2.61,1.63
		c1.17,0.51,1.96,0.98,2.38,1.35c0.42,0.38,0.6,0.84,0.6,1.39c0,1.36-0.93,2.06-2.75,2.06c-1.4,0-2.66-0.46-3.79-1.39v2.52
		c1.02,0.61,2.24,0.89,3.59,0.89c1.73-0.09,3.08-0.51,4.02-1.35L149.13,318.26z M160.25,304.26c-2.2,0-3.96,0.65-5.27,1.92
		c-1.39,1.39-2.14,3.36-2.14,5.88c0,2.2,0.61,4.02,1.86,5.37c1.31,1.4,3.04,2.1,5.23,2.1c2.25,0,3.96-0.71,5.27-2.11
		c1.31-1.39,1.97-3.27,1.97-5.6c0-2.38-0.61-4.2-1.82-5.56c-1.26-1.35-2.95-2.01-5.09-2.01L160.25,304.26z M164.77,311.91
		c0,1.78-0.37,3.18-1.17,4.11c-0.79,0.98-1.96,1.5-3.5,1.5c-1.5,0-2.66-0.52-3.55-1.5c-0.88-0.99-1.31-2.33-1.31-4.11
		c0-1.87,0.47-3.32,1.4-4.29c0.88-0.93,2.05-1.4,3.5-1.4c1.45,0,2.61,0.47,3.45,1.4C164.35,308.65,164.77,310.04,164.77,311.91
		L164.77,311.91z M171.08,319.2h2.33v-12.61h3.41v-1.96h-3.41v-2.25c0-2.05,0.79-3.07,2.43-3.07c0.55,0,1.11,0.14,1.53,0.37v-2.1
		c-0.42-0.19-0.98-0.23-1.68-0.23c-1.26,0-2.29,0.38-3.13,1.17c-0.98,0.93-1.5,2.14-1.5,3.78v2.39h-2.46v1.96h2.46v12.56
		L171.08,319.2z M180.65,315.23c0,2.85,1.26,4.3,3.83,4.3c0.93,0,1.63-0.15,2.2-0.48v-2c-0.43,0.32-0.94,0.47-1.5,0.47
		c-0.79,0-1.35-0.19-1.68-0.61c-0.33-0.42-0.52-1.12-0.52-2.1v-8.22h3.69v-1.96h-3.69v-4.29c-0.8,0.28-1.59,0.51-2.33,0.75v3.54
		h-2.52v1.96h2.52L180.65,315.23L180.65,315.23z M431.25,342.08c-0.79-0.75-1.73-1.12-2.89-1.12c-1.18,0-2.15,0.38-2.95,1.18
		c-0.79,0.79-1.17,1.77-1.17,2.89c0,1.17,0.38,2.14,1.16,2.89c0.79,0.75,1.77,1.12,2.95,1.12c1.16,0,2.14-0.38,2.95-1.17
		c0.79-0.8,1.2-1.73,1.2-2.89C432.46,343.8,432.03,342.83,431.25,342.08L431.25,342.08z M430.87,347.59
		c-0.7,0.7-1.54,1.02-2.57,1.02c-1.02,0-1.86-0.32-2.57-1.02c-0.7-0.71-1.07-1.59-1.07-2.62c0-1.02,0.32-1.86,1.03-2.57
		c0.7-0.7,1.54-1.02,2.61-1.02c1.02,0,1.86,0.32,2.57,1.02c0.7,0.71,1.07,1.55,1.07,2.57C431.94,346.05,431.62,346.88,430.87,347.59
		z M428.77,345.21c0.42-0.1,0.75-0.28,0.98-0.51c0.24-0.24,0.32-0.57,0.32-0.94c0-0.42-0.13-0.75-0.42-0.98
		c-0.32-0.27-0.84-0.41-1.5-0.41h-1.49v5.23h0.75v-2.2h0.47c0.32,0,0.64,0.32,0.93,0.93l0.56,1.26h0.89l-0.7-1.4
		c-0.24-0.61-0.52-0.89-0.8-0.98L428.77,345.21L428.77,345.21z M428.26,344.74h-0.8v-1.77h0.66c0.47,0,0.79,0.09,0.98,0.23
		c0.19,0.14,0.23,0.32,0.23,0.65C429.33,344.46,428.95,344.74,428.26,344.74L428.26,344.74z M297.99,304.03h0.65v-5.23h1.73v-0.65
		h-4.11v0.65h1.73L297.99,304.03L297.99,304.03z M301.95,300.1c0-0.51,0-0.93-0.04-1.16c0.04,0.28,0.14,0.47,0.18,0.6l2.01,4.49
		h0.32l2.01-4.53c0.05-0.14,0.1-0.32,0.19-0.56c-0.04,0.47-0.04,0.84-0.04,1.12v3.96h0.7v-5.88h-0.84l-1.82,4.06
		c-0.04,0.15-0.19,0.43-0.28,0.75h-0.05c-0.04-0.19-0.13-0.38-0.27-0.7l-1.82-4.11h-0.94v5.89h0.66v-3.93L301.95,300.1z"/>
</g>
</svg>
