<?xml version="1.0" encoding="UTF-8"?>
<!DOCTYPE svg PUBLIC "-//W3C//DTD SVG 1.1//EN" "http://www.w3.org/Graphics/SVG/1.1/DTD/svg11.dtd">
<!-- Creator: CorelDRAW 2020 (64-Bit Evaluation Version) -->
<svg xmlns="http://www.w3.org/2000/svg" xml:space="preserve" width="100%" height="100%" version="1.1" style="shape-rendering:geometricPrecision; text-rendering:geometricPrecision; image-rendering:optimizeQuality; fill-rule:evenodd; clip-rule:evenodd"
viewBox="0 0 677.32 677.32"
 xmlns:xlink="http://www.w3.org/1999/xlink"
 xmlns:xodm="http://www.corel.com/coreldraw/odm/2003">
 <defs>
  <style type="text/css">
   <![CDATA[
    .fil0 {fill:#C74634;fill-rule:nonzero}
   ]]>
  </style>
 </defs>
 <g id="Layer_x0020_1">
  <metadata id="CorelCorpID_0Corel-Layer"/>
  <g id="_2371285538224">
   <path id="path16199" class="fil0" d="M633.08 308.69c0,-3.75 3.01,-6.76 6.76,-6.76 3.81,0 6.82,3.01 6.82,6.76 0,3.81 -3.01,6.82 -6.82,6.82 -3.75,0 -6.76,-3.01 -6.76,-6.82zm-346.33 41.64l39.49 0 -20.87 -33.58 -38.3 60.73 -17.44 0 46.59 -72.95c2.04,-2.95 5.4,-4.72 9.15,-4.72 3.63,0 7,1.71 8.97,4.6l46.81 73.07 -17.44 0 -8.24 -13.57 -39.98 0 -8.71 -13.58 -0.03 0zm181.16 13.58l0 -63.36 -14.78 0 0 69.58c0,1.92 0.74,3.75 2.15,5.17 1.42,1.41 3.31,2.21 5.4,2.21l67.49 0 8.71 -13.57 -68.97 0 0 -0.03zm-244.81 -11.37c14.37,0 26.03,-11.59 26.03,-25.96 0,-14.38 -11.66,-26.03 -26.03,-26.03l-64.75 0 0 76.93 14.79 0 0 -63.36 48.96 0c6.87,0 12.39,5.58 12.39,12.46 0,6.87 -5.52,12.45 -12.39,12.45l-41.73 -0.06 44.17 38.51 21.49 0 -29.72 -24.94 6.76 0 0.03 0zm-155.81 24.94c-21.25,0 -38.49,-17.2 -38.49,-38.45 0,-21.25 17.24,-38.51 38.49,-38.51l44.73 0c21.25,0 38.48,17.26 38.48,38.51 0,21.25 -17.23,38.45 -38.48,38.45l-44.73 0zm43.73 -13.57c13.75,0 24.91,-11.13 24.91,-24.88 0,-13.75 -11.16,-24.94 -24.91,-24.94l-42.73 0c-13.75,0 -24.91,11.19 -24.91,24.94 0,13.75 11.16,24.88 24.91,24.88l42.73 0zm281.02 13.57c-21.24,0 -38.51,-17.2 -38.51,-38.45 0,-21.25 17.27,-38.51 38.51,-38.51l53.12 0 -8.64 13.57 -43.47 0c-13.75,0 -24.94,11.19 -24.94,24.94 0,13.75 11.19,24.88 24.94,24.88l53.35 0 -8.7 13.57 -45.63 0 -0.03 0zm180.96 -13.57c-11.36,0 -21.01,-7.62 -23.96,-18.12l63.24 0 8.7 -13.58 -71.97 0c2.95,-10.44 12.6,-18.12 23.96,-18.12l43.41 0 8.79 -13.57 -53.17 0c-21.25,0 -38.51,17.26 -38.51,38.51 0,21.25 17.26,38.45 38.51,38.45l45.62 0 8.7 -13.57 -53.35 0 0.03 0zm66.87 -46.48c4.78,0 8.65,-3.87 8.65,-8.65 0,-4.78 -3.87,-8.65 -8.65,-8.65 -4.72,0 -8.59,3.87 -8.59,8.65 0,4.78 3.87,8.65 8.59,8.65zm-0.8 -13.81c1.36,0 1.92,0.06 2.51,0.29 1.71,0.56 1.92,2.1 1.92,2.72 0,0.11 0,0.44 -0.12,0.79 -0.06,0.36 -0.29,1.1 -1.18,1.66 -0.12,0.06 -0.18,0.11 -0.44,0.23l2.21 3.99 -2.15 0 -1.98 -3.69 -1.36 0 0 3.69 -1.92 0 0 -9.71 2.45 0 0.06 0.03zm0.68 4.42c0.62,-0.06 1.24,-0.06 1.59,-0.62 0.18,-0.23 0.24,-0.5 0.24,-0.85 0,-0.5 -0.29,-0.92 -0.74,-1.18 -0.44,-0.18 -0.85,-0.18 -1.77,-0.18l-0.56 0 0 2.83 1.24 0z"/>
  </g>
 </g>
</svg>
