<?xml version="1.0" encoding="utf-8"?>
<!-- Generator: Adobe Illustrator 26.3.1, SVG Export Plug-In . SVG Version: 6.00 Build 0)  -->
<svg version="1.1" id="Layer_1" xmlns="http://www.w3.org/2000/svg" xmlns:xlink="http://www.w3.org/1999/xlink" x="0px" y="0px"
	 viewBox="0 0 80 80" style="enable-background:new 0 0 80 80;" xml:space="preserve">
<g>
	<g>
		<path d="M62.2,64.06c-9.12,0.01-16.41-7.12-16.46-16.11c-0.05-8.97,7.24-16.29,16.27-16.34c9.11-0.05,16.55,7.24,16.56,16.24
			C78.59,56.81,71.28,64.05,62.2,64.06z M61.17,37.57c-0.26,0.02-0.8,0-1.3,0.14c-0.47,0.14-0.89,0.45-1.33,0.69
			c0.3,0.38,0.53,0.86,0.91,1.12c1.03,0.73,2.13,1.34,3.17,2.04c1.41,0.96,1.68,2.08,0.82,3.5c-0.79,1.3-1.61,2.58-2.47,3.84
			c-0.95,1.4-2.06,1.63-3.51,0.77c-1.26-0.75-2.47-1.59-3.74-2.33c-0.46-0.27-1.03-0.36-1.54-0.53c-0.09,0.58-0.34,1.19-0.25,1.74
			c0.86,5.21,4.68,8.28,10.03,8.32c0.87,0.01,1.8,0.59,2.59,1.08c0.56,0.34,0.98,0.95,1.37,1.5c0.57,0.82,1.2,0.8,2.01,0.39
			c2.76-1.39,4.83-3.44,6.29-6.18c0.7-1.32,0.66-2.26-0.65-3.16c-1.5-1.03-2.45-2.28-2.56-4.36C70.76,41.32,66.38,37.57,61.17,37.57
			z"/>
		<path d="M38.97,60.39c1.26,2.67,3.29,5.12,6.23,7.07c-0.44,0.06-0.69,0.12-0.94,0.12c-11.61,0-23.23,0.02-34.84-0.01
			c-3.95-0.01-6.14-2.84-5.59-7.07c0.05-0.4,0.91-0.96,1.42-0.99c2.07-0.11,4.14-0.05,6.22-0.05c3.4,0,6.8,0.05,10.2-0.02
			c1.97-0.04,3.87,0.06,5.67,1c0.41,0.22,0.96,0.23,1.45,0.25c1.28,0.03,2.57,0.05,3.86,0C34.69,60.63,36.73,60.5,38.97,60.39z"/>
		<path d="M69.86,27.61c-1.05,0-1.99,0-3.11,0c0-3.96,0-7.83,0-11.84c-0.94-0.06-1.72-0.15-2.49-0.15
			c-19.03-0.01-38.06-0.01-57.09,0c-2.55,0-2.55,0.01-2.55,2.62c0,11.19,0,22.38,0,33.56c0,2.42,0,2.43,2.36,2.43
			c11.43,0,22.86,0,34.29,0c0.72,0,1.44,0,2.27,0c0.18,1.08,0.33,2.01,0.52,3.17c-0.82,0-1.41,0-2.01,0c-12.59,0-25.17,0-37.76,0
			c-2.53,0-2.86-0.33-2.86-2.81c0-13.13,0-26.27,0-39.4c0-2.36,0.4-2.77,2.74-2.77c21.04,0,42.07,0,63.11,0
			c2.27,0,2.71,0.41,2.73,2.62c0.03,3.71,0.01,7.42,0,11.13C70,26.64,69.91,27.11,69.86,27.61z"/>
	</g>
	<g>
		<path d="M27.17,46.94c-3.42,0-6.83-0.08-10.25,0.02c-3.17,0.09-4.95-3.15-3.35-5.79c3.53-5.84,6.9-11.78,10.34-17.67
			c1.62-2.78,4.93-2.77,6.55,0.01c3.44,5.89,6.81,11.83,10.34,17.67c1.59,2.64-0.21,5.85-3.3,5.77
			C34.05,46.88,30.61,46.94,27.17,46.94z M27.16,46.35c3.47,0,6.93,0.01,10.4,0c2.69-0.01,4.11-2.43,2.77-4.74
			c-3.46-5.97-6.94-11.93-10.42-17.88c-1.35-2.31-4.15-2.29-5.5,0.03c-3.43,5.9-6.8,11.83-10.32,17.68
			c-1.44,2.39,0.2,5.03,2.82,4.95C20.32,46.27,23.74,46.36,27.16,46.35z"/>
		<path d="M27.18,44.59c-3.44,0-6.88,0-10.32,0c-1.55,0-2.05-0.86-1.27-2.2c3.42-5.88,6.84-11.75,10.26-17.62
			c0.79-1.36,1.84-1.36,2.63-0.01c3.41,5.85,6.82,11.7,10.23,17.56c0.84,1.44,0.35,2.28-1.29,2.28
			C34.01,44.6,30.59,44.59,27.18,44.59z M27.17,44.01c3.46,0,6.93,0,10.39,0c1.03,0,1.25-0.38,0.72-1.28
			c-3.43-5.89-6.87-11.79-10.3-17.68c-0.55-0.95-1.05-0.95-1.6-0.01c-3.44,5.89-6.87,11.78-10.3,17.68c-0.55,0.94-0.33,1.3,0.77,1.3
			C20.29,44.01,23.73,44.01,27.17,44.01z"/>
		<path d="M25.66,36.6c-1.07,0-2.03,0-3.2,0c0.26-0.39,0.36-0.59,0.51-0.77c1.76-2.07,3.53-4.14,5.3-6.19
			c0.16-0.18,0.42-0.27,0.63-0.4c-0.01,0.26,0.05,0.55-0.03,0.79c-0.54,1.45-1.11,2.89-1.71,4.45c1.09,0,2.1-0.01,3.1,0.01
			c0.23,0,0.45,0.1,0.68,0.16c-0.1,0.21-0.15,0.45-0.3,0.62c-2.13,2.37-4.27,4.74-6.42,7.09c-0.15,0.17-0.43,0.22-0.64,0.32
			c0.01-0.23-0.04-0.48,0.04-0.68c0.57-1.5,1.16-2.99,1.74-4.48C25.44,37.27,25.52,37.01,25.66,36.6z M24.78,40.62
			c0.04,0.03,0.09,0.07,0.13,0.1c1.67-1.84,3.33-3.68,5.13-5.67c-1.09,0-1.99-0.02-2.9,0.01c-0.63,0.02-0.81-0.18-0.55-0.78
			c0.41-0.97,0.77-1.96,1.15-2.95c-0.04-0.02-0.07-0.04-0.11-0.07c-1.33,1.55-2.65,3.11-3.98,4.66c0.03,0.07,0.07,0.14,0.1,0.21
			c0.86,0,1.73,0,2.73,0C25.88,37.74,25.33,39.18,24.78,40.62z"/>
	</g>
</g>
</svg>
