<?xml version="1.0" encoding="UTF-8"?>
<!DOCTYPE svg PUBLIC "-//W3C//DTD SVG 1.1//EN" "http://www.w3.org/Graphics/SVG/1.1/DTD/svg11.dtd">
<!-- Creator: CorelDRAW 2020 (64-Bit Evaluation Version) -->
<svg xmlns="http://www.w3.org/2000/svg" xml:space="preserve" width="100%" height="100%" version="1.1" style="shape-rendering:geometricPrecision; text-rendering:geometricPrecision; image-rendering:optimizeQuality; fill-rule:evenodd; clip-rule:evenodd"
viewBox="0 0 677.32 677.32"
 xmlns:xlink="http://www.w3.org/1999/xlink"
 xmlns:xodm="http://www.corel.com/coreldraw/odm/2003">
 <defs>
  <style type="text/css">
   <![CDATA[
    .fil0 {fill:#0072BA;fill-rule:nonzero}
   ]]>
  </style>
 </defs>
 <g id="Layer_x0020_1">
  <metadata id="CorelCorpID_0Corel-Layer"/>
  <g id="_2371431096384">
   <g id="Group_319" data-name="Group 319">
    <path id="Path_297" class="fil0" d="M362.71 190.14c-28.38,5.96 -55.48,17.15 -79.78,32.98 -15.88,10.52 -30.51,22.98 -43.37,37.04 -52.36,54.33 -71.76,126.77 -47.5,176.63 8.04,13.75 19.01,25.67 32.05,34.82 2.85,2.07 5.91,3.9 9.1,5.41 0.39,0 -0.13,-2.25 -1.33,-5.01 -1.46,-6.52 -2.19,-13.2 -2.19,-19.89 0,-8.55 1.21,-17.07 3.57,-25.28 9.15,-32.95 23.55,-64.36 42.46,-92.83l2.51 -3.82 -11.08 5.8c-20.25,10.1 -37.61,25.23 -50.38,43.91 -6.59,10.29 -6.72,10.29 -4.22,1.98 8.3,-28.32 24.46,-53.78 46.55,-73.34 21.4,-16.74 44.86,-30.99 69.61,-42.21 35.35,-16.51 68.04,-38.69 96.5,-65.38l6.99 -7.25 -9.63 -2.38c-11.22,-1.84 -22.63,-2.77 -34.02,-2.77 -8.63,0 -17.28,0.54 -25.83,1.6l-0.01 -0.01z" data-name="Path 297"/>
    <path id="Path_298" class="fil0" d="M430.1 204.91c-6.32,16.35 -14.22,32.14 -23.47,47.06 -14.86,20.78 -34.88,37.43 -58.02,48.27 -11.21,5.01 -11.74,5.8 -18.43,25.05 -4.15,12.22 -6.27,25.04 -6.27,37.95 0,7.13 0.65,14.27 1.93,21.26 3.91,17.63 14.94,32.86 30.46,42.08 10.25,4.91 21.48,7.47 32.84,7.47 13.69,0 27.14,-3.72 38.9,-10.73 26.91,-15.69 56.31,-63.69 65.28,-106.54 1.53,-8.8 2.29,-17.7 2.29,-26.63 0,-8.65 -0.74,-17.33 -2.16,-25.85 -4.57,-20.57 -15.47,-39.21 -31.13,-53.29 -8.63,-6.51 -18.04,-11.98 -27.95,-16.26 -1.65,3.28 -3.09,6.69 -4.27,10.16l0 0z" data-name="Path 298"/>
    <path id="Path_299" class="fil0" d="M305.87 318.32l-7.91 3.25 -6.86 13.58c-16.56,30.85 -25.86,65.18 -27.03,100.21 0,23.61 5.29,40.21 15.56,49.19 4.34,3.96 5.42,4.22 14.37,4.22 15.89,-0.46 31.64,-3.38 46.67,-8.57 23.61,-7.79 23.73,-7.92 8.04,-7.92 -1.55,0.2 -3.12,0.3 -4.68,0.3 -10.4,0 -20.33,-4.36 -27.36,-12.03 -24.53,-24 -26.76,-66.46 -6.59,-130.16 1.72,-4.9 3.14,-9.94 4.22,-15.03 -2.92,0.63 -5.75,1.62 -8.42,2.96l-0.01 0z" data-name="Path 299"/>
   </g>
  </g>
 </g>
</svg>
