<?xml version="1.0" encoding="utf-8"?>
<!-- Generator: Adobe Illustrator 26.3.1, SVG Export Plug-In . SVG Version: 6.00 Build 0)  -->
<svg version="1.1" id="Layer_1" xmlns="http://www.w3.org/2000/svg" xmlns:xlink="http://www.w3.org/1999/xlink" x="0px" y="0px"
	 viewBox="0 0 80 80" style="enable-background:new 0 0 80 80;" xml:space="preserve">
<style type="text/css">
	.st0{font-family:'Gotham-Bold';}
	.st1{font-size:3.691px;}
</style>
<g>
	<g>
		<path d="M38.19,42.62c-8.3,0-16.6-0.02-24.9,0.03c-1.12,0.01-0.99-0.63-0.99-1.3c-0.01-3.62,0-7.24,0-10.86
			c0-8.74,0-17.47,0-26.21c0-2.08,0-2.06,2.07-2.06c15.97,0.01,31.95,0,47.92,0c2.2,0,2.21,0,2.21,2.16
			c0,12.11-0.03,24.23,0.04,36.34c0.01,1.51-0.45,1.85-1.88,1.84c-8.16-0.06-16.31-0.03-24.47-0.03
			C38.19,42.57,38.19,42.6,38.19,42.62z M59.26,6.56c0,9.17,0,18.17,0,27.32c-1.19,0-2.3-0.1-3.38,0.05c-0.43,0.06-0.79,0.65-1.18,1
			c0.41,0.29,0.79,0.79,1.23,0.84c1.05,0.13,2.12,0.05,3.18,0.04c1.86-0.01,2.11-0.24,2.11-2.07c0.01-9.03,0.01-18.06,0-27.09
			c0-1.78-0.33-2.11-2.11-2.11c-13.81,0-27.62,0-41.43,0c-1.76,0-2.09,0.33-2.09,2.14c-0.01,8.98-0.01,17.96,0,26.94
			c0,1.93,0.27,2.19,2.16,2.19c9.37,0,18.73,0,28.1,0c0.29,0,0.64,0.09,0.86-0.04c0.36-0.2,0.9-0.57,0.88-0.84
			c-0.02-0.35-0.45-0.8-0.81-0.98c-0.35-0.18-0.85-0.08-1.28-0.08c-8.74,0-17.48,0-26.22,0c-0.56,0-1.12,0-1.7,0
			c0-9.23,0-18.23,0-27.32C31.5,6.56,45.33,6.56,59.26,6.56z M48.52,25.93c2.2,0.07,3.49-1.2,4.56-2.86c0.96-1.49,2-2.93,2.89-4.46
			c0.22-0.38,0.19-1.33-0.04-1.46c-0.43-0.24-1.32-0.31-1.62-0.03c-0.83,0.78-1.5,1.74-2.14,2.69c-0.57,0.83-0.94,1.8-1.53,2.61
			c-1.08,1.49-2.62,1.67-3.98,0.43c-0.7-0.64-1.36-1.41-1.8-2.24c-1.89-3.57-7.03-4.77-9.86-0.32c-1.42,2.23-2.85,2.21-4.87,0.39
			c-0.92-0.83-1.86-1.71-2.95-2.28c-1.96-1.02-4.63-0.05-5.47,1.95c-0.22,0.52-0.13,1.56,0.24,1.86c0.7,0.59,1.34,0.15,1.8-0.69
			c0.69-1.26,1.88-1.51,3.04-0.68c0.74,0.53,1.36,1.21,2.04,1.83c2.73,2.49,5.73,2.21,7.94-0.73c0.17-0.23,0.33-0.47,0.51-0.7
			c1.52-1.95,3.53-1.98,5.06-0.04c0.68,0.87,1.26,1.83,1.96,2.68C45.38,25.21,46.8,25.95,48.52,25.93z M51.35,35.77
			c0,0.02,0,0.04,0,0.06c0.43-0.03,0.97,0.1,1.25-0.12c0.31-0.24,0.37-0.79,0.54-1.21c-0.68-0.21-1.36-0.57-2.04-0.58
			c-0.52-0.01-1.05,0.43-1.57,0.67c0.22,0.39,0.37,0.89,0.7,1.14C50.48,35.92,50.97,35.77,51.35,35.77z"/>
		<path d="M16.52,57.83c5.26,0,10.46,0,15.88,0c0,0.95,0,1.84,0,2.74c0,2.51-0.01,5.02,0.01,7.53c0,0.74-0.18,1.76,0.92,1.79
			c1.13,0.03,0.95-0.98,0.95-1.73c0.01-2.94,0-5.89,0.01-8.83c0-0.47,0.04-0.94,0.07-1.48c2.33,0,4.58,0,6.92,0
			c0,6.6,0,13.14,0,19.79c-2.28,0-4.52,0-7,0c0-0.62,0-1.23,0-1.83c0.01-0.7-0.01-1.55-0.94-1.39c-0.39,0.07-0.73,0.91-0.9,1.46
			c-0.15,0.48-0.03,1.04-0.03,1.72c-0.65,0.05-1.2,0.13-1.75,0.13c-4.29,0.02-8.59,0.02-12.88,0.04c-0.79,0-1.42-0.02-1.41-1.11
			c0.03-6.08,0.02-12.16,0.03-18.24C16.38,58.28,16.44,58.15,16.52,57.83z M36.2,62.9c1.17,0,2.16,0,3.18,0c0-0.82,0-1.55,0-2.3
			c-1.12,0-2.14,0-3.18,0C36.2,61.42,36.2,62.11,36.2,62.9z M37.82,65.61c0,0.01,0,0.01,0,0.02c0.24,0,0.51,0.07,0.71-0.02
			c0.33-0.14,0.62-0.38,0.93-0.58c-0.31-0.21-0.61-0.54-0.95-0.59c-0.61-0.09-1.24-0.04-1.85,0.04c-0.19,0.03-0.45,0.37-0.45,0.57
			c0,0.18,0.28,0.48,0.48,0.53C37.04,65.68,37.44,65.61,37.82,65.61z M34.66,72.01c-0.63-0.46-1.07-1.02-1.36-0.95
			c-0.36,0.09-0.82,0.69-0.82,1.08c0,0.32,0.58,0.89,0.92,0.91C33.73,73.06,34.09,72.51,34.66,72.01z"/>
		<path d="M43.34,77.56c0-6.56,0-13.1,0-19.72c2.32,0,4.56,0,6.91,0c0,6.55,0,13.04,0,19.72C47.99,77.56,45.69,77.56,43.34,77.56z
			 M46.62,62.96c0.89,0.07,1.78,0.24,1.77-1.24c-0.01-1.37-0.81-1.27-1.7-1.25c-0.86,0.01-1.72-0.17-1.73,1.22
			C44.95,62.99,45.6,63.1,46.62,62.96z M46.61,65.61c0.04,0.09,0.08,0.19,0.11,0.28c0.51-0.28,1.02-0.56,1.54-0.85
			c-0.55-0.21-1.1-0.46-1.66-0.61c-0.31-0.08-0.69-0.05-0.99,0.06c-0.21,0.08-0.47,0.36-0.48,0.56c0,0.18,0.28,0.47,0.49,0.53
			C45.92,65.68,46.27,65.61,46.61,65.61z"/>
		<path d="M52.3,77.74c0-6.72,0-13.23,0-19.86c2.26,0,4.5,0,6.92,0c0.03,0.43,0.09,0.88,0.09,1.34c0.01,5.65-0.03,11.3,0.03,16.95
			c0.01,1.18-0.32,1.64-1.54,1.59C56.04,77.68,54.26,77.74,52.3,77.74z M53.93,62.87c1.16,0,2.18,0,3.31,0
			c-0.04-0.86-0.07-1.59-0.11-2.3c-1.17,0-2.15,0-3.2,0C53.93,61.37,53.93,62.07,53.93,62.87z M55.51,65.64
			c0.04,0.08,0.07,0.16,0.11,0.23c0.52-0.26,1.04-0.53,1.56-0.79c-0.59-0.22-1.17-0.45-1.76-0.66c-0.08-0.03-0.2-0.03-0.28,0
			c-0.42,0.19-0.83,0.4-1.25,0.6c0.4,0.21,0.79,0.43,1.19,0.61C55.2,65.68,55.36,65.64,55.51,65.64z"/>
		<path d="M61.09,57.77c1.98,0,3.71,0.05,5.44-0.02c1.05-0.04,1.17,0.5,1.16,1.34c-0.02,3.67-0.01,7.33-0.01,11
			c0,2.12-0.03,4.25,0.01,6.37c0.02,0.92-0.3,1.32-1.24,1.29c-1.45-0.04-2.9,0.05-4.34-0.02c-0.35-0.02-0.99-0.44-0.99-0.69
			C61.08,70.68,61.09,64.32,61.09,57.77z M66.05,62.91c0-0.86,0-1.59,0-2.31c-1.13,0-2.15,0-3.15,0c0,0.84,0,1.54,0,2.31
			C63.97,62.91,64.96,62.91,66.05,62.91z M64.4,65.88c0.04-0.08,0.08-0.16,0.11-0.24c0.24,0,0.51,0.07,0.71-0.02
			c0.33-0.14,0.61-0.39,0.91-0.59c-0.32-0.2-0.61-0.45-0.95-0.59c-0.2-0.09-0.49-0.08-0.71-0.01c-0.55,0.18-1.09,0.43-1.63,0.64
			C63.36,65.34,63.88,65.61,64.4,65.88z"/>
		<path d="M38.3,52.94c-3.81,0-7.62-0.03-11.43,0.02c-1.08,0.01-1.38-0.42-1.15-1.41c0.28-1.19,1-1.86,2.23-1.86
			c6.81-0.01,13.61-0.04,20.42,0.04c0.81,0.01,1.7,0.56,2.37,1.09c0.33,0.26,0.37,1.08,0.26,1.59c-0.05,0.22-0.81,0.4-1.24,0.4
			c-3.81,0.03-7.63,0.02-11.44,0.02C38.3,52.86,38.3,52.9,38.3,52.94z"/>
		<path d="M43.1,47.02c-2.63,0-5.26,0-7.99,0c0-0.62,0-1.16,0-1.88c2.54,0,5.03-0.06,7.52,0.07c0.33,0.02,0.62,0.93,0.93,1.44
			C43.4,46.77,43.25,46.89,43.1,47.02z"/>
	</g>
	<text transform="matrix(1 0 0 1 53.2353 52.06)" class="st0 st1">SCADA</text>
</g>
</svg>
