<?xml version="1.0" encoding="UTF-8"?>
<!DOCTYPE svg PUBLIC "-//W3C//DTD SVG 1.1//EN" "http://www.w3.org/Graphics/SVG/1.1/DTD/svg11.dtd">
<!-- Creator: CorelDRAW 2020 (64-Bit Evaluation Version) -->
<svg xmlns="http://www.w3.org/2000/svg" xml:space="preserve" width="100%" height="100%" version="1.1" style="shape-rendering:geometricPrecision; text-rendering:geometricPrecision; image-rendering:optimizeQuality; fill-rule:evenodd; clip-rule:evenodd"
viewBox="0 0 677.32 677.32"
 xmlns:xlink="http://www.w3.org/1999/xlink"
 xmlns:xodm="http://www.corel.com/coreldraw/odm/2003">
 <defs>
  <style type="text/css">
   <![CDATA[
    .fil4 {fill:#87817C;fill-rule:nonzero}
    .fil0 {fill:#F6AC00;fill-rule:nonzero}
    .fil3 {fill:#F9BA00;fill-rule:nonzero}
    .fil2 {fill:#FCCA00;fill-rule:nonzero}
    .fil1 {fill:#FDD700;fill-rule:nonzero}
   ]]>
  </style>
 </defs>
 <g id="Layer_x0020_1">
  <metadata id="CorelCorpID_0Corel-Layer"/>
  <g id="_2372914221536">
   <path class="fil0" d="M477.69 124.73c23.97,0 22.6,6.34 18.32,15.42 -0.09,0.25 -1.97,3.76 -2.05,4.02 -9.51,19.18 -25.6,10.28 -36.82,4.88 -0.35,-0.17 -0.6,0.17 -0.6,0.17 -0.09,0.17 -0.09,0.43 0.17,0.69 15.24,12.33 22.94,22.34 11.3,44.78l-6.85 13.1c-6.34,12.33 -18.84,12.07 -30.31,6.25 -0.43,-0.17 -0.6,-0.17 -0.77,0.09 -0.26,0.42 0.25,0.77 0.25,0.77l3.09 2.39c8.04,6.26 11.21,21.75 6.08,31.77l-9.77 18.84c-7.27,14.38 -13.44,11.38 -20.29,7.62 -0.08,0 -0.51,-0.09 -0.6,0.17 -0.08,0.17 -0.17,0.43 0.09,0.6 5.91,4.37 8.99,14.12 4.53,23.2l-10.1 19.52c-3.85,7.53 -13.1,11.3 -10.87,-2.48 0.51,-3.77 1.45,-8.48 2.14,-12.93l24.91 -140.34c0,0 7.03,-38.53 46.92,-38.53l11.23 0z"/>
   <path class="fil1" d="M585.31 358.74l-151.98 0c-20.97,0 -14.12,-7.11 -5.73,-9.76l36.99 -12.07c8.82,-2.83 20.98,0 29.37,6.16 0,0 0.43,0.26 0.68,-0.08 0.09,-0.09 0.26,-0.43 0,-0.69 -5.39,-7.19 -6.51,-12.67 6.08,-17.21l37.59 -12.07c18.84,-6.6 38.01,7.19 40.58,8.99 0.35,0.25 0.77,0.51 1.03,0.25 0.34,-0.25 0.09,-0.68 -0.17,-1.02 -4.97,-6.6 -11.04,-17.64 4.62,-23.29l32.11 -10.53c13.87,-4.46 26.11,-5.48 24.32,7.53l-4.88 27.31c0.08,0.18 -4.46,36.48 -50.61,36.48z"/>
   <path class="fil2" d="M461.51 317.04c-0.26,0.26 -0.6,0.09 -0.6,0.09 -2.06,-1.12 -5.14,-2.66 -9.17,-2.66 -4.7,0 -9.59,1.63 -13.61,4.71l-19.18 14.73c-8.39,7.62 -7.45,16.78 9.76,11.13l33.48 -11.47c4.54,-1.54 6.17,-4.2 6.08,-7.2 -0.17,-2.74 -1.97,-4.71 -3.17,-6.16 -0.25,-0.26 -0.08,-0.52 0,-0.6 0.26,-0.35 0.69,-0.17 0.69,-0.17 6.85,4.62 14.13,8.47 32.28,1.62l37.24 -12.93c11.05,-3.77 5.91,-12.5 -2.22,-19.01 -0.6,-0.43 -0.6,-0.86 -0.35,-1.11 0.18,-0.17 0.69,0 1.03,0.17 13.96,7.53 24.41,11.13 49.32,3.51l23.2 -7.88c7.96,-3.34 11.99,-5.39 14.39,-12.58 2.99,-10.45 -9.68,-20.04 -10.19,-20.47 -0.52,-0.43 0.08,-1.11 0.6,-0.85 25.51,12.67 35.7,12.67 41.18,-18.58l8.9 -50.09c5.14,-25.69 -5.39,-33.31 -23.03,-19.78l-38.96 30.65c-28,22.18 -19.34,34.51 0,49.92 0.09,0.09 0.35,0.51 0.09,0.94 -0.17,0.35 -0.6,0.26 -0.77,0.17 -5.05,-2.82 -33.22,-24.4 -66.45,2.06 -0.17,0.08 -2.48,2.05 -2.65,2.14 -17.55,14.21 -18.41,20.38 -4.88,34.16 0,0 0.52,0.43 0.17,0.86 -0.17,0.25 -0.34,0.25 -1.03,-0.17 -11.38,-5.91 -26.11,-9.51 -36.56,-1.54l-18.84 14.64c-12.5,10.1 -12.24,16.01 -6.85,20.97 0.1,0.1 0.35,0.44 0.1,0.78z"/>
   <path class="fil3" d="M465.96 210.87c-7.45,13.19 -2.14,24.66 6.08,32.88 0,0 0.42,0.43 0,0.77 -0.09,0.09 -0.26,0.26 -0.78,-0.09 -10.61,-7.28 -22.77,-1.79 -28.33,8.65l-9.34 17.3c-7.79,12.24 -4.62,20.2 0.69,24.91 0,0 0.25,0.35 0.08,0.6 -0.17,0.26 -0.6,0.18 -0.6,0.18 -3.94,-1.8 -11.9,-3.94 -17.81,6.07l-9.33 17.13c-6.94,11.39 -2.4,20.89 10.96,11.04l18.41 -14.98c8.65,-7.28 4.71,-13.44 1.97,-16.35 0,0 -0.26,-0.35 -0.09,-0.6 0.17,-0.26 0.6,-0.18 0.6,-0.18 5.99,3.34 12.76,4.2 26.63,-6.42l17.98 -14.72c11.39,-10.11 5.14,-19.52 -2.74,-25.86 -0.69,-0.6 -0.51,-0.86 -0.26,-1.12 0.18,-0.17 0.69,0 0.86,0.09 16.78,10.44 26.71,6.51 39.9,-4.2 0.17,-0.17 4.2,-3.34 4.37,-3.51 3.85,-3.51 13.44,-9.5 14.81,-22.77 1.29,-13.61 -12.16,-22.43 -15.15,-24.92 -0.52,-0.43 0,-1.11 0.43,-0.86 27.05,12.5 38.78,15.93 72.52,-10.61l35.96 -29.46c16.95,-15.84 16.19,-29.28 -15.41,-29.19l-68.33 0c-19.44,0 -37.67,1.03 -47.09,18.41 -0.09,0.08 -2.23,4.02 -2.31,4.11 -11.65,21.66 -2.66,26.71 13.1,38.87 0.25,0.34 0.08,1.11 -0.52,0.77 -2.31,-0.77 -11.13,-5.99 -22.34,-2.99 -11.22,2.99 -14.9,7.1 -20.12,17.29l-4.8 9.76z"/>
   <g>
    <path class="fil4" d="M99.84 371.67c1.37,0.34 2.65,0.94 2.31,2.91l-2.06 11.56c-0.34,2.05 -0.51,3.08 -3.42,2.82 -10.28,-1.11 -19.01,-1.54 -30.49,-1.54 -8.56,0 -18.4,2.66 -18.4,11.65 0,5.48 2.65,8.39 10.44,13.27l16.78 10.44c12.59,7.8 16.52,16.36 16.52,28 0,25.86 -21.49,36.31 -47,36.31 -11.65,0 -19.95,-1.12 -27.14,-2.83 -1.38,-0.34 -2.83,-0.94 -2.49,-3.08l2.06 -11.21c0.34,-1.72 0.77,-3.26 3.76,-3 6.26,0.77 21.67,1.54 27.4,1.54 10.88,0 20.55,-3.77 20.55,-14.47 0,-5.74 -2.48,-9.33 -10.61,-14.81l-18.33 -12.33c-10.61,-7.03 -13.69,-17.64 -13.69,-26.29 0,-25.09 22.26,-31.76 44.35,-31.76 10.36,-0.01 24.32,1.54 29.46,2.82l0 0zm83.13 66.01c0.43,-2.99 0.78,-6.08 0.78,-8.9 0,-18.24 -9.85,-31.94 -30.49,-31.94 -23.8,0 -39.21,10.79 -44.35,39.9l-1.71 9.68c-0.6,3.25 -0.77,6.51 -0.77,9.33 0,23.46 16.78,31.25 30.65,31.25 13.96,0 20.81,-0.77 31.25,-2.65 3,-0.51 3.43,-1.54 3.94,-4.03l1.89 -10.27c0.34,-2.06 -0.95,-2.48 -3,-2.31 -6.68,0.6 -17.47,1.71 -28.77,1.71 -11.56,0 -15.84,-5.57 -15.84,-14.04 0,-2.14 0.43,-4.2 0.77,-6.34l50.78 0c2.13,0 3.25,-1.37 3.68,-3.85l1.19 -7.54 0 0zm-32.79 -23.03c8.56,0 13.36,4.8 13.36,13.87 0,2.06 -0.34,3.94 -0.6,5.91l-32.97 0c1.98,-11.39 7.71,-19.78 20.21,-19.78l0 0zm121.67 18.15c0.95,-4.96 1.12,-7.36 1.12,-11.47 0,-13.1 -6.08,-24.49 -27.4,-24.49l-8.05 0c-23.63,0 -32.54,8.14 -36.74,31.77l-9.5 53.85c-0.51,2.49 0.95,3.26 2.31,3.26l14.64 0c2.66,0 3.26,-1.54 3.6,-3.26l9.51 -53.85c1.88,-10.7 4.11,-14.64 13.1,-14.64l8.73 0c8.13,0 9.67,3.85 9.67,8.9 0,1.88 -0.34,3.77 -0.6,5.74l-9.5 53.85c-0.34,1.89 0.17,3.26 2.31,3.26l14.64 0c2.83,0 3.26,-1.54 3.6,-3.26l8.56 -49.66 0 0zm45.47 -34.85l2.82 -15.24c0.34,-2.05 -0.77,-3.42 -3.77,-2.99l-13.87 2.31c-1.71,0.34 -3.25,1.37 -3.59,3.08l-13.87 78.43c-0.35,2.05 -0.43,3.77 -0.43,5.48 0,12.76 9.16,17.89 20.98,17.89 6.5,0 14.47,-0.6 18.41,-1.2 2.05,-0.34 3.08,-1.28 3.42,-2.82l1.71 -9.68c0.35,-1.71 -0.43,-2.31 -2.82,-2.31l-12.33 0.01c-6.25,0 -8.57,-0.78 -8.57,-4.54 0,-0.77 0.18,-1.71 0.35,-2.83l8.9 -50.26 21.92 0c2.83,0 3.43,-1.11 3.77,-3.08l1.54 -9.16c0.43,-2.49 -0.94,-3.09 -2.65,-3.09l-21.92 0zm42.98 0c-2.14,0 -3.25,1.37 -3.6,3.09l-14.29 81.42c-0.35,2.06 0.6,3.26 2.48,3.26l14.3 0c2.65,0 3.42,-1.54 3.76,-3.26l14.3 -81.42c0.43,-2.49 -0.94,-3.09 -2.65,-3.09l-14.3 0zm102.4 39.73c0.43,-2.99 0.77,-6.08 0.77,-8.9 0,-18.24 -9.84,-31.94 -30.48,-31.94 -23.8,0 -39.21,10.79 -44.35,39.9l-1.71 9.68c-0.6,3.25 -0.77,6.51 -0.77,9.33 0,23.46 16.78,31.25 30.65,31.25 14.04,0 20.89,-0.77 31.25,-2.65 3,-0.51 3.43,-1.54 3.86,-4.03l1.88 -10.27c0.34,-2.06 -0.94,-2.48 -2.91,-2.31 -6.68,0.6 -17.47,1.71 -28.86,1.71 -11.56,0 -15.84,-5.57 -15.84,-14.04 0,-2.14 0.52,-4.2 0.77,-6.34l50.78 0c2.14,0 3.25,-1.37 3.77,-3.85l1.19 -7.54 0 0zm-32.79 -23.03c8.56,0 13.36,4.8 13.36,13.87 0,2.06 -0.34,3.94 -0.6,5.91l-32.97 0c1.97,-11.39 7.79,-19.78 20.21,-19.78l0 0zm121.75 18.15c0.95,-4.96 1.12,-7.36 1.12,-11.47 0,-13.1 -6.08,-24.49 -27.4,-24.49l-8.13 0c-23.64,0 -32.54,8.14 -36.74,31.77l-9.5 53.85c-0.52,2.49 0.94,3.26 2.31,3.26l14.64 0c2.66,0 3.26,-1.54 3.6,-3.26l9.5 -53.85c1.89,-10.7 4.03,-14.64 13.11,-14.64l8.64 0c8.05,0 9.68,3.85 9.68,8.9 0,1.88 -0.35,3.77 -0.6,5.74l-9.51 53.85c-0.34,1.89 0.17,3.26 2.31,3.26l14.64 0c2.83,0 3.26,-1.54 3.6,-3.26l8.73 -49.66 0 0zm45.73 -34.85l2.82 -15.24c0.35,-2.05 -0.77,-3.42 -3.77,-2.99l-13.86 2.31c-1.72,0.34 -3.26,1.37 -3.6,3.08l-13.87 78.43c-0.34,2.05 -0.52,3.77 -0.52,5.48 0,12.76 9.17,17.89 21.07,17.89 6.51,0 14.47,-0.6 18.32,-1.2 2.06,-0.34 3.08,-1.28 3.43,-2.82l1.71 -9.68c0.34,-1.71 -0.52,-2.31 -2.83,-2.31l-12.33 0.01c-6.25,0 -8.56,-0.78 -8.56,-4.54 0,-0.77 0.17,-1.71 0.34,-2.83l8.91 -50.26 21.92 0c2.82,0 3.42,-1.11 3.76,-3.08l1.54 -9.16c0.52,-2.49 -0.94,-3.09 -2.65,-3.09l-21.83 0zm-214.06 -28.59c0.34,-1.8 -0.94,-3.26 -2.74,-3.26l-14.9 0c-1.79,0 -3.59,1.46 -3.85,3.26l-2.4 13.61c-0.34,1.8 0.95,3.25 2.74,3.25l14.9 0c1.8,0 3.6,-1.45 3.86,-3.25l2.39 -13.61z"/>
   </g>
   <g>
    <path class="fil0" d="M256.18 525.36l21.41 0 0 8.74 -21.41 0 0 8.21 27.15 0 0 9.59 -40.16 0 0 -44.09 37.59 0 0 9.33 -24.58 0 0 8.22zm78.26 26.54l13.7 0 0 -44.09 -11.99 0 0 25.94 -16.52 -25.94 -14.73 0 0 44.09 11.99 0 0 -26.8 17.55 26.8zm50.86 -34.76l24.66 0 0 -9.33 -37.59 0 0 44.09 40.16 0 0 -9.59 -27.23 0 0 -8.21 21.41 0 0 -8.74 -21.41 0 0 -8.22zm71.84 19.09c1.79,0 2.65,0.69 3.08,2.4 1.2,4.2 1.37,7.11 2.65,10.7 0.69,1.97 1.2,2.49 1.2,2.49l13.87 0c-1.96,-1.46 -3.16,-6.17 -3.51,-7.96 -0.94,-4.8 -2.74,-10.88 -7.87,-11.22 6.76,-0.68 11.13,-4.79 11.13,-11.47 0,-7.79 -5.83,-13.36 -15.84,-13.36l-27.74 0 0 44.09 12.93 0 0 -15.67 10.1 0 0 0zm6.85 -13.86c0,3.42 -2.14,5.13 -6.17,5.13l-10.87 0 0 -10.36 10.87 0c4.37,0 6.17,1.89 6.17,5.23l0 0zm73.55 29.53l4.02 0 0 -23.37 -18.24 0 0 7.28 6.94 0 0 0.94c0,4.62 -3.26,7.36 -8.91,7.28 -7.28,-0.09 -11.04,-3.94 -11.04,-14.13 0,-8.73 3.42,-15.07 10.36,-15.07 7.02,0 8.39,4.71 8.99,9.08l11.3 -1.37c-0.51,-5.91 -4.79,-15.76 -19.69,-15.76 -15.93,0 -24.83,11.05 -24.83,23.63 0,13.44 7.36,22.27 22.86,22.27 11.3,0 16.01,-7.37 16.01,-7.37l2.23 6.59zm52.31 -14.38l17.38 -29.71 -14.64 0 -8.99 17.98 -8.56 -17.98 -15.5 0 17.3 29.71 0 14.38 12.93 0 0 -14.38 0.08 0z"/>
   </g>
  </g>
 </g>
</svg>
