<?xml version="1.0" encoding="utf-8"?>
<!-- Generator: Adobe Illustrator 19.0.0, SVG Export Plug-In . SVG Version: 6.00 Build 0)  -->
<svg version="1.1" id="layer" xmlns="http://www.w3.org/2000/svg" xmlns:xlink="http://www.w3.org/1999/xlink" x="0px" y="0px"
	 viewBox="-153 -46 652 652" style="enable-background:new -153 -46 652 652;" xml:space="preserve">
<style type="text/css">
	.st0{fill:#F6AC00;}
	.st1{fill:#FDD700;}
	.st2{fill:#FCCA00;}
	.st3{fill:#F9BA00;}
	.st4{fill:#87817C;}
</style>
<path class="st0" d="M335.3,28.7c28,0,26.4,7.4,21.4,18c-0.1,0.3-2.3,4.4-2.4,4.7c-11.1,22.4-29.9,12-43,5.7
	c-0.4-0.2-0.7,0.2-0.7,0.2c-0.1,0.2-0.1,0.5,0.2,0.8c17.8,14.4,26.8,26.1,13.2,52.3l-8,15.3c-7.4,14.4-22,14.1-35.4,7.3
	c-0.5-0.2-0.7-0.2-0.9,0.1c-0.3,0.5,0.3,0.9,0.3,0.9l3.6,2.8c9.4,7.3,13.1,25.4,7.1,37.1l-11.4,22c-8.5,16.8-15.7,13.3-23.7,8.9
	c-0.1,0-0.6-0.1-0.7,0.2c-0.1,0.2-0.2,0.5,0.1,0.7c6.9,5.1,10.5,16.5,5.3,27.1l-11.8,22.8c-4.5,8.8-15.3,13.2-12.7-2.9
	c0.6-4.4,1.7-9.9,2.5-15.1l29.1-163.9c0,0,8.2-45,54.8-45H335.3z"/>
<path class="st1" d="M461,302H283.5c-24.5,0-16.5-8.3-6.7-11.4l43.2-14.1c10.3-3.3,24.5,0,34.3,7.2c0,0,0.5,0.3,0.8-0.1
	c0.1-0.1,0.3-0.5,0-0.8c-6.3-8.4-7.6-14.8,7.1-20.1l43.9-14.1c22-7.7,44.4,8.4,47.4,10.5c0.4,0.3,0.9,0.6,1.2,0.3
	c0.4-0.3,0.1-0.8-0.2-1.2c-5.8-7.7-12.9-20.6,5.4-27.2l37.5-12.3c16.2-5.2,30.5-6.4,28.4,8.8l-5.7,31.9
	C520.2,259.6,514.9,302,461,302"/>
<path class="st2" d="M316.4,253.3c-0.3,0.3-0.7,0.1-0.7,0.1c-2.4-1.3-6-3.1-10.7-3.1c-5.5,0-11.2,1.9-15.9,5.5L266.7,273
	c-9.8,8.9-8.7,19.6,11.4,13l39.1-13.4c5.3-1.8,7.2-4.9,7.1-8.4c-0.2-3.2-2.3-5.5-3.7-7.2c-0.3-0.3-0.1-0.6,0-0.7
	c0.3-0.4,0.8-0.2,0.8-0.2c8,5.4,16.5,9.9,37.7,1.9l43.5-15.1c12.9-4.4,6.9-14.6-2.6-22.2c-0.7-0.5-0.7-1-0.4-1.3
	c0.2-0.2,0.8,0,1.2,0.2c16.3,8.8,28.5,13,57.6,4.1l27.1-9.2c9.3-3.9,14-6.3,16.8-14.7c3.5-12.2-11.3-23.4-11.9-23.9
	c-0.6-0.5,0.1-1.3,0.7-1c29.8,14.8,41.7,14.8,48.1-21.7l10.4-58.5c6-30-6.3-38.9-26.9-23.1l-45.5,35.8c-32.7,25.9-22.6,40.3,0,58.3
	c0.1,0.1,0.4,0.6,0.1,1.1c-0.2,0.4-0.7,0.3-0.9,0.2c-5.9-3.3-38.8-28.5-77.6,2.4c-0.2,0.1-2.9,2.4-3.1,2.5
	c-20.5,16.6-21.5,23.8-5.7,39.9c0,0,0.6,0.5,0.2,1c-0.2,0.3-0.4,0.3-1.2-0.2c-13.3-6.9-30.5-11.1-42.7-1.8l-22,17.1
	c-14.6,11.8-14.3,18.7-8,24.5C316.4,252.5,316.7,252.9,316.4,253.3"/>
<path class="st3" d="M321.6,129.3c-8.7,15.4-2.5,28.8,7.1,38.4c0,0,0.5,0.5,0,0.9c-0.1,0.1-0.3,0.3-0.9-0.1
	c-12.4-8.5-26.6-2.1-33.1,10.1l-10.9,20.2c-9.1,14.3-5.4,23.6,0.8,29.1c0,0,0.3,0.4,0.1,0.7c-0.2,0.3-0.7,0.2-0.7,0.2
	c-4.6-2.1-13.9-4.6-20.8,7.1l-10.9,20c-8.1,13.3-2.8,24.4,12.8,12.9l21.5-17.5c10.1-8.5,5.5-15.7,2.3-19.1c0,0-0.3-0.4-0.1-0.7
	c0.2-0.3,0.7-0.2,0.7-0.2c7,3.9,14.9,4.9,31.1-7.5l21-17.2c13.3-11.8,6-22.8-3.2-30.2c-0.8-0.7-0.6-1-0.3-1.3c0.2-0.2,0.8,0,1,0.1
	c19.6,12.2,31.2,7.6,46.6-4.9c0.2-0.2,4.9-3.9,5.1-4.1c4.5-4.1,15.7-11.1,17.3-26.6c1.5-15.9-14.2-26.2-17.7-29.1
	c-0.6-0.5,0-1.3,0.5-1c31.6,14.6,45.3,18.6,84.7-12.4l42-34.4c19.8-18.5,18.9-34.2-18-34.1h-79.8c-22.7,0-44,1.2-55,21.5
	c-0.1,0.1-2.6,4.7-2.7,4.8c-13.6,25.3-3.1,31.2,15.3,45.4c0.3,0.4,0.1,1.3-0.6,0.9c-2.7-0.9-13-7-26.1-3.5
	c-13.1,3.5-17.4,8.3-23.5,20.2L321.6,129.3z"/>
<path class="st4" d="M-106,317.1c1.6,0.4,3.1,1.1,2.7,3.4l-2.4,13.5c-0.4,2.4-0.6,3.6-4,3.3c-12-1.3-22.2-1.8-35.6-1.8
	c-10,0-21.5,3.1-21.5,13.6c0,6.4,3.1,9.8,12.2,15.5l19.6,12.2c14.7,9.1,19.3,19.1,19.3,32.7c0,30.2-25.1,42.4-54.9,42.4
	c-13.6,0-23.3-1.3-31.7-3.3c-1.6-0.4-3.3-1.1-2.9-3.6l2.4-13.1c0.4-2,0.9-3.8,4.4-3.5c7.3,0.9,25.3,1.8,32,1.8
	c12.7,0,24-4.4,24-16.9c0-6.7-2.9-10.9-12.4-17.3l-21.4-14.4c-12.4-8.2-16-20.6-16-30.7c0-29.3,26-37.1,51.8-37.1
	C-128.3,313.8-112,315.6-106,317.1 M-8.9,394.2c0.5-3.5,0.9-7.1,0.9-10.4c0-21.3-11.5-37.3-35.6-37.3c-27.8,0-45.8,12.6-51.8,46.6
	l-2,11.3c-0.7,3.8-0.9,7.6-0.9,10.9c0,27.4,19.6,36.5,35.8,36.5c16.3,0,24.3-0.9,36.5-3.1c3.5-0.6,4-1.8,4.6-4.7l2.2-12
	c0.4-2.4-1.1-2.9-3.5-2.7c-7.8,0.7-20.4,2-33.6,2c-13.5,0-18.5-6.5-18.5-16.4c0-2.5,0.5-4.9,0.9-7.4h59.3c2.5,0,3.8-1.6,4.3-4.5
	L-8.9,394.2 M-47.2,367.3c10,0,15.6,5.6,15.6,16.2c0,2.4-0.4,4.6-0.7,6.9h-38.5C-68.5,377.1-61.8,367.3-47.2,367.3 M94.9,388.5
	c1.1-5.8,1.3-8.6,1.3-13.4c0-15.3-7.1-28.6-32-28.6h-9.4c-27.6,0-38,9.5-42.9,37.1L0.8,446.5c-0.6,2.9,1.1,3.8,2.7,3.8h17.1
	c3.1,0,3.8-1.8,4.2-3.8l11.1-62.9c2.2-12.5,4.8-17.1,15.3-17.1h10.2c9.5,0,11.3,4.5,11.3,10.4c0,2.2-0.4,4.4-0.7,6.7l-11.1,62.9
	c-0.4,2.2,0.2,3.8,2.7,3.8h17.1c3.3,0,3.8-1.8,4.2-3.8L94.9,388.5 M148,347.8l3.3-17.8c0.4-2.4-0.9-4-4.4-3.5l-16.2,2.7
	c-2,0.4-3.8,1.6-4.2,3.6l-16.2,91.6c-0.4,2.4-0.5,4.4-0.5,6.4c0,14.9,10.7,20.9,24.5,20.9c7.6,0,16.9-0.7,21.5-1.4
	c2.4-0.4,3.6-1.5,4-3.3l2-11.3c0.4-2-0.5-2.7-3.3-2.7h-14.4c-7.3,0-10-0.9-10-5.3c0-0.9,0.2-2,0.4-3.3l10.4-58.7h25.6
	c3.3,0,4-1.3,4.4-3.6l1.8-10.7c0.5-2.9-1.1-3.6-3.1-3.6H148z M198.2,347.8c-2.5,0-3.8,1.6-4.2,3.6l-16.7,95.1
	c-0.4,2.4,0.7,3.8,2.9,3.8h16.7c3.1,0,4-1.8,4.4-3.8l16.7-95.1c0.5-2.9-1.1-3.6-3.1-3.6H198.2z M317.8,394.2
	c0.5-3.5,0.9-7.1,0.9-10.4c0-21.3-11.5-37.3-35.6-37.3c-27.8,0-45.8,12.6-51.8,46.6l-2,11.3c-0.7,3.8-0.9,7.6-0.9,10.9
	c0,27.4,19.6,36.5,35.8,36.5c16.4,0,24.4-0.9,36.5-3.1c3.5-0.6,4-1.8,4.5-4.7l2.2-12c0.4-2.4-1.1-2.9-3.4-2.7
	c-7.8,0.7-20.4,2-33.7,2c-13.5,0-18.5-6.5-18.5-16.4c0-2.5,0.6-4.9,0.9-7.4H312c2.5,0,3.8-1.6,4.4-4.5L317.8,394.2 M279.5,367.3
	c10,0,15.6,5.6,15.6,16.2c0,2.4-0.4,4.6-0.7,6.9h-38.5C258.2,377.1,265,367.3,279.5,367.3 M421.7,388.5c1.1-5.8,1.3-8.6,1.3-13.4
	c0-15.3-7.1-28.6-32-28.6h-9.5c-27.6,0-38,9.5-42.9,37.1l-11.1,62.9c-0.6,2.9,1.1,3.8,2.7,3.8h17.1c3.1,0,3.8-1.8,4.2-3.8l11.1-62.9
	c2.2-12.5,4.7-17.1,15.3-17.1H388c9.4,0,11.3,4.5,11.3,10.4c0,2.2-0.4,4.4-0.7,6.7l-11.1,62.9c-0.4,2.2,0.2,3.8,2.7,3.8h17.1
	c3.3,0,3.8-1.8,4.2-3.8L421.7,388.5 M475.1,347.8l3.3-17.8c0.4-2.4-0.9-4-4.4-3.5l-16.2,2.7c-2,0.4-3.8,1.6-4.2,3.6l-16.2,91.6
	c-0.4,2.4-0.6,4.4-0.6,6.4c0,14.9,10.7,20.9,24.6,20.9c7.6,0,16.9-0.7,21.4-1.4c2.4-0.4,3.6-1.5,4-3.3l2-11.3c0.4-2-0.6-2.7-3.3-2.7
	h-14.4c-7.3,0-10-0.9-10-5.3c0-0.9,0.2-2,0.4-3.3l10.4-58.7h25.6c3.3,0,4-1.3,4.4-3.6l1.8-10.7c0.6-2.9-1.1-3.6-3.1-3.6H475.1z
	 M225.1,314.4c0.4-2.1-1.1-3.8-3.2-3.8h-17.4c-2.1,0-4.2,1.7-4.5,3.8l-2.8,15.9c-0.4,2.1,1.1,3.8,3.2,3.8h17.4
	c2.1,0,4.2-1.7,4.5-3.8L225.1,314.4z"/>
<path class="st0" d="M76.6,496.6h25v10.2h-25v9.6h31.7v11.2H61.4v-51.5h43.9V487H76.6V496.6z M168,527.6h16v-51.5h-14v30.3
	l-19.3-30.3h-17.2v51.5h14v-31.3L168,527.6z M227.4,487h28.8v-10.9h-43.9v51.5h46.9v-11.2h-31.8v-9.6h25v-10.2h-25V487z
	 M311.3,509.3c2.1,0,3.1,0.8,3.6,2.8c1.4,4.9,1.6,8.3,3.1,12.5c0.8,2.3,1.4,2.9,1.4,2.9h16.2c-2.3-1.7-3.7-7.2-4.1-9.3
	c-1.1-5.6-3.2-12.7-9.2-13.1c7.9-0.8,13-5.6,13-13.4c0-9.1-6.8-15.6-18.5-15.6h-32.4v51.5h15.1v-18.3H311.3 M319.3,493.1
	c0,4-2.5,6-7.2,6h-12.7V487h12.7C317.2,487,319.3,489.2,319.3,493.1 M405.2,527.6h4.7v-27.3h-21.3v8.5h8.1v1.1
	c0,5.4-3.8,8.6-10.4,8.5c-8.5-0.1-12.9-4.6-12.9-16.5c0-10.2,4-17.6,12.1-17.6c8.2,0,9.8,5.5,10.5,10.6l13.2-1.6
	c-0.6-6.9-5.6-18.4-23-18.4c-18.6,0-29,12.9-29,27.6c0,15.7,8.6,26,26.7,26c13.2,0,18.7-8.6,18.7-8.6L405.2,527.6z M466.3,510.8
	l20.3-34.7h-17.1l-10.5,21l-10-21h-18.1l20.2,34.7v16.8h15.1V510.8z"/>
</svg>
