<?xml version="1.0" encoding="UTF-8"?>
<!DOCTYPE svg PUBLIC "-//W3C//DTD SVG 1.1//EN" "http://www.w3.org/Graphics/SVG/1.1/DTD/svg11.dtd">
<!-- Creator: CorelDRAW 2020 (64-Bit) -->
<svg xmlns="http://www.w3.org/2000/svg" xml:space="preserve" width="72.7202mm" height="48.0568mm" version="1.1" style="shape-rendering:geometricPrecision; text-rendering:geometricPrecision; image-rendering:optimizeQuality; fill-rule:evenodd; clip-rule:evenodd"
viewBox="0 0 7272.02 4805.68"
 xmlns:xlink="http://www.w3.org/1999/xlink"
 xmlns:xodm="http://www.corel.com/coreldraw/odm/2003">
 <defs>
  <style type="text/css">
   <![CDATA[
    .fil4 {fill:#87817C;fill-rule:nonzero}
    .fil0 {fill:#F6AC00;fill-rule:nonzero}
    .fil3 {fill:#F9BA00;fill-rule:nonzero}
    .fil2 {fill:#FCCA00;fill-rule:nonzero}
    .fil1 {fill:#FDD700;fill-rule:nonzero}
   ]]>
  </style>
 </defs>
 <g id="Layer_x0020_1">
  <metadata id="CorelCorpID_0Corel-Layer"/>
  <g id="_1926415418256">
   <path class="fil0" d="M5190.76 7.42c269.21,0 253.83,71.15 205.75,173.06 -0.96,2.88 -22.11,42.3 -23.08,45.19 -106.72,215.37 -287.48,115.38 -413.43,54.8 -3.85,-1.92 -6.73,1.92 -6.73,1.92 -0.96,1.92 -0.96,4.81 1.92,7.69 171.14,138.45 257.67,250.94 126.91,502.84l-76.92 147.1c-71.15,138.45 -211.52,135.57 -340.36,70.19 -4.81,-1.92 -6.73,-1.92 -8.65,0.96 -2.88,4.81 2.88,8.65 2.88,8.65l34.61 26.92c90.38,70.19 125.95,244.21 68.26,356.7l-109.61 211.52c-81.72,161.53 -150.95,127.87 -227.87,85.57 -0.96,0 -5.77,-0.96 -6.73,1.92 -0.96,1.92 -1.92,4.81 0.96,6.73 66.34,49.03 100.95,158.64 50.96,260.56l-113.45 219.21c-43.27,84.61 -147.1,126.91 -122.11,-27.88 5.77,-42.3 16.34,-95.18 24.04,-145.18l279.78 -1575.83c0,0 78.84,-432.66 526.88,-432.66l125.99 0.02z"/>
   <path class="fil1" d="M6399.32 2635.08l-1706.6 0c-235.56,0 -158.64,-79.8 -64.42,-109.61l415.35 -135.56c99.03,-31.73 235.56,0 329.78,69.22 0,0 4.81,2.88 7.69,-0.96 0.96,-0.96 2.88,-4.81 0,-7.69 -60.57,-80.75 -73.07,-142.29 68.26,-193.24l422.08 -135.57c211.52,-74.03 426.89,80.76 455.73,100.95 3.85,2.88 8.65,5.77 11.54,2.88 3.85,-2.88 0.96,-7.69 -1.92,-11.54 -55.76,-74.03 -124.03,-198.06 51.92,-261.52l360.55 -118.26c155.76,-50 293.25,-61.53 273.05,84.61l-54.8 306.71c0.97,1.93 -49.99,409.58 -568.21,409.58z"/>
   <path class="fil2" d="M5009.04 2166.86c-2.88,2.88 -6.73,0.96 -6.73,0.96 -23.08,-12.5 -57.69,-29.81 -102.88,-29.81 -52.88,0 -107.68,18.27 -152.87,52.88l-215.36 165.38c-94.22,85.56 -83.65,188.44 109.61,124.98l375.93 -128.83c50.96,-17.31 69.23,-47.11 68.26,-80.76 -1.92,-30.77 -22.11,-52.88 -35.57,-69.23 -2.88,-2.88 -0.96,-5.77 0,-6.73 2.88,-3.85 7.69,-1.92 7.69,-1.92 76.92,51.92 158.64,95.18 362.47,18.27l418.24 -145.18c124.03,-42.3 66.34,-140.37 -25,-213.44 -6.73,-4.81 -6.73,-9.61 -3.85,-12.5 1.92,-1.92 7.69,0 11.54,1.92 156.72,84.61 274.02,124.99 553.8,39.42l260.56 -88.45c89.42,-37.5 134.6,-60.57 161.53,-141.33 33.65,-117.3 -108.64,-224.98 -114.41,-229.79 -5.77,-4.81 0.96,-12.5 6.73,-9.61 286.52,142.3 400.93,142.3 462.46,-208.64l99.98 -562.45c57.69,-288.44 -60.57,-374.01 -258.62,-222.1l-437.46 344.2c-314.4,249.02 -217.29,387.47 0,560.53 0.96,0.96 3.85,5.77 0.96,10.58 -1.92,3.85 -6.73,2.88 -8.65,1.92 -56.73,-31.73 -373.05,-274.02 -746.09,23.08 -1.92,0.96 -27.88,23.08 -29.81,24.04 -197.1,159.6 -206.71,228.83 -54.8,383.62 0,0 5.77,4.81 1.92,9.61 -1.92,2.88 -3.85,2.88 -11.54,-1.92 -127.87,-66.34 -293.25,-106.72 -410.54,-17.31l-211.52 164.41c-140.37,113.45 -137.49,179.79 -76.92,235.56 0.94,0.95 3.83,4.79 0.94,8.64z"/>
   <path class="fil3" d="M5059.04 974.65c-83.65,148.06 -24.04,276.9 68.26,369.2 0,0 4.81,4.81 0,8.65 -0.96,0.96 -2.88,2.88 -8.65,-0.96 -119.22,-81.72 -255.75,-20.19 -318.24,97.11l-104.8 194.21c-87.49,137.49 -51.92,226.9 7.69,279.78 0,0 2.88,3.85 0.96,6.73 -1.92,2.88 -6.73,1.92 -6.73,1.92 -44.23,-20.19 -133.64,-44.23 -199.98,68.26l-104.8 192.29c-77.88,127.87 -26.92,234.59 123.07,124.03l206.71 -168.26c97.11,-81.72 52.88,-150.95 22.11,-183.64 0,0 -2.88,-3.85 -0.96,-6.73 1.92,-2.88 6.73,-1.92 6.73,-1.92 67.3,37.5 143.26,47.11 299.01,-72.11l201.91 -165.37c127.87,-113.45 57.69,-219.21 -30.77,-290.36 -7.69,-6.73 -5.77,-9.61 -2.88,-12.5 1.92,-1.92 7.69,0 9.61,0.96 188.45,117.3 299.98,73.07 448.04,-47.11 1.92,-1.92 47.11,-37.5 49.03,-39.42 43.27,-39.42 150.95,-106.72 166.33,-255.75 14.42,-152.87 -136.53,-251.9 -170.18,-279.78 -5.77,-4.81 0,-12.5 4.81,-9.61 303.82,140.37 435.54,178.83 814.36,-119.22l403.81 -330.74c190.37,-177.87 181.72,-328.82 -173.06,-327.86l-767.24 0.01c-218.25,0 -423.04,11.54 -528.8,206.71 -0.96,0.96 -25,45.19 -25.96,46.15 -130.76,243.25 -29.81,299.98 147.1,436.5 2.88,3.85 0.96,12.5 -5.77,8.65 -25.96,-8.65 -124.99,-67.3 -250.94,-33.65 -125.95,33.65 -167.29,79.8 -225.94,194.21l-53.84 109.62z"/>
   <g>
    <path class="fil4" d="M947.85 2780.26c15.38,3.85 29.81,10.58 25.96,32.69l-23.08 129.8c-3.85,23.08 -5.77,34.61 -38.46,31.73 -115.38,-12.5 -213.44,-17.31 -342.28,-17.31 -96.15,0 -206.71,29.81 -206.71,130.76 0,61.53 29.81,94.22 117.3,149.03l188.45 117.3c141.33,87.49 185.56,183.64 185.56,314.4 0,290.36 -241.33,407.66 -527.84,407.66 -130.76,0 -224.02,-12.5 -304.78,-31.73 -15.38,-3.85 -31.73,-10.58 -27.88,-34.61l23.08 -125.95c3.85,-19.23 8.65,-36.54 42.3,-33.65 70.19,8.65 243.25,17.31 307.67,17.31 122.11,0 230.75,-42.3 230.75,-162.49 0,-64.42 -27.88,-104.8 -119.22,-166.33l-205.75 -138.45c-119.22,-78.84 -153.83,-198.06 -153.83,-295.17 0,-281.71 249.98,-356.7 498.04,-356.7 116.31,-0.02 273.03,17.29 330.72,31.71l0 0zm933.57 741.29c4.81,-33.65 8.65,-68.26 8.65,-99.99 0,-204.79 -110.57,-358.62 -342.28,-358.62 -267.29,0 -440.35,121.14 -498.04,448.04l-19.23 108.64c-6.73,36.54 -8.65,73.07 -8.65,104.8 0,263.44 188.45,350.93 344.2,350.93 156.72,0 233.63,-8.65 350.93,-29.81 33.65,-5.77 38.46,-17.31 44.23,-45.19l21.15 -115.38c3.85,-23.08 -10.58,-27.88 -33.65,-25.96 -74.99,6.73 -196.14,19.23 -323.05,19.23 -129.8,0 -177.87,-62.49 -177.87,-157.68 0,-24.04 4.81,-47.11 8.65,-71.15l570.16 0.01c24.04,0 36.54,-15.38 41.34,-43.27l13.46 -84.6 0 0zm-368.24 -258.64c96.15,0 149.99,53.84 149.99,155.76 0,23.08 -3.85,44.23 -6.73,66.34l-370.16 0c22.11,-127.87 86.53,-222.1 226.9,-222.1l0 0zm1366.23 203.83c10.58,-55.76 12.5,-82.69 12.5,-128.84 0,-147.1 -68.26,-274.98 -307.67,-274.98l-90.38 0.01c-265.35,0 -365.34,91.34 -412.46,356.7l-106.71 604.76c-5.77,27.88 10.58,36.54 25.96,36.54l164.4 0c29.81,0 36.54,-17.31 40.38,-36.54l106.72 -604.76c21.15,-120.18 46.15,-164.41 147.09,-164.41l98.08 0c91.34,0 108.64,43.27 108.64,99.99 0,21.15 -3.85,42.3 -6.73,64.42l-106.72 604.76c-3.85,21.15 1.92,36.54 25.96,36.54l164.41 0c31.73,0 36.54,-17.31 40.38,-36.54l96.15 -557.65 0 0zm510.53 -391.31l31.73 -171.14c3.85,-23.08 -8.65,-38.46 -42.3,-33.65l-155.76 25.96c-19.23,3.85 -36.54,15.38 -40.38,34.61l-155.76 880.7c-3.85,23.08 -4.81,42.3 -4.81,61.53 0,143.26 102.88,200.95 235.56,200.95 73.07,0 162.49,-6.73 206.71,-13.46 23.08,-3.85 34.61,-14.42 38.46,-31.73l19.23 -108.64c3.85,-19.23 -4.81,-25.96 -31.73,-25.96l-138.44 -0.01c-70.19,0 -96.15,-8.65 -96.15,-50.96 0,-8.65 1.92,-19.23 3.85,-31.73l99.99 -564.38 246.13 0.01c31.73,0 38.46,-12.5 42.3,-34.61l17.31 -102.88c4.81,-27.88 -10.58,-34.61 -29.81,-34.61l-246.13 0zm482.66 0c-24.04,0 -36.54,15.38 -40.38,34.61l-160.56 914.35c-3.85,23.08 6.73,36.54 27.88,36.54l160.56 0c29.81,0 38.46,-17.31 42.3,-36.54l160.56 -914.35c4.81,-27.88 -10.58,-34.61 -29.81,-34.61l-160.55 0zm1149.9 446.12c4.81,-33.65 8.65,-68.26 8.65,-99.99 0,-204.79 -110.57,-358.62 -342.28,-358.62 -267.29,0 -440.35,121.14 -498.04,448.04l-19.23 108.64c-6.73,36.54 -8.65,73.07 -8.65,104.8 0,263.44 188.45,350.93 344.2,350.93 157.68,0 234.6,-8.65 350.93,-29.81 33.65,-5.77 38.46,-17.31 43.27,-45.19l21.15 -115.38c3.85,-23.08 -10.58,-27.88 -32.69,-25.96 -74.99,6.73 -196.14,19.23 -324.01,19.23 -129.8,0 -177.87,-62.49 -177.87,-157.68 0,-24.04 5.77,-47.11 8.65,-71.15l570.16 0.01c24.04,0 36.54,-15.38 42.3,-43.27l13.46 -84.6 0 0zm-368.23 -258.64c96.15,0 149.99,53.84 149.99,155.76 0,23.08 -3.85,44.23 -6.73,66.34l-370.17 0c22.11,-127.87 87.49,-222.1 226.91,-222.1l0 0zm1367.19 203.83c10.58,-55.76 12.5,-82.69 12.5,-128.84 0,-147.1 -68.26,-274.98 -307.67,-274.98l-91.34 0.01c-265.36,0 -365.35,91.34 -412.47,356.7l-106.72 604.76c-5.77,27.88 10.58,36.54 25.96,36.54l164.41 0c29.81,0 36.54,-17.31 40.38,-36.54l106.72 -604.76c21.15,-120.18 45.19,-164.41 147.1,-164.41l97.12 0c90.38,0 108.64,43.27 108.64,99.99 0,21.15 -3.85,42.3 -6.73,64.42l-106.72 604.76c-3.85,21.15 1.92,36.54 25.96,36.54l164.41 0c31.73,0 36.54,-17.31 40.38,-36.54l98.07 -557.65 0 0zm513.42 -391.31l31.73 -171.14c3.85,-23.08 -8.65,-38.46 -42.3,-33.65l-155.76 25.96c-19.23,3.85 -36.54,15.38 -40.38,34.61l-155.76 880.7c-3.85,23.08 -5.77,42.3 -5.77,61.53 0,143.26 102.88,200.95 236.52,200.95 73.07,0 162.49,-6.73 205.75,-13.46 23.08,-3.85 34.61,-14.42 38.46,-31.73l19.23 -108.64c3.85,-19.23 -5.77,-25.96 -31.73,-25.96l-138.45 -0.01c-70.19,0 -96.15,-8.65 -96.15,-50.96 0,-8.65 1.92,-19.23 3.85,-31.73l99.99 -564.38 246.14 0.01c31.73,0 38.46,-12.5 42.3,-34.61l17.31 -102.88c5.77,-27.88 -10.58,-34.61 -29.81,-34.61l-245.17 0zm-2403.65 -321.13c3.85,-20.19 -10.58,-36.54 -30.77,-36.54l-167.29 0.01c-20.19,0 -40.38,16.34 -43.27,36.54l-26.92 152.87c-3.85,20.19 10.58,36.54 30.77,36.54l167.29 -0.01c20.19,0 40.38,-16.34 43.27,-36.54l26.92 -152.87z"/>
   </g>
   <g>
    <path class="fil0" d="M2703.46 4506.08l240.37 0 0 98.07 -240.37 0 0 92.3 304.79 0 0 107.68 -450.93 0.01 0 -495.15 422.08 -0.01 0 104.8 -275.94 0 0 92.3zm878.78 298.06l153.83 0 0 -495.15 -134.6 -0.01 0 291.32 -185.56 -291.32 -165.38 0 0 495.15 134.61 0.01 0 -300.94 197.1 300.94zm571.1 -390.36l276.9 0 0 -104.8 -422.08 0 0 495.15 450.93 0.01 0 -107.68 -305.75 -0.01 0 -92.3 240.37 0 0 -98.07 -240.37 0 0 -92.3zm806.67 214.41c20.19,0 29.81,7.69 34.61,26.92 13.46,47.11 15.38,79.8 29.81,120.18 7.69,22.11 13.46,27.88 13.46,27.88l155.75 0c-22.11,-16.34 -35.57,-69.23 -39.42,-89.42 -10.58,-53.84 -30.77,-122.11 -88.45,-125.95 75.96,-7.69 124.99,-53.84 124.99,-128.84 0,-87.49 -65.38,-149.99 -177.87,-149.99l-311.51 0.01 0 495.15 145.18 0.01 0 -175.95 113.45 0 0 0zm76.92 -155.76c0,38.46 -24.04,57.69 -69.23,57.69l-122.1 0 0 -116.34 122.1 0c49.04,0 69.23,21.15 69.23,58.65l0 0zm825.89 331.71l45.19 0 0 -262.48 -204.79 0 0 81.72 77.88 0 0 10.58c0,51.92 -36.54,82.69 -99.99,81.72 -81.72,-0.96 -124.03,-44.23 -124.03,-158.64 0,-98.07 38.46,-169.22 116.34,-169.22 78.84,0 94.22,52.88 100.95,101.91l126.91 -15.38c-5.77,-66.34 -53.84,-176.91 -221.14,-176.91 -178.83,0 -278.82,124.03 -278.82,265.36 0,150.95 82.69,249.98 256.71,249.98 126.91,0 179.79,-82.69 179.79,-82.69l25 74.05zm587.45 -161.53l195.18 -333.63 -164.41 0 -100.95 201.91 -96.15 -201.91 -174.02 0 194.21 333.63 0 161.53 145.18 0 0 -161.53 0.96 0z"/>
   </g>
  </g>
 </g>
</svg>
