<?xml version="1.0" encoding="UTF-8"?>
<!DOCTYPE svg PUBLIC "-//W3C//DTD SVG 1.1//EN" "http://www.w3.org/Graphics/SVG/1.1/DTD/svg11.dtd">
<!-- Creator: CorelDRAW 2020 (64-Bit) -->
<svg xmlns="http://www.w3.org/2000/svg" xml:space="preserve" width="67.7334mm" height="67.7342mm" version="1.1" style="shape-rendering:geometricPrecision; text-rendering:geometricPrecision; image-rendering:optimizeQuality; fill-rule:evenodd; clip-rule:evenodd"
viewBox="0 0 6764.89 6764.97"
 xmlns:xlink="http://www.w3.org/1999/xlink"
 xmlns:xodm="http://www.corel.com/coreldraw/odm/2003">
 <defs>
  <style type="text/css">
   <![CDATA[
    .fil1 {fill:#3A73B8;fill-rule:nonzero}
    .fil0 {fill:#FEFFFE;fill-rule:nonzero}
   ]]>
  </style>
 </defs>
 <g id="Layer_x0020_1">
  <metadata id="CorelCorpID_0Corel-Layer"/>
  <g id="_1927521199424">
   <g>
    <g>
     <path class="fil0" d="M3136.88 171.75c614.44,-50.08 1242.81,86.06 1782.47,383.48 920.26,495.9 1572.34,1463.18 1664.94,2507.12 69.68,643.29 -67.67,1306.18 -380.61,1871.99 -313.16,569.92 -803.14,1041.91 -1386.33,1330.54 -457.68,230.78 -972.79,347.3 -1485.44,336.03 -702.15,-5.92 -1397.36,-257.15 -1947.03,-693.15 -473.03,-375.28 -838.93,-883.87 -1039.25,-1453.97 -312.34,-876.72 -220.35,-1890.2 256.13,-2691.09 319.9,-555.18 813.15,-1006.93 1390,-1284.94 358.54,-171.5 748.56,-277.59 1145.12,-306.01l0 0zm-569.29 306.01c-554.17,149.63 -1071.53,475.67 -1400.23,951.95 -221.37,313.16 -348.72,683.97 -414.13,1059.27 -31.07,234.26 -43.96,489.77 73.18,703.79 54.16,106.3 148.81,186.63 195.42,296.99 44.35,97.94 12.88,230.39 -82.58,286.18 -89.54,64.2 -216.07,39.65 -297.02,-27.19 -116.71,-91.57 -166.18,-240.99 -191.12,-382.03 -49.27,-317.65 14.72,-638.99 95.66,-945.61 -63.36,26.37 -54.16,114.06 -78.08,169.66 -138.39,536.59 -137.37,1110.16 14.31,1643.89 143.29,509.8 435.81,983.24 858.12,1307.81 318.07,251.66 707.89,394.75 1102.39,472.22 237.94,40.06 496.73,56.01 719.74,-52.33 110.59,-55.39 193.38,-151.9 301.69,-210.57 91.19,-47.4 209.95,-31.88 281.27,43.34 82.4,82.2 83.84,223.02 16.77,315.01 -72.35,98.53 -188.88,153.31 -303.95,184.99 -253.87,63.57 -519.43,34.96 -773.49,-11.25 -93,-14.71 -181.1,-56 -276.16,-55.78 50.9,50.29 125.5,59.08 191.12,78.7 498.56,122.85 1027.79,123.67 1527.14,4.29 574.62,-138.19 1118.36,-461.56 1459.71,-951.54 221.17,-304.17 343.01,-667.62 418.25,-1032.69 40.05,-269.62 60.28,-574.42 -103.45,-809.5 -76.24,-112.22 -198.71,-220.16 -174.15,-369.99 10.42,-140.02 167.2,-228.53 295.96,-182.95 168.21,54.58 246.93,234.88 281.3,394.73 65.39,331.15 0.41,671.51 -87.1,992.22 22.89,-3.48 36.99,-16.36 42.29,-38.43 150.88,-470.97 177.03,-978.94 89.95,-1465.03 -99.97,-569.7 -363.25,-1125.28 -801.28,-1512.24 -262.87,-239.77 -586.89,-408.82 -929.48,-502.24 -285.34,-84.82 -594.23,-143.51 -888.79,-70.52 -144.93,31.69 -257.56,133.28 -373.64,218.52 -98.32,75.84 -255.72,80.95 -344.43,-12.87 -79.93,-85.03 -72.57,-225.68 -3.69,-315.21 91.56,-120.6 243.05,-176.41 387.37,-202.37 230.37,-34.35 465.85,-11.86 693.16,33.53 90.14,15.53 174.34,57.03 266.14,63.77 -19.01,-15.94 -37.61,-33.73 -61.73,-41.29 -555.96,-179.46 -1164.29,-186.2 -1726.42,-29.21l0 0z"/>
    </g>
    <g>
     <path class="fil0" d="M2643.63 1617.35c124.28,-65.41 283.12,-85.03 409.85,-15.94 101.39,58.06 141.04,183.77 131.03,294.76 -17.99,220.35 -124.48,423.54 -258.38,595.66 -144.72,174.98 -323.18,329.93 -536.99,412.91 16.36,68.27 67.87,141.02 145.14,140.63 135.32,4.9 252.65,-80.54 349.95,-165.57 69.9,-53.14 73.59,-146.16 106.3,-221.17 47.62,-117.33 112.42,-242.44 230.57,-301.71 55.39,-29.43 140.03,-35.16 178.25,23.92 41.7,79.72 3.89,171.09 -36.18,243.25 -54.78,104.66 -141.45,186.63 -210.34,280.87 -25.96,87.48 -30.66,179.47 -32.3,270.23 95.67,-42.32 181.52,-102.62 271.67,-154.95 156.78,-101.39 319.49,-195.83 465.04,-313.16 16.74,-56.63 -6.13,-118.36 -3.48,-177.23 -9,-284.95 89.53,-577.06 283.73,-787.81 120.8,-127.35 302.75,-217.09 480.57,-172.31 106.73,19.42 190.33,106.09 220.35,208.09 38.02,153.92 -14.71,314.8 -95.68,445.82 -139.4,218.11 -342.17,384.7 -547.4,538.01 27.39,68.27 66.43,145.75 140.2,171.1 105.68,-20.23 213.22,-49.06 321.36,-27.6 72.36,15.13 159.23,36.79 194.6,108.95 32.71,70.31 -29.82,142.27 -94.03,164.14 -136.55,44.55 -281.07,19.42 -420.47,8.79 -165.96,39.65 -310.29,149.42 -413.73,283.13 -160.64,211.16 -210.32,490.59 -175.38,749.58 33.34,214.83 141.24,431.31 330.97,548.03 213.58,136.75 521.45,107.75 698.48,-76.85 167,-172.34 219.74,-446.66 126.71,-668.05 -39.45,-97.3 -124.28,-180.26 -230.56,-196.82 -124.08,-28.02 -271.47,52.71 -289.44,184.56 -18.02,101.39 53.14,185.41 113.22,257.97 46.42,48.06 51.95,136.76 -5.7,178.25 -89.33,61.12 -213.2,18.22 -284.33,-52.73 -175.59,-173.32 -170.08,-486.27 -1.84,-663.3 213.79,-245.29 639.58,-250 858.33,-8.38 233.82,259 263.26,674.14 83.4,970.96 -134.93,233.01 -378.17,401.27 -645.53,439.28 -290.88,43.12 -605.08,-49.06 -809.49,-264.73 -399.83,-407.19 -393.5,-1123.23 -12.06,-1540.44 101.98,-122.03 236.71,-208.91 371.83,-289.45 -29.23,-39.45 -59.9,-77.87 -90.99,-116.1 -262.46,190.31 -536.97,363.25 -819.47,522.07 -47.83,17.59 -39.25,75.23 -46.19,115.91 -25.15,347.71 -54.78,710.11 -227.72,1020.83 -116.92,219.52 -293.74,420.68 -530.87,511.03 -188.06,70.93 -415.57,77.24 -588.09,-37.01 -165.17,-103.64 -240.19,-310.48 -227.52,-498.98 26.17,-239.77 162.51,-456.25 335.85,-618.94 237.93,-217.31 526.36,-367.53 809.47,-516.75 57.65,-32.09 120.4,-56.42 171.92,-97.92 19.01,-51.92 21.87,-107.75 27.19,-162.1 -146.77,88.72 -332.17,160.06 -501.01,91.99 -137.98,-53.14 -223.83,-185.2 -267.78,-320.52 -130.22,-13.89 -261.24,-65.82 -344.23,-170.89 -144.73,-173.54 -153.93,-437.44 -49.27,-633.07 34.96,-70.52 113.45,-108.33 190.31,-103.63 14.92,30.25 42.93,60.29 32.7,97.1 -22.89,126.93 -67.46,258.78 -25.35,387.36 20.85,87.9 93.62,158.01 183.98,170.07 19.21,-208.09 59.69,-417 157.59,-604.04 92.19,-181.94 218.11,-358.35 401.27,-457.09l-0.01 0zm122.45 203.6c-123.47,84.02 -198.69,218.32 -263.69,348.93 -69.91,147.39 -126.33,305.8 -132.66,470.15 47.22,-20.85 91.78,-48.04 130.01,-83 154.54,-134.5 289.65,-294.76 380.21,-479.55 31.89,-66.85 59.49,-142.68 41.29,-217.5 -23.5,-60.7 -105.48,-76.65 -155.15,-39.04l0 0zm1597.89 64.19c-144.34,168.03 -223.61,390.83 -221.17,612.22 162.73,-134.3 312.77,-291.7 413.93,-478.32 29.02,-59.7 67.48,-157.19 -6.13,-200.74 -67.05,-34.55 -142.68,16.15 -186.63,66.85l0 0zm-2188.24 2147.35c-141.84,127.33 -280.25,275.76 -331.75,464 -24.73,100.97 -30.45,228.55 54.38,303.76 89.53,81.76 224.44,57.44 327.87,18.6 199.51,-76.86 319.91,-270.03 401.06,-457.68 94.64,-233.03 153.31,-481.19 177.23,-731.6 -226.51,104.68 -438.08,242.48 -628.79,402.92z"/>
    </g>
   </g>
   <g>
    <g>
     <path class="fil1" d="M3137.7 9.45c667.41,-50.9 1348.51,105.07 1927.81,440.1 463.4,267.17 864.05,644.11 1154.09,1094.01 360.19,550.07 550.7,1208.48 545.17,1865.88 -4.27,687.03 -222.99,1371.61 -622.62,1931.1 -405.35,573.77 -994.67,1015.71 -1659.83,1241.79 -590.73,204.41 -1238.12,236.5 -1847.68,99.98 -639.2,-142.47 -1233.02,-478.73 -1687.22,-950.31 -481.39,-498.58 -807.22,-1147.59 -906.78,-1834.21 -97.91,-611.61 -16.96,-1249.58 221.99,-1820.3 221.79,-530.86 582.99,-1001.42 1035.15,-1356.48 524.12,-413.32 1173.73,-665.37 1839.92,-711.56l0 0zm-0.82 162.3c-396.56,28.41 -786.58,134.51 -1145.14,306.01 -576.85,278 -1070.1,729.76 -1390,1284.94 -476.46,800.89 -568.45,1814.36 -256.11,2691.09 200.32,570.13 566.22,1078.71 1039.23,1453.99 549.66,436.01 1244.88,687.23 1947.03,693.15 512.67,11.27 1027.79,-105.25 1485.44,-336.03 583.19,-288.63 1073.17,-760.62 1386.33,-1330.54 312.97,-565.81 450.3,-1228.71 380.61,-1871.99 -92.6,-1043.94 -744.7,-2011.22 -1664.94,-2507.12 -539.63,-297.44 -1168.01,-433.58 -1782.45,-383.5z"/>
    </g>
    <g>
     <path class="fil1" d="M2567.59 477.75c562.13,-156.98 1170.46,-150.24 1726.46,29.23 24.12,7.56 42.73,25.35 61.73,41.29 -91.79,-6.74 -175.98,-48.24 -266.15,-63.77 -227.31,-45.38 -462.81,-67.87 -693.16,-33.53 -144.31,25.96 -295.78,81.77 -387.36,202.37 -68.89,89.54 -76.24,230.17 3.68,315.21 88.72,93.82 246.11,88.71 344.44,12.87 116.1,-85.23 228.71,-186.83 373.64,-218.52 294.55,-72.97 603.45,-14.3 888.78,70.52 342.6,93.42 666.6,262.47 929.49,502.24 438.05,386.96 701.33,942.55 801.27,1512.24 87.08,486.09 60.92,994.06 -89.94,1465.03 -5.31,22.07 -19.4,34.96 -42.29,38.43 87.48,-320.71 152.49,-661.07 87.09,-992.22 -34.36,-159.85 -113.06,-340.15 -281.29,-394.73 -128.78,-45.58 -285.56,42.93 -295.97,182.95 -24.55,149.83 97.9,257.77 174.16,369.99 163.74,235.08 143.5,539.86 103.45,809.5 -75.25,365.05 -197.07,728.52 -418.25,1032.69 -341.34,489.98 -885.08,813.35 -1459.71,951.54 -499.38,119.37 -1028.59,118.55 -1527.14,-4.29 -65.62,-19.63 -140.22,-28.41 -191.13,-78.7 95.05,-0.22 183.16,41.09 276.17,55.78 254.08,46.2 519.61,74.82 773.49,11.25 115.07,-31.68 231.6,-86.44 303.94,-184.99 67.05,-91.99 65.64,-232.83 -16.76,-315.01 -71.32,-75.22 -190.08,-90.74 -281.27,-43.33 -108.32,58.66 -191.13,155.17 -301.69,210.56 -223.02,108.34 -481.8,92.39 -719.74,52.33 -394.52,-77.47 -784.33,-220.56 -1102.39,-472.21 -422.35,-324.61 -714.87,-798.03 -858.17,-1307.84 -151.67,-533.72 -152.69,-1107.3 -14.3,-1643.89 23.91,-55.6 14.71,-143.29 78.08,-169.66 -80.95,306.62 -144.93,627.96 -95.67,945.61 24.94,141.04 74.41,290.47 191.13,382.03 80.95,66.86 207.48,91.39 297.01,27.19 95.46,-55.79 126.94,-188.24 82.59,-286.18 -46.61,-110.36 -141.25,-190.71 -195.43,-296.99 -117.12,-214.02 -104.25,-469.53 -73.18,-703.79 65.42,-375.3 192.76,-746.11 414.14,-1059.27 328.69,-476.29 846.06,-802.32 1400.22,-951.95l0.01 0zm76.04 1139.6c-183.15,98.74 -309.06,275.15 -401.26,457.07 -97.91,187.04 -138.39,395.95 -157.6,604.04 -90.35,-12.05 -163.12,-82.17 -183.97,-170.07 -42.11,-128.58 2.46,-260.42 25.35,-387.37 10.22,-36.78 -17.79,-66.84 -32.71,-97.09 -76.85,-4.7 -155.35,33.11 -190.3,103.63 -104.66,195.63 -95.46,459.53 49.26,633.07 83.02,105.07 214.02,156.98 344.23,170.89 43.96,135.32 129.81,267.38 267.79,320.52 168.84,68.07 354.25,-3.27 501.01,-91.99 -5.31,54.37 -8.18,110.18 -27.19,162.1 -51.52,41.5 -114.27,65.83 -171.92,97.92 -283.11,149.22 -571.54,299.45 -809.47,516.75 -173.34,162.69 -309.68,379.17 -335.85,618.94 -12.67,188.49 62.34,395.34 227.51,498.98 172.5,114.27 400.04,107.93 588.1,37.01 237.12,-90.35 413.93,-291.52 530.86,-511.03 172.93,-310.72 202.58,-673.15 227.72,-1020.83 6.95,-40.68 -1.63,-98.32 46.2,-115.91 282.5,-158.84 557.02,-331.76 819.47,-522.07 31.09,38.22 61.75,76.65 90.99,116.1 -135.12,80.54 -269.84,167.42 -371.83,289.45 -381.43,417.21 -387.78,1133.24 12.05,1540.44 204.41,215.67 518.59,307.87 809.5,264.73 267.37,-38.01 510.6,-206.27 645.53,-439.28 179.86,-296.83 150.42,-711.97 -83.41,-970.96 -218.74,-241.62 -644.53,-236.91 -858.33,8.38 -168.23,177.03 -173.75,489.98 1.84,663.3 71.14,70.95 195.02,113.86 284.34,52.73 57.64,-41.47 52.12,-130.19 5.7,-178.25 -60.07,-72.56 -131.24,-156.57 -113.23,-257.97 17.97,-131.85 165.37,-212.58 289.45,-184.56 106.28,16.55 191.13,99.53 230.56,196.82 93.02,221.38 40.29,495.7 -126.72,668.05 -177.02,184.58 -484.88,213.6 -698.48,76.85 -189.71,-116.71 -297.64,-333.19 -330.96,-548.03 -34.94,-259 14.73,-538.43 175.38,-749.58 103.45,-133.7 247.77,-243.46 413.73,-283.13 139.41,10.63 283.95,35.77 420.47,-8.79 64.21,-21.87 126.71,-93.83 94.03,-164.14 -35.35,-72.16 -122.22,-93.83 -194.61,-108.95 -108.13,-21.46 -215.67,7.36 -321.35,27.6 -73.78,-25.35 -112.84,-102.82 -140.21,-171.1 205.23,-153.31 408.01,-319.9 547.4,-538.01 80.97,-131.03 133.71,-291.91 95.69,-445.82 -30.05,-102 -113.66,-188.67 -220.35,-208.09 -177.82,-44.77 -359.77,44.96 -480.58,172.31 -194.19,210.75 -292.71,502.85 -283.73,787.81 -2.66,58.87 20.22,120.6 3.48,177.23 -145.54,117.33 -308.24,211.77 -465.04,313.16 -90.14,52.34 -175.99,112.63 -271.66,154.95 1.64,-90.77 6.34,-182.75 32.3,-270.24 68.88,-94.23 155.56,-176.2 210.34,-280.86 40.07,-72.16 77.88,-163.53 36.18,-243.25 -38.22,-59.08 -122.86,-53.35 -178.25,-23.92 -118.15,59.28 -182.95,184.38 -230.58,301.71 -32.7,75.02 -36.38,168.03 -106.3,221.17 -97.3,85.03 -214.63,170.48 -349.95,165.57 -77.26,0.41 -128.78,-72.36 -145.13,-140.63 213.81,-83.02 392.27,-237.95 536.99,-412.91 133.89,-172.12 240.39,-375.3 258.38,-595.66 10.02,-111 -29.64,-236.71 -131.03,-294.76 -126.74,-69.07 -285.56,-49.45 -409.85,15.96l0 0z"/>
    </g>
    <path class="fil1" d="M2766.08 1820.95c49.67,-37.61 131.65,-21.66 155.15,39.04 18.2,74.82 -9.4,150.65 -41.29,217.5 -90.56,184.79 -225.67,345.05 -380.21,479.55 -38.22,34.96 -82.79,62.14 -130.01,83 6.33,-164.35 62.75,-322.77 132.66,-470.15 65,-130.62 140.22,-264.92 263.69,-348.93l0 0zm1597.89 64.19c43.95,-50.7 119.58,-101.39 186.63,-66.85 73.61,43.55 35.16,141.04 6.13,200.74 -101.16,186.63 -251.21,344.02 -413.93,478.32 -2.44,-221.38 76.83,-444.19 221.17,-612.22l0 0zm-2188.24 2147.35c190.71,-160.46 402.29,-298.24 628.77,-402.9 -23.92,250.41 -82.59,498.57 -177.23,731.6 -81.15,187.65 -201.55,380.82 -401.06,457.68 -103.43,38.82 -238.34,63.16 -327.87,-18.6 -84.83,-75.23 -79.11,-202.78 -54.38,-303.76 51.52,-188.26 189.9,-336.67 331.77,-464.02z"/>
   </g>
  </g>
 </g>
</svg>
