<?xml version="1.0" encoding="UTF-8"?>
<!DOCTYPE svg PUBLIC "-//W3C//DTD SVG 1.1//EN" "http://www.w3.org/Graphics/SVG/1.1/DTD/svg11.dtd">
<!-- Creator: CorelDRAW 2020 (64-Bit) -->
<svg xmlns="http://www.w3.org/2000/svg" xml:space="preserve" width="67.7332mm" height="12.0226mm" version="1.1" style="shape-rendering:geometricPrecision; text-rendering:geometricPrecision; image-rendering:optimizeQuality; fill-rule:evenodd; clip-rule:evenodd"
viewBox="0 0 6773.32 1202.26"
 xmlns:xlink="http://www.w3.org/1999/xlink"
 xmlns:xodm="http://www.corel.com/coreldraw/odm/2003">
 <defs>
  <style type="text/css">
   <![CDATA[
    .fil0 {fill:#DE1E34}
   ]]>
  </style>
 </defs>
 <g id="Layer_x0020_1">
  <metadata id="CorelCorpID_0Corel-Layer"/>
  <polygon id="polygon9" class="fil0" points="6390.71,5.47 6133.4,5.47 6133.4,921.23 6390.72,921.23 "/>
  <polygon id="polygon11" class="fil0" points="6511.81,921.23 6511.81,5.47 6769.1,5.47 6769.1,921.23 "/>
  <polygon id="polygon13" class="fil0" points="336.31,5.47 -4.24,5.47 -4.24,921.23 336.31,921.23 336.31,467.14 544.42,467.14 544.42,921.23 885,921.23 885,5.47 544.42,5.47 544.42,361.15 336.31,361.15 "/>
  <path id="path15" class="fil0" d="M2143.18 346.01l-20.83 -60.53 -280.02 0 0 635.75 280.02 0 0 -382.19c0,-83.28 53,-128.67 98.39,-128.67 37.83,0 87.01,7.56 87.01,90.83l0 420.03 280.03 0 0 -412.47c0,-230.83 -259.17,-321.64 -444.6,-162.75z"/>
  <path id="path17" class="fil0" d="M5019.02 654.42l-130.54 -368.94 -191.09 0 -130.57 384.08 -136.23 -384.08 -374.6 0 -134.36 323.51 -189.19 -323.51 -319.76 0 376.51 643.31 -49.17 121.05c-17.06,37.87 -57.83,39.75 -65.8,3.8 0,-65.02 -52.73,-117.71 -117.74,-117.71 -65.02,0 -117.74,52.69 -117.74,117.71 0.46,68.12 68.55,157.04 202.88,151.35 134.35,-5.66 191.09,-117.27 210.01,-164.58l311.17 -752.45 224.29 633.26 204.33 0 124.87 -365.19 128.67 365.19 192.96 0 217.57 -635.74 -111.61 0 -124.86 368.94z"/>
  <path id="path19" class="fil0" d="M1367.43 253.17c-214.26,0 -387.92,159.31 -387.92,355.82 0,196.58 173.66,355.91 387.92,355.91 214.3,0 387.99,-159.33 387.99,-355.91 0,-196.51 -173.69,-355.82 -387.99,-355.82zm-5.27 113.76l10.62 0c34.13,0 62.05,27.92 62.05,62.05l0 360.1c0,34.13 -27.92,62.05 -62.05,62.05l-10.62 0c-34.13,0 -62.05,-27.92 -62.05,-62.05l0 -360.1c0,-34.13 27.92,-62.05 62.05,-62.05z"/>
  <path id="path21" class="fil0" d="M3443.78 660.09c2.04,-14.89 3.1,-35.67 3.1,-51.1 0,-196.51 -173.7,-355.82 -387.96,-355.82 -214.29,0 -387.99,159.31 -387.99,355.82 0,196.58 173.7,355.91 387.99,355.91 147.23,0 275.28,-75.24 341.04,-186.09l-85.7 -31.71c-51.79,79.16 -146.77,132.16 -255.34,132.16 -53.32,0 -96.52,-50.46 -96.52,-103.78l0 -115.36 481.38 -0.03 0 0zm-481.38 -217.56c0,-53.27 43.21,-96.44 96.53,-96.44 53.27,0 96.48,43.16 96.48,96.44l0 126.76 -193.01 0 0 -126.76z"/>
  <path id="path23" class="fil0" d="M6035.78 660.09c2.1,-14.89 3.14,-35.67 3.14,-51.1 0,-196.51 -173.69,-355.82 -387.98,-355.82 -214.27,0 -387.96,159.31 -387.96,355.82 0,196.58 173.69,355.91 387.96,355.91 147.25,0 275.31,-75.24 341.06,-186.09l-85.7 -31.71c-51.79,79.16 -146.75,132.16 -255.36,132.16 -53.29,0 -96.49,-50.46 -96.49,-103.78l0 -115.36 481.33 -0.03zm-481.33 -217.56c0,-53.27 43.2,-96.44 96.49,-96.44 53.32,0 96.52,43.16 96.52,96.44l0 126.76 -193.01 0 0 -126.76z"/>
 </g>
</svg>
