<?xml version="1.0" encoding="UTF-8"?>
<!DOCTYPE svg PUBLIC "-//W3C//DTD SVG 1.1//EN" "http://www.w3.org/Graphics/SVG/1.1/DTD/svg11.dtd">
<!-- Creator: CorelDRAW 2020 (64-Bit) -->
<svg xmlns="http://www.w3.org/2000/svg" xml:space="preserve" width="32.721mm" height="7.5776mm" version="1.1" style="shape-rendering:geometricPrecision; text-rendering:geometricPrecision; image-rendering:optimizeQuality; fill-rule:evenodd; clip-rule:evenodd"
viewBox="0 0 3272.1 757.76"
 xmlns:xlink="http://www.w3.org/1999/xlink"
 xmlns:xodm="http://www.corel.com/coreldraw/odm/2003">
 <defs>
  <style type="text/css">
   <![CDATA[
    .fil1 {fill:#575756;fill-rule:nonzero}
    .fil0 {fill:#95C11F;fill-rule:nonzero}
   ]]>
  </style>
 </defs>
 <g id="Layer_x0020_1">
  <metadata id="CorelCorpID_0Corel-Layer"/>
  <g id="_1926493463840">
   <g>
    <g>
     <polygon class="fil0" points="787.81,346.22 737.99,207.1 465.39,296.4 465.39,4.06 315.93,4.06 315.93,296.4 43.33,207.1 -6.49,346.22 271.75,435.52 102.55,668.64 221.93,757.94 390.19,524.82 559.39,757.94 683.47,668.64 509.57,435.52 "/>
     <polygon class="fil0" points="787.81,346.22 737.99,207.1 465.39,296.4 465.39,4.06 315.93,4.06 315.93,296.4 43.33,207.1 -6.49,346.22 271.75,435.52 102.55,668.64 221.93,757.94 390.19,524.82 559.39,757.94 683.47,668.64 509.57,435.52 "/>
    </g>
    <g>
     <polygon class="fil1" points="1371.55,634.8 1099.89,634.8 1099.89,155.4 1371.55,155.4 1371.55,222.14 1178.85,222.14 1178.85,352.8 1359.33,352.8 1359.33,418.6 1178.85,418.6 1178.85,569 1371.55,569 "/>
     <polygon class="fil1" points="1455.21,634.8 1455.21,155.4 1533.23,155.4 1533.23,568.06 1736.27,568.06 1736.27,635.74 1455.21,635.74 "/>
     <path class="fil1" d="M2093.47 505.08c0,42.3 -15.04,76.14 -46.06,100.58 -31.02,24.44 -73.32,36.66 -127.84,36.66 -54.52,0 -98.7,-8.46 -133.48,-25.38l0 -74.26c21.62,10.34 45.12,18.8 69.56,24.44 24.44,5.64 47.94,8.46 68.62,8.46 31.02,0 53.58,-5.64 68.62,-17.86 15.04,-12.22 22.56,-27.26 22.56,-47.94 0,-17.86 -6.58,-32.9 -20.68,-46.06 -13.16,-12.22 -41.36,-27.26 -83.66,-44.18 -44.18,-17.86 -74.26,-37.6 -92.12,-61.1 -17.86,-22.56 -27.26,-49.82 -27.26,-81.78 0,-40.42 14.1,-71.44 42.3,-94.94 28.2,-23.5 66.74,-34.78 114.68,-34.78 46.06,0 92.12,10.34 137.24,30.08l-25.38 63.92c-42.3,-17.86 -80.84,-27.26 -113.74,-27.26 -25.38,0 -44.18,5.64 -57.34,16.92 -13.16,11.28 -19.74,25.38 -19.74,44.18 0,12.22 2.82,23.5 7.52,31.96 4.7,8.46 14.1,16.92 26.32,25.38 12.22,8.46 33.84,17.86 64.86,31.02 34.78,15.04 61.1,28.2 77.08,41.36 15.98,12.22 28.2,27.26 35.72,43.24 7.52,15.98 12.22,35.72 12.22,57.34z"/>
     <polygon class="fil1" points="2351.97,634.8 2273.95,634.8 2273.95,223.08 2132.95,223.08 2132.95,155.4 2492.97,155.4 2492.97,223.08 2351.97,223.08 "/>
     <polygon class="fil1" points="2822.91,634.8 2551.25,634.8 2551.25,155.4 2822.91,155.4 2822.91,222.14 2630.21,222.14 2630.21,352.8 2810.69,352.8 2810.69,418.6 2630.21,418.6 2630.21,569 2822.91,569 "/>
     <path class="fil1" d="M2985.53 443.04l0 191.76 -78.96 0 0 -479.4 135.36 0c62.04,0 108.1,11.28 137.24,34.78 30.08,23.5 44.18,58.28 44.18,105.28 0,60.16 -31.02,102.46 -93.06,127.84l135.36 212.44 -89.3 0 -114.68 -191.76 -76.14 0 0 -0.94zm0 -64.86l54.52 0c36.66,0 62.98,-6.58 78.96,-20.68 15.98,-13.16 24.44,-33.84 24.44,-60.16 0,-27.26 -8.46,-47 -26.32,-58.28 -17.86,-12.22 -44.18,-17.86 -79.9,-17.86l-51.7 0 0 156.98z"/>
    </g>
   </g>
  </g>
 </g>
</svg>
