<?xml version="1.0" encoding="UTF-8"?>
<!DOCTYPE svg PUBLIC "-//W3C//DTD SVG 1.1//EN" "http://www.w3.org/Graphics/SVG/1.1/DTD/svg11.dtd">
<!-- Creator: CorelDRAW 2020 (64-Bit) -->
<svg xmlns="http://www.w3.org/2000/svg" xml:space="preserve" width="67.7332mm" height="15.9172mm" version="1.1" style="shape-rendering:geometricPrecision; text-rendering:geometricPrecision; image-rendering:optimizeQuality; fill-rule:evenodd; clip-rule:evenodd"
viewBox="0 0 6773.32 1591.72"
 xmlns:xlink="http://www.w3.org/1999/xlink"
 xmlns:xodm="http://www.corel.com/coreldraw/odm/2003">
 <defs>
  <style type="text/css">
   <![CDATA[
    .fil0 {fill:#31BEF0;fill-rule:nonzero}
   ]]>
  </style>
 </defs>
 <g id="Layer_x0020_1">
  <metadata id="CorelCorpID_0Corel-Layer"/>
  <g id="_1926505974880">
   <path class="fil0" d="M766.66 567.19c19.59,-19.58 29.41,-42.45 29.41,-71.85l0 -375.66c0,-52.25 -42.48,-94.72 -94.74,-94.72 -52.27,0 -94.73,42.47 -94.73,94.72l0 215.61 -182.92 -107.81c-45.73,-29.38 -104.54,-16.33 -130.65,29.4 -29.4,45.75 -16.35,104.54 29.38,130.67 3.27,0 3.27,3.26 6.55,3.26l326.65 189.46c32.66,22.86 81.65,16.34 111.05,-13.08l0 0zm-140.46 228.67c0,-35.94 -16.34,-68.6 -49.01,-84.94l-326.64 -189.46c-45.74,-29.39 -104.53,-16.33 -130.66,29.4 -29.41,45.75 -16.33,104.53 29.4,130.66 3.27,0 3.27,3.27 6.53,3.27l186.19 107.8 -186.19 107.8c-45.73,26.12 -65.34,81.66 -39.2,130.67 26.14,48.99 81.67,65.31 130.65,39.18 3.28,0 3.28,0 6.53,0l326.67 -189.45c29.39,-16.33 45.73,-49 45.73,-84.93l0 0zm169.87 297.26l0 378.92c0,52.26 -42.48,94.71 -94.74,94.71 -52.27,0 -94.73,-42.46 -94.73,-94.71l0 -212.33 -186.19 107.8c-45.73,29.39 -104.53,16.33 -130.65,-29.4 -29.41,-45.73 -16.35,-104.53 29.38,-130.66 3.27,0 3.27,-3.27 6.53,-3.27l326.67 -189.46c45.73,-26.14 107.79,-9.8 133.92,39.2 6.53,9.78 13.05,26.13 9.81,39.2l0 0 0 0zm169.84 9.8l0 369.11c0,52.26 42.47,94.71 94.74,94.71 52.25,0 94.72,-42.46 94.72,-94.71l0 -212.33 182.92 104.53c45.73,29.39 104.53,16.33 130.66,-29.4 29.41,-45.75 16.33,-104.53 -29.4,-130.66 -3.27,0 -3.27,-3.27 -6.53,-3.27l-326.65 -189.46c-45.73,-26.13 -104.54,-9.8 -130.67,35.94 -6.52,16.32 -13.05,39.2 -9.79,55.54l0 0 0 0zm169.87 -307.06c0,-35.94 16.32,-68.6 48.99,-84.94l326.66 -189.46c45.73,-29.39 104.53,-16.33 130.66,29.4 29.39,45.75 16.33,104.53 -29.41,130.66 -3.26,0 -3.26,3.27 -6.52,3.27l-186.21 107.8 186.21 107.8c45.73,26.12 65.31,81.66 39.19,130.66 -26.13,45.73 -81.68,65.32 -130.66,39.18 -3.26,0 -3.26,-3.27 -6.53,-3.27l-326.65 -189.45c-29.41,-13.05 -49,-45.72 -45.73,-81.65l0 0zm-169.87 -307.05l0 -369.13c0,-52.25 42.47,-94.72 94.74,-94.72 52.25,0 94.72,42.47 94.72,94.72l0 212.33 182.92 -104.53c45.73,-29.39 104.53,-16.33 130.66,29.4 29.41,45.74 16.33,104.53 -29.4,130.66 -3.27,0 -3.27,3.26 -6.53,3.26l-326.65 189.46c-45.73,26.14 -104.54,9.8 -130.67,-35.93 -6.52,-16.32 -13.05,-35.93 -9.79,-55.52l0 0 0 0zm-45.72 137.19c-6.53,-6.53 -13.08,-9.81 -22.88,-9.81l-32.66 0c-9.8,0 -16.33,3.29 -22.86,9.81l-130.66 130.66c-6.53,6.53 -9.8,13.06 -9.8,22.85l0 32.68c0,9.81 3.27,16.34 9.8,22.86l130.66 130.67c6.53,6.52 13.06,9.79 22.86,9.79l32.66 0c9.8,0 16.35,-3.27 22.88,-9.79l130.65 -130.67c3.27,-6.53 6.54,-16.33 6.54,-22.86l0 -32.68c0,-9.79 -3.27,-16.33 -9.81,-22.85l-127.38 -130.66 0 0 0 0zm-19.61 114.34c-3.27,-3.28 -9.79,-6.55 -16.33,-6.55l0 0c-6.55,0 -13.08,3.27 -16.33,6.55l-39.21 39.18c-3.26,3.27 -6.53,9.81 -6.53,16.34l0 0c0,6.54 3.27,13.08 6.53,16.34l39.21 39.19c3.25,3.26 9.78,6.54 16.33,6.54l0 0c6.53,0 13.06,-3.28 16.33,-6.54l39.2 -39.19c3.26,-3.26 6.54,-9.8 6.54,-16.34l0 0c0,-6.53 -3.28,-13.07 -6.54,-16.34l-39.2 -39.18 0 0z"/>
   <path class="fil0" d="M1951.04 1047.27c36.17,16.43 78.92,26.31 118.37,26.31 49.32,3.29 101.91,-13.15 141.37,-42.75 39.46,-26.31 62.48,-72.33 62.48,-118.36 0,-108.5 -95.35,-131.51 -193.99,-164.39 -65.75,-23.03 -138.09,-39.46 -138.09,-95.35 0,-69.05 85.49,-98.64 131.51,-98.64 111.8,0 138.09,88.77 167.68,62.47 29.59,-26.3 -78.91,-111.79 -161.1,-111.79 -49.32,-3.28 -98.64,9.86 -138.09,36.18 -39.46,23.01 -65.76,65.76 -62.48,115.06 -3.28,115.09 138.1,134.82 200.57,157.82 62.46,23.02 131.51,46.05 134.8,101.94 0,78.91 -98.64,105.21 -141.39,105.21 -124.93,0 -161.1,-72.35 -184.12,-49.32 -23,23.02 3.3,46.02 62.48,75.61l0 0 0 0zm841.69 0c3.28,16.43 16.44,26.31 29.6,26.31 13.14,0 23.02,-13.15 26.3,-26.31l0 -309.06c0,-128.23 -101.94,-230.15 -230.15,-230.15 -69.05,0 -134.8,29.59 -177.55,82.2l0 -55.9c0,-16.44 -13.14,-26.3 -26.3,-26.3 -13.15,0 -26.31,13.15 -26.31,26.3l0 519.48c0,0 0,0 0,3.29l0 3.3c3.31,6.58 9.88,13.15 19.73,16.44l9.87 0c9.87,0 16.44,-3.29 19.71,-9.86 3.3,-3.3 6.59,-6.58 6.59,-13.16l0 -315.64c0,-95.35 78.91,-174.26 177.53,-174.26 95.36,0 174.26,78.91 174.26,174.26l0 0 -3.28 309.06 0 0 0 0zm157.82 -256.45c6.59,147.95 134.8,263.02 282.76,253.17 147.96,-6.58 263.03,-134.81 253.16,-282.75 -6.57,-144.67 -124.93,-256.47 -269.6,-256.47 -147.95,6.57 -269.6,131.52 -266.32,286.05l0 0zm1696.54 -470.16l-3.29 0c-26.32,-3.29 -52.61,3.28 -72.34,23.01 -19.71,29.59 -26.3,62.46 -23.01,95.35l0 59.18 78.91 0c16.44,0 26.31,9.86 29.58,26.3l0 0c0,16.45 -13.14,29.59 -29.58,29.59l-78.91 0 0 493.18c0,16.43 -9.86,26.31 -26.31,29.59l0 0c-16.43,0 -29.58,-9.86 -29.58,-26.31 0,0 0,0 0,-3.29l0 -493.18 -75.64 0c-16.43,0 -29.58,-13.14 -29.58,-29.59 0,-16.43 13.14,-26.3 26.3,-26.3l0 0 75.62 0 0 -59.18c-3.3,-46.03 9.86,-95.35 36.16,-131.52 29.59,-29.6 72.34,-46.04 111.78,-42.74l16.45 0c16.44,0 29.59,13.14 29.59,29.58 0,16.45 -13.15,29.6 -29.59,29.6l-6.56 -3.27 0 0zm-1640.64 447.15c6.58,-118.37 108.49,-213.72 226.86,-207.15 118.37,6.59 207.12,115.08 200.55,233.45 -6.58,111.79 -108.48,200.56 -220.28,200.56 -121.64,-6.58 -210.42,-105.22 -207.13,-226.86l0 0zm762.77 305.77c9.85,0 19.74,-6.58 23.01,-16.45 0,0 0,0 0,-3.29l131.52 -312.33 131.52 315.62c3.28,9.87 13.14,16.45 23.03,19.74l3.28 0c6.57,0 13.15,-3.29 16.44,-6.58 3.28,-3.29 6.58,-6.59 9.86,-13.16l190.7 -509.61c6.58,-13.16 0,-29.59 -16.45,-36.18 -13.14,-6.57 -29.59,0 -36.16,16.45l-164.39 450.43 -131.51 -312.34c-6.59,-9.87 -16.43,-16.44 -26.31,-16.44 -9.86,0 -23.01,6.57 -26.3,16.44l-131.52 312.34 -164.38 -450.43c-6.58,-13.15 -23.03,-19.73 -36.18,-16.45l0 0c-13.14,6.59 -19.72,23.02 -13.14,36.18l190.69 509.61c3.3,6.58 6.58,9.87 9.86,13.16l3.29 3.29c6.57,-3.29 9.86,-3.29 13.14,0l0 0 0 0zm1029.11 -29.59c0,16.44 13.14,29.58 29.58,29.58 16.44,0 29.6,-13.14 29.6,-29.58l0 -756.22c0,-16.44 -13.16,-29.58 -29.6,-29.58 -16.44,0 -29.58,13.14 -29.58,29.58l0 756.22 0 0zm677.31 -539.22c-16.43,0 -26.32,13.15 -29.59,26.3l0 0 0 82.21c-49.32,-69.04 -128.23,-111.78 -213.72,-111.78 -157.82,6.57 -279.46,141.38 -269.6,299.18 6.57,147.95 124.93,263.03 269.6,269.62 85.49,0 164.4,-42.75 213.72,-111.79l0 85.49c3.28,16.44 16.44,26.31 29.59,26.31 13.14,0 23.01,-13.16 26.3,-26.31l0 -512.92c0,-13.16 -13.16,-26.31 -26.3,-26.31l0 0 0 0 0 0zm-223.58 516.21c-128.22,9.85 -230.15,-88.78 -240.01,-217.01 -9.86,-128.24 78.91,-233.43 203.84,-243.31 128.22,-9.86 223.58,85.5 230.16,213.72 0,6.59 0,13.15 0,16.44 3.28,121.65 -92.07,223.57 -213.72,226.86l19.73 0 0 3.3zm378.11 23.01c0,16.44 13.14,29.58 29.58,29.58 16.45,0 29.6,-13.14 29.6,-29.58l0 -131.52 115.07 -115.08 217 263.04c3.29,6.57 13.15,9.86 23.02,9.86 16.43,0 26.3,-9.86 29.58,-26.31 0,-6.58 -3.29,-16.44 -6.58,-19.72l-220.28 -266.33 220.28 -210.42c9.86,-13.16 9.86,-29.59 -3.28,-39.46 -9.86,-9.86 -26.3,-9.86 -36.18,0l-338.63 328.79 0 -549.07c0,-16.45 -13.15,-29.59 -29.6,-29.59 -16.44,0 -29.58,13.14 -29.58,29.59l0 0 0 756.22 0 0 0 0zm1019.23 -111.8c6.57,-13.15 3.29,-29.58 -9.86,-39.45 -13.15,-6.57 -29.59,-3.29 -36.17,9.86l0 0c-36.16,65.76 -105.2,111.78 -184.11,115.07l-26.32 0c-118.36,-3.29 -217,-98.64 -217,-217l466.89 0c13.14,0 26.3,-9.86 26.3,-23.01l0 0 0 -6.57c-16.43,-151.26 -151.23,-263.04 -302.49,-246.61 -151.23,16.46 -263.02,151.24 -246.58,302.49 13.15,141.38 131.52,246.59 272.88,249.88l26.32 0.01c98.63,-9.86 184.11,-62.47 230.14,-144.67l0 0 0 0zm-253.17 -358.37c105.21,0 197.28,65.75 213.72,170.96l-430.72 0c19.74,-105.21 108.51,-170.96 217,-170.96l0 0z"/>
  </g>
 </g>
</svg>
