<?xml version="1.0" encoding="UTF-8"?>
<!DOCTYPE svg PUBLIC "-//W3C//DTD SVG 1.1//EN" "http://www.w3.org/Graphics/SVG/1.1/DTD/svg11.dtd">
<!-- Creator: CorelDRAW 2020 (64-Bit) -->
<svg xmlns="http://www.w3.org/2000/svg" xml:space="preserve" width="34.2052mm" height="14.5626mm" version="1.1" style="shape-rendering:geometricPrecision; text-rendering:geometricPrecision; image-rendering:optimizeQuality; fill-rule:evenodd; clip-rule:evenodd"
viewBox="0 0 3420.52 1456.26"
 xmlns:xlink="http://www.w3.org/1999/xlink"
 xmlns:xodm="http://www.corel.com/coreldraw/odm/2003">
 <defs>
  <style type="text/css">
   <![CDATA[
    .fil1 {fill:#DE1815;fill-rule:nonzero}
    .fil0 {fill:#FBCB00;fill-rule:nonzero}
   ]]>
  </style>
 </defs>
 <g id="Layer_x0020_1">
  <metadata id="CorelCorpID_0Corel-Layer"/>
  <g id="_1926508068672">
   <g>
    <path class="fil0" d="M2351.79 720.17l579.58 -718.5 -514.12 0 -175.93 706.53 1.7 0c38.18,0 75.17,3.99 108.77,11.97z"/>
    <polygon class="fil1" points="256.08,424.11 568.65,424.11 314.73,1438.66 2.16,1438.66 "/>
    <polygon class="fil1" points="992.79,730.99 1103.82,730.99 1047.45,955.31 939.26,955.31 816.29,1438.66 507.15,1438.66 630.12,955.31 548.15,955.31 604.52,730.99 683.08,730.99 743.42,494.14 1052.58,494.14 "/>
    <path class="fil1" d="M1691.37 992.88c-41,-2.84 -68.33,-5.69 -109.89,1.14 -91.65,16.52 -134.94,68.89 -157.14,157.7l-71.73 286.94 -309.71 0 178.76 -714.51 309.14 0 -47.25 144.03c0,0 87.11,-159.98 280.69,-159.98l-72.87 284.68z"/>
    <path class="fil1" d="M3011.64 868.21c77.42,-92.24 118.42,-159.98 245.38,-159.98 153.15,0 185.61,133.23 145.76,290.37l-109.89 439.53 -313.13 -0.03 87.1 -348.44c10.24,-41.55 25.05,-100.77 -30.74,-100.77 -54.66,0 -69.45,59.22 -80.27,100.77l-87.1 348.44 -307.44 0 178.78 -713.95 307.41 0 -35.86 144.06z"/>
    <g>
     <path class="fil1" d="M2351.79 720.17l-163.97 203.24 53.52 -215.21c-222.59,0.56 -442.37,132.09 -504.43,382.02 -59.21,236.85 107.6,364.37 319.41,364.37 211.8,0 442.37,-127.52 501.58,-364.37 51.8,-206.64 -44.98,-332.48 -206.11,-370.05l0 0zm-72.88 360.96c-19.35,77.42 -93.37,138.92 -166.81,138.92 -73.44,0 -116.14,-61.5 -96.78,-138.92 19.35,-77.43 93.37,-138.93 166.81,-138.93 72.88,0 116.14,61.5 96.78,138.93z"/>
    </g>
   </g>
  </g>
 </g>
</svg>
