<?xml version="1.0" encoding="UTF-8"?>
<!DOCTYPE svg PUBLIC "-//W3C//DTD SVG 1.1//EN" "http://www.w3.org/Graphics/SVG/1.1/DTD/svg11.dtd">
<!-- Creator: CorelDRAW 2020 (64-Bit) -->
<svg xmlns="http://www.w3.org/2000/svg" xml:space="preserve" width="34.2052mm" height="9.9906mm" version="1.1" style="shape-rendering:geometricPrecision; text-rendering:geometricPrecision; image-rendering:optimizeQuality; fill-rule:evenodd; clip-rule:evenodd"
viewBox="0 0 3420.52 999.06"
 xmlns:xlink="http://www.w3.org/1999/xlink"
 xmlns:xodm="http://www.corel.com/coreldraw/odm/2003">
 <defs>
  <style type="text/css">
   <![CDATA[
    .fil0 {fill:#00A651;fill-rule:nonzero}
   ]]>
  </style>
 </defs>
 <g id="Layer_x0020_1">
  <metadata id="CorelCorpID_0Corel-Layer"/>
  <g id="_1926510928784">
   <g>
    <path class="fil0" d="M421.95 150.7c-76.49,-33.7 -121.95,-47.08 -166.9,-47.08 -47.61,0 -77.57,17.12 -77.57,43.32 0,79.17 268.51,56.71 268.51,240.18 0,101.09 -84.51,159.4 -202.2,159.4 -92.53,0 -138.01,-24.07 -189.89,-50.82l0.03 -113.37c75.41,50.29 121.94,67.94 179.73,67.94 50.82,0 77.57,-17.65 77.57,-48.69 0,-86.11 -268.51,-54.55 -268.51,-243.39 0,-90.93 78.62,-150.85 201.12,-150.85 58.84,0 112.32,12.31 178.66,40.64l-0.03 102.72 -0.52 0z"/>
    <path class="fil0" d="M797.44 522.45c-44.93,16.05 -82.38,24.07 -120.34,24.07 -125.16,0 -205.94,-72.75 -205.94,-183.47 0,-108.58 83.99,-185.6 201.12,-185.6 36.38,0 82.39,9.1 119.82,22.99l0 83.44c-29.41,-15.52 -63.13,-24.07 -90.93,-24.07 -66.87,0 -110.19,40.11 -110.19,102.69 0,63.13 42.24,104.85 106.45,104.85 26.75,0 50.82,-6.42 100.56,-24.6l0 79.7 -0.55 0z"/>
    <g>
     <path class="fil0" d="M1842.1 176.92c-109.66,0 -187.75,77.57 -187.75,186.68 0,109.66 81.3,182.4 206.46,182.4 27.8,0 94.67,0 158.87,-47.09l0 -69.54c-52.42,37.43 -87.19,50.29 -131.57,50.29 -70.6,0 -113.4,-36.38 -117.68,-98.96l255.67 0.03c4.84,-130 -80.23,-203.81 -184,-203.81l0 0zm-69.52 144.96c4.82,-49.21 33.17,-78.09 77.02,-78.09 43.32,0 72.76,29.41 77.02,78.09l-154.04 0z"/>
    </g>
    <rect class="fil0" x="2068.9" y="183.35" width="111.79" height="356.24"/>
    <path class="fil0" d="M2491.47 13.78l0 185.61c-29.96,-14.44 -60.44,-22.47 -92.53,-22.47 -101.64,0 -172.24,75.42 -172.24,184.55 0,106.45 70.6,185.08 166.34,185.08 37.99,0 67.4,-10.16 98.96,-35.3l0 28.88 111.82 -0.03 0 -525.81 -112.35 0.02 0 -0.53zm0 428.45c-22.99,20.86 -42.79,29.4 -66.33,29.4 -52.43,0 -86.12,-43.32 -86.12,-108.05 0,-71.15 33.16,-112.32 89.32,-112.32 20.34,0 46.54,9.1 62.58,20.86l0.03 170.11 0.52 0z"/>
    <g>
     <path class="fil0" d="M2838.08 176.92c-109.66,0 -187.75,77.57 -187.75,186.68 0,109.66 81.3,182.4 206.46,182.4 27.8,0 94.67,0 158.87,-47.09l0 -69.54c-52.42,37.43 -87.19,50.29 -132.12,50.29 -70.08,0 -113.4,-36.38 -117.14,-98.96l255.7 0.03c4.82,-130 -80.25,-203.81 -184.02,-203.81l0 0zm-69.52 144.96c4.81,-49.21 33.17,-78.09 77.02,-78.09 43.32,0 72.75,29.41 77.57,78.09l-154.59 0z"/>
    </g>
   </g>
   <g>
    <path class="fil0" d="M3188.98 285.51l1.6 0c33.17,-74.37 70.08,-109.11 113.4,-109.11 22.46,0 41.72,8.55 73.81,32.61l-31.01 98.96c-29.41,-18.73 -48.69,-26.2 -66.34,-26.2 -41.19,0 -67.39,38.51 -92.01,103.77l0 153.51 -111.77 0 0 -356.24 111.79 0 0 102.7 0.53 0z"/>
    <path class="fil0" d="M2186.06 33.57c10.7,27.8 -8.55,66.33 -42.25,86.11 -33.7,19.79 -69.55,13.37 -79.7,-13.91 -10.71,-27.8 8.02,-66.34 41.72,-86.12 33.69,-19.78 69.52,-13.36 80.23,13.92z"/>
   </g>
   <g>
    <path class="fil0" d="M1200.23 313.31c0,-96.27 -65.79,-135.86 -130.52,-135.86 -43.85,0 -80.23,18.73 -112.32,59.37l-1.6 0 0 -223.06 -111.79 0.02 0 525.27 111.79 0 0 -225.72c26.2,-37.98 48.69,-54.02 74.89,-54.02 34.77,0 57.76,24.59 57.76,78.09l0 125.16c37.43,-19.26 75.41,-31.02 111.79,-35.3l0 -113.95z"/>
    <path class="fil0" d="M1480.53 176.92c-45.46,0 -80.23,17.13 -116.08,57.77l0 -50.82 -111.79 0 0 242.31c38.51,3.74 88.25,21.39 111.79,50.82l0 -166.35c29.41,-43.85 50.29,-58.84 78.09,-58.84 31.57,0 55.64,20.86 55.64,71.15l0 216.09 111.79 0 0 -225.72c0.53,-104.84 -73.83,-136.41 -129.44,-136.41z"/>
    <polygon class="fil0" points="1672.02,641.22 1542.03,641.22 1542.03,733.23 1667.21,733.23 1667.21,772.79 1542.03,772.79 1542.03,868.01 1675.76,868.01 1675.76,907.6 1498.7,907.6 1498.7,601.63 1672.02,601.63 "/>
    <rect class="fil0" x="1777.91" y="601.63" width="39.59" height="306.5"/>
    <g>
     <path class="fil0" d="M1959.79 812.9l141.75 0c0,-74.88 -34.22,-110.71 -87.72,-110.71 -55.64,0 -94.15,41.19 -94.15,102.16 0,56.16 34.78,107.51 97.36,107.51 34.22,0 56.16,-7.5 80.77,-24.07l0 -38.51c-23.54,15.52 -46.53,24.6 -70.6,24.6 -38,-0.53 -60.99,-20.84 -67.41,-60.98l0 0zm55.08 -76.46c28.36,0 45.46,19.25 47.08,49.74l-101.08 0c5.34,-31.57 23.51,-49.74 54,-49.74z"/>
    </g>
    <path class="fil0" d="M2361.5 758.9c-22.99,-15.52 -37.98,-20.33 -55.63,-20.33 -36.38,0 -61.52,27.8 -61.52,68.99 0,41.72 26.75,66.87 68.47,66.87 17.12,0 33.17,-4.29 53.5,-13.37l0 39.04c-13.37,6.42 -39.04,11.76 -59.92,11.76 -60.45,0 -102.17,-41.19 -102.17,-100.56 0,-66.87 37.99,-109.11 99.49,-109.11 23.54,0 39.03,5.34 58.31,13.91l0 42.8 -0.53 0z"/>
    <path class="fil0" d="M2542.82 705.92l63.65 0 0 35.83 -63.65 0.03 0 103.77c0,23.54 17.12,30.48 28.88,30.48 14.44,0 29.41,-4.81 45.46,-14.97l0 37.44c-13.92,7.49 -35.3,13.36 -48.69,13.36 -43.32,0 -65.26,-26.75 -65.26,-63.13l0 -106.45 -35.28 0.02 0 -4.28 74.89 -73.29 0 41.19z"/>
    <path class="fil0" d="M2758.93 705.92l0 46.54 0.53 0.02c20.33,-35.83 39.59,-50.82 58.31,-50.82 16.05,0 31.57,7.5 48.14,23.54l-20.86 35.3c-12.31,-11.75 -27.8,-20.33 -37.43,-20.33 -27.28,0 -48.69,27.81 -48.69,62.58l0 105.37 -39.58 0 0 -202.2 39.58 0z"/>
    <path class="fil0" d="M3274.04 758.9c-22.99,-15.52 -38.5,-20.33 -55.63,-20.33 -36.38,0 -61.52,27.8 -61.52,68.99 0,41.72 26.75,66.87 67.94,66.87 17.12,0 33.17,-4.29 53.5,-13.37l0 39.04c-13.91,6.42 -39.03,11.76 -60.45,11.76 -59.91,0 -102.16,-41.19 -102.16,-100.56 0,-66.87 38.51,-109.11 99.48,-109.11 23.54,0 39.04,5.34 58.32,13.91l-0.03 42.8 0.55 0z"/>
    <rect class="fil0" x="2971.82" y="705.94" width="39.59" height="202.2"/>
    <path class="fil0" d="M3012.48 633.19c3.73,9.63 -2.69,23.54 -14.97,30.49 -12.31,6.94 -24.6,4.81 -28.36,-4.81 -3.73,-9.63 3.21,-23.55 14.97,-30.49 12.31,-6.97 25.15,-4.81 28.36,4.81z"/>
    <path class="fil0" d="M1255.86 732.15l12.31 -43.85 109.64 -0.03c13.36,-63.65 2.68,-122.49 -35.83,-161 -78.09,-78.1 -241.23,-51.35 -362.65,64.73 -18.73,18.18 -34.77,37.43 -49.74,57.77l66.31 0 -15.52 43.85 -79.17 0.02c-7.5,13.91 -14.44,27.8 -20.33,41.72l93.61 0 -14.97 43.85 -92.01 0c-15.52,66.86 -5.89,129.44 33.7,169.03 77.02,77.02 239.63,49.74 361.05,-66.34 21.39,-20.33 39.04,-42.25 54.55,-64.73l-85.01 0.02 12.83 -43.85 99.49 0c7.49,-13.91 13.91,-27.8 19.25,-41.72l-107.51 0 0 0.53zm-24.06 -82.38c-6.95,0 -10.16,1.07 -12.84,4.28 -1.08,1.08 -1.6,2.68 -2.13,4.82l-35.83 135.33c-8.55,47.61 -66.86,94.67 -142.83,94.67l-41.21 0 -64.19 0 18.18 -69.55 67.94 0.03c6.95,0 12.31,-2.69 17.13,-7.5 1.6,-2.13 3.73,-4.81 4.28,-8.02l28.36 -118.21c8.55,-47.61 58.31,-100.04 134.25,-100.04l108.04 0 -13.92 64.19 -65.23 0z"/>
   </g>
  </g>
 </g>
</svg>
