<?xml version="1.0" encoding="UTF-8"?>
<!DOCTYPE svg PUBLIC "-//W3C//DTD SVG 1.1//EN" "http://www.w3.org/Graphics/SVG/1.1/DTD/svg11.dtd">
<!-- Creator: CorelDRAW 2020 (64-Bit) -->
<svg xmlns="http://www.w3.org/2000/svg" xml:space="preserve" width="34.2052mm" height="5.9266mm" version="1.1" style="shape-rendering:geometricPrecision; text-rendering:geometricPrecision; image-rendering:optimizeQuality; fill-rule:evenodd; clip-rule:evenodd"
viewBox="0 0 3420.52 592.66"
 xmlns:xlink="http://www.w3.org/1999/xlink"
 xmlns:xodm="http://www.corel.com/coreldraw/odm/2003">
 <defs>
  <style type="text/css">
   <![CDATA[
    .fil0 {fill:#333333;fill-rule:nonzero}
    .fil1 {fill:#C30F23;fill-rule:nonzero}
    .fil2 {fill:#DCDCDB;fill-rule:nonzero}
   ]]>
  </style>
 </defs>
 <g id="Layer_x0020_1">
  <metadata id="CorelCorpID_0Corel-Layer"/>
  <g id="_1926506216656">
   <g>
    <g>
     <path class="fil0" d="M1404.92 541.79c2.16,6.52 4.89,10.85 5.42,12.48 2.16,3.79 5.42,7.05 9.21,9.21 3.8,2.16 8.16,3.26 11.95,3.26 3.79,0 7.62,-1.63 11.94,-4.89 3.26,-2.16 3.79,-5.42 3.79,-8.68 0,-4.89 -1.63,-8.69 -4.89,-12.48 -3.26,-3.79 -9.21,-7.05 -18.99,-10.84 -9.22,-3.26 -15.21,-7.05 -17.94,-10.85 -3.26,-3.79 -4.89,-8.68 -4.89,-13.57 0,-4.89 1.63,-8.68 3.8,-12.47 2.16,-3.79 6.52,-6.52 10.84,-7.62 4.89,-1.63 8.68,-3.26 12.47,-3.26 4.89,0 9.22,0 13.58,0.53 3.79,0.53 7.05,1.63 10.31,3.79 0.53,3.79 0.53,8.68 1.63,15.74l0 3.26 -3.72 0c-2.16,-5.43 -5.42,-10.32 -9.22,-13.58 -3.79,-2.72 -8.15,-4.36 -12.47,-4.89 -3.79,0 -8.15,1.63 -10.31,3.8 -2.16,2.16 -3.79,5.42 -3.79,10.31 0,3.26 0.53,6.52 3.26,8.68 2.16,2.16 7.05,5.42 14.67,8.68 8.15,3.26 13.57,6.52 16.3,8.68 3.26,2.17 6.52,6.53 7.62,9.22 1.63,3.79 2.16,7.05 2.16,10.84 0,4.89 -1.63,9.22 -4.89,13.58 -3.26,3.79 -7.05,7.05 -11.94,8.68 -4.89,1.63 -8.68,2.16 -12.48,2.16 -8.68,0 -17.36,-1.63 -24.45,-4.89 -0.53,-0.53 -0.53,-1.63 -0.53,-3.26l0 -3.26c-0.53,-9.22 -1.63,-15.2 -1.63,-16.3 0,-0.53 0,-1.63 0.53,-1.63 0.53,0 1.03,-0.43 2.66,-0.43l0 0zm220.46 -15.77c0,-4.89 0.53,-9.21 3.26,-15.2 2.16,-5.42 4.89,-10.31 8.68,-14.11 3.79,-3.79 8.68,-7.05 12.48,-9.21 6.52,-3.26 14.1,-4.89 22.82,-4.89 13.57,0 23.35,4.89 32.03,13.57 8.69,8.68 13.58,20.1 13.58,32.04 0,10.84 -4.89,21.19 -13.58,29.87 -9.21,8.69 -20.62,13.58 -34.76,13.58 -8.68,0 -16.3,-2.17 -24.45,-7.06 -5.43,-3.26 -10.32,-8.68 -15.21,-14.67 -3.22,-7.09 -4.85,-15.24 -4.85,-23.92zm45.61 41.29c5.42,0 10.31,-1.63 15.2,-3.8 4.89,-3.26 9.21,-8.15 11.94,-13.57 3.26,-6.52 4.89,-13.57 4.89,-22.25 0,-5.43 -0.53,-11.95 -3.26,-19 -2.16,-7.05 -5.42,-12.47 -10.31,-15.73 -4.89,-3.79 -10.31,-5.42 -16.3,-5.42 -4.89,0 -9.21,0.53 -14.11,3.26 -4.89,2.16 -8.68,6.52 -11.94,12.47 -3.26,6.52 -4.89,14.67 -4.89,26.08 0,12.48 3.26,22.26 8.68,28.25 4.36,6.45 11.41,9.71 20.1,9.71l0 0zm210.14 -128.18l0 -2.16c1.63,-0.54 3.8,-1.63 6.53,-2.17 3.26,-0.53 8.68,-3.26 15.73,-4.89l4.89 0 0 5.43c0,57.55 0,91.21 -0.53,102.09l0 10.31c0,7.62 0,11.95 0.53,13.58 0.53,1.63 3.26,2.16 8.15,2.16 3.79,0.53 7.05,0.53 7.62,1.63 0.53,0 0.53,0.53 0.53,1.63 0,0.53 0,1.63 -0.53,1.63 0,0 -0.53,0.53 -1.63,0.53l-10.88 0.04 -13.57 -0.53 -17.37 0.53c-0.53,0 -1.63,0 -2.16,-0.53 -0.53,0 -0.53,-0.54 -0.53,-1.63 0,-0.54 0,-1.64 0.53,-1.64 0.53,0 3.26,-0.53 7.62,-1.63 4.89,-0.53 7.05,-1.63 8.15,-1.63 0.53,-0.53 0.53,-1.63 1.63,-3.26 0,-2.16 0.53,-9.21 0.53,-21.19l0 -85.79c0,-2.16 0,-3.79 -0.53,-5.42 -1.1,-1.64 -2.73,-2.73 -4.89,-3.27 -5.99,-1.63 -8.19,-3.26 -9.82,-3.82l0 0zm196.05 46.7l26.61 0 0 2.17c0,9.21 0,18.99 -0.53,28.24l0 9.21c0,12.48 0.53,19.57 1.63,22.83 0.53,3.26 2.16,5.42 5.42,7.05 3.26,1.63 6.52,3.26 10.85,3.26 4.89,0 10.31,-0.53 15.2,-3.26 4.89,-2.16 8.68,-4.89 11.94,-7.62 0,-2.16 0.53,-5.42 0.53,-8.68l0 -26.62c0,-10.84 -0.53,-17.36 -1.63,-18.99 -0.53,-1.63 -5.42,-2.16 -12.47,-3.26 -2.16,0 -3.79,-0.53 -5.42,-0.53 -0.53,-0.53 -0.53,-1.63 -0.53,-2.17l0 -0.53 33.66 0 0 7.62c-0.53,10.31 -0.53,23.36 -0.53,39.09l0 8.68 0.53 14.11c0.53,0.53 1.63,1.63 1.63,2.16 0.53,0 2.16,0.53 4.89,0.53l0.53 0.04c0.54,0 3.26,0 8.15,0.53l0 3.26c-9.21,2.16 -16.3,3.79 -22.82,6.52 -2.16,0.53 -3.79,1.63 -5.42,1.63 0,-2.16 -0.53,-3.79 -0.53,-4.89l0 -11.94c-1.1,1.09 -2.16,1.63 -3.26,2.16 -5.42,3.79 -10.85,7.62 -17.37,10.84 -3.79,2.16 -7.62,3.26 -11.94,3.26 -7.05,0 -13.57,-2.16 -17.93,-8.15 -4.89,-5.42 -7.05,-14.67 -7.05,-27.68l0 -3.79c0,-3.26 0.53,-5.42 0.53,-7.05l0 -28.24c0,-1.1 -0.53,-2.17 -1.63,-3.26 -4.89,-0.54 -7.05,-1.63 -8.68,-2.17 -1.63,0 -2.17,-0.53 -3.8,-0.53l-0.56 -3.83 0 0zm280.74 -21.15l3.26 0 0.53 10.31 0 12.47 2.16 0c1.63,0 5.42,0 10.31,-0.53l15.77 0 0 3.26c0,0.54 0,2.17 -0.53,3.8l-1.63 0 -16.3 0.53 -9.25 0c-0.53,1.63 -0.53,3.79 -0.53,6.52l0 43.44c0,7.06 0.53,11.95 3.26,14.11 1.63,2.16 4.89,3.79 7.62,3.79 1.63,0 5.42,-0.53 10.31,-1.63 1.63,0 3.79,-1.63 6.52,-3.26l0.53 0.04c0.54,0 0.54,0 1.63,0.53 0,0 0.54,0.53 0.54,1.63l0 0.53c-3.27,3.26 -6.53,5.42 -10.32,7.05 -3.79,1.63 -8.68,2.16 -15.73,2.16 -4.89,0 -7.62,-0.53 -10.85,-3.26 -3.26,-2.16 -4.89,-4.89 -5.42,-7.05 -0.53,-3.26 -1.63,-9.21 -1.63,-18.99l0.53 -23.36 0 -20.62 -10.88 0c-0.53,0 -1.63,0 -1.63,-0.53 0,0 -0.53,-0.54 -0.53,-1.63 0,-1.1 0,-1.63 0.53,-2.17 0.54,-0.53 2.17,-1.63 4.89,-2.16 1.63,-0.53 3.8,-2.16 6.53,-3.79 2.16,-2.16 4.89,-4.89 6.52,-7.05 0.53,-1.63 2.16,-3.79 3.79,-7.62 -1.63,-2.2 -0.53,-4.89 0,-6.52zm187.32 29.31l0 -3.26 7.05 -2.17c2.17,-0.53 5.43,-3.26 8.16,-5.42 2.16,-2.16 4.89,-4.89 7.05,-7.62l3.83 0c0,3.26 0.53,5.42 0.53,7.05l0 71.7c0,2.16 0,4.89 1.63,5.42 0.53,0.53 3.79,2.16 7.62,3.26 3.26,0.53 4.89,1.63 6.52,2.16l0 1.63c0,0.53 0,0.53 -0.53,1.63 -2.17,0 -6.53,0 -10.32,-0.53 -5.42,-0.53 -9.21,-0.53 -11.94,-0.53 -0.53,0 -6.52,0 -16.3,0.53 -2.16,0 -3.79,0 -6.52,0.53l-1.67 0c0,-0.53 -0.53,-0.53 -0.53,-1.63 0,-0.53 0.53,-1.63 2.16,-2.16 0,0 3.79,-0.53 10.85,-2.16 2.16,-0.54 3.79,-0.54 4.89,-2.17 0.53,-1.63 1.63,-3.79 1.63,-7.05l0 -43.98c0,-4.89 0,-7.62 -0.53,-8.68 0,-0.53 -1.63,-1.63 -3.26,-3.26 -1.63,-1.13 -5.43,-1.66 -10.32,-3.29zm8.69 -53.76c0,-2.17 0.53,-3.8 2.16,-6.52 1.63,-1.63 3.79,-2.17 6.52,-2.17 2.16,0 4.89,0.54 7.05,3.26 1.63,1.63 3.26,3.8 3.26,6.52 0,2.17 -0.53,3.8 -3.26,6.53 -1.63,2.16 -4.36,3.26 -7.05,3.26 -2.16,0 -4.36,-0.54 -6.52,-2.17 -0.53,-3.82 -2.16,-5.99 -2.16,-8.71zm191.15 85.79c0,-4.89 0.53,-9.21 3.26,-15.2 2.16,-5.42 4.89,-10.31 8.68,-14.11 3.79,-3.79 8.68,-7.05 12.47,-9.21 6.53,-3.26 14.11,-4.89 22.83,-4.89 13.57,0 23.35,4.89 32.03,13.57 8.68,8.68 13.58,20.1 13.58,32.04 0,10.84 -4.9,21.19 -13.58,29.87 -9.21,8.69 -20.62,13.58 -34.76,13.58 -8.68,0 -16.3,-2.17 -24.45,-7.06 -5.43,-3.26 -10.32,-8.68 -15.21,-14.67 -2.12,-7.09 -4.85,-15.24 -4.85,-23.92l0 0zm46.71 41.29c5.42,0 10.31,-1.63 15.2,-3.8 4.89,-3.26 9.21,-8.15 11.94,-13.57 3.26,-6.52 4.89,-13.57 4.89,-22.25 0,-5.43 -0.53,-11.95 -3.26,-19 -2.16,-7.05 -5.42,-12.47 -10.31,-15.73 -4.89,-3.79 -10.31,-5.42 -16.3,-5.42 -4.89,0 -9.22,0.53 -14.11,3.26 -4.89,2.16 -8.68,6.52 -11.94,12.47 -3.26,6.52 -4.89,14.67 -4.89,26.08 0,12.48 3.26,22.26 8.68,28.25 4.36,6.45 11.41,9.71 20.1,9.71l0 0zm208.51 -2.73c1.63,-0.53 3.79,-0.53 6.52,-1.63 4.89,-0.53 7.06,-1.63 7.62,-2.16 0.53,-0.54 1.63,-2.17 1.63,-5.43l0 -41.81c0,-3.79 -0.53,-7.05 -1.63,-8.69 -1.63,-1.63 -5.42,-3.26 -10.31,-3.79l0 -3.79c4.89,-1.63 8.68,-3.26 11.94,-5.42 3.79,-3.26 7.05,-7.05 10.31,-12.47l3.8 -0.08 0 15.74c1.1,-1.1 2.16,-1.63 3.26,-2.16 3.79,-3.26 8.68,-5.43 12.47,-7.62 4.89,-2.16 8.68,-3.26 11.94,-3.79 2.17,-0.54 4.89,-0.54 7.06,-0.54 5.42,0 10.31,1.63 15.2,4.89 3.79,3.27 7.05,6.53 7.62,10.85 1.63,3.79 1.63,12.47 1.63,24.45l0 27.68c0,4.89 0,7.62 0.53,9.21 0,0.53 1.63,1.63 2.16,2.16 6.52,0.54 10.31,2.17 11.94,3.26l0 0.54c0,0.53 0,1.63 -0.53,2.16l-43.44 0.07 -0.54 -2.16c0,-0.54 0,-0.54 0.54,-1.63 1.63,-0.54 4.89,-1.63 7.61,-1.63 2.17,0 3.26,0 3.8,-0.54 0.53,0 1.63,-0.53 3.26,-1.63 0.53,-1.63 1.63,-3.26 1.63,-3.79l0 -3.26c0,-3.26 0,-10.84 -0.53,-23.35l0 -14.11c0,-8.68 -1.63,-14.67 -5.43,-18.99 -3.79,-3.26 -8.68,-5.42 -14.1,-5.42 -4.89,0 -9.22,0.53 -13.57,3.26 -4.89,2.16 -8.69,5.42 -12.48,9.21l0 31.51c0,11.94 0,19.56 0.53,22.25 0,0.53 0,1.63 0.54,2.16 0.53,0.53 1.63,0.53 3.26,1.63 1.63,0 3.79,0.53 5.42,1.63 2.16,0.53 3.79,0.53 3.79,0.53 1.63,0 2.16,0.54 3.26,2.17l0 2.16 -47.24 0 0 -1.63c-0.57,1.63 0.53,1.1 0.53,0l0 0zm268.8 -22.79c2.16,6.52 4.89,10.85 5.42,12.48 2.16,3.79 5.42,7.05 9.22,9.21 3.79,2.16 7.61,3.26 11.94,3.26 3.79,0 7.62,-1.63 11.94,-4.89 3.26,-2.16 3.79,-5.42 3.79,-8.68 0,-4.89 -1.63,-8.69 -4.89,-12.48 -3.26,-3.79 -9.21,-7.05 -18.99,-10.84 -9.22,-3.26 -15.21,-7.05 -17.93,-10.85 -3.26,-3.79 -4.89,-8.68 -4.89,-13.57 0,-4.89 1.63,-8.68 3.79,-12.47 2.16,-3.79 6.52,-6.52 10.84,-7.62 4.89,-1.63 8.68,-3.26 12.48,-3.26 4.89,0 9.21,0 13.57,0.53 3.79,0.53 7.05,1.63 10.31,3.79 0.53,3.79 0.53,8.68 1.63,15.74l0 3.26 -3.72 0c-2.16,-5.43 -5.42,-10.32 -9.21,-13.58 -3.8,-2.72 -8.15,-4.36 -12.48,-4.89 -3.79,0 -7.62,1.63 -10.31,3.8 -2.16,2.16 -3.79,5.42 -3.79,10.31 0,3.26 0.53,6.52 3.26,8.68 2.16,2.16 7.05,5.42 15.2,8.68 7.62,3.26 13.57,6.52 16.3,8.68 3.26,2.17 6.52,6.53 8.15,9.22 1.63,3.79 2.16,7.05 2.16,10.84 0,4.89 -1.63,9.22 -4.89,13.58 -3.26,3.79 -7.05,7.05 -11.94,8.68 -4.89,1.63 -8.68,2.16 -12.47,2.16 -8.69,0 -17.37,-1.63 -24.46,-4.89 -0.53,-0.53 -0.53,-1.63 -0.53,-3.26l0 -3.26c-0.53,-9.22 -1.63,-15.2 -1.63,-16.3 0,-0.53 0,-1.63 0.53,-1.63 -0.56,-0.43 -0.03,-0.43 1.6,-0.43l0 0z"/>
    </g>
    <g>
     <path class="fil1" d="M2256.35 210.52c0,-17.37 3.79,-36.4 10.85,-55.92 7.05,-19.57 17.93,-38.03 33.13,-53.23 15.2,-15.74 30.94,-27.68 47.24,-35.3 23.35,-10.84 52.13,-15.73 84.7,-15.73 47.77,0 87.95,16.3 119.46,48.87 32.03,33.13 47.77,72.22 47.77,117.83 0,40.72 -16.3,77.11 -50.5,109.15 -33.67,32.03 -76.58,47.77 -127.61,47.77 -31.51,0 -61.35,-8.69 -89.59,-24.99 -21.19,-12.47 -39.09,-31.5 -54.29,-55.92 -14.07,-22.25 -21.16,-51.03 -21.16,-82.53zm170 149.9c19.56,0 38.55,-5.42 56.49,-15.73 17.93,-10.32 32.03,-27.68 43.44,-50.5 10.85,-22.83 16.3,-49.4 16.3,-80.38 0,-19.56 -3.79,-43.44 -12.47,-68.96 -8.68,-26.08 -21.19,-46.14 -38.56,-59.18 -17.36,-13.57 -38.02,-19.56 -60.81,-19.56 -17.36,0 -33.66,3.79 -52.13,11.94 -17.36,7.62 -32.03,22.82 -45.07,45.61 -11.95,22.82 -17.94,54.29 -17.94,96.11 0,46.14 10.32,82 31.51,105.35 21.12,23.36 47.17,35.3 79.24,35.3l0 0zm217.2 -8.15c7.05,-1.63 14.67,-3.26 22.25,-4.89 15.74,-2.16 26.09,-4.89 29.31,-7.62 3.26,-3.26 4.89,-10.31 4.89,-21.19l0.53 -14.11 0 -19.56 -0.53 -117.3c0,-15.73 -2.16,-26.08 -6.52,-30.4 -7.05,-7.06 -19.56,-11.95 -38.56,-14.68l0 -14.1c19,-5.42 33.14,-11.94 43.45,-19.56 15.2,-11.94 26.61,-27.68 36.93,-47.24l13.57 0.03c0.53,11.95 0.53,20.63 0.53,26.09l0 32.03c3.26,-2.16 6.52,-4.89 10.85,-7.62 15.73,-11.94 31.5,-21.19 47.23,-28.24 15.74,-7.05 30.94,-12.47 43.45,-15.2 7.62,-2.16 16.3,-3.26 26.61,-3.26 21.2,0 39.09,5.42 54.3,16.3 15.2,10.84 24.98,24.45 29.3,40.18 4.89,14.68 7.06,45.61 7.06,91.22l0 58.12c0,1.63 0,6.52 -0.54,15.74 0,8.68 -0.53,18.99 -0.53,29.87 0,17.93 0.53,29.31 2.16,33.67 1.63,3.26 4.89,6.52 10.32,10.31 24.45,3.26 38.55,7.05 43.44,11.94l0 3.26c0,2.16 -0.53,5.42 -2.16,9.21l-7.01 0.04 -50.5 -0.53 -49.4 0.53c-17.94,0.53 -35.3,0 -51.04,0l-2.16 -7.62c0,-1.63 0.53,-3.79 2.16,-6.52 7.06,-3.26 16.31,-5.42 29.31,-6.52 7.05,-0.53 12.48,-1.63 15.74,-2.16 3.26,-0.53 6.52,-3.26 10.31,-6.52 3.26,-6.52 4.89,-10.85 4.89,-15.74 0,-1.63 0,-5.42 -0.53,-10.84 -0.53,-11.94 -1.63,-40.72 -1.63,-87.96l0 -19.56 0.53 -30.41c0,-33.13 -6.52,-55.92 -19.56,-68.43 -13.58,-12.47 -31.51,-18.99 -53.76,-18.99 -17.37,0 -33.67,3.79 -50.5,10.84 -16.3,7.62 -32.04,19 -47.24,33.67 -0.53,12.47 -0.53,22.82 -0.53,31.5l0.53 84.7c0,43.98 0.53,71.69 1.63,80.9 0.53,3.8 1.63,7.06 2.16,8.69 2.16,2.16 6.52,3.79 12.48,4.89 6.52,1.63 13.57,3.26 21.19,5.42 8.15,2.16 13.57,3.79 15.73,3.79 5.42,1.63 8.68,3.79 10.31,7.62l0 7.62 -40.15 0 -82.53 -0.53 -45.61 -0.04 -0.53 -4.89c-2.2,0.57 -2.2,-2.69 -1.63,-5.95l0 0zm691.25 -189.52l-154.22 0.53 -29.31 0c-11.94,0 -23.36,0.53 -36.4,1.63 -2.16,7.62 -3.26,12.47 -3.26,15.73l0 26.62c0,15.73 4.89,34.76 15.21,57.55 10.31,22.82 23.35,40.18 42.34,52.13 17.94,11.94 40.72,17.93 68.44,18.99 15.2,-0.53 26.08,-2.16 34.76,-5.42 8.68,-3.26 21.19,-9.21 36.93,-19.56l27.67 -22.82 2.17 15.73 0 5.42c-11.95,14.67 -26.09,27.68 -43.98,38.56 -16.84,10.31 -34.77,18.46 -53.76,24.45 -8.69,2.16 -22.83,3.26 -43.45,3.26 -17.93,0 -36.39,-3.79 -53.76,-10.84 -26.08,-10.85 -46.14,-29.31 -61.34,-54.29 -15.21,-24.99 -22.82,-54.86 -22.82,-90.69 0,-10.84 2.16,-26.08 6.52,-43.45 3.79,-17.36 11.94,-36.39 22.82,-56.48 6.52,-13.05 16.3,-23.89 27.68,-33.14 15.73,-12.47 29.3,-21.19 40.18,-26.08 16.3,-7.05 36.4,-10.31 58.12,-10.31 23.35,0 43.45,4.89 58.12,13.57 20.62,11.94 35.29,26.61 45.61,45.08 10.31,17.93 14.67,34.76 14.67,49.4l1.06 4.43 0 0zm-214.5 -14.11l17.93 0c13.57,0 52.13,-2.16 116.2,-6.52 10.31,-0.53 16.3,-1.63 18.99,-3.26 4.89,-4.89 7.06,-9.21 7.06,-13.57 0,-8.15 -2.17,-17.37 -7.62,-26.62 -5.43,-10.31 -13.58,-18.46 -23.36,-23.35 -10.84,-5.42 -22.82,-7.62 -36.92,-7.62 -29.88,0 -53.76,10.85 -71.7,33.14 -13.5,17.4 -20.58,33.13 -20.58,47.8z"/>
    </g>
    <g>
     <path class="fil0" d="M742.44 210.52c0,-17.37 3.79,-36.4 10.84,-55.92 7.06,-19.57 17.94,-38.03 33.14,-53.23 15.2,-15.74 30.94,-27.68 47.24,-35.3 23.35,-10.84 52.13,-15.73 84.69,-15.73 47.78,0 87.96,16.3 119.47,48.87 32.03,33.13 47.77,72.22 47.77,117.83 0,40.72 -16.3,77.11 -50.5,109.15 -33.67,32.03 -76.58,47.77 -127.61,47.77 -31.51,0 -61.35,-8.69 -89.59,-24.99 -21.19,-12.47 -39.09,-31.5 -54.29,-55.92 -13.01,-22.25 -21.16,-51.03 -21.16,-82.53zm169.96 149.9c19.56,0 38.56,-5.42 56.49,-15.73 17.93,-10.32 32.04,-27.68 43.45,-50.5 10.84,-22.83 16.3,-49.4 16.3,-80.38 0,-19.56 -3.79,-43.44 -12.48,-68.96 -8.68,-26.08 -21.19,-46.14 -38.55,-59.18 -17.37,-13.57 -38.03,-19.56 -60.81,-19.56 -17.37,0 -33.67,3.79 -52.13,11.94 -17.37,7.62 -32.04,22.82 -45.08,45.61 -11.94,22.82 -17.93,54.29 -17.93,96.11 0,46.14 10.31,82 31.5,105.35 21.69,23.36 47.74,35.3 79.24,35.3zm212.31 205.26l0 -8.15c0,-1.63 0,-3.8 0.53,-7.06l38.56 -7.62c6.52,-3.26 10.84,-7.05 15.2,-10.84 1.63,-4.89 1.63,-9.21 1.63,-14.1 0,-39.09 -0.53,-114.04 -3.26,-224.82l-0.53 -140.09c-0.53,-22.25 -1.63,-36.39 -3.79,-42.35 -1.63,-3.26 -3.26,-5.42 -5.42,-7.05 -6.52,-4.89 -19,-8.68 -38.56,-12.47l2.16 -11.95c27.68,-11.94 46.14,-21.19 54.86,-27.67 9.21,-6.52 17.93,-15.74 26.61,-27.68l4.89 -0.53c1.63,0 4.89,0.53 7.62,2.16l0 73.85c19,-14.1 38.56,-24.98 59.18,-32.03 20.63,-7.06 41.82,-10.32 63.54,-10.32 39.09,0 72.23,14.11 99.9,41.82 26.62,27.68 40.72,63.54 40.72,106.99 0,32.03 -7.62,61.34 -22.82,87.42 -14.67,26.09 -36.39,45.08 -62.97,58.12 -26.62,12.48 -53.76,19 -80.91,19 -22.82,0 -49.4,-6.52 -79.27,-19 -4.89,-2.16 -9.22,-3.79 -13.58,-5.42 -0.53,20.62 -0.53,38.56 -0.53,54.29 0,79.28 2.16,123.25 6.52,133.04 2.17,5.42 9.22,7.61 21.2,9.21 20.62,1.63 33.66,4.89 40.71,8.68 3.8,2.16 6.52,7.05 8.15,14.11l-38.02 0.53 -34.77 -0.53 -57.58 -0.11 -49.97 0.57 0 0zm101 -439.33c-0.53,3.79 -0.53,7.05 -0.53,10.31 0,91.22 0.53,142.29 2.16,153.13 3.79,20.63 10.84,34.77 21.19,42.35 16.3,13.57 40.19,19.56 71.69,19.56 32.04,0 59.18,-10.84 80.91,-33.13 22.25,-22.26 33.13,-51.03 33.13,-86.33 0,-42.35 -11.94,-76.01 -34.76,-100.47 -23.36,-24.98 -54.29,-36.92 -92.32,-36.92 -15.73,0 -30.94,2.16 -45.08,7.62 -13.57,5.42 -26.04,13.57 -36.39,23.88zm303.56 -62.44l28.24 0 12.48 0.53 10.31 -0.53c26.08,0 42.35,0 48.87,0.53l0 7.05c0,36.4 -0.53,70.6 -1.63,104.79 -0.53,19.57 -0.53,31.51 -0.53,33.67 0,45.08 1.63,73.32 4.89,84.17 3.26,10.84 10.31,20.62 20.62,26.61 10.85,7.05 24.46,10.31 39.09,10.31 19,0 36.93,-3.79 53.76,-11.94 17.37,-7.62 31.51,-17.37 43.45,-28.25 1.63,-9.21 1.63,-20.62 1.63,-32.03 0,-38.03 0,-63.54 0.53,-77.11l0.04 -20.59c0,-41.82 -2.17,-64.61 -6.52,-70.06 -3.8,-5.43 -19.57,-9.22 -47.24,-12.48 -8.69,-0.53 -15.74,-1.63 -19.57,-2.16 -2.16,-3.26 -3.26,-5.42 -3.26,-7.62l0.54 -3.79c6.52,-0.53 13.57,-0.53 19.56,-0.53l61.34 0.53c22.26,-0.53 33.14,-0.53 34.77,-0.53l7.61 0 0.54 28.24c-1.63,38.56 -3.26,87.43 -3.26,143.91l-0.54 31.51 1.63 52.13c2.17,3.79 4.89,6.52 6.53,7.05 3.26,1.63 9.21,1.63 18.99,1.63l3.26 -0.03c3.26,0 12.47,0.53 28.24,2.16l0 10.84c-34.76,7.05 -61.91,15.2 -83.63,22.26 -8.68,3.26 -15.73,4.89 -21.19,6.52 -1.63,-8.69 -1.63,-14.11 -1.63,-16.3l0 -41.82c-3.26,2.16 -7.05,5.42 -11.94,8.68 -20.63,15.74 -41.82,29.31 -63.54,39.09 -15.21,7.05 -29.88,10.84 -43.98,10.84 -26.62,0 -48.87,-10.31 -65.17,-29.87 -17.37,-19.56 -26.09,-54.29 -26.09,-102.1l0 -14.1c0.54,-12.48 1.63,-21.19 1.63,-26.09l0 -72.22 -0.53 -20.62 0 -10.85c0,-3.79 -2.16,-7.62 -6.52,-10.84 -15.73,-4.89 -26.61,-7.05 -31.5,-7.62 -4.89,-0.53 -9.22,-1.63 -13.58,-3.26l0 -8.68 3.3 0.07 0 -1.1zm428.45 203.63c9.21,24.45 16.3,40.18 21.19,47.24 8.68,14.1 20.62,25.51 34.76,33.66 13.58,7.62 28.78,11.94 43.98,11.94 15.2,0 29.31,-6.52 43.45,-18.99 10.31,-9.21 15.73,-20.63 15.73,-33.14 0,-16.3 -6.52,-32.03 -17.93,-46.14 -11.94,-14.1 -34.76,-26.61 -68.43,-39.08 -33.67,-12.48 -55.92,-26.09 -67.86,-40.19 -11.95,-14.1 -17.37,-30.41 -17.37,-48.87 0,-17.36 4.89,-33.13 14.11,-46.14 9.21,-13.57 22.82,-23.35 39.08,-29.87 16.31,-7.06 32.04,-10.32 46.71,-10.32 17.93,0 34.77,1.63 48.87,3.8 14.11,3.26 26.61,7.05 38.03,13.57 2.16,13.57 3.79,32.03 4.89,57.55l0.53 12.47 -14.14 0.04c-7.62,-21.19 -19.56,-38.03 -35.3,-50.5 -15.73,-12.47 -31.5,-18.99 -46.14,-18.99 -15.73,0 -27.68,4.89 -36.93,14.1 -9.21,9.21 -14.1,21.19 -14.1,36.93 0,11.94 3.79,22.25 11.94,30.4 7.62,8.68 26.09,19 54.29,30.41 28.25,11.94 48.87,22.25 61.91,32.03 12.48,10.32 22.83,22.26 28.25,36.4 6.52,14.1 9.21,27.68 9.21,40.19 0,17.36 -5.42,33.66 -17.36,49.4 -11.94,15.73 -26.08,26.08 -43.98,32.03 -17.37,6.52 -33.14,9.22 -47.24,9.22 -32.04,0 -61.91,-6.52 -89.59,-17.94 -2.16,-2.16 -3.79,-5.42 -3.79,-11.94 0,-2.16 0,-6.52 -0.53,-10.84 -3.79,-34.77 -6.52,-54.86 -6.52,-61.35 0,-3.26 0.53,-5.42 1.63,-6.52 -0.04,0 2.66,-0.56 8.65,-0.56l0 0z"/>
    </g>
    <g>
     <path class="fil0" d="M614.3 242.02c29.87,29.88 29.87,78.74 0,108.62l-200.41 201.46c-29.87,29.88 -78.74,29.88 -108.61,0l-201.47 -201.46c-29.87,-29.88 -29.87,-78.74 0,-108.62l201.47 -201.46c29.87,-29.88 78.74,-29.88 108.61,0l200.41 201.46z"/>
     <path class="fil2" d="M116.32 202.93c0,-16.3 2.16,-31.5 6.52,-45.07 3.79,-13.58 10.85,-26.62 20.63,-42.35 9.21,-14.67 21.19,-27.15 34.76,-38.03 13.57,-10.31 32.04,-18.99 55.92,-26.61 16.3,-5.42 38.03,-7.62 62.98,-7.62 17.36,0 33.66,2.16 50.5,7.05 16.3,4.89 31.5,10.85 45.07,19 13.58,8.15 26.62,20.62 40.19,38.02 9.21,11.41 16.3,23.89 21.19,38.03 6.52,17.93 9.22,36.39 9.22,54.85 0,21.2 -2.17,39.09 -6.53,53.76 -4.35,14.68 -10.84,28.25 -21.19,42.35 -8.15,10.85 -20.62,22.82 -39.09,36.93 -12.47,9.21 -27.67,17.36 -46.7,22.82 -17.93,5.42 -38.56,8.68 -59.75,8.68 -22.26,0 -40.72,-2.16 -58.12,-7.62 -17.36,-4.89 -31.5,-10.84 -42.35,-18.99 -10.84,-7.05 -22.82,-17.93 -35.29,-32.04 -11.95,-14.1 -21.2,-29.87 -27.68,-47.24 -7.02,-16.83 -10.28,-35.29 -10.28,-55.92zm170.53 152.6c13.57,0 28.24,-1.63 42.35,-5.42 14.1,-3.79 27.68,-10.32 39.09,-19 11.41,-8.15 20.09,-18.46 26.61,-30.4 6.52,-10.85 11.94,-26.09 15.73,-43.98 3.8,-17.93 5.43,-35.3 5.43,-53.76 0,-22.26 -3.26,-43.98 -9.22,-66.24 -4.89,-16.3 -13.57,-31.5 -24.45,-43.97 -11.94,-13.58 -24.98,-22.83 -41.82,-29.88 -16.3,-7.05 -33.13,-10.84 -52.13,-10.84 -15.2,0 -29.3,2.16 -43.44,7.05 -14.11,4.89 -26.09,10.84 -35.3,19 -9.21,7.61 -17.36,17.93 -24.98,32.03 -7.62,14.11 -14.11,29.31 -17.93,46.14 -3.8,16.3 -6.52,31.51 -6.52,45.08 0,13.57 2.16,29.31 6.52,46.14 3.79,17.36 9.21,32.03 16.3,45.08 7.05,12.47 15.73,23.88 26.08,33.66 10.31,9.22 22.25,17.37 34.76,22.26 14.14,4.85 28.25,7.05 42.92,7.05l0 0z"/>
     <g>
      <path class="fil1" d="M256.98 360.42c0,-16.3 2.16,-31.5 6.52,-45.08 3.79,-13.57 10.84,-26.61 20.62,-42.35 9.21,-14.67 21.19,-27.14 34.77,-38.02 13.57,-10.31 32.03,-19 55.92,-26.61 16.3,-5.43 38.02,-7.62 62.97,-7.62 17.36,0 33.67,2.16 50.5,7.05 16.3,4.89 31.5,10.84 45.08,18.99 13.57,7.62 26.61,20.63 40.18,38.03 9.22,11.41 16.3,23.88 21.19,38.02 6.53,17.93 9.22,36.4 9.22,54.86 0,21.19 -2.16,39.09 -6.52,53.76 -3.79,14.1 -10.85,28.24 -21.19,42.35 -7.62,10.84 -20.63,22.82 -39.09,36.93 -12.48,9.21 -27.68,17.36 -46.71,22.82 -19.56,5.99 -40.19,8.68 -60.81,8.68 -22.26,0 -40.72,-2.16 -58.12,-7.62 -17.36,-4.89 -31.5,-10.84 -42.35,-18.99 -10.84,-7.06 -22.82,-17.94 -35.29,-32.04 -11.95,-14.1 -21.2,-29.87 -27.68,-47.24 -6.49,-18.99 -9.21,-37.46 -9.21,-55.92zm169.96 151.5c13.57,0 28.24,-1.63 42.34,-5.42 14.11,-3.8 27.68,-10.32 39.09,-19 11.41,-8.15 20.1,-18.46 26.62,-30.41 6.52,-10.84 11.94,-26.08 15.73,-43.97 3.79,-17.94 5.42,-35.3 5.42,-53.76 0,-22.26 -3.26,-43.98 -9.21,-66.24 -4.89,-16.3 -13.57,-31.5 -24.45,-43.98 -11.95,-13.57 -24.99,-22.82 -41.82,-29.87 -16.3,-7.05 -33.13,-10.84 -52.13,-10.84 -15.2,0 -29.31,2.16 -43.45,7.05 -14.1,4.89 -26.08,10.84 -35.29,18.99 -9.22,7.62 -17.37,17.93 -24.99,32.04 -7.62,14.1 -14.1,29.31 -17.93,46.14 -3.79,16.3 -6.52,31.5 -6.52,45.08 0,13.57 2.16,29.3 6.52,46.14 3.79,17.36 9.22,32.03 16.3,45.07 7.06,12.48 15.74,23.89 26.09,33.67 10.31,9.21 22.25,17.36 34.76,22.25 14.67,4.86 28.81,7.06 42.92,7.06z"/>
      <path class="fil2" d="M251.55 350.64c0,0 27.68,8.68 61.35,2.73l0 10.31c0,0 -34.77,4.89 -62.98,-2.16l1.63 -10.88 0 0z"/>
     </g>
    </g>
   </g>
  </g>
 </g>
</svg>
