<?xml version="1.0" encoding="UTF-8"?>
<!DOCTYPE svg PUBLIC "-//W3C//DTD SVG 1.1//EN" "http://www.w3.org/Graphics/SVG/1.1/DTD/svg11.dtd">
<!-- Creator: CorelDRAW 2020 (64-Bit) -->
<svg xmlns="http://www.w3.org/2000/svg" xml:space="preserve" width="67.7332mm" height="10.8372mm" version="1.1" style="shape-rendering:geometricPrecision; text-rendering:geometricPrecision; image-rendering:optimizeQuality; fill-rule:evenodd; clip-rule:evenodd"
viewBox="0 0 6773.32 1083.72"
 xmlns:xlink="http://www.w3.org/1999/xlink"
 xmlns:xodm="http://www.corel.com/coreldraw/odm/2003">
 <defs>
  <style type="text/css">
   <![CDATA[
    .fil0 {fill:#009999}
   ]]>
  </style>
 </defs>
 <g id="Layer_x0020_1">
  <metadata id="CorelCorpID_0Corel-Layer"/>
  <g id="_1926503425680">
   <path class="fil0" d="M6694.12 40.83l0 201.72c-104.5,-39.45 -197.55,-59.39 -278.98,-59.39 -48.23,0 -86.64,8.93 -115.52,26.2 -28.89,17.41 -43.62,38.85 -43.62,64.16 0,33.65 32.6,63.57 98.25,90.37l189.66 92.3c153.34,73.09 229.41,170.15 229.41,292.08 0,101.38 -40.34,182.22 -121.77,242.06 -80.84,60.45 -189.67,90.37 -325.14,90.37 -62.52,0 -118.65,-2.68 -168.52,-8.34 -49.87,-5.35 -107.18,-16.37 -170.75,-32.15l0 -211.1c116.56,39.45 222.71,59.4 318.28,59.4 114.04,0 170.76,-33.05 170.76,-99.75 0,-33.19 -23.23,-59.99 -70.42,-80.98l-210.65 -89.77c-77.71,-35.14 -135.47,-77.71 -173.29,-128.18 -37.21,-50.91 -56.12,-109.27 -56.12,-175.96 0,-93.35 39.3,-168.53 117.01,-225.7 78.31,-56.72 182.22,-85.15 311.44,-85.15 41.98,0 90.36,3.72 143.96,10.57 54.04,7.29 105.99,16.23 156.01,27.24z"/>
   <path class="fil0" d="M727.97 40.83l0 201.72c-104.5,-39.45 -197.4,-59.39 -278.83,-59.39 -48.39,0 -86.64,8.93 -115.53,26.2 -28.88,17.41 -43.61,38.85 -43.61,64.16 0,33.65 33.04,63.57 98.7,90.37l189.66 92.3c152.74,73.09 228.96,170.15 228.96,292.08 0,101.38 -40.49,182.22 -121.33,242.06 -81.43,60.45 -189.66,90.37 -325.58,90.37 -62.52,0 -118.8,-2.68 -168.67,-8.34 -49.87,-5.35 -106.59,-16.37 -170.6,-32.15l0 -211.1c117.01,39.45 223.15,59.4 318.13,59.4 114.04,0 170.76,-33.05 170.76,-99.75 0,-33.19 -23.08,-59.99 -69.82,-80.98l-210.66 -89.77c-78.3,-35.14 -136.07,-77.71 -173.28,-128.18 -37.82,-50.91 -56.27,-109.27 -56.27,-175.96 0,-93.35 39,-168.53 117.16,-225.7 77.71,-56.72 181.77,-85.15 310.99,-85.15 42.43,0 90.21,3.72 144.4,10.57 53.6,7.29 105.55,16.23 155.42,27.24z"/>
   <polygon class="fil0" points="945.32,21.93 1254.23,21.93 1254.23,1061.79 945.32,1061.79 "/>
   <polygon class="fil0" points="2249.44,21.93 2249.44,214.12 1790.46,214.12 1790.46,444.72 2188.55,444.72 2188.55,618.01 1790.46,618.01 1790.46,860.07 2258.81,860.07 2258.81,1061.79 1493.17,1061.79 1493.17,21.93 "/>
   <polygon class="fil0" points="3691.54,21.93 3691.54,1061.79 3403.17,1061.79 3403.17,375.94 3103.95,1071.32 2925.91,1071.32 2638.14,375.94 2638.14,1061.79 2429.57,1061.79 2429.57,21.93 2806.66,21.93 3064.06,658.5 3333.37,21.93 "/>
   <polygon class="fil0" points="4686.31,21.93 4686.31,214.12 4229.85,214.12 4229.85,444.72 4627.93,444.72 4627.93,618.01 4229.85,618.01 4229.85,860.07 4695.69,860.07 4695.69,1061.79 3930.05,1061.79 3930.05,21.93 "/>
   <polygon class="fil0" points="5770.23,21.93 5770.23,1061.79 5442.57,1061.79 5074.88,394.85 5074.88,1061.79 4866.44,1061.79 4866.44,21.93 5203.65,21.93 5561.83,677.41 5561.83,21.93 "/>
  </g>
 </g>
</svg>
