<?xml version="1.0" encoding="UTF-8"?>
<!DOCTYPE svg PUBLIC "-//W3C//DTD SVG 1.1//EN" "http://www.w3.org/Graphics/SVG/1.1/DTD/svg11.dtd">
<!-- Creator: CorelDRAW 2020 (64-Bit) -->
<svg xmlns="http://www.w3.org/2000/svg" xml:space="preserve" width="47.7518mm" height="10.8372mm" version="1.1" style="shape-rendering:geometricPrecision; text-rendering:geometricPrecision; image-rendering:optimizeQuality; fill-rule:evenodd; clip-rule:evenodd"
viewBox="0 0 4775.18 1083.72"
 xmlns:xlink="http://www.w3.org/1999/xlink"
 xmlns:xodm="http://www.corel.com/coreldraw/odm/2003">
 <defs>
  <style type="text/css">
   <![CDATA[
    .fil0 {fill:#68A2B9;fill-rule:nonzero}
    .fil1 {fill:#7B868C;fill-rule:nonzero}
   ]]>
  </style>
 </defs>
 <g id="Layer_x0020_1">
  <metadata id="CorelCorpID_0Corel-Layer"/>
  <g id="_1926429329856">
   <path class="fil0" d="M3745.34 275.77c-52.34,84.83 -82.5,182.4 -82.5,288.66 0,65.84 12.7,127.68 34.12,185.55 0,1.58 1.57,4.77 2.38,4.77 0.82,0 4.78,-4.77 4.78,-4.77 0,0 138.79,-356.89 676.47,-279.93 1.57,0 1.57,-1.57 1.57,-1.57 0,0 -11.88,-203.02 -319.58,-241.09 -141.18,-19.04 -271.25,28.53 -310.89,45.18 -4.01,0.05 -5.59,1.62 -6.35,3.2z"/>
   <path class="fil0" d="M4744.59 609.66c-1.58,-1.57 -87.22,-68.18 -239.52,-68.18 -108.64,0 -228.4,37.26 -301.35,111.03 -45.19,44.42 -73.77,103.87 -73.77,172.86 0,45.18 12.69,89.6 35.69,125.29 15.84,26.96 37.26,48.38 61.07,65.84 51.53,38.08 115.8,46.81 157.03,46.81 175.24,0 321.2,-208.55 356.89,-383.04 7.15,-40.46 7.15,-65.84 7.15,-68.18 0.77,-0.04 -3.19,-2.43 -3.19,-2.43z"/>
   <path class="fil0" d="M4751.7 559.7c-2.39,-298.2 -245.87,-539.29 -544.84,-539.29 -171.28,0 -324.35,80.11 -423.49,203.02 -2.39,2.38 1.57,7.15 4.77,5.53 49.95,-19.85 228.4,-80.87 432.99,-41.22 368.77,72.95 496.45,310.89 524.98,374.3 -0.76,-0.76 5.59,13.51 5.59,-2.34z"/>
   <path class="fil1" d="M1487.48 150.47c-19.04,0 -30.92,9.5 -35.69,12.7l-1.57 1.57 0 731.2c0,1.57 0,1.57 1.57,1.57 2.39,2.39 16.65,12.69 35.69,12.69 19.04,0 30.92,-9.49 35.69,-12.69l1.57 -1.57 0 -731.2c0,-1.57 0,-1.57 -1.57,-1.57 -4.77,-3.15 -18.23,-12.7 -35.69,-12.7z"/>
   <path class="fil1" d="M2139.38 646.92c0,123.72 -88.03,218.1 -206.98,218.1 -116.56,0 -208.55,-96.76 -208.55,-219.67l0 -1.58c0,-123.71 88.03,-218.09 206.98,-218.09 116.56,0 208.55,96.76 208.55,219.67l0 1.57zm69.8 -251.39c0,-1.58 0,-1.58 -1.57,-1.58 -2.39,-2.38 -16.65,-12.69 -35.69,-12.69 -19.04,0 -30.92,9.49 -35.69,12.69l-1.57 1.58 0 40.46c0,2.38 -2.39,2.38 -4.78,1.57 -52.34,-52.34 -122.9,-82.49 -199.86,-82.49 -160.22,0 -285.52,127.67 -285.52,289.47l0 1.57c0,160.98 123.72,287.09 282.32,287.09 76.91,0 148.29,-30.16 201.44,-84.83 1.58,-1.58 4.77,0 4.77,1.57l0 44.42c0,1.58 0,1.58 1.58,1.58 2.38,2.38 16.65,12.69 35.69,12.69 19.03,0 30.91,-9.5 35.69,-12.69l1.57 -1.58 1.62 -498.83z"/>
   <path class="fil1" d="M3220.31 646.92c0,123.72 -88.03,218.1 -206.98,218.1 -116.56,0 -208.55,-96.76 -208.55,-219.67l0 -1.58c0,-123.71 88.03,-218.09 206.98,-218.09 116.56,0 208.55,96.76 208.55,219.67l0 1.57zm68.99 -251.39c0,-1.58 0,-1.58 -1.57,-1.58 -2.39,-2.38 -16.65,-12.69 -35.69,-12.69 -19.04,0 -30.92,9.49 -35.69,12.69l-1.58 1.58 0 40.46c0,2.38 -2.38,2.38 -4.77,1.57 -52.34,-52.34 -122.9,-82.49 -199.86,-82.49 -160.22,0 -285.52,127.67 -285.52,289.47l0 1.57c0,160.98 123.72,287.09 282.32,287.09 76.91,0 148.29,-30.16 201.44,-84.83 1.58,-1.58 4.77,0 4.77,1.57l0 44.42c0,1.58 0,1.58 1.58,1.58 2.38,2.38 16.65,12.69 35.69,12.69 19.03,0 30.91,-9.5 35.69,-12.69l1.57 -1.58 1.62 -498.83z"/>
   <path class="fil1" d="M82.2 898.32c-8.73,16.65 -37.26,15.84 -49.96,11.88 -19.84,-5.53 -26.19,-19.85 -22.99,-26.96l317.24 -688.35 0 0c1.57,-1.57 11.88,-14.26 46.8,-14.26 34.88,0 45.19,11.88 46.81,14.26l0 0 317.24 688.35c2.39,7.16 -2.38,21.43 -23,26.96 -12.69,4.77 -41.22,5.54 -51.53,-11.88l-287.08 -632.05c-1.58,-1.57 -4.77,-1.57 -4.77,0l-172.87 376.69c-1.57,1.58 0,4.77 2.39,4.77l249.68 0c5.53,0 44.42,0 68.18,55.54l4.77 11.88c1.58,1.58 0,4.77 -2.38,4.77l-353.7 -0.04c-1.57,0 -1.57,0 -2.38,1.57l-82.45 176.87z"/>
   <path class="fil1" d="M2660.4 434.41c0,0 1.58,0 1.58,-1.57 2.38,-2.39 12.69,-15.84 12.69,-35.69 0,-19.85 -9.5,-33.31 -12.69,-37.27l-1.58 -1.57 -8.73 -0.05c-61.07,0 -144.33,38.08 -198.25,120.52 -1.57,2.39 -4.77,1.58 -4.77,-1.57l0 -80.87c0,-1.58 0,-1.58 -1.57,-1.58 -2.39,-2.38 -16.65,-12.69 -35.69,-12.69 -19.04,0 -30.92,9.5 -35.69,12.69l-1.57 1.58 0 499.64c0,1.58 0,1.58 1.57,1.58 2.39,2.38 16.65,12.69 35.69,12.69 19.04,0 30.92,-9.5 35.69,-12.69l1.57 -1.58 0 -162.55c0,-155.45 89.61,-287.09 205.41,-296.59l6.34 -2.43z"/>
   <path class="fil1" d="M1305.89 836.49c0,0 0,-1.58 1.57,-1.58 0,-4.77 1.57,-23.81 -16.65,-37.26 -15.84,-12.69 -33.3,-7.16 -35.69,-5.54 0,0 0,0 -1.57,0 -48.39,48.38 -101.54,72.96 -160.22,72.96 -116.57,0 -208.56,-96.77 -208.56,-219.67l0 -1.58c0,-122.91 89.61,-218.09 203.83,-218.09 99.15,0 153.06,65.84 158.6,72.95l1.57 1.57c4.78,0 23,1.58 37.27,-12.69 16.65,-19.03 11.88,-38.07 9.49,-42.84 0,0 0,0 0,-1.58 -5.53,-5.53 -76.91,-87.22 -206.98,-87.22 -155.44,0 -281.55,130.07 -281.55,289.48l0 1.57c0,158.6 127.68,287.09 281.55,287.09 82.5,0 148.3,-30.16 212.56,-95.19l4.78 -2.38z"/>
   <path class="fil0" d="M4681.13 990.31c0,-7.16 1.57,-14.27 5.53,-21.42 4.77,-7.16 8.73,-11.88 15.84,-15.84 7.16,-3.96 12.7,-5.54 21.43,-5.54 7.15,0 14.26,1.58 21.42,5.54 7.16,4.77 11.88,8.73 15.84,15.84 4.77,7.15 5.54,12.69 5.54,21.42 0,7.16 -1.58,14.27 -5.54,19.85 -4.77,5.53 -8.73,11.88 -15.84,15.84 -7.16,3.96 -14.27,5.53 -21.42,5.53 -7.16,0 -14.27,-1.57 -21.43,-5.53 -7.15,-4.77 -11.88,-8.73 -15.84,-15.84 -3.96,-6.35 -5.53,-10.31 -5.53,-19.85zm7.11 0c0,5.54 1.57,12.69 4.77,16.65 3.15,3.96 7.16,9.5 12.69,12.69 5.54,2.39 11.88,4.78 16.65,4.78 5.54,0 12.69,-1.58 16.65,-4.78 4.78,-2.38 9.5,-7.15 12.7,-12.69 3.14,-5.53 4.77,-11.88 4.77,-16.65 0,-5.53 -1.58,-11.88 -4.77,-16.65 -2.39,-5.54 -7.16,-9.5 -12.7,-12.69 -5.53,-2.39 -11.88,-4.77 -16.65,-4.77 -5.53,0 -11.88,1.57 -16.65,4.77 -5.53,2.38 -9.49,7.15 -12.69,12.69 -3.15,5.58 -4.77,11.93 -4.77,16.65zm51.58 -9.49c0,5.53 -2.39,9.49 -8.74,12.69l12.7 22.99 -11.89 0 -11.88 -19.84 -5.58 0 0 19.84 -9.54 0 0 -49.95 14.31 0c7.16,0 11.88,1.57 14.27,4.77 3.15,3.15 6.35,4.72 6.35,9.5zm-23 8.73l4.77 0c2.38,0 4.77,0 5.53,-1.58 0.77,-1.57 1.58,-2.38 1.58,-5.53 0,-2.39 0,-4.77 -1.58,-5.54 -1.57,-1.57 -2.38,-1.57 -7.15,-1.57l-4.73 -0.1 0 14.27 1.58 0.05z"/>
  </g>
 </g>
</svg>
