<?xml version="1.0" encoding="UTF-8"?>
<!DOCTYPE svg PUBLIC "-//W3C//DTD SVG 1.1//EN" "http://www.w3.org/Graphics/SVG/1.1/DTD/svg11.dtd">
<!-- Creator: CorelDRAW 2020 (64-Bit) -->
<svg xmlns="http://www.w3.org/2000/svg" xml:space="preserve" width="72.7202mm" height="32.766mm" version="1.1" style="shape-rendering:geometricPrecision; text-rendering:geometricPrecision; image-rendering:optimizeQuality; fill-rule:evenodd; clip-rule:evenodd"
viewBox="0 0 7272.02 3276.6"
 xmlns:xlink="http://www.w3.org/1999/xlink"
 xmlns:xodm="http://www.corel.com/coreldraw/odm/2003">
 <defs>
  <style type="text/css">
   <![CDATA[
    .fil1 {fill:#003895;fill-rule:nonzero}
    .fil2 {fill:#078AB1;fill-rule:nonzero}
    .fil0 {fill:#71D54C;fill-rule:nonzero}
   ]]>
  </style>
 </defs>
 <g id="Layer_x0020_1">
  <metadata id="CorelCorpID_0Corel-Layer"/>
  <g id="_1926416955296">
   <path class="fil0" d="M1238.65 9.62l1003.37 0 0 189.04 -1003.37 0 0 -189.04zm0 307.79l1003.37 0 0 187.84 -1003.37 0 0 -187.84zm0 306.59l1003.37 0 0 189.04 -1003.37 0 0 -189.04z"/>
   <g>
    <path class="fil1" d="M3296.29 933.01l-588.93 0c-189.04,0 -245.99,54.53 -245.99,235.09l0 725.86 241.14 0.02 0 -757.38 597.41 0 0 756.16 241.15 0 0 -725.86c1.22,-179.36 -56.95,-233.89 -244.78,-233.89l0 0zm2507.21 0l0 756.16 -597.41 0 0 -756.16 -241.16 0 0 725.86c0,180.56 58.17,235.09 245.99,235.09l588.95 0.02c189.03,0 245.98,-54.54 245.98,-235.09l0 -725.86 -242.35 -0.02zm-4345.52 0c-180.55,0 -235.08,58.17 -235.08,245.99l0 468.97c0,189.04 54.53,245.99 235.08,245.99l782.84 0.02 0 -204.79 -792.54 -0.02 0 -185.4 792.54 0 0 -196.3 -792.54 0 0 -184.21 792.54 0 0 -190.25 -782.84 0zm-448.35 191.47l0 -191.47 -768.3 0c-187.84,0 -245.99,53.32 -245.99,233.87l0 103c0,180.56 58.17,235.09 245.99,235.09l567.13 0.02 0 185.4 -813.12 0 0 204.79 786.46 0c187.84,0 247.21,-56.95 247.21,-235.09l0 -129.67c0,-178.14 -60.59,-235.09 -247.21,-235.09l-567.12 0 0 -170.87 794.95 0.02zm3738.4 0l0 -191.47 -768.28 0c-189.04,0 -245.99,54.53 -245.99,235.09l0 103c0,180.55 58.17,235.09 245.99,235.09l567.13 0 0 185.4 -813.14 0.02 0 204.78 786.47 0c187.84,0 247.2,-56.95 247.2,-235.08l0 -129.67c0,-178.14 -60.58,-235.09 -247.2,-235.09l-567.13 0 0 -170.87 794.95 0.02 0 -1.22zm2498.73 0l0 -191.47 -768.28 0c-189.04,0 -245.99,54.53 -245.99,235.09l0 103c0,180.55 56.95,235.09 245.99,235.09l567.13 0 0 185.4 -813.12 0.02 0 204.78 785.25 0c187.84,0 248.42,-56.95 248.42,-235.08l0 -129.67c0,-178.14 -60.58,-235.09 -248.42,-235.09l-567.13 0 0 -170.87 796.15 0.02 0 -1.22z"/>
   </g>
   <g>
    <path class="fil2" d="M1797.29 2732.54c0,-78.77 -43.62,-119.97 -123.6,-119.97 -50.9,0 -100.59,19.39 -138.15,54.54l-37.57 -44.84c49.68,-44.83 115.12,-69.06 181.77,-66.65 100.58,0 180.55,55.75 180.55,168.44l0 203.59c0,35.13 2.42,70.28 8.49,105.41l-60.59 0c-3.63,-25.45 -6.07,-49.68 -7.27,-75.13l-1.21 0c-36.35,58.17 -100.59,92.1 -168.44,87.25 -70.28,0 -161.17,-37.57 -161.17,-140.57 0,-142.98 158.75,-156.32 327.19,-156.32l0 -15.75zm-19.38 67.85c-110.27,0 -237.52,12.12 -237.52,100.59 0,66.65 55.75,88.47 109.06,88.47 79.99,2.41 146.64,-60.59 149.06,-140.57 0,-3.64 0,-8.49 0,-12.12l0 -35.13 -20.6 -1.24zm3246.41 152.69l0 78.77 -67.87 0 0 -750.1 67.87 0 0 365.96 2.41 0c39.99,-58.17 105.42,-92.1 175.71,-92.1 145.42,0 239.94,106.63 239.94,243.57 0,136.93 -94.52,243.57 -239.94,243.57 -70.29,0 -135.72,-33.94 -175.71,-90.89l-2.41 0.02 0 1.2zm170.87 -340.51c-103,6.07 -182.99,93.3 -176.92,197.52 4.85,95.74 81.18,172.07 176.92,176.92 111.48,0 175.7,-83.61 175.7,-186.62 0,-103 -64.22,-187.82 -175.7,-187.82l0 0zm323.54 -44.83l65.45 0c1.21,25.45 3.63,59.38 3.63,78.77l2.42 -0.02c27.87,-55.75 86.03,-92.1 149.05,-90.88 14.54,0 30.3,1.21 44.84,4.85l-8.49 63.01c-15.75,-3.63 -31.5,-6.06 -47.27,-6.06 -71.5,0 -135.71,53.31 -135.71,175.7l0 237.52 -67.86 0.02 0 -361.13c-2.43,-24.23 -2.43,-70.28 -6.06,-101.78l0 0zm607.11 164.8c0,-78.77 -43.62,-119.97 -123.6,-119.97 -50.9,0 -100.59,19.39 -138.16,54.54l-37.56 -44.84c49.68,-44.83 115.12,-69.06 181.77,-66.65 100.58,0 180.55,55.75 180.55,168.44l0 203.59c0,35.13 2.42,70.28 8.48,105.41l-60.56 0c-4.85,-25.45 -6.07,-49.68 -7.27,-75.13l-2.43 0c-36.36,58.17 -100.59,90.88 -168.44,87.25 -70.29,0 -159.95,-37.57 -159.95,-140.57 0,-142.98 158.75,-156.32 327.19,-156.32l-0.02 -15.75zm-19.39 67.85c-110.26,0 -237.52,12.12 -237.52,100.59 0,66.65 56.96,88.47 109.07,88.47 79.99,2.41 146.64,-60.59 149.06,-140.57 0,-4.85 0,-8.49 0,-13.34l0 -35.13 -20.61 -0.02zm258.13 -232.65c1.21,25.45 3.63,59.38 3.63,78.77l2.42 -0.02c32.71,-56.95 93.3,-92.1 158.75,-90.88 117.55,0 176.92,76.35 176.92,191.47l0 284.77 -67.87 0 0 -256.91c0,-96.95 -29.08,-162.38 -126.03,-162.38 -71.51,0 -140.57,58.16 -140.57,181.77l0 237.52 -67.85 0 0 -361.13c0,-24.23 0,-70.28 -3.64,-101.78l64.24 -1.2zm656.79 476.22c-145.42,0 -239.94,-106.63 -239.94,-243.57 0,-136.93 94.52,-243.57 239.94,-243.57 70.29,0 135.72,33.94 175.71,92.1l2.43 0 0 -365.95 67.85 -0.02 0 750.1 -67.85 0.01 0 -79.98 -2.43 0c-39.99,56.97 -105.42,90.88 -175.71,90.88l0 0zm7.27 -56.95c98.15,1.22 178.14,-77.55 178.14,-175.7 0,-3.63 0,-7.27 0,-10.9 0,-105.42 -73.92,-187.84 -178.14,-187.84 -111.49,0 -175.7,84.82 -175.7,187.84 0,103.02 64.21,186.6 175.7,186.6l0 0zm-2382.41 -41.2l0 86.04 -48.47 0c-82.4,0 -122.39,-43.62 -122.39,-139.36l0 -151.46c0,-47.27 -14.53,-95.74 -73.91,-95.74 -59.39,0 -78.77,48.47 -78.77,95.74l0 290.83 -105.44 -0.01 0 -290.84c0,-47.27 -20.6,-95.74 -81.18,-95.74 -60.59,0 -81.19,48.47 -81.19,95.74l0 290.84 -103 0 0 -294.47c0,-115.12 73.92,-185.41 185.4,-185.41 50.91,-1.21 99.37,18.19 134.51,54.54 35.13,-36.35 83.62,-55.75 134.5,-54.54 101.79,0 174.5,65.44 174.5,185.41l0 156.32c0,35.13 16.97,52.1 46.05,52.1l19.39 0.01zm-808.27 12.12c-55.75,52.1 -128.45,81.18 -204.79,81.18 -155.1,0 -247.2,-100.58 -247.2,-243.57 0,-142.98 98.15,-243.57 237.52,-243.57 144.2,0 232.67,112.7 232.67,252.06 0,16.96 -1.21,35.13 -1.21,35.13l-362.34 0.02c13.33,67.87 55.75,111.48 139.35,111.48 52.1,0 100.58,-20.6 138.15,-56.95l67.85 64.22zm-342.94 -201.15l256.91 0c-12.12,-70.29 -58.17,-116.34 -126.04,-116.34 -67.87,0 -116.33,47.27 -132.08,116.34l1.21 0zm-329.6 130.86c0,100.59 41.2,142.99 127.23,142.99l47.27 0.02 0 -88.47 -21.82 0c-31.5,0 -49.68,-15.75 -49.68,-54.54l0 -582.87 -103 0 0 582.87zm-289.63 53.32l-1.21 0c-26.67,0 -41.2,-38.78 -66.65,-110.27l-43.62 -119.97c-41.2,-111.48 -82.4,-161.16 -175.7,-161.16 -78.77,0 -119.97,47.26 -168.44,113.9l-36.35 49.68 -116.34 -153.9 -121.2 0.02 176.92 231.45 -69.07 93.3c-35.13,47.27 -56.95,61.8 -87.25,61.8l-21.8 0 0 86.04 43.62 0c47.27,2.41 90.88,-20.6 116.33,-59.39l75.14 -105.42 121.18 166.02 123.61 0 -185.41 -243.57 46.05 -60.58c41.2,-55.75 61.8,-82.4 96.95,-82.4 35.16,0 55.76,35.13 87.26,115.12l53.31 134.5c30.3,78.77 59.39,136.93 113.91,136.93l7.26 0 -26.66 67.87c-20.6,53.32 -41.2,86.04 -96.96,86.04l-24.23 0 0 88.47 35.15 -0.02c82.4,0 141.79,-41.2 179.35,-147.84l203.59 -568.32 -110.28 0 -128.46 381.7z"/>
   </g>
  </g>
 </g>
</svg>
