<?xml version="1.0" encoding="UTF-8"?>
<!DOCTYPE svg PUBLIC "-//W3C//DTD SVG 1.1//EN" "http://www.w3.org/Graphics/SVG/1.1/DTD/svg11.dtd">
<!-- Creator: CorelDRAW 2020 (64-Bit) -->
<svg xmlns="http://www.w3.org/2000/svg" xml:space="preserve" width="45.5506mm" height="10.8372mm" version="1.1" style="shape-rendering:geometricPrecision; text-rendering:geometricPrecision; image-rendering:optimizeQuality; fill-rule:evenodd; clip-rule:evenodd"
viewBox="0 0 4555.06 1083.72"
 xmlns:xlink="http://www.w3.org/1999/xlink"
 xmlns:xodm="http://www.corel.com/coreldraw/odm/2003">
 <defs>
  <style type="text/css">
   <![CDATA[
    .fil1 {fill:#CD163F;fill-rule:nonzero}
    .fil0 {fill:url(#id0);fill-rule:nonzero}
   ]]>
  </style>
  <linearGradient id="id0" gradientUnits="userSpaceOnUse" x1="184.85" y1="973.55" x2="727.58" y2="20.06">
   <stop offset="0" style="stop-opacity:1; stop-color:#CD163F"/>
   <stop offset="0.278431" style="stop-opacity:1; stop-color:#CD163F"/>
   <stop offset="0.901961" style="stop-opacity:1; stop-color:#F58025"/>
   <stop offset="1" style="stop-opacity:1; stop-color:#F58025"/>
  </linearGradient>
 </defs>
 <g id="Layer_x0020_1">
  <metadata id="CorelCorpID_0Corel-Layer"/>
  <g id="_1926430746480">
   <path class="fil0" d="M305.86 343.22l419.99 -311c6.06,-4.55 3.01,-14.39 -4.55,-14.39l-344.33 -0.04c-39.33,0 -77.94,15.89 -105.94,43.89l-219.44 218.71c-28,28 -43.89,66.61 -43.89,106.72l0 309.49c0,40.11 15.89,77.95 43.89,106.72l218.71 218.71c28,28 66.61,43.89 106.72,43.89l298.11 -0.04c8.33,0 10.61,-11.34 3.01,-15.12l-591.77 -279.22c-24.99,-11.34 -40.88,-36.33 -40.88,-63.56l0 -148.32c0,-15.89 7.56,-30.28 19.67,-39.34l85.5 -63.56 0 -115 155.2 1.46 0 0z"/>
   <path class="fil1" d="M2439.05 679.17c-102.16,0 -162.72,53.72 -162.72,143 0,89.28 60.56,143 162.72,143 102.16,0 163.44,-52.99 163.44,-143 0.05,-90.01 -61.28,-143 -163.44,-143l0 0zm0 205.87c-30.28,0 -49.94,-25.72 -49.94,-64.33 0,-38.61 20.44,-64.33 49.94,-64.33 30.27,0 49.94,25.72 49.94,64.33 0,40.11 -18.89,64.33 -49.94,64.33l0 0zm1286.47 33.28c0,21.95 17.39,39.34 39.33,39.34l76.44 0 0 -272.44 -115.77 0 0 233.1 0 0zm0 -322.38l115.77 0 0 56.77 -115.77 0 0 -56.77zm324.65 83.23c-102.16,0 -162.71,53.72 -162.71,143 0,89.28 60.55,143 162.71,143 102.17,0 163.45,-52.99 163.45,-143 0,-90.01 -61.33,-143 -163.45,-143l0 0zm0 205.87c-30.27,0 -49.94,-25.72 -49.94,-64.33 0,-38.61 20.44,-64.33 49.94,-64.33 30.28,0 49.95,25.72 49.95,64.33 0,40.11 -18.94,64.33 -49.95,64.33l0 0zm-2159.73 -638.7c-102.16,0 -162.71,53.72 -162.71,143 0,89.28 60.55,143 162.71,143 102.17,0 163.45,-52.99 163.45,-143 0,-89.28 -60.56,-143 -163.45,-143l0 0zm0 206.6c-30.27,0 -49.94,-25.72 -49.94,-64.33 0,-38.61 20.44,-64.33 49.94,-64.33 30.28,0 49.95,25.72 49.95,64.33 0.77,40.11 -18.94,64.33 -49.95,64.33zm1613.36 3c-12.11,0 -64.33,3.01 -109.72,3.01 -46.94,0 -63.56,-4.55 -72.66,-34.83l184.66 0.05c4.55,0 9.06,-3.78 9.06,-9.06l0 -21.17c0,-93.84 -49.95,-146.06 -145.28,-147.56 -106.72,-1.5 -155.89,54.5 -155.89,138.5 0,92.33 48.44,147.55 164.95,147.55 83.22,0 121.06,-34.05 127.88,-72.66 0,-1.55 -1.5,-3.83 -3,-3.83l0 0zm-133.17 -146.05c31.01,0 44.66,25 44.66,56.78l-94.65 0c0,-31.78 10.61,-56.78 49.99,-56.78l0 0zm299.66 -146.05l-74.93 0c-21.95,0 -39.34,17.39 -39.34,39.34l0 321.6 114.27 0.05 0 -360.99 0 0zm-1452.19 366.27c44.67,4.55 95.34,-5.28 115.01,-9.06 4.55,-0.78 7.55,-5.28 7.55,-9.84l0 -66.6c0,0 -21.17,2.27 -71.11,2.27 -43.11,0 -70.39,-22.71 -70.39,-59 0,-36.33 25.73,-59 66.61,-59 47.67,0 75.67,6.05 75.67,6.05l0 -67.33c0,-4.56 -3.01,-9.06 -7.56,-9.84 -18.94,-4.55 -68.88,-13.61 -108.22,-11.33 -84.77,5.28 -137.72,54.49 -137.72,142.27 -1.5,83.91 48.44,133.85 130.16,141.41l0 0zm1138.15 154.38l0 35.56c-16.67,-25 -41.62,-41.61 -79.45,-41.61 -86.27,0 -134.72,53.72 -134.72,143l0 0.77c0,89.28 48.45,143 134.72,143 37.83,0 62.83,-16.66 79.45,-41.61l0 6.06c0,15.89 12.88,29.5 28.77,29.5l80.17 0 0 -273.17 -108.94 0 0 -1.5zm-50.72 200.55c-30.28,0 -49.95,-25.72 -49.95,-64.33 0,-37.83 20.45,-64.33 49.95,-64.33 31,0 49.94,24.99 49.94,64.33 0.78,40.11 -18.89,64.33 -49.94,64.33zm-214.89 -631.87l-32.55 177.83 -36.34 -177.83 -130.16 0 -36.33 177.83 -32.55 -177.83 -108.17 0 0 0 -112.78 -0.78c-16.66,0 -33.28,10.61 -42.38,26.5l-64.33 93.06 0 -209.61 -69.61 0c-21.95,0 -39.34,17.39 -39.34,39.33l0 321.61 108.95 0 0 -135.44 74.94 108.94c9.06,16.67 25.72,26.5 42.38,26.5l112.77 0.77 -110.49 -145.27 99.89 -126.39 65.05 272.44 121.84 0c13.61,0 24.99,-9.84 27.22,-23.45l23.45 -161.17 9.1 -0.04 23.45 161.17c2.28,13.61 13.61,23.44 27.23,23.44l121.87 0.05 65.06 -272.44 -108.17 0.78 0 0zm-1172.97 550.1c0,46.94 -15.12,70.39 -44.66,70.39 -18.17,0 -37.06,-6.06 -37.06,-51.45l0 -136.22 -108.95 0 0 155.12c0,78.71 39.33,121.05 110.49,121.05 35.56,0 66.61,-12.88 89.28,-36.33l0 2.28c0,15.89 12.89,29.5 28.78,29.5l71.84 0.05 0 -272.44 -108.95 0 0 118.05 -0.77 0zm1086.69 -124.1c-37.83,0 -70.38,15.88 -93.83,46.16 -18.94,-29.5 -49.94,-46.16 -89.28,-46.16 -33.28,0 -62.83,12.88 -84.77,35.55l0 -28.73 -99.89 0 0 272.44 108.22 0 0 -131.66c0,-35.56 15.89,-58.28 40.88,-58.28 17.4,0 34.06,6.06 34.06,49.17l-0.05 140.77 108.22 0 0 -131.66c0,-35.56 15.12,-58.28 40.11,-58.28 17.39,0 34.06,6.06 34.06,49.17l0 140.77 108.22 0 0 -158.16c0.72,-77.94 -37.11,-121.1 -105.95,-121.1zm1433.98 0c-35.56,0 -66.6,12.88 -89.28,36.33l0 -29.51 -100.66 0 0 272.44 108.99 0 0 -131.66c0,-36.34 17.4,-59.78 44.67,-59.78 18.16,0 37.06,6.05 37.06,51.44l0 140 108.21 0 0 -158.16c0.78,-78.72 -38.6,-121.1 -108.99,-121.1l0 0zm-817.99 -83.23l-108.99 0 0 321.61c0,21.94 17.39,39.33 39.33,39.33l69.66 0.05 0 -192.22 65.83 0 0 -80.22 -65.83 0 0 -88.55 0 0zm219.44 -432.1l-74.94 0c-21.94,0 -39.33,17.39 -39.33,39.34l0 321.6 114.27 0.05 0 -360.99 0 0zm-2373.89 432.1c-11.34,0 -21.95,6.83 -26.5,18.17l-137.72 344.32 114.28 0 25.72 -68.11 131.71 0 14.39 39.34 0 0c7.55,17.39 24.99,28.77 43.11,28.77l89.28 0 -144.55 -361.71 -109.72 -0.78 0 0zm4.55 213.39l37.84 -102.17 36.33 102.17 -74.17 0zm721.16 -212.61l-115.78 0 0 321.6c0,21.95 17.39,39.34 39.34,39.34l76.44 0 0 -192.22 65.83 0 0 -79.45 -65.83 0 0 -89.27 0 0zm-516.83 -210.39c-11.34,-15.11 -27.23,-25.72 -50.72,-30.27l0 -0.78c50.72,-6.05 80.95,-40.88 80.95,-96.11 0,-69.61 -49.94,-96.88 -130.16,-96.88l-195.23 0.05 0 362.49 115.05 0 0 -131.67 31.78 0c15.89,0 31.78,2.28 36.33,18.94l32.55 94.61c1.51,10.61 10.61,18.16 21.17,18.16l106.72 -0.04 -40.11 -121.06c-1.55,-6.1 -3.78,-12.16 -8.33,-17.44l0 0zm-133.21 -68.88l-45.4 0 0 -76.44 47.67 0.04c23.45,0 46.17,4.56 46.17,37.06 -0.73,36.34 -24.22,39.34 -48.44,39.34l0 0zm-827.83 145.32l-40.88 110.5 79.44 -0.05 -38.56 -110.45zm-340.55 4.51c0,-35.56 -24.22,-40.11 -49.17,-40.11l-51.49 0.05 0 83.22 49.22 0c25.72,-0.77 51.44,-4.55 51.44,-43.16l0 0zm644.72 -180.06l-204.28 -204.33c-11.34,-11.33 -29.5,-12.88 -43.12,-3.78l-392.76 264.11c74.16,4.55 119.55,34.83 119.55,103.66 0,59.78 -32.55,96.89 -87,103.67l0 0.77c25.72,4.56 42.39,16.67 54.5,32.56 4.55,5.28 7.55,12.11 9.06,18.94l31 93.83 133.17 -334.49c4.55,-11.34 15.89,-19.67 28.77,-19.67l117.28 -0.05 155.89 390.49 -96.11 0c-19.67,0 -37.84,-12.11 -46.17,-31l0 0 -15.11 -42.39 -141.5 -0.04 -27.23 73.39 -211.93 0.04c-11.33,0 -21.17,-8.33 -22.72,-19.66l-34.78 -101.44c-4.55,-17.39 -21.94,-20.44 -39.33,-20.44l-34.06 0 0 142.27 -120.33 0 0 -236.83 -71.89 48.44c-6.83,4.55 -10.6,12.11 -10.6,19.67l0 151.33c0,9.83 6.05,18.17 14.38,21.94l678.77 284.55c12.89,5.28 27.23,2.28 37.06,-6.83l218.71 -217.94c25,-24.22 38.61,-57.5 38.61,-92.33l0 -326.16c0,-34.78 -13.61,-68.11 -37.83,-92.28l0 0z"/>
  </g>
 </g>
</svg>
