<?xml version="1.0" encoding="UTF-8"?>
<!DOCTYPE svg PUBLIC "-//W3C//DTD SVG 1.1//EN" "http://www.w3.org/Graphics/SVG/1.1/DTD/svg11.dtd">
<!-- Creator: CorelDRAW 2020 (64-Bit) -->
<svg xmlns="http://www.w3.org/2000/svg" xml:space="preserve" width="45.7198mm" height="6.0112mm" version="1.1" style="shape-rendering:geometricPrecision; text-rendering:geometricPrecision; image-rendering:optimizeQuality; fill-rule:evenodd; clip-rule:evenodd"
viewBox="0 0 4571.98 601.12"
 xmlns:xlink="http://www.w3.org/1999/xlink"
 xmlns:xodm="http://www.corel.com/coreldraw/odm/2003">
 <defs>
  <style type="text/css">
   <![CDATA[
    .fil0 {fill:#C74634;fill-rule:nonzero}
   ]]>
  </style>
 </defs>
 <g id="Layer_x0020_1">
  <metadata id="CorelCorpID_0Corel-Layer"/>
  <g>
   <path class="fil0" d="M1979.11 393.67l300.51 0 -158.73 -256.35 -291.84 463 -132.71 0 354.94 -555.48c15.83,-22.65 41.74,-36.17 69.38,-36.17 27.21,0 52.78,13.11 68.67,35.18l355.9 556.47 -132.71 0 -62.51 -103.52 -304.05 0 -66.26 -103.13 -0.59 0zm1379.53 103.13l0 -482.52 -112.8 0 0 530.04c0,0.03 0,0.09 0,0.14 0,14.83 6.06,29.03 16.76,39.29 10.71,10.97 25.42,17.16 40.75,17.16 0.08,0 0.17,0 0.26,0l512.7 0 66.85 -103.52 -525.12 0 0.6 -0.59zm-1864.81 -86.17c109.45,-0.02 198.19,-88.76 198.19,-198.18 0,-109.43 -88.74,-198.17 -198.17,-198.17l-492.99 0 0 586.04 112.59 0 0 -482.32 373.48 0c52.39,0 94.86,42.47 94.86,94.85 0,52.38 -42.47,94.84 -94.85,94.84l-317.68 0.01 336.4 292.62 163.47 0 -225.98 -189.69 50.68 0 0 0zm-1185.5 189.69l340.55 0c158.79,-4.1 285.43,-134.06 285.43,-292.93 0,-158.86 -126.64,-288.82 -285.44,-292.9l-340.54 -0.01c-2.46,-0.03 -5.08,-0.1 -7.58,-0.1 -161.8,0 -293.02,131.22 -293.02,293.01 0,161.8 131.22,293.02 293.02,293.02 2.5,0 5.12,-0.07 7.58,-0.11l0 0.02zm332.86 -103.13l-325.36 0c-102.28,-3.28 -183.57,-87.23 -183.57,-189.6 0,-102.36 81.29,-186.31 183.59,-189.6l325.34 0.01c2.03,-0.05 4.09,-0.1 6.13,-0.1 104.75,0 189.7,84.95 189.7,189.69 0,104.75 -84.95,189.7 -189.7,189.7 -2.04,0 -4.1,-0.05 -6.11,-0.09l-0.02 -0.01zm2139.29 103.13l347.64 0 65.86 -103.13 -405.81 0c-2.02,0.05 -4.08,0.1 -6.12,0.1 -104.75,0 -189.7,-84.95 -189.7,-189.7 0,-104.74 84.95,-189.69 189.7,-189.69 2.04,0 4.1,0.05 6.11,0.09l330.3 0.01 66.65 -103.52 -404.63 0c-2.49,-0.03 -5.11,-0.1 -7.61,-0.1 -161.8,0 -293.02,131.22 -293.02,293.01 0,161.8 131.22,293.02 293.02,293.02 2.5,0 5.12,-0.07 7.58,-0.11l0.03 0.02zm1377.76 -103.13c-0.03,0 -0.06,0 -0.08,0 -84.86,0 -159.43,-56.39 -182.52,-138.03l481.53 0 66.26 -103.33 -547.79 0c23.04,-81.65 97.53,-138.03 182.37,-138.03 0.07,0 0.16,0 0.23,0l330.48 0 66.06 -103.52 -404.23 0c-158.79,4.09 -285.43,134.05 -285.43,292.91 0,158.87 126.64,288.83 285.44,292.91l347.63 0.03 66.06 -103.13 -406.21 0 0.2 0.19zm0 0l0 0 0 0z"/>
  </g>
 </g>
</svg>
