<?xml version="1.0" encoding="UTF-8"?>
<!DOCTYPE svg PUBLIC "-//W3C//DTD SVG 1.1//EN" "http://www.w3.org/Graphics/SVG/1.1/DTD/svg11.dtd">
<!-- Creator: CorelDRAW 2020 (64-Bit) -->
<svg xmlns="http://www.w3.org/2000/svg" xml:space="preserve" width="67.7332mm" height="15.1552mm" version="1.1" style="shape-rendering:geometricPrecision; text-rendering:geometricPrecision; image-rendering:optimizeQuality; fill-rule:evenodd; clip-rule:evenodd"
viewBox="0 0 6773.32 1515.52"
 xmlns:xlink="http://www.w3.org/1999/xlink"
 xmlns:xodm="http://www.corel.com/coreldraw/odm/2003">
 <defs>
  <style type="text/css">
   <![CDATA[
    .fil0 {fill:#1AA142;fill-rule:nonzero}
    .fil1 {fill:#21599F;fill-rule:nonzero}
   ]]>
  </style>
 </defs>
 <g id="Layer_x0020_1">
  <metadata id="CorelCorpID_0Corel-Layer"/>
  <g id="_2547693908672">
   <path class="fil0" d="M1163.04 42.83c11.55,16.83 150.27,180.41 257.9,509.98 4.61,14.19 9.2,28.51 13.59,43.28 0.72,2.28 1.47,4.49 2.18,6.62 5.63,19.12 10.93,37.58 16.07,55.98 4.01,14.77 7.88,29.31 11.52,43.7 5.48,21.19 10.45,41.8 14.97,61.98 3.6,15.68 6.89,31.02 10.03,46.05 46.35,226.4 42.56,384.91 41.31,447.53 -0.49,29.01 47.99,-194.89 28.35,-450.58 -1.39,-17.12 -2.92,-34.38 -5,-51.7 -2.66,-23.39 -5.92,-46.92 -9.83,-70.38 -2.86,-16.9 -6.13,-33.8 -9.73,-50.56 -5.24,-24.24 -11.31,-48.35 -18.33,-72.09 -0.57,-2.14 -1.15,-4.56 -1.89,-6.85 -4.25,-14.41 -8.98,-28.51 -13.95,-42.48 -109.37,-307.77 -358.73,-502 -337.19,-470.48z"/>
   <path class="fil0" d="M1081.78 314.73c7.59,10.89 95.66,114.92 167.28,323.5 3.35,9.77 6.64,19.61 9.98,29.73 2.72,8.64 5.5,17.26 8.07,26.03 1.74,5.85 3.49,11.62 5.16,17.47 3.01,10.33 5.79,20.4 8.48,30.45 4.08,15.19 7.9,30.01 11.24,44.57 2.71,10.91 5.09,21.74 7.45,32.3 34.91,161.99 32.27,275.24 31.41,319.01 -0.46,20.32 34.52,-141.39 17.79,-321.08 -1.13,-12.12 -2.6,-24.24 -4.13,-36.45 -2.36,-16.82 -5,-33.57 -8.12,-50.26 -2.34,-11.7 -4.97,-23.32 -7.9,-35.01 -2.62,-10.99 -5.62,-21.97 -8.76,-32.73 -1.75,-5.78 -3.63,-11.34 -5.46,-16.9 -3.81,-11.34 -7.8,-22.46 -12.19,-33.52 -77.61,-195.95 -234.3,-317.88 -220.3,-297.11z"/>
   <path class="fil0" d="M1048.05 580.04c3.35,4.78 37.16,44.71 69.13,123.86 2.57,6.13 5.06,12.55 7.53,19.19 3.28,9.05 6.66,18.68 9.88,28.65 1.6,4.85 3.14,9.77 4.66,14.84 0.5,1.84 1,3.63 1.53,5.49 3.14,10.77 5.93,21.04 8.46,31.08 1.91,7.63 3.74,14.84 5.35,22.11 17.72,81 16.42,137.69 15.89,159.44 -0.21,10.12 17.33,-71.02 8.55,-160.51 -0.81,-7.98 -1.8,-16.11 -2.91,-24.17 -1.82,-11.33 -4.1,-22.82 -6.96,-34.02 -1.2,-5.12 -2.52,-10.11 -4.13,-15.11 -0.67,-2.49 -1.53,-4.85 -2.36,-7.35 -3.56,-10.69 -7.65,-21.25 -12.04,-31.16 -3.15,-6.91 -6.41,-13.62 -9.92,-20.1 -40.25,-76.17 -98.64,-121.15 -92.66,-112.24z"/>
   <path class="fil0" d="M451.73 245.9c-14.12,10.43 -28.21,21.19 -42,32.45 -18.47,15.05 -36.66,30.95 -54.34,47.49 -4.13,3.85 -8.17,7.76 -12.26,11.69 -8.46,8.28 -16.72,16.7 -24.82,25.32 -17.36,18.17 -33.94,37 -49.65,56.33 -11.24,13.69 -22.04,27.38 -32.35,41.35 -187.06,251.15 -251.96,548.91 -233.2,514.04 10.23,-19.25 94.05,-219.4 312.95,-461.77 10.13,-11.26 20.65,-22.54 31.31,-33.73 14.62,-15.54 29.8,-31.16 45.49,-47.06 7.82,-7.69 15.62,-15.54 23.67,-23.39 2.93,-2.79 5.74,-5.48 8.52,-8.34 15.56,-14.91 30.91,-29.46 46.18,-43.21 11.65,-10.7 23.08,-21.04 34.58,-31.08 231.65,-203.94 415.1,-283.59 481.63,-312.82 31.48,-13.77 -276.23,41.93 -535.71,232.73z"/>
   <path class="fil0" d="M593.67 456.11c-9.56,7.06 -18.9,14.26 -28.17,21.68 -12.8,10.27 -25.43,21.04 -37.55,32.37 -3.81,3.49 -7.59,6.99 -11.26,10.55 -4.68,4.64 -9.13,9.13 -13.55,13.84 -11.69,12.05 -22.86,24.6 -33.52,37.29 -7.52,8.92 -14.61,18.12 -21.56,27.32 -129.6,171.12 -174.63,377.06 -161.8,353.17 7.04,-13.12 64.79,-151.32 216.33,-317.46 6.68,-7.33 13.59,-14.75 20.63,-22.17 9.82,-10.35 20,-20.74 30.44,-31.23 4.31,-4.13 8.31,-8.34 12.68,-12.62 3,-2.85 5.86,-5.57 8.84,-8.27 10.66,-10.41 21.26,-20.25 31.7,-29.74 7.75,-7.13 15.56,-14.05 23.15,-20.74 155.37,-136.06 278.41,-189.47 323.09,-209.15 21.25,-9.27 -184.37,27.95 -359.45,155.16z"/>
   <g>
    <path class="fil0" d="M707.57 624.97c-5.92,3.99 -11.77,8.19 -17.54,12.54 -8.16,6.22 -16.26,12.84 -23.99,19.9 -2.57,2.43 -5.06,4.71 -7.6,7.13 -2.5,2.58 -5,4.93 -7.45,7.49 -6.95,7.33 -13.52,14.89 -19.72,22.75 -4.32,5.35 -8.48,10.76 -12.41,16.25 -59.21,82.43 -79.75,177.05 -73.69,165.64 3.36,-6.27 30.24,-70.24 99.77,-148.54 3.91,-4.55 8.09,-8.98 12.39,-13.68 5.93,-6.28 12.13,-12.68 18.61,-19.25 2.36,-2.34 4.53,-4.7 7.03,-6.91 2.1,-2.08 4.18,-4.01 6.2,-6 7.1,-6.84 14.02,-13.18 20.9,-19.18 4.89,-4.42 9.84,-8.7 14.64,-12.76 71.35,-60.18 127.29,-84.64 148.32,-93.84 10.07,-4.35 -82.14,12.27 -165.46,68.46z"/>
    <path class="fil0" d="M1335.24 1463.73c-61.29,4.05 -217.16,14.76 -442.06,-23.38 -14.16,-2.44 -28.77,-5.08 -43.53,-7.92 -20.22,-3.85 -40.8,-8.12 -62.11,-12.77 -14.12,-3.07 -28.49,-6.4 -43.11,-9.9 -17.71,-4.36 -35.83,-8.84 -54.22,-13.77 -2.07,-0.58 -4.03,-1.07 -6.07,-1.65 -15.11,-4.13 -29.79,-8.2 -44.27,-12.39 -326.65,-95.7 -492.41,-229.96 -509.33,-241.02 -31.7,-20.53 168.27,224.55 473.43,323.29 14.22,4.57 28.84,8.84 43.56,12.92 2.29,0.57 4.39,1 6.68,1.64 22.7,5.85 45.77,10.9 68.91,15.03 16.58,2.93 33.07,5.66 49.66,7.92 23.7,3.14 47.38,5.57 70.88,7.29 16.36,1.21 32.66,2.13 48.87,2.7 252.4,9.76 471.23,-49.84 442.71,-47.99z"/>
   </g>
   <path class="fil0" d="M1209.21 1265.01c-42.86,2.79 -153.92,10.47 -314.42,-18.49 -9.7,-1.69 -19.79,-3.61 -29.96,-5.67 -14,-2.87 -28.44,-5.95 -43.27,-9.43 -9.88,-2.28 -19.8,-4.57 -29.88,-7.21 -6.48,-1.63 -12.99,-3.27 -19.5,-5.06 -8.02,-2.14 -15.84,-4.27 -23.5,-6.41 -10.52,-3 -20.83,-6.14 -30.88,-9.28 -207.88,-64.18 -313.71,-149.81 -324.8,-157.08 -20.82,-13.55 105.36,141.4 300.71,212.15 11.28,3.99 22.84,7.83 34.68,11.33 4.89,1.34 9.91,2.93 14.86,4.28 11.14,2.98 22.35,5.56 33.71,7.92 11.43,2.35 22.84,4.47 34.29,6.25 16.5,2.64 33.02,4.57 49.31,6.14 11.3,1.06 22.75,1.87 33.8,2.5 177.18,9.61 334.76,-33.24 314.85,-31.94z"/>
   <path class="fil0" d="M1052.58 1108.14c-21.25,1.35 -76.62,5.13 -156.35,-9.35 -6.4,-1.29 -12.99,-2.57 -19.91,-3.98 -9.27,-1.87 -18.94,-4.29 -28.85,-6.79 -3.27,-0.77 -6.49,-1.64 -9.8,-2.48 -3.49,-0.87 -6.7,-1.8 -10.06,-2.86 -10.3,-2.86 -20.21,-5.86 -29.59,-8.98 -7.06,-2.36 -13.93,-4.71 -20.43,-7.06 -80.25,-29.61 -121.51,-62.89 -126.24,-66.03 -9.05,-5.86 38.18,52.9 115.5,90.55 6.92,3.42 14.1,6.63 21.54,9.63 10.23,4.13 20.9,7.85 31.92,10.83 1.03,0.29 2.04,0.65 3.14,0.93 6.19,1.71 12.53,3.14 18.76,4.35 10.65,2.21 21.24,3.85 32.07,4.92 7.21,0.79 14.44,1.49 21.75,1.93 87.85,5.06 166.39,-16.26 156.55,-15.61z"/>
   <path class="fil1" d="M2231.73 932.72c0,8.48 -5.56,12.68 -16.73,12.68l-209.34 0c-11.24,0 -16.72,-4.2 -16.72,-12.68l0 -722.83c0,-8.41 -5.6,-12.68 -16.8,-12.68l-272.99 0c-11.19,0 -16.8,-4.21 -16.8,-12.71l0 -140.25c0,-8.49 5.61,-12.68 16.8,-12.68l822.36 0c11.13,0 16.72,4.19 16.72,12.68l0 140.25c0,8.5 -5.59,12.71 -16.72,12.71l-273 0c-11.22,0 -16.78,4.27 -16.78,12.68l0 722.83z"/>
   <path class="fil1" d="M2989.07 281.42c11.15,0 16.79,4.2 16.79,12.68l0 130c0,8.48 -5.64,12.76 -16.79,12.76l-160.81 0c-10.01,0 -18.97,2.14 -26.8,6.34 -7.81,4.29 -14.72,9.14 -20.94,14.69 -6.12,5.57 -10.8,11.48 -14.18,17.84 -3.42,6.41 -5.03,12.11 -5.03,17.17l0 439.82c0,8.48 -5.62,12.68 -16.71,12.68l-187.64 0c-11.21,0 -16.73,-4.2 -16.73,-12.68l0 -484.38c0,-22.1 5.85,-43.35 17.57,-63.74 11.7,-20.4 27.59,-38.29 47.79,-53.55 20.07,-15.27 43.49,-27.39 70.31,-36.37 26.77,-8.92 55.25,-13.26 85.41,-13.26l227.76 0z"/>
   <path class="fil1" d="M3113.24 31.57l170.88 0c11.09,0 16.73,4.19 16.73,12.68l0 130.07c0,8.41 -5.64,12.68 -16.73,12.68l-170.88 0c-11.23,0 -16.79,-4.27 -16.79,-12.68l0 -130.07c0,-8.49 5.56,-12.68 16.79,-12.68zm-16.79 262.53l0 0c0,-8.48 5.56,-12.68 16.79,-12.68l170.88 0c11.09,0 16.73,4.2 16.73,12.68l0 638.62c0,8.48 -5.64,12.68 -16.73,12.68l-170.88 0c-11.23,0 -16.79,-4.2 -16.79,-12.68l0 -638.62z"/>
   <path class="fil1" d="M3458.4 31.57l170.8 0c11.19,0 16.76,4.19 16.76,12.68l0 888.47c0,8.48 -5.57,12.68 -16.76,12.68l-170.8 0c-11.26,0 -16.81,-4.2 -16.81,-12.68l0 -888.47c0,-8.49 5.55,-12.68 16.81,-12.68z"/>
   <path class="fil1" d="M3803.53 31.57l170.77 0c11.2,0 16.76,4.19 16.76,12.68l0 888.47c0,8.48 -5.56,12.68 -16.76,12.68l-170.77 0c-11.25,0 -16.82,-4.2 -16.82,-12.68l0 -888.47c0,-8.49 5.57,-12.68 16.82,-12.68z"/>
   <path class="fil1" d="M4148.64 31.57l170.87 0c11.1,0 16.67,4.19 16.67,12.68l0 130.07c0,8.41 -5.57,12.68 -16.67,12.68l-170.87 0c-11.11,0 -16.76,-4.27 -16.76,-12.68l0 -130.07c0,-8.49 5.65,-12.68 16.76,-12.68zm-16.76 262.53l0 0c0,-8.48 5.65,-12.68 16.76,-12.68l170.87 0c11.1,0 16.67,4.2 16.67,12.68l0 638.62c0,8.48 -5.57,12.68 -16.67,12.68l-170.87 0c-11.11,0 -16.76,-4.2 -16.76,-12.68l0 -638.62z"/>
   <path class="fil1" d="M4525.58 281.42l472.34 0c42.46,0 78.42,6.98 108.07,21.04 29.61,13.9 53.54,32 72.03,54.04 18.39,22.18 31.79,46.78 40.15,74.01 8.4,27.17 12.62,54.41 12.62,81.58l0 420.63c0,8.48 -5.57,12.68 -16.84,12.68l-584.57 0c-33.49,0 -60.75,-7.83 -81.99,-23.59 -21.26,-15.69 -37.71,-34.16 -49.33,-55.41 -11.85,-21.25 -19.91,-42.5 -24.39,-63.74 -4.42,-21.17 -6.71,-37.36 -6.71,-48.5 0,-20.39 3.41,-42.85 9.98,-67.52 6.71,-24.6 17.39,-47.34 31.94,-68.1 14.41,-20.82 33.51,-38.5 56.9,-52.97 23.54,-14.48 51.92,-21.69 85.44,-21.69l279.66 0c29.09,0 52.25,-5.26 69.59,-15.89 17.25,-10.62 25.94,-23.17 25.94,-37.65 0,-11.84 -5.63,-23.75 -16.81,-35.65 -11.06,-11.83 -25.66,-17.83 -43.51,-17.83l-440.51 0c-11.13,0 -16.7,-4.28 -16.7,-12.76l0 -130c0,-8.48 5.57,-12.68 16.7,-12.68zm484.16 514.89l0 0c11.04,0 16.67,-4.2 16.67,-12.76l0 -76.45c0,-8.48 -5.63,-12.75 -16.67,-12.75l-298.2 0c-15.7,0 -28.52,4.84 -38.51,14.62 -10.13,9.84 -15.04,20.6 -15.04,32.51 0,14.47 5.57,27.24 16.62,38.28 11.25,11 26.8,16.55 46.98,16.55l288.15 0z"/>
   <path class="fil1" d="M5569.33 904.69c0,27.17 -15.52,40.71 -46.83,40.71l-112.24 0c-15.61,0 -27.03,-5.12 -34.29,-15.25 -7.29,-10.13 -10.85,-22.11 -10.85,-35.73l0 -529.01c0,-21.25 11.34,-40.5 34.24,-57.96 22.96,-17.34 52.26,-26.03 87.99,-26.03l378.55 0c40.14,0 77.51,6.13 112.23,18.46 34.58,12.27 64.97,28.6 91.29,48.99 26.17,20.47 46.55,43.78 61.09,70.16 14.55,26.39 21.81,53.56 21.81,81.5l0 432.19c0,8.48 -6.2,12.68 -18.45,12.68l-169.2 0c-11.14,0 -16.7,-4.2 -16.7,-12.68l0 -405.38c0,-21.17 -4.27,-38.64 -12.54,-52.33 -8.41,-13.54 -20.18,-24.18 -35.24,-31.81 -15.09,-7.69 -32.66,-12.9 -52.75,-15.9 -20.11,-2.98 -41.93,-4.49 -65.31,-4.49l-162.52 0c-12.25,0 -23.67,3.35 -34.29,10.2 -10.56,6.85 -15.99,14.05 -15.99,21.68l0 450z"/>
   <path class="fil1" d="M6571.33 777.2c0,8.56 5.57,12.77 16.68,12.77l140.76 0c8.98,0.79 13.4,5.06 13.4,12.69l0 130.06c0,8.48 -5.62,12.68 -16.82,12.68l-211.01 0c-42.41,0 -77.63,-9.68 -105.43,-29.29 -28.04,-19.55 -41.96,-42.5 -41.96,-68.83l0 -397.65c0,-8.56 -5.62,-12.77 -16.73,-12.77l-88.7 0c-11.22,0 -16.76,-4.28 -16.76,-12.76l0 -130c0,-8.48 5.54,-12.68 16.76,-12.68l88.7 0c11.11,0 16.73,-4.28 16.73,-12.77l0 -159.37c0,-8.56 5.57,-12.76 16.76,-12.76l170.78 0c11.28,0 16.84,4.2 16.84,12.76l0 159.37c0,8.49 5.57,12.77 16.68,12.77l137.34 0c11.2,0 16.82,4.2 16.82,12.68l0 130c0,8.48 -5.62,12.76 -16.82,12.76l-137.34 0c-11.11,0 -16.68,4.21 -16.68,12.77l0 327.57z"/>
   <polygon class="fil0" points="2362.28,1501.59 2297.72,1501.59 2049.61,1217.23 2049.61,1501.59 1989.61,1501.59 1989.61,1141.22 2054.21,1141.22 2302.25,1425.57 2302.25,1141.22 2362.28,1141.22 "/>
   <polygon class="fil0" points="2971.02,1501.59 2617.02,1501.59 2617.02,1141.22 2959.61,1141.22 2959.61,1184.57 2680.2,1184.57 2680.2,1294.45 2942.03,1294.45 2942.03,1337.82 2680.2,1337.82 2680.2,1458.32 2971.02,1458.32 "/>
   <polygon class="fil0" points="3544.34,1184.57 3388.02,1184.57 3388.02,1501.59 3324.87,1501.59 3324.87,1184.57 3168.61,1184.57 3168.61,1141.22 3544.34,1141.22 "/>
   <polygon class="fil0" points="4327.63,1141.22 4196.23,1501.59 4136.1,1501.59 4022.23,1188.41 3908.07,1501.59 3847.89,1501.59 3716.84,1141.22 3782.86,1141.22 3877.68,1434.72 3984.35,1141.22 4059.79,1141.22 4166.49,1434.78 4261.17,1141.22 "/>
   <path class="fil0" d="M4741.33 1134.87c66.32,0 120.58,17.04 162.88,51.19 42.22,34.1 63.31,79.24 63.31,135.34 0,56.13 -21.09,101.28 -63.31,135.34 -42.3,34.15 -96.56,51.19 -162.88,51.19 -66.57,0 -121.08,-17.1 -163.58,-51.25 -42.47,-34.24 -63.74,-79.29 -63.74,-135.28 0,-56.1 21.27,-101.24 63.74,-135.34 42.5,-34.15 97.01,-51.19 163.58,-51.19zm-0.69 331.85l0 0c47.32,0 86.12,-12.77 116.37,-38.28 30.22,-25.54 45.28,-61.18 45.28,-107.04 0,-45.77 -15.06,-81.5 -45.14,-107.03 -30.1,-25.52 -68.52,-38.28 -115.25,-38.28 -47.55,0 -86.54,12.76 -116.94,38.28 -30.45,25.53 -45.63,61.26 -45.63,107.03 0,45.71 15.13,81.3 45.43,106.96 30.36,25.54 68.96,38.36 115.88,38.36z"/>
   <path class="fil0" d="M5595.51 1501.59l-67.96 0 -44.71 -96.19c-7.92,-17.05 -21.18,-31.03 -39.71,-41.84 -18.45,-10.86 -39.86,-16.27 -63.89,-16.27l-115.93 0 0 154.3 -63.19 0 0 -360.37 209.91 0c36.65,0 66.7,2.64 90,8.12 23.25,5.43 42.21,16.83 56.91,34.1 14.69,17.38 22.1,36.93 22.1,58.75 0,24.88 -9.56,45.69 -28.53,62.39 -19.03,16.76 -44.91,27.58 -78,32.66l0 1c33.09,8.04 58.2,29.79 75.45,65.23l47.55 98.12zm-332.2 -197.67l0 0 139.61 0c38.8,0 67.1,-4.56 84.57,-13.74 17.54,-9.13 26.23,-24.97 26.23,-47.42 0,-40.23 -33.72,-60.33 -101.19,-60.33l-149.22 0 0 121.49z"/>
   <polygon class="fil0" points="6215.43,1501.59 6132.67,1501.59 5964.39,1321.92 5890.64,1376.73 5890.64,1501.59 5827.47,1501.59 5827.47,1141.22 5890.64,1141.22 5890.64,1319.91 6122.39,1141.22 6207.16,1141.22 6008.24,1289.25 "/>
   <path class="fil0" d="M6597.56 1507.93c-66.89,0 -116.85,-11.39 -149.94,-34.29 -33.17,-22.96 -50.57,-52.35 -52.29,-88.27l60.07 0c3.19,27.03 17.96,47 44.34,59.83 26.22,12.97 57.91,19.46 95.12,19.46 35.22,0 63.6,-5.48 85.13,-16.48 21.55,-10.9 32.25,-25.8 32.25,-44.56 0,-19.89 -11.14,-34.3 -33.32,-43.36 -22.18,-8.99 -60.38,-17.83 -114.58,-26.57 -54.19,-8.85 -93.13,-21.05 -116.72,-36.6 -23.62,-15.69 -35.44,-36.36 -35.44,-62.33 0,-29.15 15.38,-53.12 46.06,-71.8 30.73,-18.75 71.52,-28.09 122.42,-28.09 53.41,0 96.48,9.34 129.42,28.24 32.67,18.75 50.06,45.2 52.07,79.57l-61.19 0c-6.14,-42.91 -45.49,-64.46 -117.72,-64.46 -34.86,0 -61.98,4.93 -81.21,14.84 -19.11,9.98 -28.82,23.11 -28.82,39.49 0,15.06 7.78,26.4 23.17,34.01 15.32,7.49 44.13,14.77 86.35,21.89 42.06,7.06 75.59,13.98 100.41,20.9 24.68,6.91 45.92,17.61 63.6,32.07 17.81,14.56 26.59,34.04 26.59,58.5 0,31.08 -16.27,56.76 -48.69,77.27 -32.52,20.55 -74.87,30.74 -127.08,30.74z"/>
  </g>
 </g>
</svg>
