<?xml version="1.0" encoding="UTF-8"?>
<!DOCTYPE svg PUBLIC "-//W3C//DTD SVG 1.1//EN" "http://www.w3.org/Graphics/SVG/1.1/DTD/svg11.dtd">
<!-- Creator: CorelDRAW 2020 (64-Bit) -->
<svg xmlns="http://www.w3.org/2000/svg" xml:space="preserve" width="62.2298mm" height="15.1552mm" version="1.1" style="shape-rendering:geometricPrecision; text-rendering:geometricPrecision; image-rendering:optimizeQuality; fill-rule:evenodd; clip-rule:evenodd"
viewBox="0 0 6222.98 1515.52"
 xmlns:xlink="http://www.w3.org/1999/xlink"
 xmlns:xodm="http://www.corel.com/coreldraw/odm/2003">
 <defs>
  <style type="text/css">
   <![CDATA[
    .fil0 {fill:#003B70;fill-rule:nonzero}
   ]]>
  </style>
 </defs>
 <g id="Layer_x0020_1">
  <metadata id="CorelCorpID_0Corel-Layer"/>
  <g id="_1926505946800">
   <path class="fil0" d="M254.59 175.74c-62.11,0 -111.75,49.69 -111.75,111.76l0 948.98c0,62.11 49.68,111.76 111.75,111.76l1999.4 0c62.11,0 111.75,-49.69 111.75,-111.76l0 0 0 -950.01c0,-62.11 -50.71,-111.75 -111.75,-111.75 0,1.02 -1999.4,1.02 -1999.4,1.02zm1999.4 1312.21l-1999.4 0c-138.69,0 -251.47,-112.82 -251.47,-251.47l0 -948.98c0,-138.69 112.82,-251.47 251.47,-251.47l1999.4 0c138.68,0 251.46,112.82 251.46,251.47l0 948.98c0,138.69 -112.82,251.47 -251.46,251.47l0 0z"/>
   <path class="fil0" d="M2155.68 1022.29l-310.5 0 0 -629.19c0,-20.7 -16.56,-37.26 -37.26,-37.26l0 0 -70.35 -0.05c-20.7,0 -37.26,16.56 -38.28,37.27 0,0 0,0 0,0l0 736.84c0,20.7 16.56,37.26 37.26,37.26 0,0 0,0 0,0l419.13 0c20.7,0 37.27,-16.56 37.27,-37.26l0 -70.39c1.02,-19.63 -16.61,-37.22 -37.27,-37.22 0,0 0,0 0,0l0 0zm-589.92 -629.23c0,-20.71 -16.56,-37.27 -37.26,-37.27 0,0 0,0 0,0l-419.09 0c-20.7,0 -37.26,16.56 -37.26,37.27l0 736.84c0,20.7 16.56,37.26 37.26,37.26l419.13 0c20.71,0 37.27,-16.56 37.27,-37.26l0 -70.39c0,-20.7 -16.56,-37.27 -37.27,-37.27l-310.49 0.05 0 -188.33 170.78 -0.04c20.71,-1.03 36.24,-17.59 36.24,-37.27l0 -70.39c0,-20.7 -16.56,-37.26 -37.26,-37.26l-169.76 0.04 0 -188.33 310.49 -0.04c20.71,0 38.29,-16.57 38.29,-37.27 0,0 0,-1.02 0,-1.02 -1.07,1.07 -1.07,-69.32 -1.07,-69.32zm-628.16 510.18c-2.05,-17.59 -6.19,-35.18 -12.42,-51.74 -25.87,-58.99 -73.46,-104.54 -133.48,-129.38 -37.26,-13.45 -74.53,-23.82 -113.84,-30.01 -23.82,-5.16 -47.6,-9.3 -71.42,-14.47 -19.67,-4.14 -39.31,-10.33 -56.89,-19.68 -22.76,-12.42 -46.58,-24.84 -55.88,-50.71 -6.19,-17.58 -4.14,-37.26 5.16,-53.82 14.47,-21.73 36.25,-37.27 60.02,-46.57 52.76,-23.82 112.82,-22.76 164.55,2.04 6.19,3.12 13.45,7.26 19.68,12.43 13.45,10.32 25.87,21.72 36.24,35.17 8.29,10.33 17.59,18.61 28.99,25.87 13.44,7.25 27.96,10.32 42.43,9.3 24.84,0 58.99,-4.14 73.46,-26.89 4.14,-6.19 6.19,-12.42 7.26,-19.68 0,-9.3 -1.03,-18.61 -4.14,-27.96 -4.14,-15.54 -11.4,-30.01 -20.71,-43.45 -13.44,-18.61 -28.98,-35.18 -45.54,-49.69 -4.14,-4.14 -9.31,-6.19 -13.45,-10.33 -72.44,-51.73 -161.44,-76.58 -249.41,-67.27 -45.55,5.16 -90.03,19.68 -130.41,41.4 -33.12,18.61 -62.11,44.48 -83.83,74.53 -27.96,38.29 -43.46,84.86 -42.43,133.48 2.05,47.6 19.68,93.14 50.71,129.38 15.54,17.59 33.12,33.13 52.76,45.55 60.01,34.15 162.46,56.9 245.27,76.58 30.01,7.25 57.97,13.44 81.74,35.17 7.26,8.28 13.45,17.59 16.56,27.96 14.47,44.48 -20.7,81.74 -55.87,100.4 -18.61,9.3 -37.27,15.53 -57.97,18.61 -24.84,4.14 -50.71,4.14 -75.55,-1.03 -19.68,-3.11 -38.29,-9.3 -55.88,-17.58 -17.58,-11.4 -33.12,-26.89 -44.48,-45.55 -4.14,-6.19 -8.28,-12.42 -13.44,-17.59 -14.47,-11.39 -32.1,-16.56 -49.69,-14.47 -11.4,0 -21.72,1.03 -32.1,3.12 -9.3,2.05 -18.61,4.14 -27.96,8.28 -9.3,4.14 -16.56,11.4 -21.73,20.7 -3.11,8.29 -5.16,17.59 -4.14,26.9 0,2.04 0,5.16 1.03,7.25 2.05,13.45 6.19,25.87 13.44,38.29 15.54,26.89 35.18,50.71 59,70.39 7.25,6.19 14.47,11.4 22.75,16.56 12.42,9.31 25.86,16.57 40.38,23.82 47.59,21.73 98.3,33.13 150.04,34.15 30.01,0 60.01,-4.14 89,-11.4 51.73,-11.39 99.33,-36.24 137.62,-72.43 11.39,-10.33 20.7,-21.73 30,-34.15 32.15,-48.66 47.69,-105.56 44.57,-161.48l0 0zm1940.41 -476.03c-47.59,2.04 -93.14,-19.68 -122.12,-56.9l45.54 -40.39c19.68,23.82 49.69,37.27 80.72,36.25 37.26,0 54.85,-10.33 54.85,-34.15 0,-19.68 -10.33,-30.01 -70.39,-42.43 -58.99,-13.45 -98.3,-32.1 -98.3,-94.17 0,-56.9 50.71,-92.11 111.75,-92.11 43.45,-1.03 84.86,16.56 113.84,49.68l-45.55 44.48c-17.58,-20.7 -44.47,-32.1 -71.41,-32.1 -33.12,0 -44.48,14.47 -44.48,27.96 0,19.68 13.45,25.87 63.14,37.27 49.68,11.39 104.53,28.98 104.53,97.28 1.03,58.99 -36.24,99.33 -122.12,99.33zm367.4 -227.69c-10.33,-21.73 -33.13,-35.17 -56.9,-34.15 -46.57,0 -73.46,41.41 -73.46,99.33 0,57.92 26.89,99.33 73.46,99.33 27.96,0 44.47,-12.42 61.04,-40.38l52.76 31.03c-20.71,45.55 -66.25,73.46 -115.9,70.39 -81.74,0 -137.61,-63.13 -137.61,-161.44 0,-95.19 56.9,-161.44 139.71,-161.44 48.62,-3.11 94.16,24.85 114.86,69.32l-57.96 28.01zm312.5 222.52l0 -131.43 -128.32 0 0 131.43 -63.13 0 0 -313.57 63.13 0 0 120.03 128.32 0 0 -120.03 63.13 0 0 313.57 -63.13 0 0 0zm409.82 0l-61.04 0 -38.29 -161.44c-4.14,-18.61 -9.3,-42.43 -10.32,-53.82 -2.05,17.58 -6.19,36.24 -10.33,53.82l-39.32 161.44 -59.03 0 -65.18 -313.57 65.18 0 26.89 153.16c3.11,14.47 6.19,38.29 7.26,51.73 2.04,-13.44 7.25,-36.24 10.32,-51.73l37.27 -153.16 54.85 0 37.27 153.16c3.11,14.47 8.28,38.29 10.33,51.73 1.02,-13.44 5.16,-37.26 7.25,-51.73l26.89 -153.16 64.16 0 -64.16 313.57zm128.32 0l0 -313.57 218.38 0 0 61.04 -155.25 0 0 53.83 90.07 0 0 61.04 -90.07 0 0 75.55 161.44 0 0 61.04 -224.57 1.07 0 0zm295.98 0l0 -313.57 63.13 0 0 313.57 -63.13 0zm279.42 -251.46l0 251.46 -62.11 0 0 -251.46 -90.02 0 0 -62.11 243.22 0 0 62.11 -91.09 0 0 0zm130.41 251.46l0 -55.87 134.54 -161.44c10.33,-12.42 27.96,-33.13 36.24,-40.38 -12.42,0 -45.54,1.02 -63.13,1.02l-98.35 0 0 -56.9 236.99 0 0 55.88 -133.47 160.41c-10.33,12.42 -27.96,33.12 -36.25,40.38 12.43,0 45.55,-1.02 63.14,-1.02l107.61 -0.05 0 56.9 -247.32 0.05 0 1.02zm317.71 0l0 -313.57 217.31 0 0 61.04 -154.18 0 0 53.83 90.02 0 0 61.04 -90.02 0 0 75.55 161.44 0 0 61.04 -224.57 1.07 0 0zm472.91 0l-55.87 -113.84 -63.14 0 0 112.82 -63.13 0 0 -313.57 145.94 0c59,0 107.61,33.12 107.61,99.33 0,46.57 -19.67,76.57 -60.01,92.11l60.01 122.13 -71.41 0 0 1.02zm-37.22 -252.53l-81.79 0 0 80.72 81.79 0c30.01,0 44.48,-13.45 44.48,-40.38 0,-26.94 -16.56,-40.34 -44.48,-40.34zm-2778.67 749.26l0 -314.59 217.31 0 0 61.04 -155.2 0 0 53.83 90.02 0 0 62.11 -89 0 0 75.55 161.44 -0.04 0 61.04 -224.57 1.06 0 0zm489.52 0l-114.87 -170.74c-7.26,-11.4 -17.58,-26.89 -21.72,-35.17 0,11.4 1.02,50.71 1.02,68.3l0 137.61 -62.11 0 0 -314.59 60.02 0 110.72 165.58c7.26,11.4 17.59,26.89 21.73,35.17 0,-11.4 -1.02,-50.71 -1.02,-68.3l0 -132.45 62.1 0 0 314.59 -55.87 0 0 0zm257.65 5.17c-81.74,0 -137.62,-63.13 -137.62,-161.44 0,-95.19 56.9,-161.44 139.71,-161.44 64.16,0 98.31,30.01 117.98,78.68l-58.99 24.84c-11.39,-23.82 -25.86,-40.38 -60.01,-40.38 -46.57,0 -73.46,41.4 -73.46,99.33 0,57.92 26.89,100.39 73.46,100.39 43.45,0 57.97,-20.7 61.04,-47.59l-49.69 0 0 -58.99 112.82 0 0 41.4c0,79.7 -52.8,125.2 -125.24,125.2l0 0zm196.65 -5.17l0 -314.59 63.14 0 0 314.59 -63.14 0zm345.63 0l-114.87 -170.74c-7.26,-11.4 -17.58,-26.89 -21.73,-35.17 0,11.4 1.03,50.71 1.03,68.3l0 137.61 -62.07 0 0 -314.59 60.02 0 110.73 165.58c7.25,11.4 17.58,26.89 21.72,35.17 0,-11.4 -1.02,-50.71 -1.02,-68.3l0 -132.45 62.06 0 0 314.59 -55.87 0 0 0zm136.64 0l0 -314.59 217.31 0 0 61.04 -154.23 0 0 53.83 90.07 0 0 62.11 -90.07 0 0 75.55 161.49 -0.04 0 61.04 -224.57 1.06 0 0zm291.8 0l0 -314.59 217.35 0 0 61.04 -155.25 0 0 53.83 90.03 0 0 62.11 -90.03 0 0 75.55 161.44 -0.04 0 61.04 -223.54 1.06 0 0zm472.95 0l-55.87 -112.81 -62.11 0 0 112.81 -63.13 0 0 -314.59 145.94 0c58.99,0 107.61,33.13 107.61,99.33 0,46.57 -19.68,76.58 -60.01,92.12l60.01 122.12 -72.44 1.02 0 0zm-37.26 -252.48l-80.72 0 0 80.72 81.74 0c30.01,0 44.48,-13.45 44.48,-40.38 0.05,-27.96 -17.54,-40.34 -45.5,-40.34l0 0zm180.09 252.48l0 -314.59 63.13 0 0 314.59 -63.13 0zm345.63 0l-114.87 -170.74c-7.26,-11.4 -17.59,-26.89 -21.73,-35.17 0,11.4 1.03,50.71 1.03,68.3l0 137.61 -62.07 0 0 -314.59 60.02 0 110.73 165.58c7.25,11.4 17.58,26.89 21.72,35.17 0,-11.4 -1.02,-50.71 -1.02,-68.3l0 -132.45 62.06 0 0 314.59 -55.87 0 0 0zm257.69 5.17c-81.74,0 -137.62,-63.13 -137.62,-161.44 0,-95.19 56.9,-161.44 139.71,-161.44 64.16,0 98.31,30.01 117.99,78.68l-58.99 24.84c-11.4,-23.82 -25.87,-40.38 -60.02,-40.38 -46.57,0 -73.46,41.4 -73.46,99.33 0,57.92 26.89,100.39 73.46,100.39 43.45,0 57.97,-20.7 61.04,-47.59l-49.69 0 0 -58.99 113.85 0 0 41.4c0,79.7 -53.83,125.2 -126.27,125.2zm-2936.99 491.57l0 -313.57 63.13 0 0 251.46 157.3 0.04 0 62.11 -220.43 -0.04 0 0zm486.4 0l-24.84 -70.39 -114.87 0.04 -24.84 70.39 -67.27 -0.04 120.03 -313.57 61.08 0 119.01 313.57 -68.3 0 0 0zm-66.25 -186.28c-6.19,-18.61 -12.42,-37.27 -15.53,-48.62 -3.12,11.4 -9.31,30.01 -15.54,48.62l-20.71 56.9 71.46 0.04 -19.68 -56.94zm336.37 186.28l-142.83 0 0 -313.57 143.85 0c61.04,0 99.33,30.01 99.33,82.81 1.03,24.84 -12.42,47.59 -33.12,61.04 27.96,11.4 45.54,38.29 44.47,68.3 0.05,66.25 -44.47,101.42 -111.7,101.42l0 0zm-1.07 -256.63l-79.65 0 0 58.99 82.77 0c25.86,0 35.17,-12.42 35.17,-30 0,-18.66 -11.35,-28.99 -38.29,-28.99l0 0zm3.12 115.89l-83.84 0 0 80.72 83.84 0c30,0 44.47,-16.56 44.47,-40.38 1.07,-26.89 -13.44,-40.34 -44.47,-40.34l0 0zm290.82 145.95c-81.75,0 -137.62,-60.02 -137.62,-161.44 0,-101.42 56.9,-162.46 138.68,-162.46 81.75,0 137.62,60.01 137.62,161.44 0,101.42 -56.94,162.46 -138.68,162.46zm0 -261.84c-44.48,0 -73.47,35.18 -73.47,99.33 0,64.16 30.01,100.4 73.47,100.4 43.45,0 73.46,-35.17 73.46,-99.33 0,-64.16 -30.01,-100.4 -73.46,-100.4l0 0zm383.91 256.63l-55.88 -112.82 -63.13 0.04 0 112.82 -63.13 -0.04 0 -313.57 145.94 0c59,0 107.61,33.12 107.61,99.33 0,46.57 -19.68,76.58 -60.01,92.11l60.01 122.13 -71.41 0 0 0zm-37.27 -253.56l-81.74 0 0 80.72 81.74 0.05c30.01,0 44.48,-13.45 44.48,-40.38 0,-26.94 -16.52,-40.39 -44.48,-40.39zm377.78 253.56l-24.85 -70.39 -114.87 0.04 -24.84 70.39 -67.27 -0.04 120.03 -313.57 61.08 0 119.01 313.57 -68.29 0 0 0zm-66.25 -186.28c-6.19,-18.61 -12.43,-37.27 -15.54,-48.62 -3.12,11.4 -9.31,30.01 -15.54,48.62l-19.68 56.9 71.46 0.04 -20.7 -56.94zm283.56 -66.21l0 251.46 -63.13 0 0 -251.46 -90.03 0 0 -62.11 243.18 0 0 62.11 -90.02 0zm255.6 257.7c-81.74,0 -137.62,-60.02 -137.62,-161.44 0,-101.42 56.9,-162.46 138.69,-162.46 81.74,0 137.62,60.01 137.62,161.44 0,101.42 -56.95,162.46 -138.69,162.46zm0 -261.84c-44.48,0 -73.46,35.18 -73.46,99.33 0,64.16 30.01,100.4 73.46,100.4 43.45,0 73.46,-35.17 73.46,-99.33 0,-64.16 -30.01,-100.4 -73.46,-100.4l0 0zm383.96 256.63l-55.88 -112.82 -63.13 0.04 0 112.82 -63.13 -0.04 0 -313.57 145.9 0c58.99,0 107.61,33.12 107.61,99.33 0,46.57 -19.68,76.58 -60.02,92.11l60.02 122.13 -71.37 0 0 0zm-37.27 -253.56l-81.74 0 0 80.72 81.74 0.05c30.01,0 44.48,-13.45 44.48,-40.38 0,-26.94 -16.52,-40.39 -44.48,-40.39l0 0zm180.05 253.56l0 -313.57 63.13 0 0 313.57 -63.13 0zm147.99 0l0 -313.57 217.36 0 0 61.04 -155.25 0.04 0 53.83 90.02 -0.04 0 61.04 -90.02 0.04 0 75.55 161.44 0 0 61.04 -223.55 1.03 0 0zm391.22 5.21c-47.6,2.05 -93.14,-19.68 -122.13,-56.9l45.55 -40.38c19.68,23.82 49.69,37.26 80.72,36.24 37.26,0 54.85,-10.33 54.85,-34.15 0,-19.68 -10.33,-30.01 -70.39,-42.43 -58.99,-13.45 -98.3,-32.1 -98.3,-94.16 0,-56.9 50.71,-92.12 111.75,-92.12 43.45,-1.03 84.86,16.56 113.84,49.69l-45.55 44.47c-17.58,-20.7 -44.47,-32.1 -71.41,-32.1 -33.12,0 -44.48,14.47 -44.48,27.96 0,19.68 13.45,25.87 63.14,37.27 49.68,11.4 104.53,28.98 104.53,97.28 1.03,58.95 -36.24,99.33 -122.12,99.33l0 0z"/>
  </g>
 </g>
</svg>
