<?xml version="1.0" encoding="UTF-8"?>
<!DOCTYPE svg PUBLIC "-//W3C//DTD SVG 1.1//EN" "http://www.w3.org/Graphics/SVG/1.1/DTD/svg11.dtd">
<!-- Creator: CorelDRAW 2020 (64-Bit) -->
<svg xmlns="http://www.w3.org/2000/svg" xml:space="preserve" width="64.3466mm" height="25.2306mm" version="1.1" style="shape-rendering:geometricPrecision; text-rendering:geometricPrecision; image-rendering:optimizeQuality; fill-rule:evenodd; clip-rule:evenodd"
viewBox="0 0 6434.66 2523.06"
 xmlns:xlink="http://www.w3.org/1999/xlink"
 xmlns:xodm="http://www.corel.com/coreldraw/odm/2003">
 <defs>
  <style type="text/css">
   <![CDATA[
    .fil2 {fill:#0060A9}
    .fil0 {fill:#5B5B5B}
    .fil5 {fill:#5C5C5C}
    .fil6 {fill:#5D5D5D}
    .fil4 {fill:#67B337}
    .fil3 {fill:#EB691F}
    .fil1 {fill:#F8B001}
   ]]>
  </style>
 </defs>
 <g id="Layer_x0020_1">
  <metadata id="CorelCorpID_0Corel-Layer"/>
  <g id="_2547231781344">
   <path class="fil0" d="M3473.02 1829.51c0,65.08 4.72,89.63 36.28,142.46 23.4,39.17 40.88,55.21 79.92,78.95 107.27,65.24 263.59,27.8 378.19,-14.98 48.6,-18.13 37.17,-0.98 61.76,-97.11 5.32,-20.81 9.15,-39.7 14.79,-59.68l34.26 -124.64c21.51,-73.71 32.72,-54.09 -252.7,-54.09 -25.44,0 -29.4,66.04 -42.17,107.36 -12.34,39.94 -19.62,31.66 111.68,31.66 -0.3,13.61 -13.18,66.04 -18.1,76.23 -19.85,41.13 -235.11,43.87 -235.11,-96.09 0,-70.61 6.57,-116.96 51.6,-176.78 28.06,-37.28 60.33,-62.94 103.89,-84.78 69.29,-34.73 151.02,-34.68 216.28,13.91 10.52,7.83 18.01,12.99 26.21,23.44 11.27,14.39 7.79,14.74 24.03,25.62 3.09,-13.24 10.03,-27.43 14.95,-39.67l44.63 -129.14c-38.9,-10.38 -52.34,-59.58 -208.52,-59.58 -224.93,0 -441.87,214.99 -441.87,436.91z"/>
   <path class="fil0" d="M5116.37 1923.84l87.13 -329.91c11.2,-41.69 1.19,-37.49 56.85,-37.49 219.07,0 179.53,221.94 70.35,308.66 -54.5,43.29 -118.11,58.74 -214.33,58.74zm-193.63 139.02c247.86,0 348.66,24.7 529.79,-125.58l61.79 -72.25c45.91,-66.44 68.74,-136.78 68.74,-229.15 0,-90.48 -52.21,-145.21 -109.36,-178.59 -91.13,-53.23 -249.96,-44.83 -367.26,-44.83 -18.44,0 -23.23,38.2 -31.8,72.47 -7.4,29.59 -15.07,55.47 -21.81,82.44 -14.32,57.34 -29.55,107.52 -43.72,164.8l-86.37 330.69z"/>
   <path class="fil0" d="M2172.24 2062.86c181.56,0 136.8,20.83 165.59,-77.68l67.75 -264.9c24.72,6.6 60.64,66.85 76.57,87.27l185.92 231.13c6.72,8.44 10.17,12.53 17.75,21.97 11.18,13.9 13.22,10.42 17.65,27.03l24.82 0 65.19 -247.6c7.91,-28.36 13.84,-56.61 22.51,-86.72l66.79 -250.95c7.96,-27.05 19.28,-55.16 19.28,-89.95 -165.76,0 -140.06,-21.36 -164.84,78.44l-60.65 232.27c-12.98,47.33 -4.03,31.72 -17.78,41.79 -5.48,-20.5 -245.74,-313.92 -281.89,-358.56 -10.36,-12.79 -9.84,-13.33 -30.89,-13.8l-132.33 498.21c-8.92,30.52 -40.89,147.44 -41.44,172.05z"/>
   <path class="fil0" d="M4331.93 1710.35c5.23,-10.9 44.37,-159.48 44.68,-173.77 80.35,0 172.67,4.36 117.73,112.77 -30.8,60.77 -100.38,61 -162.41,61zm-243.28 352.51c139.83,0 146.04,13.43 156.51,-22.24 4,-13.64 4.67,-17.96 8.43,-31.28 5.4,-19.14 12.44,-47.46 17.72,-66.68l35.8 -133.01c19.69,1.64 18.7,5.01 25.16,19.52l93.99 233.69 183.7 0 -29.85 -69.45c-9.96,-22.27 -20.53,-43.45 -31.1,-68.19 -10.28,-24.06 -56.8,-123.44 -58.2,-140.4 58.55,-30.98 59.46,-25.45 110.57,-78.08 66.2,-68.15 100.25,-215.35 -27.69,-272.89 -59.95,-26.96 -227.61,-21.39 -306.3,-21.39 -17.59,0 -15.69,15.45 -19.07,30.58l-97.99 368.7c-11.64,41.12 -61.68,221.73 -61.68,251.12z"/>
   <path class="fil0" d="M1065.08 1884.12c0,102.75 27.29,158.37 118.42,189.41 31.27,10.64 44.32,7.01 82.47,12.25 11.12,1.54 70.13,-2.8 84.34,-5.79 21.84,-4.6 52.36,-15.18 70.66,-23.68 21.78,-10.13 40.76,-21.23 59.15,-35.18l47.92 -46.42c19.84,-21.57 25.74,-25.65 42.54,-51.78 52.67,-81.91 106.95,-316.82 136.02,-429.97 5.1,-19.83 17,-58.82 18.8,-80.5l-139.01 0c-10.87,20.55 -35,120.61 -42.64,150.99 -17.02,67.67 -61.51,251.77 -91.58,300.64 -59.37,96.48 -223.25,108.59 -223.25,-9.76 0,-63.99 59.63,-255.23 80.5,-336.54 33.03,-128.73 58.52,-105.33 -120.22,-105.33 -20.23,0 -19.72,33.77 -23.74,50.73 -4.95,20.9 -11,37.6 -16.61,57.87 -5.25,19 -9.46,38.42 -15.33,59.13l-31.62 117.33c-14.89,52.42 -36.82,133.84 -36.82,186.6z"/>
   <path class="fil1" d="M5527.89 662.78c-4.85,15.85 -12.7,16.81 -27.13,26.91 -9.08,6.34 -18.62,13.79 -28.3,21.29 -14.26,11.04 -44.3,34.21 -58.2,40.17 -31.3,25.02 -60.75,47.56 -90.64,74.19 -15.15,13.48 -29.83,25.33 -46.28,38.12 -17.67,13.73 -25,32.18 -48.11,37.63 -7.49,23.84 -61.23,60.3 -71.28,71.44 -19.01,21.05 -52.49,53.12 -76.33,68.44 -6.2,11.62 -49.65,200.59 -49.65,222.55l198.32 -183.97c35.83,-31.58 220.04,-189.22 246.15,-198.32 7.43,-14.66 13.08,-17.27 25.64,-26.33 13.03,-9.4 16.75,-12.1 29.06,-20.62 15.11,-10.45 41.01,-33.16 61.86,-37.94 9.78,-12.47 60.79,-43.35 78.44,-55.12 28.31,-18.88 53.69,-32.61 82.44,-51.61 26.46,-17.48 153.23,-89.01 181.69,-91.38l4.96 -6.73c62.33,-27.92 184.1,-68.28 263.14,-73.98 18.74,-7.06 32.77,-20.77 48.54,-34.59l94.74 -79.02c13.01,-10.53 41.23,-28.46 45.38,-43.99 -180.1,0 -344.02,38.4 -482.3,93.62 -131.19,52.4 -180.51,86.18 -290.63,151.24 -32.39,19.14 -59.62,42.18 -91.51,58z"/>
   <path class="fil0" d="M1650.93 2062.86l407.12 0c1.85,-22.3 14.07,-62.34 20.43,-83.83 22.1,-74.6 49.86,-55.19 -238.89,-55.19 68.56,-142.88 -64.44,-124.12 248.24,-124.12 10.99,-47.13 24,-87.86 34.76,-134.05l-213.49 0c8.85,-18.44 9.46,-33.72 14.79,-54.72 5.41,-21.35 14.45,-34.95 15,-59.47l253.21 0c0,-41.85 29.78,-91.32 29.78,-139.02l-387.25 0c-18.45,0 -23.23,38.2 -31.8,72.47 -7.54,30.15 -15.51,53.67 -22.85,81.41l-129.05 496.52z"/>
   <path class="fil0" d="M42.33 2062.86l158.87 0 33.66 -125.22c6.58,-23.17 11.09,-38.46 16.98,-62.46 5.4,-21.99 13.8,-43.76 18.87,-65.53l218.45 0c7.36,-15.33 34.3,-113.27 34.76,-134.05l-218.45 0c9.95,-42.72 24.92,-86.91 34.75,-129.09l248.24 0c1.52,-18.29 11.54,-46.07 16.85,-67.54 6.24,-25.19 12.36,-42.7 17.9,-66.51l-407.11 0c-6.29,27.02 -13.56,50.07 -21.64,77.66 -8.55,29.18 -12.87,53.94 -21.32,82.94l-130.81 489.8z"/>
   <path class="fil0" d="M2936.82 1551.48l208.52 0c-8.37,17.45 -11.36,39.7 -17.68,61.76 -6.72,23.43 -11.6,40.04 -17.07,62.36l-68.53 254.19c-7.54,30.48 -30.77,108.56 -30.77,133.07l158.87 0c0.49,-21.8 23.5,-98.7 30.78,-128.11 28.7,-116 77.15,-271.14 103.27,-383.27l203.56 0 29.8 -110.07c3.84,-12.55 11.02,-28.95 -9.94,-28.95l-531.23 0c-32.94,0 -26.49,20.12 -36.96,62.35 -4.61,18.62 -16.3,63.49 -22.62,76.67z"/>
   <path class="fil0" d="M548.74 2062.86l412.08 0c0.81,-36.36 26.34,-102.91 34.76,-139.02l-253.21 0 118.15 -442.87c5.33,-21.48 15.43,-47.58 15.9,-68.51 -202.49,0 -146.47,-30.68 -198.6,153.91 -15.45,54.7 -28.42,111.23 -44.07,164.45l-43.99 164.54c-7.41,31.65 -15.03,52.19 -22.26,82l-18.76 85.5z"/>
   <path class="fil2" d="M4982.32 227.25c27.47,4.32 91.53,66.78 113.26,83.97 24.13,19.09 82.43,74.35 94.97,103.31l5.26 4.97c59.17,68.07 123.64,166.73 167.27,244.81l51.18 86.84c13.9,-5.96 43.94,-29.13 58.2,-40.17 9.68,-7.5 19.22,-14.95 28.3,-21.29 14.43,-10.1 22.28,-11.06 27.13,-26.91l-123.54 -198.61c-108.62,-164.02 -241.71,-291.75 -405.12,-399.19 -18.09,-11.89 -88.71,-53.47 -106.27,-57.56 1.47,17.74 33.8,91.77 43.02,110.89 17.31,35.9 31.4,72.84 46.34,108.94z"/>
   <path class="fil0" d="M4669.54 2062.86l158.87 0 85.46 -321.66c8.93,-34.77 82.75,-301.85 83.35,-328.74 -191.61,0 -150.68,-16.29 -175.87,72.38l-151.81 578.02z"/>
   <path class="fil3" d="M5081.62 1040.97c23.84,-15.32 57.32,-47.39 76.33,-68.44 10.05,-11.14 63.79,-47.6 71.28,-71.44 22.22,-35.06 20.84,-196.01 15.98,-257.93l-33.85 -169.7c-5.63,-17.99 -13.91,-34.22 -15.55,-53.96l-5.26 -4.97c-12.54,-28.96 -70.84,-84.22 -94.97,-103.31 -21.73,-17.19 -85.79,-79.65 -113.26,-83.97 13.73,21.67 24.5,54.69 36.47,81.31 11.45,25.44 24.19,62.88 31.91,87.24 51.18,161.41 55.15,253.48 55.86,425.96 0.08,19.88 -3.98,93.32 -7.92,111.24 -6.17,28.08 -17.02,78.87 -17.02,107.97z"/>
   <path class="fil4" d="M5940.53 591.5c0,8.3 2.37,6.73 -4.96,6.73 -41.3,61.68 -103.06,73.33 -205.23,291.26l-46.86 120.82c7.1,26.73 61.29,173.9 73.35,188.35 16.08,-32.28 36.7,-112.85 54.74,-153.47 39.56,-89.09 66.32,-150.62 119.93,-232.57 9.38,-14.35 19.26,-26.8 28.92,-40.59l98.03 -115.46c24.24,-24.21 44.75,-45.88 69.4,-69.61 23.01,-22.14 63.9,-48.69 75.82,-69.44 -79.04,5.7 -200.81,46.06 -263.14,73.98z"/>
   <path class="fil2" d="M5476.44 881.23c16.11,19.84 22.04,41.66 32.22,64.47l188.6 471.73c17.62,-12.92 26.41,-81.19 32.74,-106.27 9.81,-38.88 18.3,-74.75 26.83,-112.5 -12.06,-14.45 -66.25,-161.62 -73.35,-188.35 -21.66,-63.54 -50.62,-124.91 -78.93,-185.3 -5.41,-11.56 -6.96,-18.56 -11.55,-28.67 -20.85,4.78 -46.75,27.49 -61.86,37.94 -12.31,8.52 -16.03,11.22 -29.06,20.62 -12.56,9.06 -18.21,11.67 -25.64,26.33z"/>
   <path class="fil5" d="M4113.48 2509.69c33.74,0 29.66,1.69 43.67,-50.66 11.68,-43.66 27.54,-124.73 73.71,-135.66 67.58,-15.99 -13.12,120.56 -13.12,186.32 48.98,0 42.01,11.51 71.6,-107.13 23.67,-94.9 87.27,-89.77 87.27,-66.64 0,22.47 -27.04,108.64 -36.03,138.08 -10.64,34.83 -16.29,35.69 26.11,35.69 19.53,0 22.41,-42.3 35.38,-83.77 25.34,-81.03 50.14,-144.61 -30.42,-144.61 -26.5,0 -51.79,25.05 -64.54,39.71 -3.32,-39.91 -27.44,-39.71 -54.61,-39.71 -29.17,0 -41.94,22.94 -59.58,34.75 7.1,-30.51 20.76,-34.75 -19.86,-34.75 -20.14,0 -34.46,77.19 -44.7,114.17 -5.78,20.87 -11.19,39.26 -17.71,61.75 -5.72,19.73 -23.38,52.46 2.83,52.46z"/>
   <path class="fil6" d="M1695.61 2311.1l0 0zm0 0c0.34,-15.13 2.24,-18.1 4.97,-29.79l-34.75 0c-21.12,31.53 -40.65,126.36 -54,169.41 -5.86,18.9 -13.7,37.22 -15.51,58.97l44.68 0 32.71 -116.24c10.53,-30.49 38.27,-85.81 76.52,-67.46 12.48,26.01 -4.34,65.59 -12.03,92.24 -5.01,17.35 -8.62,25.66 -12.39,42.21 -4.54,19.93 -9.88,28.49 -10.34,49.25 45.33,0 43.02,6.54 52.06,-32.35 7.56,-32.52 27.54,-103.32 44.93,-128.84 12.18,-17.86 33.39,-33.8 56.92,-22.51 15.76,15.76 -26.22,134.33 -34.95,164.91 -7.56,26.51 7.7,18.79 39.92,18.79l48.71 -170.16c6.25,-40.38 -10.44,-59.94 -48.63,-58.78 -38.79,1.18 -46.56,24.85 -69.59,40.27 -2.4,-28.85 -16.65,-41.27 -49.56,-40.27 -34.13,1.04 -39.95,17.14 -59.67,30.35z"/>
   <path class="fil5" d="M4565.28 2479.9l-4.97 4.97 4.97 -4.97zm0 0l0 0zm-44.68 -4.97c-66.06,0 -24.1,-148.94 44.68,-148.94 54.43,0 12.46,148.94 -44.68,148.94zm39.71 9.94c-2.64,31.71 -9.5,24.82 34.76,24.82 8.21,-15.53 63.93,-201.25 64.54,-228.38l-39.72 0c-6.32,13.18 -4.53,5.31 -4.96,24.82l-17.88 -11.91c-0.81,-0.64 -1.8,-1.72 -2.62,-2.35 -84.35,-64.32 -199.14,133.93 -137.37,206.88 11.72,13.85 29.97,20.5 56.65,14.25 21.57,-5.06 31.94,-18.32 46.6,-28.13z"/>
   <path class="fil5" d="M1462.27 2474.93c-59.61,0 -28.19,-83.75 -15.13,-109.46 27.75,-54.62 109.99,-68.4 74.33,44.55 -7.05,22.33 -31.69,64.91 -59.2,64.91zm-29.79 39.72c33.43,0 42.59,-11.76 69.51,-29.78 -4.09,19.29 -4.09,5.52 0,24.82l29.79 0c16.16,-24.14 59.08,-183.65 69.5,-228.38 -44,0 -41.63,-0.61 -50.38,19.12 -0.46,1.04 -1,2.62 -1.4,3.57 -0.39,0.95 -1.09,2.78 -1.41,3.56 -0.31,0.77 -0.74,2.46 -1.42,3.54 -13.65,-51.14 -111.28,-44.7 -154.01,69.41 -17.19,45.91 -24.99,134.14 39.82,134.14z"/>
   <path class="fil6" d="M3110.59 2484.87l0 0zm-39.72 -9.94c-13.41,0 -13.69,-2.36 -24.82,-4.96 -48.43,-100.91 94.33,-198.23 94.33,-109.23 0,44.19 -28.93,114.19 -69.51,114.19zm39.72 9.94c-7.33,31.45 -2.85,24.82 34.75,24.82 7.65,-15.93 10.39,-33.25 16.76,-52.75 12.76,-39.07 42.82,-141.06 42.82,-175.63l-39.72 0c-2.72,11.69 -4.63,14.66 -4.96,29.79 -10.75,-12.36 -19.73,-26.81 -40.24,-29.69 -28.15,-3.96 -42.91,5.35 -58.29,15.56 -83.76,55.62 -107.1,241.66 2.27,216.03 21.58,-5.06 31.94,-18.32 46.61,-28.13z"/>
   <path class="fil5" d="M4967.43 2474.93c-13.41,0 -13.69,-2.36 -24.83,-4.96 -25.87,-53.93 12.95,-153.91 69.51,-153.91 44.02,0 19.93,92.26 6.75,115.97 -8.93,16.06 -30.22,42.9 -51.43,42.9zm-84.41 -39.71c0,55.02 21.97,79.43 74.48,79.43 106.55,0 180.86,-205.55 85.23,-234.52 -88.51,-26.81 -159.71,82.47 -159.71,155.09z"/>
   <path class="fil5" d="M3840.42 2474.93c-75.26,0 -16.41,-158.87 39.71,-158.87 66.96,0 11.91,158.87 -39.71,158.87zm-19.86 39.72c129.46,0 203.71,-238.31 64.54,-238.31 -55.81,0 -100.25,55.05 -114.92,98.57 -18.61,55.2 -26.39,139.74 50.38,139.74z"/>
   <path class="fil5" d="M2102.73 2375.64c14.7,-63.11 99.3,-91.39 99.3,-14.9 0,24.32 -50.69,14.9 -99.3,14.9zm-59.58 59.58c0,130.62 147.4,72.78 158.88,29.79l-15.75 -19.1c-27.28,6.67 -28.81,29.02 -68.66,29.02 -34.6,0 -29.85,-47.92 -24.82,-69.5 26.48,0 52.97,-0.07 79.44,0 31.79,0.1 61.85,7.66 68.5,-15.93 13.94,-49.48 -1.13,-112.6 -61.93,-112.43 -1.18,0.01 -2.6,0.14 -3.74,0.16 -35.88,0.88 -61.55,13.01 -86.18,39.89 -21.35,23.3 -45.74,74.76 -45.74,118.1z"/>
   <path class="fil5" d="M1233.89 2375.64c4.68,-56.3 99.29,-96.02 99.29,-14.9 0,24.32 -50.68,14.9 -99.29,14.9zm-59.58 44.68c0,53.22 -2.62,94.33 74.47,94.33 31.84,0 70.64,-24.13 84.4,-44.68 -4.35,-16.31 -7.2,-16.35 -19.86,-24.82 -24.01,6.41 -28.48,29.78 -59.58,29.78 -38.29,0 -34.75,-28.8 -34.75,-54.61 0,-31.9 83.12,-4.52 148.95,-19.86 2.81,-33.84 17.77,-79.65 -13.84,-105.32 -81.37,-66.08 -179.79,50.26 -179.79,125.18z"/>
   <path class="fil5" d="M5185.88 2311.1l0 0zm0 0c7.15,-30.69 7.33,-29.79 -29.79,-29.79 -12.96,19.36 -16.12,34.13 -22.87,61.53 -43.14,175.34 -72.58,166.85 -1.95,166.85 14.56,-30.35 30.87,-137.51 63.08,-170.26 6.95,-7.07 84.19,-55.77 51.77,41.82 -5.83,17.55 -11.04,36.58 -15.58,53.94l-16.35 54.43c-7.15,27.67 10.43,20.07 41.2,20.07l47.81 -166.08c7.64,-34.72 -7.28,-60.12 -37.95,-62.65 -40.36,-3.33 -56.86,15.06 -79.37,30.14z"/>
   <path class="fil5" d="M3304.21 2311.1l0 0zm0 0l5.72 -29.63 -40.47 -0.16c-5.65,11.77 -11.52,37.7 -15.97,53.53l-48.57 174.85 44.68 0 33.3 -115.64c13.79,-39.73 30.2,-71.9 80.89,-73.03 16.51,31.21 4.3,51.98 -14.31,109.81 -5.73,17.78 -10.59,37.75 -15.63,55.02 -9.25,31.73 4.11,23.84 39.87,23.84l23.84 -80.42c16.34,-59.9 52.01,-141.52 -14.01,-148.27 -40.78,-4.17 -58,15.81 -79.34,30.1z"/>
   <path class="fil5" d="M3463.09 2360.74c0,59.16 90.41,44.84 94.33,79.44 1.37,12.1 -38.63,63.92 -88.78,14.31 -6.07,-6 -3.13,-4.4 -10.52,-9.34 -15.41,8.15 -20.3,16 -34.75,19.86 6.51,78.19 178.73,63.57 178.73,-39.72 0,-40.47 -64.25,-62.5 -94.33,-69.51 0.73,-32.85 16.82,-39.72 44.69,-39.72 16.03,0 24.64,17.42 34.75,24.82 20.67,-4.81 24.5,-9.51 34.75,-24.82 -4.88,-18.29 -18.63,-28.53 -35.15,-34.59 -33.34,-12.22 -74.88,-1.83 -101.69,26.83 -13.55,14.49 -22.03,26.96 -22.03,52.44z"/>
   <path class="fil5" d="M2276.5 2360.74c0,62.62 89.37,37.49 89.37,84.41 0,20.39 -27.3,29.78 -49.65,29.78 -28.06,0 -29.01,-18.3 -44.69,-29.78 -12.8,3.41 -27.96,15.56 -34.75,24.82 22.54,84.41 178.73,40.76 178.73,-44.68 0,-67.1 -127.89,-46.85 -86.99,-96.92 13.86,-16.97 37.78,-14.53 53.9,-4.04 14.98,9.74 2.57,5.1 18.2,16.55 16.06,-4.29 26.62,-12.68 34.75,-24.82 -18,-67.4 -158.87,-46.99 -158.87,44.68z"/>
   <path class="fil5" d="M2465.16 2360.74c0,56.56 94.33,51.84 94.33,74.48 0,25.8 -22.74,39.71 -49.65,39.71 -26.49,0 -32.09,-18.03 -49.64,-29.78 -12.25,8.19 -23.24,17.11 -34.76,24.82 46.31,87.51 178.74,35.57 178.74,-44.68 0,-56.15 -71.59,-45.47 -94.34,-79.44 11.14,-41.69 65.5,-38.58 74.48,-4.97 19.41,-1.61 31.39,-12.39 39.72,-24.82 -18.84,-70.55 -158.88,-41.95 -158.88,44.68z"/>
   <path class="fil5" d="M1010.47 2350.82c0,82.85 89.37,49.92 89.37,89.36 0,34.06 -75.86,55.55 -89.37,4.97 -22.18,1.84 -29.85,14.88 -44.68,24.82 42.55,80.43 178.73,49.91 178.73,-54.61 0,-18.81 -26.5,-33.54 -40.26,-39.18 -26.21,-10.75 -49.11,-10.42 -49.11,-35.3 0,-26.23 58.67,-40.59 69.51,0 19.91,-1.65 35.81,-12.71 44.68,-24.82 -10.27,-15.34 -15.79,-23.93 -36.1,-33.53 -10.59,-5.01 -13.12,-5.89 -27.69,-5.86 -4.17,0.01 -8.38,0.58 -11.37,0.83 -41.96,3.47 -83.71,36.29 -83.71,73.32z"/>
   <path class="fil6" d="M3676.58 2340.88c-2.09,25.09 -14.02,58.78 -20.91,83.36 -7.47,26.71 -16.71,55.09 -23.78,85.45l44.69 0c9.64,-20.1 19.42,-58.03 25.86,-83.36 6.94,-27.3 17.32,-57.68 23.78,-85.45l44.69 0c16.92,-35.26 7.09,-54.82 -34.76,-34.75 3.1,-13.27 9.69,-40.6 19.27,-50.24 16.78,-16.92 25.56,-6.01 45.28,-4.37 4.53,-9.46 8.83,-26.51 9.93,-39.72 -37.24,-0.83 -85.9,-24.29 -114.64,69.29 -15.07,49.07 -15.92,1.72 -43.02,26.26 -6.79,6.15 -9.41,24.33 -7.87,27.27 5.45,10.4 16.43,6.26 31.48,6.26z"/>
   <path class="fil6" d="M4729.11 2281.31c-41.71,0 -49.64,-3.57 -49.64,39.71l34.75 0c-1.48,17.79 -6.78,31.17 -11.68,47.9 -4.94,16.84 -8.1,32.96 -12.51,47.07 -9.65,30.89 -17.91,61.31 -25.46,93.7l44.69 0c6.26,-13.07 11.83,-39.58 16.99,-57.48l33.04 -116.24c10.72,-28.72 11.03,-11 49.26,-19.91 0.49,-21.82 3.36,-15.46 4.97,-34.75l-39.72 0c7.46,-15.56 14.89,-45.64 14.89,-69.51 -52.34,0 -39.86,-2.21 -49.24,30.19 -4.43,15.29 -8.88,21.88 -10.34,39.32z"/>
   <path class="fil6" d="M2787.87 2321.02l-44.16 149.65c-13.5,39.79 -14.83,39.02 24.3,39.02 22.25,0 25.85,-50.82 36.43,-87.69 9.94,-34.65 20.16,-66.84 28.12,-100.98 42.02,0 48.7,2.68 49.64,-39.71l-34.75 0c0.67,-29.97 12.75,-43.66 14.9,-69.51l-44.69 0c-18.94,81.3 -13.8,66.79 -39.72,69.51 -20.6,2.16 -29.45,2.78 -28.33,26.41 0.93,19.68 14.76,13.3 38.26,13.3z"/>
   <path class="fil6" d="M2946.75 2316.06l0 0zm0 0c1.6,-19.29 4.48,-12.94 4.96,-34.75l-39.71 0c-15.6,32.5 -21.34,72.32 -32.94,111.04 -9.71,32.4 -28.85,84.14 -31.61,117.34 50.76,0 40.7,16.21 72.36,-96.44 7.64,-27.18 11.29,-39.77 25.98,-58.43 19.08,-24.24 26.81,-26.76 60.54,-18.9 8.79,-16.62 19.32,-30.68 19.86,-54.61 -49.3,0 -56.75,8.64 -79.44,34.75z"/>
   <path class="fil6" d="M3974.46 2509.69c43.58,0 28.49,3.14 58.41,-100.47 20.43,-70.72 42.46,-83.34 85.58,-73.3 8.79,-16.62 19.32,-30.68 19.85,-54.61 -55.06,0 -38.39,2.3 -79.43,29.79 2.72,-11.69 4.62,-14.67 4.96,-29.79 -49.16,0 -39.86,-2.6 -47.22,22.28 -3.99,13.45 -5.37,17.71 -9.17,30.55l-39.45 139.63c-4.44,17.27 -16.31,35.92 6.47,35.92z"/>
   <path class="fil6" d="M1933.92 2509.69c59.18,0 43.79,-1.56 63.94,-70.11l57.72 -201.03c13.46,-33.62 7.96,-31.72 -27.32,-31.72 -20.84,0 -18.45,33.86 -29.13,70.17 -7.74,26.31 -14.6,48.28 -22.67,76.63l-33.25 115.7c-4.35,13.11 -8.86,21.44 -9.29,40.36z"/>
   <path class="fil6" d="M4788.69 2509.69c51.6,0 30.52,-8.32 61.44,-102.4 6.94,-21.09 10.29,-35.81 15.96,-58.52 5.88,-23.59 12.08,-36.68 16.93,-57.53l-49.64 0 -46.62 171.86c-5.74,16.74 -22.18,46.59 1.93,46.59z"/>
   <path class="fil5" d="M4843.31 2226.69c0,45.19 -5.54,39.72 44.68,39.72 17.62,-26.3 19.86,-6.57 19.86,-49.64 -33.49,-17.73 -32.97,-11.22 -64.54,9.92z"/>
  </g>
 </g>
</svg>
