<?xml version="1.0" encoding="UTF-8"?>
<!DOCTYPE svg PUBLIC "-//W3C//DTD SVG 1.1//EN" "http://www.w3.org/Graphics/SVG/1.1/DTD/svg11.dtd">
<!-- Creator: CorelDRAW 2020 (64-Bit) -->
<svg xmlns="http://www.w3.org/2000/svg" xml:space="preserve" width="64.3466mm" height="25.2306mm" version="1.1" style="shape-rendering:geometricPrecision; text-rendering:geometricPrecision; image-rendering:optimizeQuality; fill-rule:evenodd; clip-rule:evenodd"
viewBox="0 0 6434.66 2523.06"
 xmlns:xlink="http://www.w3.org/1999/xlink"
 xmlns:xodm="http://www.corel.com/coreldraw/odm/2003">
 <defs>
  <style type="text/css">
   <![CDATA[
    .fil2 {fill:#00B5E7;fill-rule:nonzero}
    .fil0 {fill:#909091;fill-rule:nonzero}
    .fil1 {fill:#92C93F;fill-rule:nonzero}
   ]]>
  </style>
 </defs>
 <g id="Layer_x0020_1">
  <metadata id="CorelCorpID_0Corel-Layer"/>
  <g id="_1926534148288">
   <path class="fil0" d="M215.71 2242.4c-8.9,-40.37 -32.96,-60.21 -72.18,-59.53 -27.57,0.57 -47.62,11.65 -60.15,33.27 -12.86,21.37 -19.18,47.47 -18.97,78.29 0,14.21 1.35,27.8 4.04,40.77 2.79,13.53 7.25,25.64 13.36,36.33 11.91,23.31 33.14,35.19 63.68,35.65 19.88,-0.23 35.88,-6.88 48,-19.96 12.1,-12.51 20.29,-28.88 24.54,-49.13l22.52 0c-4.67,24.85 -14.72,45.62 -30.18,62.3 -15.57,17.47 -38.64,26.43 -69.24,26.88 -35.06,-0.68 -60.31,-13.98 -75.77,-39.88 -15.57,-25.1 -23.24,-55.89 -23.03,-92.36 0.21,-47.72 10.43,-81.82 30.66,-102.27 19.7,-20.21 45.07,-30.21 76.08,-29.99 49.48,0.23 79.14,26.78 88.99,79.63l-22.35 0z"/>
   <path class="fil0" d="M431.02 2425.57c-23,-0.23 -42.03,-8.41 -57.1,-24.54 -15.73,-15.8 -23.71,-39.37 -23.93,-70.73 0,-27.26 6.77,-49.88 20.3,-67.83 13.52,-17.83 33.77,-26.98 60.73,-27.44 27.28,0.46 47.68,9.61 61.22,27.44 13.3,17.95 19.97,40.57 19.97,67.83 -0.22,29.09 -7.54,51.98 -21.96,68.68 -14.4,17.5 -34.15,26.36 -59.23,26.59zm59.74 -95.19c0.23,-21.95 -4.3,-40.15 -13.57,-54.6 -9.26,-14.45 -24.66,-21.78 -46.17,-22.02 -21.18,0.46 -36.42,8.26 -45.68,23.39 -9.27,15.12 -13.9,32.87 -13.9,53.23 0,22.76 5.18,41.02 15.55,54.78 9.93,14.23 24.61,21.46 44.03,21.68 21.29,-0.22 36.68,-8.13 46.17,-23.72 9.05,-15.13 13.57,-32.71 13.57,-52.74zm145.2 90.25l-20.11 0 0 -180.83 20.14 0 0 27.14 0.65 0c12.39,-21.05 31.02,-31.68 55.91,-31.91 16.48,0.23 28.58,3.58 36.3,10.06 7.61,6.48 13.18,14.73 16.71,24.72 12.84,-23.19 32.5,-34.78 58.97,-34.78 12.61,0 22.61,1.94 30,5.8 7.5,3.97 13.06,9.37 16.7,16.19 3.75,6.7 6.37,14.26 7.84,22.66 1.14,8.75 1.7,17.67 1.7,26.76l0 114.19 -20.11 0 0 -124.94c0,-13.06 -2.69,-23.29 -8.08,-30.68 -5.62,-7.5 -15.95,-11.25 -30.98,-11.25 -16.28,0 -30.04,6.88 -41.29,20.63 -4.48,6.25 -7.52,13.91 -9.13,23.01 -1.95,9.09 -2.92,17.73 -2.92,25.9l0 97.33 -20.08 0 0 -124.94c0,-13.06 -2.69,-23.29 -8.08,-30.68 -5.62,-7.5 -15.95,-11.25 -30.98,-11.25 -16.18,0 -29.88,6.89 -41.12,20.65 -4.47,6.25 -7.57,13.92 -9.29,23.01 -1.84,9.09 -2.75,17.72 -2.75,25.9l0 97.31zm365.57 -89.57c0,20.72 5.3,38.41 15.89,53.08 10.37,14.91 24.82,22.48 43.37,22.7 20.96,-0.22 36.57,-8.36 46.83,-24.4 9.96,-15.14 14.33,-34.36 13.07,-57.68 -0.44,-22.87 -6.07,-40.45 -16.88,-52.74 -11.03,-12.17 -25.38,-18.26 -43.02,-18.26 -19.2,0.24 -33.77,7.57 -43.7,22.02 -10.37,14.45 -15.56,32.88 -15.56,55.28zm0 160.81l-20.07 0 0 -252.07 20.09 0 0 31.75 0.65 0c6.49,-12.11 15.4,-21.29 26.73,-27.52 11.22,-5.99 22.55,-9 34,-9 28.16,0.23 48.56,9.27 61.22,27.1 11.99,17.73 17.98,40.34 17.98,67.83 0,25.8 -6.32,47.89 -18.97,66.3 -12.87,19.09 -32.56,28.85 -59.09,29.31 -12.42,0 -24.3,-3.05 -35.64,-9.16 -11.22,-5.54 -20.18,-13.73 -26.9,-24.59l0 100.05zm260.13 -322.45l20.08 0 0 251.21 -20.08 0 0 -251.21zm267.58 148.29c0,-18.42 -4.63,-33.54 -13.9,-45.36 -9.49,-12.16 -23.34,-18.35 -41.55,-18.59 -17.88,0.24 -31.68,6.54 -41.39,18.94 -9.72,12.27 -15.61,27.28 -17.71,45.01l114.55 0zm-114.55 17.34c0,20.06 4.96,36.87 14.87,50.42 9.91,14.02 24.62,21.15 44.13,21.37 27.87,-0.22 45.55,-14.13 53.05,-41.69l22.64 0c-4.74,17.46 -12.93,31.77 -24.59,42.89 -12,11.46 -29.01,17.3 -51,17.53 -27.73,-0.46 -48.14,-9.66 -61.23,-27.61 -13.11,-17.5 -19.54,-39.82 -19.31,-66.98 0,-27.26 7.2,-49.98 21.62,-68.17 13.96,-18.06 33.6,-27.32 58.91,-27.78 49.73,0.46 75.37,33.81 76.9,100.02l-135.99 0zm309.49 86.3c-2.42,0.45 -5.57,1.13 -9.41,2.02 -4.08,1.24 -8.71,1.97 -13.87,2.2 -9.81,0 -17.26,-2.67 -22.37,-8.02 -5.66,-5.69 -8.49,-15.01 -8.49,-27.98l0 -132.4 -24.76 0 0 -17.37 24.76 0 0 -50.27 20.07 0 0 50.27 32.74 0 0 17.37 -32.74 0 0 124.21c-0.22,8.55 0.71,14.93 2.8,19.13 1.76,4.22 6.69,6.33 14.81,6.33 5.59,0 11.08,-0.8 16.46,-2.39l0 16.9zm228.78 -103.64c0,-18.42 -4.63,-33.54 -13.91,-45.36 -9.49,-12.16 -23.34,-18.35 -41.55,-18.59 -17.87,0.24 -31.67,6.54 -41.38,18.94 -9.72,12.27 -15.62,27.28 -17.72,45.01l114.56 0zm-114.56 17.34c0,20.06 4.96,36.87 14.88,50.42 9.91,14.02 24.62,21.15 44.12,21.37 27.87,-0.22 45.56,-14.13 53.06,-41.69l22.63 0c-4.73,17.46 -12.93,31.77 -24.59,42.89 -11.99,11.46 -28.99,17.3 -51,17.53 -27.73,-0.46 -48.14,-9.66 -61.23,-27.61 -13.1,-17.5 -19.54,-39.82 -19.31,-66.98 0,-27.26 7.21,-49.98 21.62,-68.17 13.97,-18.06 33.61,-27.32 58.92,-27.78 49.72,0.46 75.36,33.81 76.9,100.02l-136 0z"/>
   <polygon class="fil0" points="2232,2420.63 2232,2169.41 2384.71,2169.41 2384.71,2189.51 2254.08,2189.51 2254.08,2280.56 2371.99,2280.56 2371.99,2300.63 2254.08,2300.63 2254.08,2400.53 2387.82,2400.53 2387.82,2420.63 "/>
   <path class="fil0" d="M2507.21 2169.42l20.08 0 0 251.22 -20.08 0 0 -251.22zm264.1 148.28c0,-18.41 -4.64,-33.53 -13.9,-45.35 -9.49,-12.17 -23.35,-18.36 -41.56,-18.59 -17.88,0.23 -31.68,6.54 -41.39,18.93 -9.71,12.28 -15.62,27.29 -17.71,45.01l114.56 0zm-114.56 17.35c0,20.06 4.96,36.87 14.88,50.42 9.91,14.02 24.62,21.15 44.12,21.37 27.87,-0.22 45.55,-14.13 53.05,-41.7l22.63 0c-4.72,17.48 -12.91,31.78 -24.59,42.9 -11.98,11.45 -28.99,17.3 -50.99,17.53 -27.73,-0.46 -48.14,-9.66 -61.23,-27.61 -13.1,-17.5 -19.54,-39.82 -19.31,-66.98 0,-27.26 7.21,-49.99 21.62,-68.17 13.96,-18.06 33.61,-27.32 58.91,-27.78 49.74,0.46 75.36,33.8 76.91,100.02l-136 0zm368.59 -38.28c-7.49,-28.22 -24.82,-42.55 -52.02,-43.01 -20.58,0.46 -35.5,8.48 -44.75,24.06 -9.69,15.48 -14.43,33.11 -14.2,52.91 0,19.57 4.62,36.92 13.87,52.04 9.25,15.59 24.28,23.61 45.09,24.07 30.6,-0.46 48.49,-16.66 53.66,-48.64l21.64 0c-3.3,20.31 -11.16,36.46 -23.58,48.48 -12.43,12.37 -29.64,18.66 -51.63,18.89 -27.49,-0.46 -47.78,-9.66 -60.86,-27.61 -13.09,-17.72 -19.63,-40.16 -19.63,-67.32 0,-26.13 6.99,-48.51 20.95,-67.14 13.52,-18.53 33.37,-28.01 59.53,-28.47 41.12,-0.34 65.31,20.25 72.57,61.74l-20.64 0zm194.35 124.58c-2.42,0.45 -5.56,1.13 -9.42,2.03 -4.07,1.24 -8.69,1.96 -13.87,2.19 -9.79,0 -17.25,-2.67 -22.36,-8.02 -5.67,-5.69 -8.49,-15.02 -8.49,-27.98l0 -132.4 -24.77 0 0 -17.37 24.77 0 0 -50.28 20.07 0 0 50.28 32.75 0 0 17.37 -32.75 0 0 124.21c-0.22,8.55 0.71,14.92 2.81,19.14 1.75,4.21 6.69,6.32 14.8,6.32 5.59,0 11.08,-0.8 16.46,-2.39l0 16.9zm119.6 -0.72l-20.08 0 0 -180.83 20.08 0 0 33.8 0.73 0c5.62,-14.39 12.94,-24.47 21.97,-30.24 9.03,-5.55 20.75,-8.33 35.17,-8.33l0 22.48c-22.32,0 -37.64,7.12 -46,21.35 -8.15,14.48 -12.1,32.18 -11.87,53.14l0 88.63zm161.02 -180.83l20.07 0 0 180.83 -20.07 0 0 -180.83zm-1.06 -70.38l22.16 0 0 31 -22.16 0 0 -31zm262.26 127.35c-7.5,-28.22 -24.83,-42.55 -52.02,-43.01 -20.6,0.46 -35.51,8.48 -44.75,24.06 -9.7,15.48 -14.43,33.11 -14.21,52.91 0,19.57 4.63,36.92 13.87,52.04 9.25,15.59 24.27,23.61 45.09,24.07 30.61,-0.46 48.5,-16.66 53.66,-48.64l21.65 0c-3.31,20.31 -11.17,36.46 -23.59,48.48 -12.42,12.37 -29.64,18.66 -51.63,18.89 -27.49,-0.46 -47.77,-9.66 -60.86,-27.61 -13.09,-17.72 -19.63,-40.16 -19.63,-67.32 0,-26.13 6.98,-48.51 20.95,-67.14 13.52,-18.53 33.37,-28.01 59.54,-28.47 41.11,-0.34 65.3,20.25 72.56,61.74l-20.63 0zm247.73 29.01c-8.6,3.29 -17.32,5.64 -26.14,7 -8.83,1.59 -17.66,2.62 -26.48,3.07 -32.55,1.93 -49.04,14.79 -49.49,38.57 0.22,10.69 4.2,18.71 11.91,24.06 7.51,5.58 16.23,8.36 26.16,8.36 16.88,0 31.66,-4.33 44.35,-12.97 12.69,-8.31 19.26,-21.56 19.69,-39.77l0 -28.32zm-34.26 -10.48c4.08,-0.56 8.72,-1.3 13.9,-2.21 4.97,-1.14 9.27,-2.38 12.92,-3.75 3.3,-1.94 5.46,-4.72 6.46,-8.36 0.65,-3.76 0.98,-7.27 0.98,-10.57 0,-10.9 -3.3,-19.71 -9.91,-26.42 -6.72,-6.59 -18.02,-10 -33.88,-10.23 -13.89,-0.22 -25.34,2.57 -34.39,8.36 -8.8,6.13 -14.38,16.99 -16.69,32.56l-20.66 0c2.09,-21.25 9.79,-36.63 23.09,-46.19 13.21,-8.97 29.53,-13.46 49.01,-13.46 18.14,0 33.22,4.03 45.2,12.1 11.88,8.64 17.98,23.29 18.31,43.97l0 98.51c-0.34,7.84 1.1,12.84 4.31,14.99 2.96,2.28 8.64,1.94 17.02,-1.02l0 16.36c-1.43,0.46 -3.57,1.03 -6.41,1.71 -3.18,1.14 -6.35,1.7 -9.53,1.7 -3.06,0 -6.09,-0.34 -9.04,-1.01 -6.45,-1.36 -10.73,-4.58 -12.81,-9.66 -1.97,-5.08 -3.07,-10.73 -3.29,-16.94 -17.62,19.66 -39.42,29.6 -65.41,29.83 -15.74,0 -29.24,-4.43 -40.47,-13.29 -11.78,-8.4 -17.79,-21.28 -18,-38.66 0,-30.54 20.38,-48.7 61.16,-54.49l28.13 -3.83zm179.58 -145.88l20.08 0 0 251.22 -20.08 0 0 -251.22zm0 251.21l0 -251.21 0 251.21z"/>
   <path class="fil0" d="M4466.25 2345.71c2.18,22.08 9.26,37.91 21.28,47.47 11.89,9.56 26.74,14.23 44.54,14 20.58,-0.23 35.52,-5.57 44.83,-16.04 8.89,-9.99 13.34,-22 13.34,-35.98 0,-9.78 -1.92,-17.79 -5.74,-24.05 -3.83,-6.14 -9.11,-11.03 -15.84,-14.66 -6.62,-3.99 -13.96,-7.17 -22.03,-9.56 -8.27,-2.27 -16.97,-4.49 -26.07,-6.65 -8.69,-2.27 -17.12,-4.95 -25.29,-8.02 -8.28,-2.95 -15.83,-6.98 -22.66,-12.11 -6.31,-5.11 -11.48,-11.77 -15.52,-19.95 -4.23,-7.96 -6.36,-17.97 -6.36,-30.02 0,-18.2 6.56,-33.94 19.66,-47.24 13.11,-12.96 32.37,-19.67 57.75,-20.13 25.7,0.23 45,7.56 57.9,22.02 12.71,14.22 18.95,31.91 18.74,53.06l-20.47 0c-0.21,-19.11 -5.84,-33.24 -16.89,-42.34 -10.97,-8.43 -24.04,-12.65 -39.23,-12.65 -22.54,0.58 -38.29,6.54 -47.26,17.9 -8.97,11.37 -12.49,23.92 -10.57,37.67 1.27,7.96 4.48,14.38 9.61,19.26 4.81,5.11 10.68,9.15 17.62,12.1 7.05,3.07 14.79,5.63 23.23,7.67 8.25,2.16 16.65,4.26 25.2,6.31 8.75,1.93 17.1,4.37 25.03,7.33 7.92,3.07 14.96,7.27 21.11,12.6 6.26,5.12 11.16,11.66 14.71,19.61 3.64,8.3 5.47,18.51 5.47,30.67 -0.83,48.19 -28.83,72.61 -83.99,73.29 -24.43,0 -44.15,-6.87 -59.14,-20.6 -16.18,-13.51 -24.36,-33.82 -24.59,-60.96l21.63 0z"/>
   <path class="fil0" d="M4798.53 2425.57c-23,-0.23 -42.03,-8.41 -57.09,-24.54 -15.74,-15.8 -23.72,-39.37 -23.93,-70.73 0,-27.26 6.75,-49.88 20.29,-67.83 13.53,-17.83 33.78,-26.98 60.73,-27.44 27.27,0.46 47.69,9.61 61.23,27.44 13.31,17.95 19.96,40.57 19.96,67.83 -0.22,29.09 -7.54,51.98 -21.94,68.68 -14.41,17.5 -34.16,26.36 -59.25,26.59zm59.74 -95.19c0.24,-21.95 -4.29,-40.15 -13.56,-54.6 -9.27,-14.45 -24.66,-21.78 -46.18,-22.02 -21.19,0.46 -36.41,8.26 -45.68,23.39 -9.27,15.12 -13.9,32.87 -13.9,53.23 0,22.76 5.19,41.02 15.56,54.78 9.93,14.23 24.6,21.46 44.02,21.68 21.3,-0.22 36.69,-8.13 46.18,-23.72 9.04,-15.13 13.56,-32.71 13.56,-52.74zm140.25 -160.96l20.07 0 0 251.21 -20.07 0 0 -251.21zm265.35 70.38l20.07 0 0 180.83 -20.07 0 0 -24.91c-2.43,2.94 -5.33,6.06 -8.75,9.32 -3.41,3.51 -7.37,6.85 -11.87,10 -4.3,2.84 -9.35,5.16 -15.17,6.96 -6.07,2.16 -12.94,3.34 -20.63,3.57 -23,-0.23 -39.1,-6.76 -48.34,-19.6 -9.47,-12.39 -14.09,-28.06 -13.86,-47.04l0 -119.13 20.08 0 0 118.76c-0.46,31.95 14.6,48.06 45.13,48.28 17.09,-0.22 30.26,-6.77 39.52,-19.65 9.25,-12.3 13.89,-28.58 13.89,-48.85l0 -98.54zm209.03 181.55c-2.42,0.45 -5.56,1.13 -9.41,2.02 -4.08,1.24 -8.69,1.97 -13.87,2.2 -9.79,0 -17.26,-2.67 -22.37,-8.02 -5.66,-5.69 -8.48,-15.01 -8.48,-27.98l0 -132.4 -24.77 0 0 -17.37 24.77 0 0 -50.27 20.08 0 0 50.27 32.74 0 0 17.37 -32.74 0 0 124.21c-0.24,8.55 0.7,14.93 2.8,19.13 1.75,4.22 6.68,6.33 14.8,6.33 5.6,0 11.08,-0.8 16.45,-2.39l0 16.9zm111 -181.55l20.08 0 0 180.83 -20.08 0 0 -180.83zm-1.06 -70.38l22.16 0 0 31 -22.16 0 0 -31zm217.23 256.15c-23.01,-0.23 -42.03,-8.41 -57.1,-24.54 -15.73,-15.8 -23.71,-39.37 -23.93,-70.73 0,-27.26 6.76,-49.88 20.3,-67.83 13.52,-17.83 33.77,-26.98 60.73,-27.44 27.27,0.46 47.68,9.61 61.22,27.44 13.3,17.95 19.96,40.57 19.96,67.83 -0.22,29.09 -7.54,51.98 -21.94,68.68 -14.42,17.5 -34.17,26.36 -59.24,26.59zm59.74 -95.19c0.22,-21.95 -4.31,-40.15 -13.57,-54.6 -9.27,-14.45 -24.67,-21.78 -46.17,-22.02 -21.2,0.46 -36.42,8.26 -45.68,23.39 -9.28,15.12 -13.91,32.87 -13.91,53.23 0,22.76 5.19,41.02 15.56,54.78 9.93,14.23 24.6,21.46 44.03,21.68 21.29,-0.22 36.68,-8.13 46.17,-23.72 9.04,-15.13 13.57,-32.71 13.57,-52.74zm157.25 90.25l-20.07 0 0 -180.83 20.07 0 0 25.08c7.93,-9.27 16.41,-16.56 25.42,-21.88 8.82,-5.31 19.16,-7.97 31.05,-7.97 22.34,-0.56 40.18,8.01 53.49,25.74 4.25,6.25 6.81,12.78 7.67,19.6 0.66,6.92 0.99,14.26 0.99,21.98l0 118.28 -20.08 0 0 -117.94c0.46,-32.62 -14.64,-48.93 -45.3,-48.93 -12.67,0.24 -23.1,3.76 -31.25,10.59 -8.04,6.71 -13.89,14.95 -17.52,24.74 -3.21,10.91 -4.69,22.32 -4.47,34.25l0 97.29zm257.89 -56.53c5.4,29.18 22.93,43.42 52.6,42.74 14.89,-0.22 25.8,-3.69 32.75,-10.41 7.06,-6.36 10.59,-14.1 10.59,-23.21 0,-6.47 -1.49,-11.82 -4.46,-16.04 -3.2,-4.19 -7.48,-7.44 -12.88,-9.71 -2.2,-1.37 -4.91,-2.56 -8.1,-3.59 -3.19,-1.13 -6.44,-2.05 -9.74,-2.73 -6.83,-1.36 -13.82,-2.72 -20.98,-4.08 -3.41,-1.26 -6.71,-2.35 -9.9,-3.26 -3.32,-0.68 -6.66,-1.58 -10.08,-2.72 -6.82,-2.16 -12.94,-4.95 -18.33,-8.36 -5.4,-3.76 -9.69,-8.52 -12.88,-14.33 -3.31,-5.92 -4.96,-13.15 -4.96,-21.67 0,-15.47 5.5,-27.92 16.5,-37.36 10.55,-9.33 25.5,-14.11 44.87,-14.34 39.04,-0.79 61.58,18.16 67.63,56.86l-20.65 0c-1.76,-14.01 -6.84,-23.93 -15.2,-29.75 -8.6,-5.59 -19.34,-8.38 -32.22,-8.38 -26.11,0.69 -39.27,11.02 -39.49,31.03 0,5.9 1.71,10.79 5.12,14.65 3.08,3.75 7.33,6.94 12.72,9.55 11.12,4.89 23.89,8.81 38.32,11.76 7.16,1.71 14.14,3.69 20.97,5.96 6.72,2.39 12.66,5.52 17.84,9.38 5.4,3.75 9.68,8.63 12.88,14.65 2.97,5.91 4.46,13.24 4.46,21.99 -0.22,17.28 -6.87,30.35 -19.94,39.2 -13.31,9.09 -30.4,13.64 -51.28,13.64 -20.78,-0.23 -36.76,-6.3 -47.98,-18.22 -11.32,-11.35 -17.53,-25.77 -18.62,-43.25l20.44 0z"/>
   <path class="fil1" d="M3670.05 564.2c86.69,-78.53 184.95,-143.46 285.77,-202.98 101.66,-58.29 207.57,-109.52 316.86,-152.46 218.5,-86.12 449.42,-141.14 683.38,-164.33 29.18,-3.68 58.56,-4.95 87.88,-6.93 29.33,-1.71 58.62,-4.34 88.02,-4.42l88.13 -1.89c29.36,0.29 58.73,1.07 88.09,1.87l44.03 1.32 43.94 3.12c29.28,2.18 58.58,3.98 87.81,6.46l87.46 10.19 43.66 5.4 43.4 7.24c231.66,37.02 458.52,100.73 674.9,188.52 -222.27,-71.52 -449.4,-125.76 -679.55,-156.43l-43.11 -5.97 -43.32 -4.14 -86.57 -8.53c-28.92,-1.97 -57.88,-3.26 -86.82,-4.93l-43.39 -2.36 -43.47 -0.55 -86.89 -1.09 -86.85 2.35c-28.97,0.22 -57.82,2.99 -86.72,4.83 -28.86,2.1 -57.8,3.56 -86.53,7.26 -115.39,10.15 -229.72,30.09 -342.67,55.46 -113.06,25.19 -224.28,58.39 -333.34,97.75 -108.89,39.83 -215.44,86.4 -318.55,140.04 -102.75,54.12 -203.14,113.84 -295.55,185.2z"/>
   <path class="fil2" d="M4838.8 1454.16c-24.62,-37.4 -57.93,-68.55 -96.58,-95.39 -67.71,-46.92 -152.05,-81.2 -240.44,-112.46 -66.28,-23.4 -134.88,-44.97 -200.24,-68.06 -98.07,-34.54 -188.74,-72.86 -252.74,-123.59 -32.05,-25.35 -57.43,-53.53 -74.85,-85.81 -17.4,-32.33 -27.2,-68.89 -27.24,-112.78 0.08,-55.86 15.32,-101.52 41.31,-140.23 19.54,-28.99 45.38,-54.04 75.96,-75.35 45.82,-31.96 102.33,-55.34 162.23,-70.51 59.9,-15.19 123.12,-22.21 182.03,-22.19 77.07,0.03 139.69,16.19 190.9,41.88 38.4,19.29 70.44,44.03 97.07,71.82 39.94,41.67 67.66,90.36 85.28,137.03 17.66,46.59 25.07,91.3 25.03,123.23l49.87 0c-0.04,-34.89 -6.82,-77.84 -22.1,-123.59 -22.94,-68.51 -65.25,-143.32 -134.49,-201.53 -34.59,-29.07 -75.91,-53.86 -124.4,-71.27 -48.5,-17.42 -104.11,-27.44 -167.16,-27.43 -55.86,0 -115.01,5.86 -172.72,18.61 -86.48,19.2 -169.97,53.7 -233.31,108.98 -31.62,27.64 -58.1,60.61 -76.57,99.16 -18.48,38.53 -28.81,82.55 -28.79,131.39 -0.08,59.72 16.08,111.52 44.22,155.05 24.56,38.15 57.85,69.98 96.51,97.38 67.73,47.91 152.13,82.82 240.57,114.36 66.33,23.61 134.96,45.19 200.37,68.12 98.11,34.29 188.87,71.96 252.87,121.65 32.06,24.82 57.4,52.37 74.76,83.85 17.34,31.53 27.07,67.12 27.13,109.94 0.02,20.11 -3.8,49.89 -15.55,82.43 -8.8,24.44 -22.01,50.52 -41.3,75.93 -28.97,38.09 -71.5,74.84 -134.89,102.56 -63.37,27.67 -147.84,46.15 -260.05,46.15 -99.86,0.01 -179.88,-13.89 -243.55,-36.58 -47.76,-17.03 -86.37,-38.97 -117.61,-63.9 -46.81,-37.42 -77.26,-81.63 -96.35,-127.35 -19.06,-45.68 -26.53,-92.93 -26.51,-135.17l-49.87 0c0,42.71 6.65,89.81 23.53,136.78 25.23,70.39 74.13,140.47 156.54,191.89 82.37,51.48 197.19,84.21 353.82,84.2 104.57,0 188.46,-15.32 255.62,-40.46 50.33,-18.84 91.19,-43.22 123.93,-70.49 49.14,-40.93 79.82,-88.21 97.99,-132.15 18.17,-44.01 24.08,-84.48 24.12,-113.84 0.08,-58.67 -16.16,-109.57 -44.35,-152.26z"/>
   <polygon class="fil2" points="6284.74,415.83 6284.74,1963.36 6334.6,1963.36 6334.6,415.83 "/>
   <path class="fil2" d="M5544.72 1938.43l0 24.93c72.54,0.01 138.82,-12.56 197.37,-37.46 43.9,-18.67 83.39,-44.28 117.69,-76.38 51.48,-48.14 91.13,-110.72 117.71,-185.68 26.6,-74.98 40.3,-162.36 40.31,-261.12 -0.01,-88.08 -12.46,-165.97 -35.65,-233.44 -34.71,-101.19 -93.96,-178.86 -169.94,-230.5 -75.94,-51.7 -167.99,-77.26 -267.49,-77.23 -66.36,0 -129.33,11.32 -186.5,34.22 -85.78,34.29 -158.22,94.97 -208.35,180.26 -50.19,85.28 -78.24,194.61 -78.23,326.69 0,87.79 10.83,166.57 31.92,235.67 31.55,103.58 86.65,185.57 162.09,241.05 75.4,55.54 170.3,83.99 279.07,83.92l0 -24.93 0 -24.93c-66.83,0 -126.25,-11.53 -177.86,-33.48 -38.72,-16.48 -73.09,-38.81 -103.14,-66.92 -45.03,-42.14 -80.44,-97.39 -104.79,-165.95 -24.33,-68.5 -37.43,-150.28 -37.43,-244.43 0,-83.4 11.8,-155.76 32.94,-217.23 31.77,-92.24 84.15,-160.02 150.84,-205.49 66.71,-45.38 148.34,-68.57 239.44,-68.59 60.71,0 117.27,10.34 167.95,30.65 76,30.53 139.01,83.14 183.91,159.26 44.81,76.11 71.35,176.27 71.36,301.4 0,83.69 -10.36,157.61 -29.75,221.12 -29.16,95.31 -78.2,166.97 -143.97,215.43 -65.81,48.41 -149.22,74.17 -249.5,74.23l0 24.93z"/>
   <polygon class="fil1" points="1184.26,1949.38 1422.8,1949.38 1645.65,413.09 1407.13,413.09 "/>
   <polygon class="fil1" points="270.18,518.9 60.56,1949.37 299.09,1949.37 964.76,1949.37 999.41,1752.97 327.87,1752.97 394.03,1301.48 962.02,1301.48 993.95,1116.85 421.09,1116.85 480.9,708.62 1144.44,708.62 1178.19,518.9 508.71,518.9 "/>
   <path class="fil1" d="M2429.59 1311.51l-450.43 0c55.53,-151.5 161.74,-255.99 286.25,-255.99 214.04,0 164.18,255.99 164.18,255.99zm-134.99 -446.93c-441.46,0 -572.25,382.73 -577.66,649.42 -7.3,359.98 245.66,452.4 459.69,452.4 214.04,0 384.3,-131.34 384.3,-131.34l-66.89 -145.94c0,0 -89.99,88.78 -299.69,88.78 -201.94,0 -264.53,-130.19 -253.44,-289.38 150.07,10.2 687.52,-7.36 687.52,-7.36 54.72,-228.01 72.96,-616.58 -333.83,-616.58z"/>
   <path class="fil1" d="M3215.21 1782.77c-170.86,0 -216.47,-169.05 -199.44,-289.44 32.83,-274.85 129.82,-441.77 320.45,-441.77 190.63,0 160.52,212.52 160.52,212.52l220.73 0c0,-169.64 -38.91,-399.5 -337.47,-399.5 -397.67,0 -527.2,286.41 -581.92,532.67 -54.73,246.27 20.06,561.86 401.32,561.86 381.26,0 466.09,-368.49 466.09,-368.49l-215.26 0c-14.59,62.03 -64.15,192.15 -235.02,192.15z"/>
  </g>
 </g>
</svg>
