<?xml version="1.0" encoding="UTF-8"?>
<!DOCTYPE svg PUBLIC "-//W3C//DTD SVG 1.1//EN" "http://www.w3.org/Graphics/SVG/1.1/DTD/svg11.dtd">
<!-- Creator: CorelDRAW 2020 (64-Bit) -->
<svg xmlns="http://www.w3.org/2000/svg" xml:space="preserve" width="64.3466mm" height="16.5098mm" version="1.1" style="shape-rendering:geometricPrecision; text-rendering:geometricPrecision; image-rendering:optimizeQuality; fill-rule:evenodd; clip-rule:evenodd"
viewBox="0 0 6434.66 1650.98"
 xmlns:xlink="http://www.w3.org/1999/xlink"
 xmlns:xodm="http://www.corel.com/coreldraw/odm/2003">
 <defs>
  <style type="text/css">
   <![CDATA[
    .fil1 {fill:#636466;fill-rule:nonzero}
    .fil0 {fill:#7AB800;fill-rule:nonzero}
    .fil2 {fill:#89C649;fill-rule:nonzero}
   ]]>
  </style>
 </defs>
 <g id="Layer_x0020_1">
  <metadata id="CorelCorpID_0Corel-Layer"/>
  <g id="_1926486599680">
   <polygon class="fil0" points="4263.47,529.97 4263.47,207.6 4148.05,207.6 4148.05,529.97 3817.35,529.97 3817.35,645.41 4148.05,645.41 4148.05,976.11 4263.47,976.11 4263.47,645.41 4585.83,645.41 4585.83,529.97 "/>
   <g>
    <path class="fil1" d="M1179.13 355.27c-37.44,-38.48 -93.6,-55.12 -172.63,-55.12l-242.29 0 0 139.34 232.93 0.03c77.99,0 92.55,19.75 93.6,71.75l0 54.06 -153.9 0c-87.36,0 -151.83,16.64 -195.5,52 -43.66,35.37 -64.46,89.43 -64.46,160.14 0,81.1 20.8,133.1 60.3,164.3 39.5,31.19 96.71,40.55 168.46,40.55 16.64,0 33.27,0 50.95,-1.05 57.19,0 111.28,-27.04 145.6,-72.8l0 62.4 129.98 0.03 0 -438.84c-1.04,-80.08 -17.68,-138.31 -53.04,-176.79l0 0zm-88.39 341.09l0 32.25c0,41.6 -28.08,117.52 -144.55,118.54l-15.58 0c-87.37,0 -116.47,-7.29 -117.52,-70.71 0,0 0,-2.06 0,-2.06 0,-55.12 24.97,-77.99 114.4,-77.99l163.25 -0.03z"/>
   </g>
   <path class="fil1" d="M1868.6 336.57c-48.88,-33.27 -108.16,-48.89 -167.42,-44.72l-27.06 0c-62.4,-3.12 -121.68,29.13 -154.95,82.15l0 -72.8 -132.05 0 0 668.65 139.34 0 0 -386.83c0,-148.72 108.16,-146.62 145.59,-146.62l5.19 0c56.16,0 81.1,7.28 99.83,24.96 18.73,17.68 28.08,48.88 28.08,97.77l0 409.72 137.27 -0.02 0 -438.83c1.05,-97.77 -28.08,-158.1 -73.82,-193.43z"/>
   <path class="fil1" d="M2495.65 11.08l0 324.46c-35.37,-28.08 -84.22,-42.64 -158.07,-42.64 -64.47,0 -126.86,7.28 -174.7,40.55 -47.83,33.27 -77.98,91.5 -77.98,189.26 0,0 0,0 0,1.05l0 215.25c0,82.15 19.75,142.48 60.3,183.03 40.55,39.5 102.95,58.23 187.19,58.23l31.18 -0.02c57.18,4.16 112.3,-22.87 142.48,-70.7l0 62.39 129.98 0 0 -959.84 -140.38 0 0 -1.02zm-271.42 571.94c0,-87.37 5.19,-147.67 108.16,-147.67 136.22,0 163.26,37.43 164.3,110.23l0 133.1c0,148.72 -96.71,162.23 -145.59,163.25 -77.99,0 -126.87,-6.23 -126.87,-103.99l0 -154.92z"/>
   <path class="fil1" d="M3721.69 763.95c3.11,-67.59 -29.13,-131.03 -85.27,-168.47 -40.55,-19.75 -85.27,-31.2 -129.98,-33.26l-39.51 -2.07c-126.86,-3.12 -137.26,-35.37 -138.31,-66.57l0 0c1.05,-13.51 6.23,-25.98 16.63,-35.36 20.8,-18.73 53.05,-17.68 95.67,-18.73l232.93 0.03 0 -139.34 -237.09 -0.03c-175.75,0 -241.27,91.5 -242.29,178.87l0 6.23c0,93.6 31.2,129.99 62.4,153.9 50.95,39.51 129.98,52 248.54,55.12 20.8,1.05 41.6,6.23 59.29,17.68 15.58,11.45 24.96,30.15 23.91,48.88 0,3.12 0,5.19 0,8.33 -5.18,57.19 -40.55,61.35 -108.16,61.35l-263.11 0 0 139.34 280.77 0c47.83,1.05 95.66,-10.4 137.26,-34.32 58.23,-36.38 91.5,-101.9 87.36,-170.53l-1.04 -1.05z"/>
   <path class="fil1" d="M3038.47 301.2l0 668.65 -141.43 0 0 -530.36 -97.73 0.03 0 -138.32 239.16 0zm-158.06 -77.98l157.02 0 0 -135.2 -157.02 0 0 135.2z"/>
   <path class="fil1" d="M323.28 829.46c-35.36,0 -79.03,-6.23 -79.03,-55.11l0 -686.33 -144.52 0 0 690.49c0,122.7 76.96,192.39 204.85,192.39l251.66 0 0 -141.44 -232.96 0z"/>
   <path class="fil1" d="M6297.51 311.6c-74.86,0 -121.68,20.8 -159.11,80.08l0 -72.8 -126.86 0 0 652.02 136.24 0 0 -376.44c0,-129.98 75.92,-142.48 151.83,-143.5l38.46 -0.02 0 -140.39 -40.56 0 0 1.05z"/>
   <path class="fil1" d="M5782.77 312.65l-137.27 506.44 -172.63 -506.44 -141.43 0 216.3 653.06 61.38 0 -21.85 81.1c-12.47,36.39 -54.07,67.59 -120.63,68.63l-59.28 0 0 138.32 60.33 0c120.63,0 189.26,-43.67 227.74,-131.03 16.64,-46.79 31.2,-95.67 42.65,-144.55l22.87 -83.2c1.05,-5.19 152.85,-568.81 152.85,-571.93l0 -11.45 -131.03 1.05z"/>
   <path class="fil1" d="M4988.28 453.03l0 137.27 157.04 0 0 209.01c-44.72,36.39 -67.58,42.65 -151.83,43.67l-3.12 0c-63.44,0 -90.48,-14.56 -114.39,-37.43 -19.76,-21.85 -29.13,-49.9 -27.04,-79.03l0 -361.9c0,-41.6 6.24,-69.68 24.97,-88.38 23.91,-19.75 55.11,-28.09 86.31,-24.97l31.17 0.03 197.6 0 0 -139.34 -193.43 -0.02c-70.7,0 -142.48,8.33 -197.57,42.64 -55.11,35.37 -91.5,97.77 -91.5,203.83l0 379.55c0,211.12 168.46,239.17 301.57,239.17l2.06 0c160.14,0 204.85,-39.5 273.49,-117.51l1.05 0 0 -405.57 -296.38 -1.02z"/>
   <g>
    <path class="fil2" d="M139.23 1280.79l0 38.48 0 0c28.09,-41.6 83.2,-57.18 127.92,-34.31 13.51,7.28 23.91,19.75 28.08,34.31 8.33,-13.51 20.8,-24.96 34.32,-33.27 14.56,-7.28 30.15,-11.44 46.78,-11.44 11.45,0 23.92,1.05 35.37,4.16 10.4,2.07 19.75,7.28 27.03,13.52 7.28,6.23 13.52,14.56 17.68,23.92 4.17,11.44 6.24,22.86 6.24,34.31l0 192.38 -41.6 0 0 -171.58c0,-7.28 -1.05,-15.58 -2.07,-22.87 -1.05,-6.23 -4.17,-12.47 -7.28,-18.73 -4.17,-5.18 -9.36,-9.35 -15.59,-12.47 -8.33,-3.11 -16.63,-5.18 -24.96,-4.16 -18.74,-1.05 -37.44,5.19 -50.96,18.73 -12.46,12.47 -18.73,30.15 -18.73,48.88l0 163.25 -42.64 -0.02 0 -171.59c0,-8.33 -1.05,-15.58 -2.07,-22.87 -1.05,-6.23 -4.17,-12.46 -8.33,-18.73 -4.17,-5.18 -9.35,-9.35 -14.57,-12.46 -7.28,-3.12 -15.58,-4.17 -23.91,-4.17 -11.45,0 -21.85,2.07 -32.25,7.28 -8.33,4.17 -15.59,10.4 -21.85,18.73 -5.19,6.24 -9.35,14.57 -12.47,21.85 -2.07,6.23 -3.12,12.47 -4.16,18.73l0 162.23 -42.62 -0.03 0 -262.06 42.64 0zm0 0l0 0 0 0z"/>
   </g>
   <g>
    <path class="fil2" d="M672.71 1415.96c-9.35,2.07 -17.68,3.12 -28.08,4.17l-29.13 4.16c-8.33,1.05 -17.68,4.17 -24.97,7.28 -7.28,3.12 -13.51,8.33 -18.73,14.57 -5.18,7.28 -7.28,16.63 -7.28,24.96 0,6.24 1.05,12.47 4.17,17.69 3.11,5.18 6.23,8.33 10.4,11.44 5.18,3.12 10.4,5.19 16.63,6.24 6.23,1.05 12.47,2.07 18.73,2.07 12.47,0 24.97,-2.07 36.39,-6.24 9.35,-3.11 17.68,-8.33 24.96,-14.56 6.24,-5.19 10.4,-11.45 14.57,-19.75 3.11,-6.24 4.16,-12.47 4.16,-19.75l0 -43.67c-6.23,7.25 -13.52,10.37 -21.82,11.39l0 0zm59.25 131.03c-9.35,0 -18.73,-3.11 -24.96,-9.35 -7.28,-8.33 -10.4,-19.75 -9.35,-30.15 -10.4,13.52 -24.97,23.92 -40.55,30.15 -16.64,6.24 -33.27,9.35 -50.95,9.35 -11.45,0 -22.87,-2.07 -34.32,-5.18 -10.4,-2.07 -19.75,-6.24 -28.08,-12.47 -8.33,-6.24 -14.57,-13.52 -18.73,-22.87 -9.35,-21.85 -9.35,-47.83 0,-69.68 5.18,-8.33 12.47,-15.59 20.8,-21.85 8.33,-6.23 18.73,-10.4 28.08,-13.52 10.4,-3.11 20.8,-5.18 32.25,-7.28 11.44,-2.07 22.87,-4.16 33.27,-5.19 9.35,-1.04 18.73,-3.11 28.08,-5.18 7.28,-2.07 13.51,-5.19 19.75,-9.35 5.19,-5.19 7.28,-11.45 7.28,-18.73 0,-8.33 -1.05,-15.59 -5.19,-22.87 -3.11,-5.19 -8.33,-10.4 -13.51,-12.47 -6.24,-3.12 -12.47,-5.19 -18.73,-6.24 -7.29,-1.04 -13.52,-1.04 -20.8,-1.04 -15.59,-1.05 -31.2,3.11 -45.77,10.4 -13.51,8.33 -20.8,23.91 -19.75,39.5l-43.67 -0.03c0,-14.56 3.12,-28.08 10.4,-40.55 6.24,-11.45 14.57,-20.8 24.97,-27.03 10.4,-7.29 21.85,-12.47 33.27,-15.59 13.51,-3.12 27.03,-4.16 41.6,-4.16 11.44,0 23.91,1.04 35.36,2.06 11.45,1.05 21.85,5.19 31.2,10.4 9.35,5.19 17.68,12.47 22.87,21.85 6.23,11.45 9.35,23.92 8.33,36.39l0 134.15c0,7.28 0,14.56 2.07,21.84 0,4.17 5.18,7.29 11.45,7.29 4.16,0 9.35,-1.05 13.51,-2.07l0 33.26c-8.33,4.14 -19.78,6.21 -30.18,6.21z"/>
   </g>
   <g>
    <path class="fil2" d="M854.69 1280.79l0 41.6 0 0c16.64,-31.2 49.9,-48.88 85.27,-47.83 14.56,0 29.13,2.07 42.65,7.28 10.4,4.16 20.8,11.45 28.08,19.75 7.28,8.33 12.47,18.73 14.56,30.15 3.12,12.47 4.17,25.99 4.17,38.48l0 172.63 -42.68 0 0 -176.79c1.05,-14.57 -4.16,-28.08 -14.56,-38.48 -10.4,-9.35 -24.96,-14.57 -39.5,-14.57 -11.45,0 -22.87,2.07 -34.32,6.24 -9.35,4.16 -17.68,9.35 -23.92,17.68 -6.23,7.28 -11.44,15.58 -14.56,24.96 -3.12,10.4 -5.19,21.85 -5.19,32.25l0 148.71 -42.64 0 0 -262.06 42.64 0zm0 0l0 0 0 0z"/>
   </g>
   <g>
    <path class="fil2" d="M1239.46 1415.96c-9.36,2.07 -17.69,3.12 -28.09,4.17l-29.13 4.16c-8.33,1.05 -17.68,4.17 -24.96,7.28 -7.28,3.12 -13.52,8.33 -18.73,14.57 -5.19,7.28 -7.28,16.63 -7.28,24.96 0,12.47 5.18,22.87 15.58,30.16 5.19,3.11 10.4,5.18 16.64,6.23 6.23,1.05 12.47,2.07 18.73,2.07 12.47,0 24.96,-2.07 36.38,-6.24 9.35,-3.11 17.68,-8.33 24.97,-14.56 6.23,-5.19 10.4,-11.45 14.56,-19.75 3.12,-6.24 4.17,-12.47 4.17,-19.75l0 -43.67c-6.24,4.16 -13.52,7.28 -20.8,9.35l-2.04 1.02zm62.39 131.03c-9.35,0 -18.73,-3.11 -24.96,-9.35 -7.28,-8.33 -11.45,-19.75 -9.35,-30.15 -11.45,13.52 -24.97,23.92 -40.55,30.15 -16.64,6.24 -33.27,9.35 -50.95,9.35 -11.45,0 -22.87,-1.05 -33.27,-4.16 -10.4,-2.07 -19.75,-6.24 -28.08,-12.47 -8.33,-6.24 -14.57,-13.52 -18.73,-22.87 -9.36,-21.85 -9.36,-47.83 0,-69.68 5.18,-9.35 11.44,-16.64 19.75,-22.87 8.33,-6.23 17.68,-10.4 28.08,-13.52 10.4,-3.11 21.85,-5.18 32.25,-7.28 10.4,-2.1 22.86,-4.16 33.26,-5.19 9.36,-1.04 18.73,-3.11 28.09,-5.18 7.28,-2.07 13.51,-5.19 19.75,-9.35 5.18,-5.19 7.28,-11.45 7.28,-18.73 0,-8.33 -1.05,-15.59 -5.19,-22.87 -3.11,-5.19 -8.33,-9.35 -13.51,-12.47 -6.24,-3.12 -12.47,-5.19 -18.73,-6.24 -7.29,-1.04 -13.52,-1.04 -20.8,-1.04 -15.59,-1.05 -31.2,3.11 -45.77,10.4 -13.51,8.33 -20.8,22.86 -19.75,39.5l-42.65 -0.03c0,-14.56 4.17,-28.08 10.4,-40.55 6.24,-11.45 14.57,-20.8 24.97,-27.03 10.4,-7.29 22.87,-12.47 35.36,-14.57 13.52,-3.12 27.04,-4.16 41.6,-4.16 11.45,0 22.87,1.04 35.37,2.07 11.44,1.04 21.84,5.18 31.2,10.4 9.35,5.18 17.68,12.46 22.86,21.84 6.24,11.45 9.36,23.92 8.34,36.39l0 134.15c0,7.28 0,14.56 2.06,21.84 0,4.17 5.19,7.29 11.45,7.29 4.17,0 9.35,-1.05 13.52,-2.07l0 33.27c-9.35,5.18 -19.75,7.28 -31.2,6.23l-2.1 -1.05zm0 0l0 0 0 0z"/>
   </g>
   <g>
    <path class="fil2" d="M1523.34 1498.14c9.35,-6.24 17.68,-13.52 23.92,-22.87 6.23,-10.4 10.4,-20.8 13.51,-32.25 3.12,-11.45 4.17,-23.91 4.17,-36.38 0,-11.45 -1.05,-22.87 -4.17,-33.27 -2.07,-10.4 -6.23,-20.8 -12.47,-30.15 -6.23,-9.35 -13.51,-16.64 -22.87,-21.85 -10.39,-5.19 -22.86,-8.33 -34.31,-8.33 -12.47,0 -23.92,2.07 -35.37,8.33 -9.35,5.19 -17.68,12.47 -23.91,20.8 -6.24,9.35 -11.45,19.75 -13.52,30.15 -3.12,11.45 -4.17,23.92 -4.17,36.39 0,11.44 1.05,23.91 3.12,35.36 2.07,11.45 6.24,21.85 12.47,32.25 5.19,9.35 13.52,17.68 22.87,22.87 10.4,6.23 22.87,9.35 35.36,9.35 12.5,-1.05 24.97,-4.17 35.37,-10.4l0 0zm56.16 117.49c-24.96,22.86 -58.23,35.36 -91.5,32.24 -12.47,0 -24.96,-1.05 -37.43,-4.16 -12.47,-2.07 -23.92,-7.29 -34.32,-13.52 -10.4,-6.23 -18.73,-14.56 -24.96,-23.92 -7.29,-10.4 -10.4,-22.87 -11.45,-36.38l42.62 0c0,7.28 2.07,14.56 7.28,19.75 4.17,5.19 10.4,10.4 16.64,13.52 6.23,3.11 13.51,6.23 20.79,7.28 7.29,1.05 14.57,2.07 21.85,2.07 12.47,0 24.97,-2.07 36.39,-7.28 10.4,-4.17 18.73,-11.45 24.96,-19.76 6.24,-9.35 11.45,-19.75 13.52,-31.2 3.12,-13.51 4.16,-25.98 4.16,-39.5l0 -17.68 0 0c-6.23,15.59 -18.73,28.08 -33.26,35.36 -14.57,7.29 -31.2,11.45 -47.84,11.45 -17.68,0 -34.31,-3.12 -50.95,-10.4 -14.56,-7.28 -25.98,-16.63 -36.38,-29.13 -10.4,-12.47 -17.69,-27.03 -21.85,-41.6 -5.19,-16.63 -7.28,-33.26 -7.28,-50.95 0,-16.63 2.07,-32.24 6.23,-47.83 4.17,-15.59 10.4,-31.2 19.75,-44.72 9.35,-13.51 22.87,-24.96 37.44,-32.24 17.68,-9.36 37.43,-13.52 57.18,-12.47 15.59,0 31.2,3.11 45.77,10.4 13.51,7.28 24.96,18.73 32.24,32.24l0 0 0 -37.43 40.55 -0.03 0 238.15c2.07,35.36 -8.33,69.68 -30.15,97.74z"/>
   </g>
   <g>
    <path class="fil2" d="M1848.82 1357.73c-4.16,-8.33 -9.35,-16.64 -15.59,-23.92 -6.23,-6.23 -14.56,-12.47 -22.86,-15.58 -9.36,-4.17 -19.76,-6.24 -29.13,-6.24 -10.4,0 -20.8,2.07 -30.16,6.24 -8.33,4.16 -16.63,9.35 -22.86,15.58 -6.24,7.28 -11.45,14.57 -15.59,23.92 -4.17,9.35 -6.23,18.73 -6.23,29.13l150.75 0c-2.09,-10.4 -5.21,-20.8 -8.33,-29.13l0 0zm10.4 167.44c-21.85,15.59 -47.83,22.87 -73.85,21.85 -18.73,0 -37.43,-3.12 -54.06,-10.4 -14.57,-6.23 -28.09,-15.59 -38.49,-28.08 -10.39,-12.47 -18.73,-28.08 -23.91,-43.67 -5.19,-17.68 -8.33,-36.39 -8.33,-55.12 0,-18.73 3.11,-37.43 9.35,-54.06 5.19,-15.59 14.56,-30.16 24.96,-42.65 10.4,-12.47 23.92,-21.85 38.49,-28.08 15.58,-6.24 32.24,-10.4 48.88,-9.35 19.75,-1.05 40.55,4.16 58.23,14.56 14.57,9.35 28.08,21.85 37.43,36.39 9.36,14.56 15.59,31.19 19.76,48.88 3.11,16.63 5.18,33.27 4.16,50.95l-195.47 -0.03c0,11.45 1.05,21.85 4.16,32.25 3.12,10.4 8.33,18.73 14.57,27.03 7.28,8.33 15.59,14.57 24.96,18.73 11.45,5.19 23.92,7.28 37.44,7.28 15.58,1.05 31.2,-4.16 44.71,-12.46 12.47,-9.36 20.8,-22.87 22.87,-38.49l42.62 -0.02c-5.18,24.96 -18.7,47.86 -38.48,64.49z"/>
   </g>
   <g>
    <path class="fil2" d="M2282.47 1357.73c-3.12,-8.33 -9.36,-16.64 -15.59,-23.92 -7.28,-6.23 -14.57,-11.45 -22.87,-15.58 -9.35,-4.17 -19.75,-6.24 -29.13,-6.24 -10.4,0 -20.8,2.07 -30.15,6.24 -8.33,4.16 -16.63,9.35 -22.87,15.58 -6.23,7.28 -11.45,14.57 -14.56,23.92 -4.17,9.35 -6.24,18.73 -6.24,29.13l149.74 0c-2.1,-10.4 -4.17,-20.8 -8.33,-29.13l0 0zm11.44 167.44c-21.84,15.59 -47.83,22.87 -73.84,21.85 -18.73,0 -37.44,-3.12 -54.07,-10.4 -14.57,-6.23 -28.08,-15.59 -38.48,-28.08 -10.4,-12.47 -18.73,-28.08 -22.87,-43.67 -5.19,-17.68 -8.33,-36.39 -9.35,-55.12 0,-18.73 3.11,-37.43 9.35,-54.06 5.19,-15.59 14.56,-30.16 24.96,-42.65 10.4,-12.47 23.92,-21.85 38.49,-28.08 15.58,-7.29 32.24,-10.4 48.88,-9.35 19.75,-1.05 40.55,4.16 58.23,14.56 14.56,9.35 27.03,21.85 37.43,36.39 9.36,14.56 15.59,31.19 19.75,48.88 3.12,16.63 4.17,33.27 4.17,50.95l-195.53 -0.03c0,11.45 1.05,21.85 4.17,32.25 6.23,20.8 20.8,37.43 40.55,45.76 11.45,5.19 23.92,7.28 37.43,7.28 15.59,1.05 31.2,-4.16 44.72,-12.46 12.47,-9.36 20.8,-22.87 22.87,-38.49l42.65 -0.02c-6.24,24.96 -19.76,48.88 -39.51,64.49z"/>
   </g>
   <g>
    <path class="fil2" d="M2431.18 1280.79l0 41.6 0 0c16.63,-31.2 49.9,-48.88 85.27,-47.83 14.56,0 29.13,2.07 42.64,7.28 10.4,4.16 20.8,11.45 28.08,19.75 7.29,8.33 12.47,18.73 14.57,30.15 3.12,12.47 4.17,25.99 4.17,38.48l0 172.63 -42.68 0 0 -176.79c1.05,-14.57 -4.16,-28.08 -14.56,-38.48 -10.4,-9.35 -23.92,-14.57 -38.49,-14.57 -11.44,0 -22.86,2.07 -34.31,6.24 -9.35,4.16 -17.68,9.35 -23.92,17.68 -6.23,7.28 -11.45,15.58 -14.56,24.96 -3.12,10.4 -5.19,21.85 -5.19,32.25l0 148.71 -42.62 0 0 -262.06 41.6 0zm0 0l0 0 0 0z"/>
   </g>
   <g>
    <path class="fil2" d="M2849.21 1357.73c-3.12,-8.33 -9.35,-16.64 -15.59,-23.92 -6.23,-6.23 -14.56,-12.47 -22.86,-15.58 -18.73,-7.29 -40.56,-7.29 -59.29,0 -8.33,4.16 -16.63,9.35 -22.86,15.58 -6.24,7.28 -11.45,14.57 -15.59,23.92 -4.17,9.35 -6.23,18.73 -6.23,29.13l149.7 0c-2.07,-10.4 -4.16,-20.8 -7.28,-29.13l0 0zm10.4 167.44c-21.85,15.59 -47.83,22.87 -73.85,21.85 -18.73,0 -37.43,-3.12 -54.06,-10.4 -14.57,-6.23 -28.09,-15.59 -38.49,-28.08 -10.4,-12.47 -18.73,-28.08 -23.91,-43.67 -5.19,-17.68 -8.33,-36.39 -8.33,-55.12 0,-18.73 3.11,-37.43 9.35,-54.06 5.19,-15.59 14.56,-30.16 24.96,-42.65 10.4,-12.47 23.92,-21.85 38.49,-28.08 15.58,-7.29 32.24,-10.4 48.88,-9.35 19.75,-1.05 40.55,4.16 58.23,14.56 14.56,9.35 28.08,21.85 37.43,36.39 9.36,14.56 15.59,31.19 19.76,48.88 3.11,16.63 5.18,33.27 4.16,50.95l-195.47 -0.03c0,11.45 1.05,21.85 4.16,32.25 3.12,10.4 8.33,18.73 14.57,27.03 7.28,8.33 15.58,14.57 24.96,18.73 11.45,5.19 23.92,7.28 36.39,7.28 15.59,1.05 32.25,-4.16 44.72,-12.46 12.46,-9.36 20.79,-22.87 22.86,-38.49l42.62 -0.02c-4.16,24.96 -17.68,47.86 -37.43,64.49z"/>
   </g>
   <g>
    <path class="fil2" d="M2995.83 1280.79l0 55.12 0 0c8.33,-18.73 21.85,-35.37 38.48,-46.79 17.68,-10.4 37.43,-15.58 58.23,-13.51l0 45.76c-14.56,0 -30.15,2.07 -43.67,7.28 -11.44,4.17 -21.84,11.45 -29.13,20.8 -7.28,9.35 -13.51,20.8 -16.63,33.27 -3.12,14.56 -5.19,29.13 -5.19,44.72l0 117.51 -42.64 -0.03 0 -262.06 40.55 -2.07zm0 0l0 0 0 0z"/>
   </g>
   <g>
    <path class="fil2" d="M3263.1 1498.14c9.36,-5.19 17.69,-13.52 23.92,-22.87 6.23,-10.4 10.4,-20.8 13.52,-32.25 3.11,-11.45 4.16,-23.91 4.16,-36.38 0,-11.45 -1.05,-22.87 -4.16,-33.27 -2.07,-10.4 -7.29,-20.8 -13.52,-30.15 -6.23,-9.35 -13.52,-16.64 -22.87,-21.85 -10.4,-5.19 -21.85,-8.33 -34.31,-8.33 -12.47,0 -24.97,2.07 -35.37,8.33 -9.35,5.19 -17.68,12.47 -23.92,20.8 -6.23,9.35 -11.44,19.75 -13.51,30.15 -3.12,11.45 -4.17,23.92 -4.17,36.39 0,11.44 1.05,23.91 3.12,35.36 2.07,11.45 6.23,21.85 12.47,32.25 5.18,9.35 13.52,17.68 22.87,22.87 10.4,6.23 22.87,9.35 35.36,9.35 12.5,-1.05 24.97,-4.17 36.41,-10.4l0 0zm55.09 117.49c-24.96,22.86 -58.23,34.31 -91.5,32.24 -12.47,0 -24.96,-1.05 -37.43,-4.16 -12.47,-2.07 -23.92,-7.29 -34.32,-13.52 -10.4,-6.23 -18.73,-14.56 -24.96,-23.92 -7.29,-10.4 -10.4,-22.87 -11.45,-36.38l42.65 0c0,7.28 3.11,14.56 7.28,19.75 4.16,5.19 10.4,10.4 16.63,13.52 7.28,3.11 14.57,6.23 21.85,7.28 7.28,1.05 14.56,2.07 21.85,2.07 12.47,0 24.96,-2.07 36.38,-7.28 10.4,-4.17 18.73,-11.45 24.97,-19.76 6.23,-9.35 11.45,-19.75 13.51,-31.2 3.12,-13.51 4.17,-25.98 4.17,-39.5l0 -17.68 0 0c-6.23,15.59 -18.73,28.08 -33.27,35.36 -14.56,7.29 -31.2,11.45 -47.83,11.45 -17.68,0 -34.32,-3.12 -50.95,-10.4 -14.57,-7.28 -27.04,-16.63 -36.39,-29.13 -10.4,-12.47 -17.68,-27.03 -21.85,-41.6 -5.18,-16.63 -7.28,-33.26 -7.28,-50.95 0,-16.63 2.07,-32.24 6.24,-47.83 4.16,-15.59 10.4,-31.2 19.75,-44.72 9.35,-13.51 22.87,-24.96 37.43,-32.24 17.68,-9.36 37.44,-13.52 57.19,-12.47 15.58,0 31.2,3.11 45.76,10.4 13.52,7.28 24.97,18.73 32.25,32.24l0 0 0 -37.43 39.5 -0.03 0 238.15c3.12,34.32 -7.28,68.63 -29.13,95.67l-1.05 2.07zm0 0l0 0 0 0z"/>
   </g>
   <g>
    <path class="fil2" d="M3511.62 1608.34c-4.16,8.33 -9.35,15.59 -16.63,21.85 -5.19,5.19 -12.47,9.35 -19.75,11.45 -8.33,3.12 -16.64,4.16 -24.97,4.16 -5.18,0 -10.4,0 -15.58,0 -5.19,-1.04 -10.4,-2.07 -14.57,-3.11l0 -39.51 12.47 4.17c4.17,1.05 8.33,2.07 12.47,2.07 7.28,0 14.56,-2.07 20.8,-6.24 6.23,-4.16 10.4,-10.4 14.56,-17.68l17.69 -43.67 -104 -259.96 48.88 -0.03 75.91 214.23 0 0 72.8 -214.23 45.77 0 -113.35 295.33c-4.17,11.45 -9.35,21.85 -14.57,32.25l2.07 -1.08zm0 0l0 0 0 0z"/>
   </g>
   <g>
    <path class="fil2" d="M4038.86 1373.34c-3.11,-11.45 -8.33,-21.85 -14.56,-31.2 -6.23,-9.35 -15.59,-16.63 -24.97,-21.85 -11.44,-5.18 -23.91,-8.33 -36.38,-8.33 -12.47,0 -25.99,2.07 -37.43,8.33 -10.4,5.19 -18.73,13.52 -24.97,22.87 -6.23,9.35 -11.45,19.75 -13.52,31.2 -3.11,11.45 -4.16,23.92 -4.16,35.37 0,12.47 1.05,24.96 4.16,37.43 3.12,11.45 7.29,21.85 14.57,31.2 6.23,9.35 15.59,16.63 24.96,21.85 11.45,5.18 24.97,8.33 38.49,8.33 12.46,0 25.98,-2.07 37.43,-8.33 9.35,-5.19 17.68,-13.52 23.92,-22.87 6.23,-10.4 10.4,-20.8 13.51,-32.25 3.12,-12.47 4.17,-24.96 4.17,-37.43 -1.08,-11.45 -3.15,-22.87 -5.22,-34.32l0 0zm-154.94 -192.38l0 135.2 0 0c6.23,-14.57 18.73,-25.99 33.27,-31.2 15.58,-6.24 33.26,-10.4 50.95,-9.35 17.68,0 36.38,3.11 53.04,11.44 14.57,7.29 27.04,17.69 37.44,30.15 10.4,13.52 17.68,28.09 22.86,43.67 5.19,16.64 7.29,34.32 7.29,52 0,17.68 -2.07,35.37 -7.29,52 -4.16,15.59 -12.46,30.15 -21.84,42.65 -10.4,12.47 -22.87,21.84 -37.44,29.13 -16.63,7.28 -34.31,11.44 -52,10.4 -7.28,0 -14.56,-1.05 -21.84,-2.07 -8.33,-1.05 -15.59,-3.12 -22.87,-6.24 -8.33,-3.11 -15.59,-7.28 -21.85,-12.47 -7.28,-5.18 -12.47,-12.47 -17.68,-19.75l0 0 0 36.39 -42.59 -0.06 0 -360.84 40.55 -1.05zm0 0l0 0 0 0z"/>
   </g>
   <g>
    <path class="fil2" d="M4318.58 1357.73c-3.11,-8.33 -9.35,-16.64 -15.58,-23.92 -6.24,-6.23 -14.57,-11.45 -22.87,-15.58 -9.35,-4.17 -19.75,-6.24 -29.13,-6.24 -10.4,0 -20.8,2.07 -30.15,6.24 -8.33,4.16 -16.64,9.35 -22.87,15.58 -6.24,7.28 -11.45,14.57 -15.59,23.92 -4.16,9.35 -6.23,18.73 -6.23,29.13l150.75 0c-2.09,-10.4 -4.16,-20.8 -8.33,-29.13l0 0zm10.4 167.44c-21.85,15.59 -47.83,22.87 -73.84,21.85 -18.73,0 -37.44,-3.12 -54.07,-10.4 -14.57,-6.23 -28.08,-15.59 -38.48,-28.08 -10.4,-12.47 -18.73,-28.08 -23.92,-43.67 -5.19,-17.68 -8.33,-36.39 -9.35,-55.12 0,-18.73 3.12,-37.43 9.35,-54.06 5.19,-15.59 14.56,-30.16 24.96,-42.65 10.4,-12.47 23.92,-21.85 38.49,-28.08 15.58,-6.24 32.24,-10.4 48.88,-9.35 20.8,-1.05 40.55,4.16 58.23,14.56 14.57,9.35 28.08,21.85 37.43,36.39 9.36,14.56 15.59,31.19 19.76,48.88 3.11,16.63 5.18,33.27 4.16,50.95l-195.5 -0.03c0,11.45 1.05,21.85 4.17,32.25 3.11,10.4 8.33,18.73 14.56,27.03 7.28,8.33 15.59,14.57 24.97,18.73 11.44,5.19 23.91,7.28 36.38,7.28 15.59,1.05 32.25,-4.16 44.72,-12.46 12.47,-9.36 20.8,-22.87 22.87,-38.49l42.64 -0.02c-2.09,24.96 -15.61,47.86 -36.41,64.49z"/>
   </g>
   <g>
    <path class="fil2" d="M4533.86 1280.79l0 37.44 -52 0 0 162.23c0,4.16 0,8.33 1.05,12.46 1.05,3.12 2.07,5.19 5.19,7.29 3.11,2.07 6.23,3.11 9.35,3.11 5.18,0 11.44,0 16.63,0l19.78 0 0 39.51 -33.3 0.02c-9.35,0 -18.73,-1.04 -29.13,-2.07 -7.28,-1.04 -13.51,-4.16 -19.75,-8.33 -5.18,-4.16 -9.35,-10.4 -10.4,-16.63 -3.11,-9.35 -4.16,-19.75 -3.11,-29.13l0 -166.4 -43.67 0 0 -37.43 44.71 0 0 -77.98 42.65 0 0 77.98 52 -2.07zm0 0l0 0 0 0z"/>
   </g>
   <g>
    <path class="fil2" d="M4704.39 1280.79l0 37.44 -51.99 0 0 162.23c0,4.16 0,8.33 1.04,12.46 1.05,3.12 2.07,5.19 5.19,7.29 3.12,2.07 6.23,3.11 9.35,3.11 5.19,0 11.45,0 16.64,0l19.77 0 0 39.51 -33.26 0.02c-9.36,0 -18.73,-1.04 -29.13,-2.07 -7.29,-1.04 -13.52,-4.16 -19.76,-8.33 -5.18,-4.16 -8.33,-10.4 -10.4,-16.63 -3.11,-9.35 -4.16,-19.75 -3.11,-29.13l0 -166.4 -44.72 0 0 -37.43 44.72 0 0 -77.98 42.62 0 0 77.98 53.04 -2.07zm0 0l0 0 0 0z"/>
   </g>
   <g>
    <path class="fil2" d="M4931.09 1357.73c-3.12,-8.33 -9.35,-16.64 -15.58,-23.92 -6.24,-6.23 -14.57,-11.45 -22.87,-15.58 -9.35,-4.17 -19.75,-6.24 -29.13,-6.24 -10.4,0 -20.8,2.07 -30.15,6.24 -8.33,4.16 -16.64,9.35 -22.87,15.58 -6.24,7.28 -11.45,14.57 -15.59,23.92 -4.16,9.35 -6.23,18.73 -6.23,29.13l150.73 0c-2.07,-10.4 -4.14,-20.8 -8.31,-29.13l0 0zm10.4 167.44c-21.85,15.59 -47.83,22.87 -73.84,21.85 -18.73,0 -37.44,-3.12 -54.07,-10.4 -14.57,-6.23 -28.08,-15.59 -38.48,-28.08 -10.4,-12.47 -18.73,-27.04 -23.92,-43.67 -5.19,-17.68 -8.33,-36.39 -9.35,-55.12 0,-18.73 3.11,-37.43 9.35,-54.06 5.19,-15.59 14.56,-30.16 24.96,-42.65 22.87,-24.97 55.12,-38.48 88.39,-38.48 19.75,-1.05 40.55,4.16 58.23,14.56 14.57,9.35 28.08,21.85 37.43,36.39 9.36,14.56 15.59,31.2 19.76,48.88 3.11,16.63 5.18,33.27 4.16,50.95l-195.5 0c0,11.45 1.05,21.85 4.17,32.25 3.12,10.4 8.33,18.73 14.56,27.03 7.29,8.33 15.59,14.57 24.97,18.73 11.45,5.19 23.91,7.28 37.43,7.28 15.59,1.05 31.2,-4.16 44.72,-12.47 12.47,-9.35 20.8,-22.86 22.87,-38.48l42.64 -0.02c-5.21,25.98 -18.73,48.88 -38.48,65.51z"/>
   </g>
   <g>
    <path class="fil2" d="M5078.76 1280.79l0 55.12 0 0c8.33,-18.73 21.84,-35.37 38.48,-46.79 17.68,-10.4 37.43,-15.58 57.18,-13.51l0 45.76c-14.56,0 -30.15,2.07 -43.66,7.28 -11.45,4.17 -21.85,11.45 -29.13,20.8 -7.29,9.35 -13.52,20.8 -15.59,33.27 -4.17,14.56 -5.19,29.13 -5.19,44.72l0 117.51 -42.64 -0.03 0 -262.06 40.55 -2.07zm0 0l0 0 0 0z"/>
   </g>
  </g>
 </g>
</svg>
