<?xml version="1.0" encoding="utf-8"?>
<!-- Generator: Adobe Illustrator 19.0.0, SVG Export Plug-In . SVG Version: 6.00 Build 0)  -->
<svg version="1.1" id="layer" xmlns="http://www.w3.org/2000/svg" xmlns:xlink="http://www.w3.org/1999/xlink" x="0px" y="0px"
	 viewBox="-153 -46 652 652" style="enable-background:new -153 -46 652 652;" xml:space="preserve">
<style type="text/css">
	.st0{clip-path:url(#SVGID_2_);fill:url(#SVGID_3_);}
	.st1{clip-path:url(#SVGID_5_);fill:url(#SVGID_6_);}
	.st2{clip-path:url(#SVGID_8_);fill:url(#SVGID_9_);}
	.st3{clip-path:url(#SVGID_11_);fill:url(#SVGID_12_);}
	.st4{clip-path:url(#SVGID_14_);fill:url(#SVGID_15_);}
	.st5{clip-path:url(#SVGID_17_);fill:url(#SVGID_18_);}
	.st6{fill:#007BC2;}
	.st7{fill:#B2B2B2;}
</style>
<g>
	<defs>
		<path id="SVGID_1_" d="M-9.5,202.7c-20.7,13.2-47.1,22.6-68.4,41c-25.7,22.1-28.2,52.3-28.2,52.4c0-0.1,17.3-26.2,28.8-29.1
			l14.2,1.9c0,0,17.7-5.7,29.3-10.6l6-15.9c26.6-10.3,37.9-26.5,43.1-35.8c10-18.1,11.7-30.4,11.7-30.4l-1.4-0.5
			C25.7,175.6,11.2,189.5-9.5,202.7"/>
	</defs>
	<clipPath id="SVGID_2_">
		<use xlink:href="#SVGID_1_"  style="overflow:visible;"/>
	</clipPath>
	
		<linearGradient id="SVGID_3_" gradientUnits="userSpaceOnUse" x1="-136.9639" y1="705.0816" x2="-133.8397" y2="705.0816" gradientTransform="matrix(42.3456 -38.6951 -38.1309 -42.9722 32579.4766 25295.4277)">
		<stop  offset="0" style="stop-color:#C6C6C6"/>
		<stop  offset="0.1913" style="stop-color:#E5E5E5"/>
		<stop  offset="0.3764" style="stop-color:#FFFFFF"/>
		<stop  offset="0.6798" style="stop-color:#FFFFFF"/>
		<stop  offset="1" style="stop-color:#FFFFFF"/>
	</linearGradient>
	<polygon class="st0" points="-165.1,229.5 -32.5,108.4 86.1,242.1 -46.4,363.2 	"/>
</g>
<g>
	<defs>
		<path id="SVGID_4_" d="M-106.6,332.3c4.6,5.3,22.3,26.4,27.2,32.1c4.9,5.6,10.7,10,17.3,13.2c-2.1-2.5-4.3-7.9-3.2-19.8
			c2.8-28.6,23.3-61,28.6-69.1L-64,256.1C-65.3,257.6-129.8,305.6-106.6,332.3"/>
	</defs>
	<clipPath id="SVGID_5_">
		<use xlink:href="#SVGID_4_"  style="overflow:visible;"/>
	</clipPath>
	
		<linearGradient id="SVGID_6_" gradientUnits="userSpaceOnUse" x1="-143.322" y1="699.9606" x2="-140.1977" y2="699.9606" gradientTransform="matrix(19.6905 -17.993 -17.7307 -19.9818 15128.4736 11743.8447)">
		<stop  offset="0" style="stop-color:#FFFFFF"/>
		<stop  offset="0.2013" style="stop-color:#F9F9F9"/>
		<stop  offset="0.4584" style="stop-color:#EAEAEA"/>
		<stop  offset="0.7443" style="stop-color:#D0D0D0"/>
		<stop  offset="1" style="stop-color:#B2B2B2"/>
	</linearGradient>
	<polygon class="st1" points="-189.3,310.5 -78.4,209.1 22.9,323.2 -88.1,424.6 	"/>
</g>
<g>
	<defs>
		<path id="SVGID_7_" d="M-111.6,319.7c0,4.3,1.5,8.6,5,12.6c4.6,5.3,22.3,26.4,27.2,32.1c4.7,5.4,11.1,10.7,19.2,13.9L-111.6,319.7
			L-111.6,319.7z"/>
	</defs>
	<clipPath id="SVGID_8_">
		<use xlink:href="#SVGID_7_"  style="overflow:visible;"/>
	</clipPath>
	
		<linearGradient id="SVGID_9_" gradientUnits="userSpaceOnUse" x1="-301.9976" y1="562.4681" x2="-298.8733" y2="562.4681" gradientTransform="matrix(1.3115 -1.1984 -1.1809 -1.3309 970.5222 739.2874)">
		<stop  offset="0" style="stop-color:#F6F6F6"/>
		<stop  offset="1" style="stop-color:#DADADA"/>
	</linearGradient>
	<polygon class="st2" points="-140.3,346 -83.2,293.8 -31.4,352.1 -88.5,404.3 	"/>
</g>
<g>
	<defs>
		<path id="SVGID_10_" d="M-53.2,251.4l-11.9,95.8l32,36.6l1,0c16.5,0.2,34.9-4.5,52.4-13.8l-28.1-32.3c-6.2,2.8-12.2,4.4-17.4,4.2
			c-3.2-20.2,6.8-51.4,10.8-62.8l-27.9-32.3C-46.1,248.4-49.9,250.1-53.2,251.4"/>
	</defs>
	<clipPath id="SVGID_11_">
		<use xlink:href="#SVGID_10_"  style="overflow:visible;"/>
	</clipPath>
	
		<linearGradient id="SVGID_12_" gradientUnits="userSpaceOnUse" x1="-141.88" y1="706.3013" x2="-138.7558" y2="706.3013" gradientTransform="matrix(12.4192 -38.7926 -38.2269 -12.6029 28718.543 3778.1006)">
		<stop  offset="0" style="stop-color:#FFFFFF"/>
		<stop  offset="0.206" style="stop-color:#FAFAFA"/>
		<stop  offset="0.4534" style="stop-color:#EBEBEB"/>
		<stop  offset="0.7219" style="stop-color:#D3D3D3"/>
		<stop  offset="1" style="stop-color:#B2B2B2"/>
	</linearGradient>
	<polygon class="st3" points="-104.8,371 -56.9,221.4 60.1,259.9 12.2,409.5 	"/>
</g>
<g>
	<defs>
		<path id="SVGID_13_" d="M-59.5,350.8l-5.6-3.6l32,36.6l1,0c0.2,0,0.5,0,0.7,0h0.6c16.2-0.1,34.1-4.8,51.1-13.8l-28.1-32.3
			C-19.1,343.1-37.9,350.5-59.5,350.8"/>
	</defs>
	<clipPath id="SVGID_14_">
		<use xlink:href="#SVGID_13_"  style="overflow:visible;"/>
	</clipPath>
	
		<linearGradient id="SVGID_15_" gradientUnits="userSpaceOnUse" x1="-150.1053" y1="690.36" x2="-146.981" y2="690.36" gradientTransform="matrix(11.7145 -10.7046 -10.5485 -11.8878 9001.0625 6976.627)">
		<stop  offset="0" style="stop-color:#EDEDED"/>
		<stop  offset="0.2444" style="stop-color:#E5E5E5"/>
		<stop  offset="0.6305" style="stop-color:#CECECE"/>
		<stop  offset="1" style="stop-color:#B2B2B2"/>
	</linearGradient>
	<polygon class="st4" points="-87.7,358.4 -17.9,294.6 42.9,363.2 -26.9,427 	"/>
</g>
<g>
	<defs>
		<path id="SVGID_16_" d="M-28.8,305.5c0.2,0.3,26.9,31.3,26.9,31.3c11.4,13.3,28.6,16.5,41.6,13c10.7-2.9,18.5-9.5,21.9-12.8
			c32.4-37.5,40.1-85.3,16.1-112.9c-4.8-5.5-23.1-26.8-28.1-32.6L-28.8,305.5z"/>
	</defs>
	<clipPath id="SVGID_17_">
		<use xlink:href="#SVGID_16_"  style="overflow:visible;"/>
	</clipPath>
	
		<linearGradient id="SVGID_18_" gradientUnits="userSpaceOnUse" x1="-137.7899" y1="702.6194" x2="-134.6656" y2="702.6194" gradientTransform="matrix(31.8964 -29.1468 -28.7218 -32.3684 24559.166 19047.1035)">
		<stop  offset="0" style="stop-color:#FFFFFF"/>
		<stop  offset="9.493279e-002" style="stop-color:#E6E6E6"/>
		<stop  offset="0.2245" style="stop-color:#CCCCCB"/>
		<stop  offset="0.366" style="stop-color:#B7B7B6"/>
		<stop  offset="0.5238" style="stop-color:#A8A8A7"/>
		<stop  offset="0.7106" style="stop-color:#A0A09F"/>
		<stop  offset="1" style="stop-color:#9D9D9C"/>
	</linearGradient>
	<polygon class="st5" points="-108.1,263.9 43.3,125.6 181,280.8 29.6,419.1 	"/>
</g>
<g>
	<path class="st6" d="M16.7,200.1C10,212.6,0.3,227.9-24.2,239c-1.6,0.7-3.2,1.4-4.7,2.1c-4.4,8.7-12.4,28.2-7.6,48.1
		c6.6,27.6,31.5,32.6,48.3,28.1c10.7-2.9,18.5-9.5,21.9-12.8c32.4-37.5,40.1-85.3,16.1-112.9c-6.2-7.1-14-12.3-22.9-15.6
		C26,178.7,22.1,190,16.7,200.1"/>
	<path class="st6" d="M-92.6,325.2c2.8-28.6,23.3-61,28.6-69.1c-2.2,1-4.3,2.1-6.5,3.2c-26.7,14-33.7,33.4-33.7,33.4
		s3.3-15.3,10.6-26.8c1.2-1.9,8.3-17.3,30.7-31.7c21.5-13.8,35.8-17.4,59-33.3c18.5-12.7,27.7-22.7,29.9-25.3
		c-29.6-10.3-70.4,0.3-103.4,29.8c-43.2,38.7-56.3,95.3-29.3,126.3c4.9,5.6,10.7,10,17.3,13.2C-91.5,342.5-93.8,337.1-92.6,325.2"/>
	<path class="st6" d="M-25.5,341.7c-10-0.6-22.9-8.6-27.3-30.4c-4-20.1,6.4-52.7,10.5-64.5c-3.8,1.6-7.3,3-10.6,4.4
		c-4.2,7.6-23.1,43.9-19.8,76.2c1.6,15.2,8.2,21.6,12.7,24.2c16.5,0.2,34.7-4.5,52.2-13.8C-14.2,340.7-20.1,342-25.5,341.7"/>
	<path d="M201,277.2c0,18.7-10.8,40-39.3,40c-29.7,0-38.7-22.4-38.7-39.2c0-21.1,12.9-39.7,39.1-39.7
		C190.8,238.3,201,259.6,201,277.2 M146,277.9c0,12.8,5.1,20.6,16.1,20.6c9.3,0,15.8-7.4,15.8-21.3c0-3.6-0.3-6.8-1.3-9.7
		c-3.5-10.2-12.4-10.6-14.4-10.6C153.8,256.9,146,262.7,146,277.9"/>
	<path d="M216.8,289.3c2.1,3.2,3.8,6,10.1,8c3,1,6.7,1.7,10.2,1.7c1.9,0,10.9-0.2,10.9-5.5c0-0.5,0-3.2-4-4.6
		c-2.6-0.9-16-3.3-18.9-4.1c-6.7-1.8-19.8-6-19.8-21.5c0-3.2,0.7-6.6,2.1-9.5c4.7-10.9,17-15.1,30.1-15.1c8.3,0,16,1.7,21.9,4.7
		c5.5,2.7,8.1,5.6,10.7,8.4l-14.4,12.2c-1.1-1.5-2.4-3.1-5.6-4.8c-4.2-2.1-9.8-2.7-13.5-2.7c-3.9,0-8.2,1-8.2,4.8
		c0,3.6,3.7,4.5,10,5.6c16.2,2.8,32.2,5.8,32.2,24c0,7.7-3.2,13.2-6.5,16.6c-9.2,9.5-23.8,9.5-27.8,9.5c-5.5,0-11.2-0.5-16.9-2.2
		c-11.5-3.3-16.9-9.9-20.2-14L216.8,289.3z"/>
	<rect x="277.3" y="241" width="23.1" height="73.8"/>
	<path class="st7" d="M325.6,293.1c-7.8-1.9-17.4-4.1-17.4-14.3c0-9,7.5-14.6,18.7-14.6c9.3,0,19.1,4.5,20.8,16.1l-8.9,1.2
		c-0.1-3-0.3-5.4-3.5-7.9c-3.2-2.5-6.9-2.9-9.4-2.9c-6.4,0-9.6,3.9-9.6,7.2c0,4.7,5.3,6.2,11.6,7.7l4.6,1.1
		c5.8,1.4,16.2,3.9,16.2,14.2c0,8-7,15.6-20.4,15.6c-5.5,0-11.1-1.1-15-4c-1.5-1.2-6.3-5.1-7.2-13.4l9.3-1.5
		c-0.1,2.2-0.1,6.4,3.6,9.6c2.9,2.5,6.5,2.8,9.8,2.8c7.2,0,11.4-2.8,11.4-8.1c0-5.6-4.2-6.7-10.1-7.8L325.6,293.1z"/>
	<path class="st7" d="M376.4,316.3c-16.8,0-23.9-12.7-23.9-25.7c0-11,5.4-26.5,24.2-26.5c16.1,0,23.5,12.6,23.4,26.1
		C399.9,305.1,391.2,316.3,376.4,316.3 M390.6,283.3c-1.9-9.7-8.1-12.5-13.7-12.5c-11,0-15.4,8.7-15.4,20c0,10.3,4.2,18.9,14.8,18.9
		c13.7,0,14.7-14.4,14.8-19.4C391.2,287,390.9,284.7,390.6,283.3"/>
	<path class="st7" d="M418.1,265.6h9.2v6.9h-9.2v42.3h-7.9v-42.3h-8.1v-6.9h8.1l0.1-10c0.1-4.2,0.3-14,12.6-14c2.4,0,4.4,0.4,6,0.6
		v6.5c-1.5-0.2-3.4-0.4-4.5-0.4c-6.1,0-6.2,4.9-6.2,8.8V265.6z"/>
	<path class="st7" d="M447.6,265.6h8.9v6.9h-8.9v28.2c0,5.8,0,8.4,3.5,8.4c1.6,0,3.7-0.6,5.4-1.1v6.9c-1.4,0.2-4.8,0.8-7.9,0.8
		c-9.5,0-9.5-4.7-9.4-11.2v-32h-7.7v-6.9h7.7V250h8.4V265.6z"/>
	<path d="M462.3,306.4c0-4.9,3.9-8.4,8.5-8.4c4.6,0,8.4,3.6,8.4,8.4c0,4.9-3.9,8.5-8.4,8.5C466.2,314.8,462.3,311.3,462.3,306.4
		 M470.8,313.4c3.8,0,6.8-3,6.8-7.1c0-4-3-7-6.8-7c-3.8,0-6.8,3-6.8,7C464,310.4,467,313.4,470.8,313.4 M469,311.3h-1.5v-9.8h3.7
		c2.3,0,3.4,0.9,3.4,2.8c0,1.7-1.1,2.5-2.5,2.7l2.7,4.3h-1.6l-2.5-4.2H469V311.3z M470.8,305.8c1.2,0,2.3-0.1,2.3-1.6
		c0-1.2-1.1-1.4-2.1-1.4h-2v3H470.8z"/>
</g>
</svg>
