<?xml version="1.0" encoding="UTF-8"?>
<!DOCTYPE svg PUBLIC "-//W3C//DTD SVG 1.1//EN" "http://www.w3.org/Graphics/SVG/1.1/DTD/svg11.dtd">
<!-- Creator: CorelDRAW 2020 (64-Bit) -->
<svg xmlns="http://www.w3.org/2000/svg" xml:space="preserve" width="30.153mm" height="14.036mm" version="1.1" style="shape-rendering:geometricPrecision; text-rendering:geometricPrecision; image-rendering:optimizeQuality; fill-rule:evenodd; clip-rule:evenodd"
viewBox="0 0 3015.3 1403.6"
 xmlns:xlink="http://www.w3.org/1999/xlink"
 xmlns:xodm="http://www.corel.com/coreldraw/odm/2003">
 <defs>
  <style type="text/css">
   <![CDATA[
    .fil0 {fill:#E11937;fill-rule:nonzero}
   ]]>
  </style>
 </defs>
 <g id="Layer_x0020_1">
  <metadata id="CorelCorpID_0Corel-Layer"/>
  <path class="fil0" d="M745.15 275.6c-274.39,0 -442.74,214.59 -442.74,430.68 0,260.32 212.58,430.68 444.75,430.68 154.28,0 300.52,-68.35 424.65,-178.4l0 322.63c-130.16,78.4 -308.56,126.14 -446.76,126.14 -397.01,0 -729.7,-322.63 -729.7,-701.55 0,-401.03 334.7,-701.55 731.71,-701.55 152.27,0 330.68,46.23 446.76,104.03l0 316.6c-146.24,-95.49 -294.49,-149.26 -428.67,-149.26zm1270.43 1132.23c-399.02,0 -735.73,-310.57 -735.73,-701.55 0,-395 334.7,-701.55 753.82,-701.55 152.27,0 340.73,40.2 456.81,93.98l0 314.59c-132.17,-76.39 -302.53,-138.2 -450.78,-138.2 -274.39,0 -452.79,214.59 -452.79,430.68 0,254.29 210.57,438.72 456.81,438.72 52.26,0 102.02,-4.02 166.34,-28.14l0 -252.28 -224.63 0 0 -266.35 513.1 0 0 709.59c-146.24,66.34 -310.57,100.51 -482.95,100.51zm706.58 -28.14l0 -1346.82 288.47 0 0 1346.82 -288.47 0 0 0z"/>
 </g>
</svg>
