<?xml version="1.0" encoding="UTF-8"?>
<!DOCTYPE svg PUBLIC "-//W3C//DTD SVG 1.1//EN" "http://www.w3.org/Graphics/SVG/1.1/DTD/svg11.dtd">
<!-- Creator: CorelDRAW 2020 (64-Bit) -->
<svg xmlns="http://www.w3.org/2000/svg" xml:space="preserve" width="67.7332mm" height="45.5006mm" version="1.1" style="shape-rendering:geometricPrecision; text-rendering:geometricPrecision; image-rendering:optimizeQuality; fill-rule:evenodd; clip-rule:evenodd"
viewBox="0 0 6773.32 4550.06"
 xmlns:xlink="http://www.w3.org/1999/xlink"
 xmlns:xodm="http://www.corel.com/coreldraw/odm/2003">
 <defs>
  <style type="text/css">
   <![CDATA[
    .fil0 {fill:#419D7B}
    .fil1 {fill:#6D6E70}
   ]]>
  </style>
 </defs>
 <g id="Layer_x0020_1">
  <metadata id="CorelCorpID_0Corel-Layer"/>
  <g id="_1926422020384">
   <path class="fil0" d="M3543.07 448.53c0,-31.21 8.94,-66.86 8.94,-98.12 0,-8.9 -8.94,-26.75 -8.94,-40.16 4.43,-26.74 13.41,-53.53 13.41,-80.28 0,-17.84 22.28,-31.21 22.28,-49.06 8.94,-22.31 8.94,-40.16 31.25,-53.53l0 -17.84c4.44,-4.47 8.87,-8.91 13.42,-13.38 8.86,0 22.27,4.47 22.27,0 11.69,-19.5 17.87,-41.82 17.87,-64.56 0,-0.77 -0.02,-1.6 -0.02,-2.35 0,-8.9 4.43,-17.84 13.41,-26.74l8.86 0c13.41,17.85 13.41,44.59 13.41,66.91 0,8.9 8.87,22.31 17.85,8.9 13.41,-13.37 13.41,-40.16 17.84,-62.44 17.85,13.38 26.71,35.69 40.12,49.07 13.41,17.84 17.85,-31.22 26.79,-13.38 13.41,22.32 13.41,62.44 -8.94,93.69 4.43,0 13.41,4.43 13.41,8.91 4.43,26.74 0,53.53 8.94,75.8 8.86,22.32 -4.51,53.54 -4.51,75.81 4.51,44.59 0,93.65 13.41,138.28 0,8.9 4.43,22.28 8.87,35.69 4.51,13.37 -13.34,17.84 -13.34,26.75l13.34 4.47 0 120.43c4.51,8.91 13.41,17.85 13.41,26.75 8.94,129.34 8.94,258.72 31.25,388.06 17.85,89.22 26.79,178.4 57.97,267.62 0,4.47 -8.87,8.9 -8.87,13.37 13.42,22.32 8.87,49.06 17.85,71.38 4.43,22.27 13.41,40.15 22.27,62.43l0 26.75c-129.3,-8.9 -225.22,127.1 -336.76,176.16 4.51,-44.59 -28.98,-158.32 -37.84,-198.48 -8.94,-31.21 0,-66.9 -17.85,-98.12 0,-4.43 8.87,-8.9 8.87,-13.37 -44.55,-205.15 -22.28,-396.96 -49.06,-602.15 0,-4.47 4.51,-8.9 8.94,-13.41 -4.43,0 -8.94,-4.43 -8.94,-4.43 -8.87,-80.28 -13.34,-156.13 4.51,-236.41 4.31,-13.29 4.31,-31.18 4.31,-49.02l0 0zm597.64 1703.85c1.27,4.28 0,13.37 0,17.84 13.41,17.81 13.41,35.65 13.41,53.54 0,8.9 13.41,8.9 13.41,17.84 -22.35,0 -40.2,-17.84 -58.04,-17.84 -4.43,0 -4.43,8.9 -8.87,13.37 4.44,0 4.44,4.47 8.87,4.47l-17.84 0c8.94,-22.32 -22.28,-8.9 -13.34,-40.16 4.43,-13.37 -13.41,0 -22.35,-4.43 -4.43,-8.94 13.41,-8.94 13.41,-13.41 -22.28,-62.44 -42.39,-142.72 -15.57,-200.72 4.43,-4.47 42.39,-40.16 46.83,-35.69 4.43,8.91 -4.44,66.91 0,75.85 17.8,40.12 26.7,84.75 40.08,129.34l0 0zm196.24 842.98c8.29,31.37 37.93,107.03 37.93,138.28 -13.42,-4.43 -53.54,49.06 -66.91,49.06 -62.39,13.34 -200.68,-64.67 -254.21,-87.02 -66.9,-26.71 -33.49,-129.3 -15.64,-205.11 -35.69,-31.26 -71.38,-28.98 -115.93,-24.55 -4.51,0 -8.94,8.87 -8.94,17.84 -4.43,-4.43 -8.87,4.44 -8.87,-4.43 8.87,0 13.34,-4.51 17.85,-13.41 -22.36,-4.43 -49.06,0 -71.38,-13.41 -13.41,-8.87 -13.41,-31.26 -13.41,-49.06 -4.51,-8.87 -13.41,-17.85 -13.41,-26.71 0,-26.79 -8.87,-66.91 -35.69,-80.32 8.86,-8.86 26.79,-4.43 26.79,-22.27 0,0 -8.95,-4.44 -13.42,-4.44l13.41 0 0 17.85c31.18,22.27 75.81,0 107.03,35.69 13.33,-17.85 26.71,-33.49 40.12,-28.99 4.43,0 13.41,24.48 8.86,11.14l31.26 0c-8.87,0 9.09,-15.22 11.14,-33.49 4.51,-40.12 6.7,11.14 24.55,20.08 8.94,4.43 4.43,35.69 13.41,35.69 49.06,8.86 93.65,0 138.28,8.86 26.71,4.51 57.96,0 84.75,4.51 26.74,84.67 40.16,169.46 62.43,254.21zm147.22 771.61c-33.64,50.52 -75.88,80.31 -116,120.43l0 13.41c-26.79,13.42 -57.96,26.71 -89.18,31.26 -8.94,0 -17.85,-13.41 -26.71,-8.94 -35.77,0 -58.04,-17.84 -93.73,-13.41 -17.84,4.51 -8.86,-17.85 -22.28,-26.71 -75.8,-26.79 -142.71,-75.89 -218.59,-107.03 -40.12,-17.84 -84.75,-17.84 -129.3,-35.68 -17.85,-4.51 -40.12,-22.36 -57.97,-26.79 -66.9,-17.84 -133.85,-13.41 -200.75,-22.28 -35.69,-4.43 -66.91,-4.43 -102.6,-13.41 -8.86,0 -22.27,-8.86 -31.21,-8.86 -13.38,0 -31.22,8.86 -44.59,8.86 -147.19,-13.41 -294.37,-22.27 -441.59,-13.41 -62.44,0 -124.87,0 -187.31,8.94 -31.25,0 -62.47,4.43 -93.69,13.41 -26.74,4.44 -53.53,-8.94 -75.8,-4.51 -17.85,4.51 -40.16,8.95 -57.97,13.42 -35.69,4.43 -71.37,-8.87 -111.53,0 -142.72,22.27 -276.53,26.78 -419.24,44.63 -17.84,4.43 -40.16,8.86 -58,17.84 -17.84,4.43 -35.69,0 -53.53,0 -13.38,4.43 -26.75,13.33 -40.16,17.84 -22.32,13.34 -53.53,8.87 -80.28,13.34 -13.37,0 -26.75,4.51 -40.16,4.51 -173.93,22.27 -338.96,57.96 -495.08,129.3 -17.84,8.94 -35.69,0 -49.06,4.43 -111.54,58.04 -236.4,58.04 -352.37,111.57 -53.53,26.71 -115.97,57.97 -133.81,120.44 -44.63,-4.51 -71.38,35.69 -107.07,53.53 -8.9,4.43 -17.84,0 -26.74,4.43 -31.22,22.28 -53.53,44.56 -80.28,66.91 -8.94,4.43 -17.84,0 -26.79,4.43 -102.55,71.38 -160.55,173.97 -267.62,236.36 0,0 -8.9,13.42 -13.37,17.85 -22.32,0 -44.59,17.84 -62.44,4.51 -4.43,-4.51 0,-26.79 -8.9,-22.36 -22.31,0 -57.96,13.42 -66.9,-4.43 -8.91,-22.27 22.31,-49.06 35.68,-75.8 4.44,-13.42 -13.41,-22.28 -8.94,-35.69 8.94,-13.41 13.38,-31.26 17.85,-44.63 8.9,-17.85 4.47,-40.12 4.47,-62.4 0,-13.41 -17.85,-8.94 -26.75,-17.84 -4.47,-4.43 -4.47,-17.84 0,-26.79 22.32,-31.25 22.32,-71.37 53.53,-93.65 17.85,-8.94 35.69,-13.41 53.54,-26.78 -22.28,-13.34 -4.44,-31.18 4.47,-44.56 13.37,-22.35 35.65,-40.19 53.53,-62.47 84.75,-98.08 169.46,-196.24 280.99,-263.15 13.38,-8.86 35.69,-8.86 49.06,-26.71 22.32,-49.06 71.38,-66.9 107.07,-107.1 8.9,-13.33 8.9,-31.18 17.84,-35.69 22.28,-17.76 35.65,-48.98 62.44,-53.53 13.37,0 35.68,0 35.68,-13.33 13.38,-35.69 49.06,-35.69 71.38,-58.04 4.47,-4.44 -4.47,-13.34 -4.47,-17.85 8.9,-8.86 26.78,-13.33 40.16,-4.43 0,-17.84 13.37,-17.84 22.31,-13.41 17.84,13.41 53.53,2.27 75.81,11.14 26.78,4.5 26.78,29.05 49.06,37.92 13.37,4.51 31.22,22.28 53.53,13.41 4.47,0 8.9,8.87 13.38,8.87l26.78 0c26.75,8.94 53.49,17.84 80.28,17.84 4.43,0 8.9,4.51 13.37,8.94 0,-4.43 4.47,-8.94 4.47,-8.94 49.07,0 102.6,13.41 151.66,8.94 22.31,0 49.06,-4.43 62.43,4.43 17.85,13.41 31.26,0 49.07,4.43 4.47,0 8.9,8.95 13.37,8.95 58,-13.42 115.97,-13.42 169.5,4.43 4.47,0 8.9,-4.43 13.37,-4.43 4.47,4.43 8.9,8.86 13.37,8.86 75.81,0 151.66,8.94 231.98,-4.43 4.47,0 13.37,-4.43 13.37,-13.41l374.68 0c4.47,0 8.9,8.94 13.37,8.94 66.91,0 133.82,8.86 205.19,-4.43 31.22,-4.51 66.91,0 98.12,-4.51 4.47,0 8.91,-8.87 13.38,-8.87 44.59,-4.43 102.59,13.41 138.28,-35.68 4.43,-4.44 22.31,4.43 35.69,0 17.84,-13.42 31.21,-17.85 53.53,-17.85 8.94,0 13.41,-13.41 13.41,-13.41 53.53,-26.71 102.55,-57.96 151.65,-93.65 -4.47,-31.26 35.69,-40.2 44.59,-66.91l0 -13.41c8.91,0 13.38,-4.43 17.85,-8.86 4.47,-22.36 17.84,-31.26 26.74,-49.06l0 -31.26c8.91,0 13.42,4.43 26.75,8.94 44.59,17.85 89.18,40.12 133.81,22.28 17.85,-4.43 40.16,-17.85 49.06,-4.43 17.85,13.33 31.22,26.7 53.53,22.27 13.38,-4.43 26.75,-8.94 40.16,-8.94 4.47,0 8.94,-8.86 13.38,-8.86 35.65,4.43 66.9,22.27 102.59,22.27 4.43,0 8.94,13.42 13.41,17.85l13.41 0c-26.78,8.94 4.43,26.78 8.87,44.62 4.51,-4.43 8.94,-4.43 13.41,-8.94 0,0 -4.43,-4.43 -4.43,-8.86 17.84,8.86 13.33,31.18 26.71,44.55 -4.44,0 -17.85,-4.43 -17.85,4.43 0,8.94 8.94,13.41 17.85,13.41 0,8.95 -8.87,13.42 -8.87,17.85 4.43,17.84 17.85,4.51 26.71,4.51 0,4.43 -4.43,4.43 -4.43,8.86 26.78,8.94 44.63,31.26 66.9,44.63 4.43,-17.84 17.85,-17.84 26.71,-13.41 17.84,8.86 8.94,22.28 13.41,35.69 4.43,26.78 53.54,13.41 71.38,44.55 4.43,-4.43 8.94,-8.87 26.78,-4.43 4.44,0 4.44,-13.34 13.42,-13.34 -4.51,4.43 -17.92,8.87 0,26.71 4.43,0 8.86,-8.94 13.33,-8.94 26.79,13.41 53.53,20.08 89.18,15.65l28.98 0c71.46,-8.94 109.3,33.41 180.68,28.98 4.43,-4.43 8.94,-13.41 17.84,-17.84 4.51,0 8.94,8.86 13.41,8.86l209.62 0c4.43,0 13.41,8.94 17.84,8.94 13.42,-8.94 31.26,-8.94 49.07,-4.43 22.27,8.86 53.53,0 75.8,8.86 4.43,0 -8.86,13.41 -4.43,17.85 13.41,35.68 4.43,71.37 8.87,107.02 0,8.94 -8.87,13.41 -13.34,22.35l0 17.85c-13.56,13.45 -9.13,31.37 -18.04,44.67z"/>
   <path class="fil1" d="M632.12 2200.28c0,-603.07 304.66,-745.28 816.7,-745.28l911.42 0c512.04,0 816.7,142.21 816.7,745.28l0 614.48c0,603 -304.66,745.29 -816.7,745.29l-911.39 0c-512.04,0 -816.69,-142.26 -816.69,-745.29l0 -614.48 -0.04 0zm583.76 418.2c0,298.68 56.31,412.49 325.12,412.49l727.13 0c268.82,0 325.17,-113.81 325.17,-412.49l0 -221.91c0,-256.02 -56.31,-412.49 -355.88,-412.49l-665.7 0c-299.53,0 -355.84,156.47 -355.84,412.49l0 221.91zm2270.5 244.61l568.31 0c2.54,219.06 81.97,236.14 245.76,236.14l696.42 0c120.28,0 243.22,-14.23 243.22,-173.59 0,-179.13 -66.55,-190.58 -798.81,-190.58 -855.12,0 -952.43,-113.73 -952.43,-620.1 0,-372.65 30.79,-659.96 747.59,-659.96l793.69 0c655.41,0 716.84,247.46 716.84,608.74l0 65.44 -568.31 0c0,-150.77 -15.34,-213.36 -276.56,-213.36l-629.82 0c-127.95,0 -215.05,48.37 -215.05,159.33 0,179.21 69.18,184.87 678.49,182.06 883.26,-2.85 1088.06,56.88 1088.06,657.1 0,554.78 -169,645.77 -924.26,645.77l-688.67 0c-517.13,0 -724.51,-108.1 -724.51,-554.7l0 -142.29 0.04 0zm2718.56 -1385.39l568.38 0 0 2059.61 -568.38 0 0 -2059.61z"/>
   <path class="fil0" d="M3021.2 1188.96l4.47 -4.47c8.91,13.37 -8.9,17.84 -13.37,31.22 0,8.9 -17.84,17.84 -26.75,26.74 4.4,-22.27 13.34,-40.12 35.65,-53.49z"/>
   <path class="fil0" d="M2793.74 1371.83l0 -4.47c8.9,0 8.9,8.9 13.37,13.41 22.32,-26.78 35.69,-53.53 66.91,-75.84l0 -17.85c8.9,-8.9 22.31,-26.74 35.69,-17.84 8.94,4.47 -13.38,26.75 4.47,26.75 8.94,0 17.84,-13.38 26.78,-22.32 8.91,-4.47 22.28,0 31.22,-8.9 4.47,-8.9 17.81,13.37 35.69,8.9 26.74,-13.37 22.31,-49.06 44.59,-62.47 13.41,-4.43 31.25,-4.43 44.63,4.47 4.47,4.47 -4.47,22.31 8.94,31.22 8.9,4.47 22.28,0 31.22,8.94 -17.85,4.47 -17.85,26.74 -4.47,26.74 26.74,0 22.31,-49.06 53.53,-49.06 -26.79,75.81 -75.85,138.28 -124.91,209.62 -31.22,40.16 -535.24,740.39 -539.67,735.96 -84.75,102.55 -160.6,205.14 -254.25,303.31 -182.87,182.83 -339,374.64 -512.93,553.04 4.47,4.51 8.9,8.94 17.85,8.94 -93.66,0 -187.35,8.94 -285.47,-4.43 -17.84,-4.51 -35.69,-4.51 -53.53,-4.51 -13.37,-4.43 -31.26,4.51 -44.63,0 -31.22,-13.33 -66.9,-8.86 -98.12,-22.28 -4.47,-4.43 0,-17.84 4.47,-22.27 57.96,-62.47 124.91,-111.5 191.81,-169.5 13.38,-17.84 35.69,-26.71 44.59,-40.12 13.38,-22.28 31.22,-31.26 44.59,-49.06 8.9,-8.87 31.22,-8.87 35.69,-22.28 8.9,-22.27 31.22,-26.78 44.59,-40.12 4.47,-4.51 0,-17.84 0,-22.35 13.37,-17.84 35.69,-22.28 53.53,-35.69l0 -17.84c160.56,-178.4 325.59,-338.96 486.18,-517.36 22.28,-26.75 526.3,-593.2 539.67,-615.52 17.81,-31.25 53.46,-49.06 57.97,-89.22l0 0z"/>
  </g>
 </g>
</svg>
