<?xml version="1.0" encoding="UTF-8"?>
<!DOCTYPE svg PUBLIC "-//W3C//DTD SVG 1.1//EN" "http://www.w3.org/Graphics/SVG/1.1/DTD/svg11.dtd">
<!-- Creator: CorelDRAW 2020 (64-Bit) -->
<svg xmlns="http://www.w3.org/2000/svg" xml:space="preserve" width="179.693mm" height="62.698mm" version="1.1" style="shape-rendering:geometricPrecision; text-rendering:geometricPrecision; image-rendering:optimizeQuality; fill-rule:evenodd; clip-rule:evenodd"
viewBox="0 0 17955.07 6264.83"
 xmlns:xlink="http://www.w3.org/1999/xlink"
 xmlns:xodm="http://www.corel.com/coreldraw/odm/2003">
 <defs>
  <style type="text/css">
   <![CDATA[
    .fil1 {fill:#00B5E7;fill-rule:nonzero}
    .fil0 {fill:#92C93F;fill-rule:nonzero}
   ]]>
  </style>
 </defs>
 <g id="Layer_x0020_1">
  <metadata id="CorelCorpID_0Corel-Layer"/>
  <g id="_1926421891904">
   <g id="_2547696500608">
    <path class="fil0" d="M-0 1288.61l0 0c0,711.68 576.92,1288.6 1288.6,1288.6l2836.06 0c301.65,0 546.16,244.53 546.16,546.16 0,301.65 -244.51,546.18 -546.16,546.18l-3373.67 0c-414.75,0 -750.98,336.2 -750.98,750.96l0 22.75 4090.52 0c708.53,0 1282.91,-574.38 1282.91,-1282.91 0,-708.53 -574.38,-1282.91 -1282.91,-1282.91l-2816.17 0c-311.05,0 -563.2,-252.15 -563.2,-563.21 0,-311.06 252.15,-563.23 563.2,-563.23l3348.11 0c414.74,0 750.96,-336.23 750.96,-750.98l-4084.84 0c-711.68,0 -1288.6,576.94 -1288.6,1288.61z"/>
    <path class="fil0" d="M17209.01 0c-43.54,0 -83.76,23.17 -105.59,60.83 -260.03,448.48 -1870.62,3225.63 -1881.06,3225.63 -11.38,0 -1467.81,-3011.47 -1467.81,-3011.47l-1441.27 3011.47 -1910.27 -3226.56c-21.95,-37.14 -61.89,-59.9 -105.02,-59.9l-4015.24 0c-266.02,0 -481.7,215.67 -481.7,481.68l0 3479.91c0,266.04 215.68,481.68 481.7,481.68l4930.63 0 -432.31 -687.61c-33.66,-53.6 -92.55,-86.12 -155.85,-86.12l-4080.76 0 0 -1071.46 3603.13 0 -381.74 -645.63c-33.74,-57.06 -95.09,-92.06 -161.39,-92.06l-3060 0 0 -1109.4 3457.12 0 2128.85 3684.35c2.83,4.93 8.06,7.93 13.74,7.93 235.76,0 450.93,-134.35 554.45,-346.16l1052.12 -2153.29 1059.33 2154.64c103.8,211.09 318.55,344.81 553.8,344.81l19.97 0c5.69,0 10.94,-3.04 13.77,-7.96l2557.45 -4435.3 -746.06 0z"/>
    <path class="fil1" d="M581.59 5574.4l-4.69 -1.56c-95.38,-31.11 -161.19,-56.48 -197.49,-76.2 -31.08,-17.63 -46.65,-43 -46.65,-76.17 0,-62.23 44.57,-93.33 133.76,-93.33 89.13,0 179.32,34.2 270.58,102.63l125.93 -167.95c-117.15,-103.68 -251.4,-155.51 -402.75,-155.51 -120.26,0 -218.75,29.06 -295.45,87.08 -76.73,58.08 -115.09,143.62 -115.09,256.59 0,87.11 25.14,156.29 75.44,207.6 50.25,51.32 133.44,93.57 249.58,126.74 89.13,24.91 147.19,47.2 174.14,66.87 29.03,19.69 43.57,46.13 43.57,79.31 0,33.19 -11.95,59.35 -35.76,78.56 -23.87,19.17 -57.04,28.74 -99.55,28.74 -96.41,0 -203.2,-45.61 -320.32,-136.84l-133.73 167.95c122.31,130.63 274.7,195.93 457.17,195.93 127.51,0 229.1,-32.13 304.81,-96.41 75.65,-63.24 113.52,-152.39 113.52,-267.47 0,-86.05 -22.84,-153.4 -68.45,-202.16 -43.53,-46.64 -119.74,-88.12 -228.57,-124.39z"/>
    <polygon class="fil1" points="1898.69,5124.98 1654.56,5863.63 1419.76,5124.98 1133.62,5124.98 1026.32,6244.61 1287.57,6244.61 1348.21,5596.16 1547.25,6244.61 1764.96,6244.61 1962.45,5597.72 2021.55,6244.61 2279.68,6244.61 2172.42,5124.98 "/>
    <path class="fil1" d="M2811.5 5807.65l105.72 -368.55 107.32 368.55 -213.04 0zm-31.1 -682.67l-398.12 1119.63 295.49 0 62.18 -205.27 357.66 0 62.2 205.27 295.49 0 -399.64 -1119.63 -275.24 0z"/>
    <path class="fil1" d="M4008.86 5650.6l-139.96 0 0 -289.24 147.74 0c107.8,0 161.72,46.65 161.72,139.93 0,99.55 -56.53,149.31 -169.51,149.31zm449.41 -161.73c0,-112.99 -37.32,-201.89 -111.97,-266.69 -74.64,-64.76 -179.87,-97.18 -315.67,-97.18l-436.97 0 0 1119.63 275.24 0 0 -376.35 76.21 0c34.21,0 63.21,-2.04 87.07,-6.22l188.17 382.57 298.56 0 -231.7 -446.33c114.03,-65.29 171.05,-168.44 171.05,-309.43z"/>
    <polygon class="fil1" points="4557.78,5367.58 4881.24,5367.58 4881.24,6244.62 5156.51,6244.62 5156.51,5367.58 5479.92,5367.58 5479.92,5124.99 4557.78,5124.99 "/>
    <polygon class="fil1" points="6265.2,5790.53 6719.3,5790.53 6719.3,5563.49 6265.2,5563.49 6265.2,5367.59 6765.92,5367.59 6765.92,5124.97 5989.98,5124.97 5989.98,6244.63 6772.17,6244.63 6772.17,6003.6 6265.2,6003.6 "/>
    <polygon class="fil1" points="7628.98,5782.76 7195.12,5124.98 6955.67,5124.98 6955.67,6244.61 7226.22,6244.61 7226.22,5600.83 7663.19,6244.61 7901.11,6244.61 7901.11,5124.98 7628.98,5124.98 "/>
    <polygon class="fil1" points="8394.04,5790.53 8848.15,5790.53 8848.15,5563.49 8394.04,5563.49 8394.04,5367.59 8894.77,5367.59 8894.77,5124.97 8118.83,5124.97 8118.83,6244.63 8901.02,6244.63 8901.02,6003.6 8394.04,6003.6 "/>
    <path class="fil1" d="M9499.67 5650.6l-139.95 0 0 -289.24 147.72 0c107.82,0 161.72,46.65 161.72,139.93 0,99.55 -56.53,149.31 -169.5,149.31zm449.4 -161.73c0,-112.99 -37.32,-201.89 -111.96,-266.69 -74.64,-64.76 -179.86,-97.18 -315.67,-97.18l-436.95 0 0 1119.63 275.23 0 0 -376.35 76.19 0c34.21,0 63.22,-2.04 87.09,-6.22l188.15 382.57 298.57 0 -231.71 -446.33c114.04,-65.29 171.05,-168.44 171.05,-309.43z"/>
    <path class="fil1" d="M10634.85 5353.59c100.56,0 156.55,47.68 167.95,143.06l284.57 0c-23.85,-260.23 -176.24,-390.31 -457.19,-390.31 -174.13,0 -305.05,52.87 -392.65,158.61 -87.6,105.71 -131.38,247.22 -131.38,424.52 0,79.83 9.05,152.92 27.19,219.27 18.15,66.32 46.65,126.99 85.53,181.91 38.88,55 93.32,97.73 163.28,128.32 69.97,30.56 153.17,45.85 249.57,45.85 193.85,0 345.75,-58.03 455.64,-174.17l0 -463.37 -426.05 0 0 206.83 160.14 0 0 143.06c-42.52,30.1 -97.46,45.09 -164.84,45.09 -174.17,0 -261.22,-112.48 -261.22,-337.47 0,-105.74 20.7,-187.35 62.18,-244.89 41.46,-57.56 100.56,-86.3 177.27,-86.3z"/>
    <polygon class="fil1" points="11644.09,5544.85 11429.49,5124.99 11129.37,5124.99 11504.13,5815.4 11504.13,6244.62 11779.37,6244.62 11779.37,5815.4 12169.66,5124.99 11861.77,5124.99 "/>
    <polygon class="fil1" points="13727.81,5124.98 13570.72,5886.96 13415.21,5124.98 13169.55,5124.98 13018.71,5885.4 12855.43,5124.98 12573.94,5124.98 12849.2,6244.61 13143.09,6244.61 13292.37,5554.17 13449.46,6244.61 13734,6244.61 14010.82,5124.98 "/>
    <path class="fil1" d="M14415.12 5807.65l105.73 -368.55 107.31 368.55 -213.04 0zm-31.11 -682.67l-398.11 1119.63 295.49 0 62.18 -205.27 357.66 0 62.21 205.27 295.48 0 -399.65 -1119.63 -275.24 0z"/>
    <polygon class="fil1" points="16329.34,5790.53 16783.44,5790.53 16783.44,5563.49 16329.34,5563.49 16329.34,5367.59 16830.06,5367.59 16830.06,5124.97 16054.12,5124.97 16054.12,6244.63 16836.31,6244.63 16836.31,6003.6 16329.34,6003.6 "/>
    <polygon class="fil1" points="14979.56,5367.58 15303.01,5367.58 15303.01,6244.62 15578.28,6244.62 15578.28,5367.58 15901.7,5367.58 15901.7,5124.99 14979.56,5124.99 "/>
    <path class="fil1" d="M17434.98 5650.6l-139.95 0 0 -289.24 147.72 0c107.81,0 161.72,46.65 161.72,139.93 0,99.55 -56.53,149.31 -169.5,149.31zm278.35 147.7c114.04,-65.29 171.05,-168.44 171.05,-309.43 0,-112.99 -37.32,-201.89 -111.96,-266.69 -74.64,-64.76 -179.87,-97.18 -315.67,-97.18l-436.96 0 0 1119.63 275.24 0 0 -376.35 76.19 0c34.21,0 63.21,-2.04 87.09,-6.22l188.15 382.57 298.57 0 -231.71 -446.33z"/>
    <path class="fil0" d="M15970.17 4417.95c21.56,14.3 62.33,25.32 99.42,25.32 91.91,0 130.42,-50.31 130.42,-101.65 0,-55.42 -33.59,-82.65 -98.61,-103.7 -53.24,-17.05 -75.56,-33.79 -75.56,-65.52 0,-23.71 18.8,-53.01 71.38,-53.01 35.95,0 62.23,11.44 74.12,18.18l13.59 -37.94c-17.56,-9.59 -46.42,-18.25 -86.52,-18.25 -72.23,0 -120.17,40.85 -120.17,95.76 0,50.14 34.36,79.28 101.23,99.86 53.76,16.64 72.72,35.55 72.72,68.01 0,35.37 -28.92,59.5 -78.24,59.5 -35.56,0 -67.83,-11.15 -90.79,-25.45l-12.99 38.88zm640.37 19.07l46.72 0 -22.23 -349.42 -62.05 0 -69.89 172.27c-17.06,42.72 -30.72,82.96 -40.7,116.87l-1.34 0c-9.59,-35.35 -22.29,-75.25 -37.59,-116.92l-65.72 -172.22 -62.41 0 -25.5 349.42 45.17 0 10.23 -150.79c3.74,-53.34 6.04,-114.61 7.72,-158.95l1.04 0c10.78,41.71 25.47,87.08 43.8,138.06l62.29 169.51 36.98 0 67.93 -171.44c19.64,-50.23 35.84,-95.04 49.4,-136.12l1.19 0c0,44.34 3.42,105.98 6.25,155.33l8.71 154.42z"/>
   </g>
  </g>
 </g>
</svg>
